<svg width="368" height="177" viewBox="0 0 368 177" fill="none" xmlns="http://www.w3.org/2000/svg">
<g filter="url(#filter0_d_1_684)">
<rect x="13" y="10.5" width="342" height="150" rx="6" fill="white" fill-opacity="0.01" shape-rendering="crispEdges"/>
<rect x="13.5" y="11" width="341" height="149" rx="5.5" stroke="url(#paint0_linear_1_684)" shape-rendering="crispEdges"/>
<path d="M44.233 36.5V26.3182H45.4659V30.8523H50.8949V26.3182H52.1278V36.5H50.8949V31.946H45.4659V36.5H44.233ZM57.6388 36.6591C56.9031 36.6591 56.2683 36.4967 55.7347 36.1719C55.2044 35.8438 54.7951 35.3864 54.5067 34.7997C54.2217 34.2098 54.0792 33.5237 54.0792 32.7415C54.0792 31.9593 54.2217 31.2699 54.5067 30.6733C54.7951 30.0734 55.1961 29.6061 55.7099 29.2713C56.2269 28.9332 56.8301 28.7642 57.5195 28.7642C57.9173 28.7642 58.31 28.8305 58.6978 28.9631C59.0856 29.0956 59.4386 29.3111 59.7567 29.6094C60.0749 29.9044 60.3285 30.2955 60.5174 30.7827C60.7063 31.2699 60.8008 31.8698 60.8008 32.5824V33.0795H54.9144V32.0653H59.6076C59.6076 31.6345 59.5214 31.25 59.3491 30.9119C59.18 30.5739 58.9381 30.3071 58.6232 30.1115C58.3117 29.916 57.9438 29.8182 57.5195 29.8182C57.0522 29.8182 56.6478 29.9342 56.3065 30.1662C55.9684 30.3949 55.7082 30.6932 55.5259 31.0611C55.3436 31.429 55.2525 31.8234 55.2525 32.2443V32.9205C55.2525 33.4972 55.3519 33.986 55.5508 34.3871C55.753 34.7848 56.033 35.0881 56.391 35.2969C56.7489 35.5024 57.1649 35.6051 57.6388 35.6051C57.9471 35.6051 58.2255 35.562 58.4741 35.4759C58.726 35.3864 58.9431 35.2538 59.1254 35.0781C59.3076 34.8991 59.4485 34.6771 59.5479 34.4119L60.6815 34.7301C60.5621 35.1146 60.3616 35.4527 60.0799 35.7443C59.7982 36.0327 59.4502 36.258 59.0359 36.4205C58.6216 36.5795 58.1559 36.6591 57.6388 36.6591ZM64.8327 36.679C64.3488 36.679 63.9097 36.5878 63.5153 36.4055C63.1209 36.2199 62.8076 35.9531 62.5756 35.6051C62.3436 35.2538 62.2276 34.8295 62.2276 34.3324C62.2276 33.8949 62.3138 33.5402 62.4862 33.2685C62.6585 32.9934 62.8888 32.7779 63.1772 32.6222C63.4656 32.4664 63.7837 32.3504 64.1317 32.2741C64.4831 32.1946 64.8361 32.1316 65.1907 32.0852C65.6547 32.0256 66.0309 31.9808 66.3192 31.951C66.6109 31.9179 66.823 31.8632 66.9556 31.7869C67.0915 31.7107 67.1594 31.5781 67.1594 31.3892V31.3494C67.1594 30.8589 67.0252 30.4777 66.7567 30.206C66.4916 29.9342 66.0889 29.7983 65.5487 29.7983C64.9885 29.7983 64.5494 29.9209 64.2312 30.1662C63.913 30.4115 63.6893 30.6733 63.56 30.9517L62.4464 30.554C62.6452 30.09 62.9104 29.7287 63.2418 29.4702C63.5766 29.2083 63.9412 29.026 64.3356 28.9233C64.7333 28.8172 65.1244 28.7642 65.5089 28.7642C65.7541 28.7642 66.0359 28.794 66.354 28.8537C66.6755 28.91 66.9854 29.0277 67.2837 29.2067C67.5853 29.3857 67.8356 29.6558 68.0344 30.017C68.2333 30.3783 68.3327 30.8622 68.3327 31.4688V36.5H67.1594V35.4659H67.0998C67.0202 35.6316 66.8877 35.8089 66.7021 35.9979C66.5165 36.1868 66.2695 36.3475 65.9613 36.4801C65.6531 36.6127 65.2769 36.679 64.8327 36.679ZM65.0117 35.625C65.4757 35.625 65.8668 35.5339 66.185 35.3516C66.5065 35.1693 66.7485 34.9339 66.9109 34.6456C67.0766 34.3572 67.1594 34.054 67.1594 33.7358V32.6619C67.1097 32.7216 67.0004 32.7763 66.8313 32.826C66.6656 32.8724 66.4734 32.9138 66.2546 32.9503C66.0392 32.9834 65.8287 33.0133 65.6232 33.0398C65.421 33.063 65.257 33.0829 65.131 33.0994C64.8261 33.1392 64.5411 33.2038 64.2759 33.2933C64.0141 33.3795 63.802 33.5104 63.6396 33.6861C63.4805 33.8584 63.4009 34.0937 63.4009 34.392C63.4009 34.7997 63.5517 35.108 63.8533 35.3168C64.1583 35.5223 64.5444 35.625 65.0117 35.625ZM73.3578 36.6591C72.7214 36.6591 72.1596 36.4983 71.6724 36.1768C71.1852 35.852 70.804 35.3946 70.5289 34.8047C70.2538 34.2114 70.1163 33.5104 70.1163 32.7017C70.1163 31.8996 70.2538 31.2036 70.5289 30.6136C70.804 30.0237 71.1868 29.5679 71.6774 29.2464C72.1679 28.925 72.7347 28.7642 73.3777 28.7642C73.8748 28.7642 74.2676 28.8471 74.5559 29.0128C74.8476 29.1752 75.0697 29.3608 75.2221 29.5696C75.3779 29.7751 75.4989 29.9441 75.585 30.0767H75.6845V26.3182H76.8578V36.5H75.7243V35.3267H75.585C75.4989 35.4659 75.3762 35.6416 75.2172 35.8537C75.0581 36.0625 74.831 36.2498 74.536 36.4155C74.2411 36.5779 73.8483 36.6591 73.3578 36.6591ZM73.5169 35.6051C73.9875 35.6051 74.3852 35.4825 74.71 35.2372C75.0349 34.9886 75.2818 34.6456 75.4508 34.2081C75.6199 33.7673 75.7044 33.2585 75.7044 32.6818C75.7044 32.1117 75.6215 31.6129 75.4558 31.1854C75.2901 30.7545 75.0448 30.4197 74.72 30.1811C74.3952 29.9392 73.9941 29.8182 73.5169 29.8182C73.0197 29.8182 72.6054 29.9458 72.274 30.201C71.9458 30.4529 71.6989 30.7959 71.5332 31.2301C71.3708 31.661 71.2896 32.1449 71.2896 32.6818C71.2896 33.2254 71.3725 33.7192 71.5382 34.1634C71.7072 34.6042 71.9558 34.9555 72.2839 35.2173C72.6154 35.4759 73.0263 35.6051 73.5169 35.6051ZM84.3798 39.3636V35.3267H84.2804C84.1942 35.4659 84.0716 35.6416 83.9125 35.8537C83.7534 36.0625 83.5263 36.2498 83.2314 36.4155C82.9364 36.5779 82.5436 36.6591 82.0531 36.6591C81.4167 36.6591 80.8549 36.4983 80.3677 36.1768C79.8805 35.852 79.4993 35.3946 79.2243 34.8047C78.9492 34.2114 78.8116 33.5104 78.8116 32.7017C78.8116 31.8996 78.9492 31.2036 79.2243 30.6136C79.4993 30.0237 79.8822 29.5679 80.3727 29.2464C80.8632 28.925 81.43 28.7642 82.073 28.7642C82.5701 28.7642 82.9629 28.8471 83.2512 29.0128C83.5429 29.1752 83.765 29.3608 83.9174 29.5696C84.0732 29.7751 84.1942 29.9441 84.2804 30.0767H84.4196V28.8636H85.5531V39.3636H84.3798ZM82.2122 35.6051C82.6828 35.6051 83.0806 35.4825 83.4054 35.2372C83.7302 34.9886 83.9771 34.6456 84.1461 34.2081C84.3152 33.7673 84.3997 33.2585 84.3997 32.6818C84.3997 32.1117 84.3168 31.6129 84.1511 31.1854C83.9854 30.7545 83.7401 30.4197 83.4153 30.1811C83.0905 29.9392 82.6895 29.8182 82.2122 29.8182C81.715 29.8182 81.3007 29.9458 80.9693 30.201C80.6412 30.4529 80.3942 30.7959 80.2285 31.2301C80.0661 31.661 79.9849 32.1449 79.9849 32.6818C79.9849 33.2254 80.0678 33.7192 80.2335 34.1634C80.4025 34.6042 80.6511 34.9555 80.9792 35.2173C81.3107 35.4759 81.7217 35.6051 82.2122 35.6051ZM92.5133 33.3778V28.8636H93.6866V36.5H92.5133V35.2074H92.4338C92.2548 35.5952 91.9764 35.925 91.5985 36.1967C91.2207 36.4652 90.7434 36.5994 90.1667 36.5994C89.6895 36.5994 89.2652 36.495 88.894 36.2862C88.5228 36.0741 88.2311 35.7559 88.019 35.3317C87.8069 34.9041 87.7008 34.3655 87.7008 33.7159V28.8636H88.8741V33.6364C88.8741 34.1932 89.0299 34.6373 89.3414 34.9688C89.6563 35.3002 90.0574 35.4659 90.5446 35.4659C90.8362 35.4659 91.1329 35.3913 91.4345 35.2422C91.7394 35.093 91.9946 34.8643 92.2001 34.5561C92.4089 34.2479 92.5133 33.8551 92.5133 33.3778ZM98.0827 36.679C97.5988 36.679 97.1597 36.5878 96.7653 36.4055C96.3709 36.2199 96.0576 35.9531 95.8256 35.6051C95.5936 35.2538 95.4776 34.8295 95.4776 34.3324C95.4776 33.8949 95.5638 33.5402 95.7362 33.2685C95.9085 32.9934 96.1388 32.7779 96.4272 32.6222C96.7156 32.4664 97.0337 32.3504 97.3817 32.2741C97.7331 32.1946 98.0861 32.1316 98.4407 32.0852C98.9047 32.0256 99.2809 31.9808 99.5692 31.951C99.8609 31.9179 100.073 31.8632 100.206 31.7869C100.342 31.7107 100.409 31.5781 100.409 31.3892V31.3494C100.409 30.8589 100.275 30.4777 100.007 30.206C99.7416 29.9342 99.3389 29.7983 98.7987 29.7983C98.2385 29.7983 97.7994 29.9209 97.4812 30.1662C97.163 30.4115 96.9393 30.6733 96.81 30.9517L95.6964 30.554C95.8952 30.09 96.1604 29.7287 96.4918 29.4702C96.8266 29.2083 97.1912 29.026 97.5856 28.9233C97.9833 28.8172 98.3744 28.7642 98.7589 28.7642C99.0041 28.7642 99.2859 28.794 99.604 28.8537C99.9255 28.91 100.235 29.0277 100.534 29.2067C100.835 29.3857 101.086 29.6558 101.284 30.017C101.483 30.3783 101.583 30.8622 101.583 31.4688V36.5H100.409V35.4659H100.35C100.27 35.6316 100.138 35.8089 99.9521 35.9979C99.7665 36.1868 99.5195 36.3475 99.2113 36.4801C98.9031 36.6127 98.5269 36.679 98.0827 36.679ZM98.2617 35.625C98.7257 35.625 99.1168 35.5339 99.435 35.3516C99.7565 35.1693 99.9985 34.9339 100.161 34.6456C100.327 34.3572 100.409 34.054 100.409 33.7358V32.6619C100.36 32.7216 100.25 32.7763 100.081 32.826C99.9156 32.8724 99.7234 32.9138 99.5046 32.9503C99.2892 32.9834 99.0787 33.0133 98.8732 33.0398C98.671 33.063 98.507 33.0829 98.381 33.0994C98.0761 33.1392 97.7911 33.2038 97.5259 33.2933C97.2641 33.3795 97.052 33.5104 96.8896 33.6861C96.7305 33.8584 96.6509 34.0937 96.6509 34.392C96.6509 34.7997 96.8017 35.108 97.1033 35.3168C97.4083 35.5223 97.7944 35.625 98.2617 35.625ZM103.724 36.5V28.8636H104.858V30.017H104.937C105.077 29.6392 105.328 29.3326 105.693 29.0973C106.058 28.862 106.469 28.7443 106.926 28.7443C107.012 28.7443 107.12 28.746 107.249 28.7493C107.378 28.7526 107.476 28.7576 107.542 28.7642V29.9574C107.503 29.9474 107.412 29.9325 107.269 29.9126C107.13 29.8894 106.982 29.8778 106.827 29.8778C106.455 29.8778 106.124 29.9557 105.832 30.1115C105.544 30.264 105.315 30.4761 105.146 30.7479C104.98 31.0163 104.898 31.3229 104.898 31.6676V36.5H103.724ZM112.733 28.8636V29.858H108.775V28.8636H112.733ZM109.929 27.0341H111.102V34.3125C111.102 34.6439 111.15 34.8925 111.246 35.0582C111.346 35.2206 111.472 35.33 111.624 35.3864C111.78 35.4394 111.944 35.4659 112.116 35.4659C112.246 35.4659 112.352 35.4593 112.434 35.446C112.517 35.4295 112.584 35.4162 112.633 35.4062L112.872 36.4602C112.792 36.4901 112.681 36.5199 112.539 36.5497C112.396 36.5829 112.216 36.5994 111.997 36.5994C111.666 36.5994 111.341 36.5282 111.023 36.3857C110.708 36.2431 110.446 36.026 110.237 35.7344C110.032 35.4427 109.929 35.0748 109.929 34.6307V27.0341ZM117.617 36.6591C116.882 36.6591 116.247 36.4967 115.713 36.1719C115.183 35.8438 114.774 35.3864 114.485 34.7997C114.2 34.2098 114.058 33.5237 114.058 32.7415C114.058 31.9593 114.2 31.2699 114.485 30.6733C114.774 30.0734 115.175 29.6061 115.688 29.2713C116.205 28.9332 116.809 28.7642 117.498 28.7642C117.896 28.7642 118.289 28.8305 118.676 28.9631C119.064 29.0956 119.417 29.3111 119.735 29.6094C120.053 29.9044 120.307 30.2955 120.496 30.7827C120.685 31.2699 120.779 31.8698 120.779 32.5824V33.0795H114.893V32.0653H119.586C119.586 31.6345 119.5 31.25 119.328 30.9119C119.159 30.5739 118.917 30.3071 118.602 30.1115C118.29 29.916 117.922 29.8182 117.498 29.8182C117.031 29.8182 116.626 29.9342 116.285 30.1662C115.947 30.3949 115.687 30.6932 115.504 31.0611C115.322 31.429 115.231 31.8234 115.231 32.2443V32.9205C115.231 33.4972 115.33 33.986 115.529 34.3871C115.731 34.7848 116.012 35.0881 116.369 35.2969C116.727 35.5024 117.143 35.6051 117.617 35.6051C117.926 35.6051 118.204 35.562 118.453 35.4759C118.704 35.3864 118.922 35.2538 119.104 35.0781C119.286 34.8991 119.427 34.6771 119.526 34.4119L120.66 34.7301C120.541 35.1146 120.34 35.4527 120.058 35.7443C119.777 36.0327 119.429 36.258 119.014 36.4205C118.6 36.5795 118.134 36.6591 117.617 36.6591ZM122.564 36.5V28.8636H123.698V30.017H123.777C123.916 29.6392 124.168 29.3326 124.533 29.0973C124.897 28.862 125.308 28.7443 125.766 28.7443C125.852 28.7443 125.96 28.746 126.089 28.7493C126.218 28.7526 126.316 28.7576 126.382 28.7642V29.9574C126.343 29.9474 126.251 29.9325 126.109 29.9126C125.97 29.8894 125.822 29.8778 125.666 29.8778C125.295 29.8778 124.964 29.9557 124.672 30.1115C124.384 30.264 124.155 30.4761 123.986 30.7479C123.82 31.0163 123.737 31.3229 123.737 31.6676V36.5H122.564ZM133.182 30.5739L132.128 30.8722C132.062 30.6965 131.964 30.5258 131.835 30.3601C131.709 30.1911 131.537 30.0518 131.318 29.9425C131.099 29.8331 130.819 29.7784 130.478 29.7784C130.01 29.7784 129.621 29.8861 129.309 30.1016C129.001 30.3137 128.847 30.5838 128.847 30.9119C128.847 31.2036 128.953 31.4339 129.165 31.603C129.377 31.772 129.709 31.9129 130.159 32.0256L131.293 32.304C131.976 32.4697 132.484 32.7232 132.819 33.0646C133.154 33.4027 133.321 33.8385 133.321 34.3722C133.321 34.8097 133.195 35.2008 132.944 35.5455C132.695 35.8902 132.347 36.1619 131.9 36.3608C131.452 36.5597 130.932 36.6591 130.338 36.6591C129.56 36.6591 128.915 36.4901 128.404 36.152C127.894 35.8139 127.571 35.3201 127.435 34.6705L128.549 34.392C128.655 34.803 128.855 35.1113 129.15 35.3168C129.449 35.5223 129.838 35.625 130.319 35.625C130.865 35.625 131.3 35.509 131.621 35.277C131.946 35.0417 132.108 34.7599 132.108 34.4318C132.108 34.1667 132.016 33.9446 131.83 33.7656C131.644 33.5833 131.359 33.4474 130.975 33.358L129.702 33.0597C129.003 32.8939 128.489 32.6371 128.161 32.2891C127.836 31.9377 127.674 31.4986 127.674 30.9716C127.674 30.5407 127.795 30.1596 128.037 29.8281C128.282 29.4967 128.615 29.2365 129.036 29.0476C129.46 28.8587 129.941 28.7642 130.478 28.7642C131.233 28.7642 131.827 28.9299 132.257 29.2614C132.692 29.5928 133 30.0303 133.182 30.5739Z" fill="#808080"/>
<path d="M50.625 51.4205C50.5644 50.8826 50.3144 50.4659 49.875 50.1705C49.4356 49.8712 48.8826 49.7216 48.2159 49.7216C47.7386 49.7216 47.3258 49.7973 46.9773 49.9489C46.6288 50.0966 46.358 50.3011 46.1648 50.5625C45.9754 50.8201 45.8807 51.1136 45.8807 51.4432C45.8807 51.7197 45.9451 51.9583 46.0739 52.1591C46.2064 52.3598 46.3788 52.5284 46.5909 52.6648C46.8068 52.7973 47.0379 52.9091 47.2841 53C47.5303 53.0871 47.767 53.1591 47.9943 53.2159L49.1307 53.5114C49.5019 53.6023 49.8826 53.7254 50.2727 53.8807C50.6629 54.036 51.0246 54.2405 51.358 54.4943C51.6913 54.7481 51.9602 55.0625 52.1648 55.4375C52.3731 55.8125 52.4773 56.2614 52.4773 56.7841C52.4773 57.4432 52.3068 58.0284 51.9659 58.5398C51.6288 59.0511 51.1383 59.4545 50.4943 59.75C49.8542 60.0455 49.0795 60.1932 48.1705 60.1932C47.2992 60.1932 46.5455 60.0549 45.9091 59.7784C45.2727 59.5019 44.7746 59.1098 44.4148 58.6023C44.0549 58.0909 43.8561 57.4848 43.8182 56.7841H45.5795C45.6136 57.2045 45.75 57.5549 45.9886 57.8352C46.2311 58.1117 46.5398 58.3182 46.9148 58.4545C47.2936 58.5871 47.7083 58.6534 48.1591 58.6534C48.6553 58.6534 49.0966 58.5758 49.483 58.4205C49.8731 58.2614 50.1799 58.0417 50.4034 57.7614C50.6269 57.4773 50.7386 57.1458 50.7386 56.767C50.7386 56.4223 50.6402 56.1402 50.4432 55.9205C50.25 55.7008 49.9867 55.5189 49.6534 55.375C49.3239 55.2311 48.9508 55.1042 48.5341 54.9943L47.1591 54.6193C46.2273 54.3655 45.4886 53.9924 44.9432 53.5C44.4015 53.0076 44.1307 52.3561 44.1307 51.5455C44.1307 50.875 44.3125 50.2898 44.6761 49.7898C45.0398 49.2898 45.5322 48.9015 46.1534 48.625C46.7746 48.3447 47.4754 48.2045 48.2557 48.2045C49.0436 48.2045 49.7386 48.3428 50.3409 48.6193C50.947 48.8958 51.4242 49.2765 51.7727 49.7614C52.1212 50.2424 52.303 50.7955 52.3182 51.4205H50.625ZM56.331 60L53.7628 51.2727H55.5185L57.2287 57.6818H57.3139L59.0298 51.2727H60.7855L62.4901 57.6534H62.5753L64.2741 51.2727H66.0298L63.4673 60H61.7344L59.9616 53.6989H59.831L58.0582 60H56.331ZM67.642 60V51.2727H69.3409V60H67.642ZM68.5 49.9261C68.2045 49.9261 67.9508 49.8277 67.7386 49.6307C67.5303 49.4299 67.4261 49.1913 67.4261 48.9148C67.4261 48.6345 67.5303 48.3958 67.7386 48.1989C67.9508 47.9981 68.2045 47.8977 68.5 47.8977C68.7955 47.8977 69.0473 47.9981 69.2557 48.1989C69.4678 48.3958 69.5739 48.6345 69.5739 48.9148C69.5739 49.1913 69.4678 49.4299 69.2557 49.6307C69.0473 49.8277 68.7955 49.9261 68.5 49.9261ZM75.7003 51.2727V52.6364H70.9332V51.2727H75.7003ZM72.2116 49.1818H73.9105V57.4375C73.9105 57.767 73.9598 58.0152 74.0582 58.1818C74.1567 58.3447 74.2836 58.4564 74.4389 58.517C74.598 58.5739 74.7704 58.6023 74.956 58.6023C75.0923 58.6023 75.2116 58.5928 75.3139 58.5739C75.4162 58.5549 75.4957 58.5398 75.5526 58.5284L75.8594 59.9318C75.7609 59.9697 75.6207 60.0076 75.4389 60.0455C75.2571 60.0871 75.0298 60.1098 74.7571 60.1136C74.3101 60.1212 73.8935 60.0417 73.5071 59.875C73.1207 59.7083 72.8082 59.4508 72.5696 59.1023C72.331 58.7538 72.2116 58.3163 72.2116 57.7898V49.1818ZM77.3977 60V58.8352L82.125 52.8295V52.75H77.5511V51.2727H84.2443V52.5114L79.6989 58.4432V58.5227H84.4034V60H77.3977ZM89.919 60.1761C89.0592 60.1761 88.3187 59.9924 87.6974 59.625C87.08 59.2538 86.6027 58.733 86.2656 58.0625C85.9323 57.3883 85.7656 56.5985 85.7656 55.6932C85.7656 54.7992 85.9323 54.0114 86.2656 53.3295C86.6027 52.6477 87.0724 52.1155 87.6747 51.733C88.2808 51.3504 88.9891 51.1591 89.7997 51.1591C90.2921 51.1591 90.7694 51.2405 91.2315 51.4034C91.6937 51.5663 92.1084 51.822 92.4759 52.1705C92.8433 52.5189 93.133 52.9716 93.3452 53.5284C93.5573 54.0814 93.6634 54.7538 93.6634 55.5455V56.1477H86.7259V54.875H91.9986C91.9986 54.428 91.9077 54.0322 91.7259 53.6875C91.544 53.339 91.2884 53.0644 90.9588 52.8636C90.633 52.6629 90.2505 52.5625 89.8111 52.5625C89.3338 52.5625 88.9171 52.6799 88.5611 52.9148C88.2088 53.1458 87.9361 53.4489 87.7429 53.8239C87.5535 54.1951 87.4588 54.5985 87.4588 55.0341V56.0284C87.4588 56.6117 87.5611 57.108 87.7656 57.517C87.974 57.9261 88.2637 58.2386 88.6349 58.4545C89.0062 58.6667 89.4399 58.7727 89.9361 58.7727C90.258 58.7727 90.5516 58.7273 90.8168 58.6364C91.0819 58.5417 91.3111 58.4015 91.5043 58.2159C91.6974 58.0303 91.8452 57.8011 91.9474 57.5284L93.5554 57.8182C93.4266 58.2917 93.1955 58.7064 92.8622 59.0625C92.5327 59.4148 92.1179 59.6894 91.6179 59.8864C91.1217 60.0795 90.5554 60.1761 89.919 60.1761ZM95.5483 60V51.2727H97.1903V52.6591H97.2812C97.4403 52.1894 97.7206 51.8201 98.1222 51.5511C98.5275 51.2784 98.9858 51.142 99.4972 51.142C99.6032 51.142 99.7282 51.1458 99.8722 51.1534C100.02 51.161 100.135 51.1705 100.219 51.1818V52.8068C100.151 52.7879 100.029 52.767 99.8551 52.7443C99.6809 52.7178 99.5066 52.7045 99.3324 52.7045C98.9309 52.7045 98.5729 52.7898 98.2585 52.9602C97.9479 53.1269 97.7017 53.3598 97.5199 53.6591C97.3381 53.9545 97.2472 54.2917 97.2472 54.6705V60H95.5483ZM103.388 48.3636V60H101.689V48.3636H103.388ZM108.213 60.1932C107.66 60.1932 107.16 60.0909 106.713 59.8864C106.266 59.678 105.912 59.3769 105.651 58.983C105.393 58.589 105.264 58.1061 105.264 57.5341C105.264 57.0417 105.359 56.6364 105.548 56.3182C105.738 56 105.993 55.7481 106.315 55.5625C106.637 55.3769 106.997 55.2367 107.395 55.142C107.793 55.0473 108.198 54.9754 108.611 54.9261C109.134 54.8655 109.558 54.8163 109.884 54.7784C110.209 54.7367 110.446 54.6705 110.594 54.5795C110.741 54.4886 110.815 54.3409 110.815 54.1364V54.0966C110.815 53.6004 110.675 53.2159 110.395 52.9432C110.118 52.6705 109.705 52.5341 109.156 52.5341C108.584 52.5341 108.134 52.661 107.804 52.9148C107.478 53.1648 107.253 53.4432 107.128 53.75L105.531 53.3864C105.721 52.8561 105.997 52.428 106.361 52.1023C106.728 51.7727 107.151 51.5341 107.628 51.3864C108.105 51.2348 108.607 51.1591 109.134 51.1591C109.482 51.1591 109.851 51.2008 110.241 51.2841C110.635 51.3636 111.003 51.5114 111.344 51.7273C111.688 51.9432 111.971 52.2519 112.19 52.6534C112.41 53.0511 112.52 53.5682 112.52 54.2045V60H110.861V58.8068H110.793C110.683 59.0265 110.518 59.2424 110.298 59.4545C110.079 59.6667 109.796 59.8428 109.452 59.983C109.107 60.1231 108.694 60.1932 108.213 60.1932ZM108.582 58.8295C109.052 58.8295 109.454 58.7367 109.787 58.5511C110.124 58.3655 110.38 58.1231 110.554 57.8239C110.732 57.5208 110.821 57.197 110.821 56.8523V55.7273C110.76 55.7879 110.643 55.8447 110.469 55.8977C110.298 55.947 110.103 55.9905 109.884 56.0284C109.664 56.0625 109.45 56.0947 109.241 56.125C109.033 56.1515 108.859 56.1742 108.719 56.1932C108.389 56.2348 108.088 56.3049 107.815 56.4034C107.546 56.5019 107.33 56.6439 107.168 56.8295C107.009 57.0114 106.929 57.2538 106.929 57.5568C106.929 57.9773 107.084 58.2955 107.395 58.5114C107.705 58.7235 108.101 58.8295 108.582 58.8295ZM116.482 54.8182V60H114.783V51.2727H116.413V52.6932H116.521C116.722 52.2311 117.036 51.8598 117.464 51.5795C117.896 51.2992 118.44 51.1591 119.095 51.1591C119.69 51.1591 120.211 51.2841 120.658 51.5341C121.105 51.7803 121.451 52.1477 121.697 52.6364C121.944 53.125 122.067 53.7292 122.067 54.4489V60H120.368V54.6534C120.368 54.0208 120.203 53.5265 119.874 53.1705C119.544 52.8106 119.091 52.6307 118.516 52.6307C118.122 52.6307 117.771 52.7159 117.464 52.8864C117.161 53.0568 116.921 53.3068 116.743 53.6364C116.569 53.9621 116.482 54.3561 116.482 54.8182ZM127.612 60.1705C126.908 60.1705 126.279 59.9905 125.726 59.6307C125.177 59.267 124.745 58.75 124.43 58.0795C124.12 57.4053 123.964 56.5966 123.964 55.6534C123.964 54.7102 124.122 53.9034 124.436 53.233C124.754 52.5625 125.19 52.0492 125.743 51.6932C126.296 51.3371 126.923 51.1591 127.624 51.1591C128.165 51.1591 128.601 51.25 128.93 51.4318C129.264 51.6098 129.521 51.8182 129.703 52.0568C129.889 52.2955 130.033 52.5057 130.135 52.6875H130.237V48.3636H131.936V60H130.277V58.642H130.135C130.033 58.8277 129.885 59.0398 129.692 59.2784C129.502 59.517 129.241 59.7254 128.908 59.9034C128.574 60.0814 128.143 60.1705 127.612 60.1705ZM127.987 58.7216C128.476 58.7216 128.889 58.5928 129.226 58.3352C129.567 58.0739 129.824 57.7121 129.999 57.25C130.177 56.7879 130.266 56.25 130.266 55.6364C130.266 55.0303 130.179 54.5 130.004 54.0455C129.83 53.5909 129.574 53.2367 129.237 52.983C128.9 52.7292 128.483 52.6023 127.987 52.6023C127.476 52.6023 127.05 52.7348 126.709 53C126.368 53.2652 126.11 53.6269 125.936 54.0852C125.766 54.5436 125.68 55.0606 125.68 55.6364C125.68 56.2197 125.768 56.7443 125.942 57.2102C126.116 57.6761 126.374 58.0455 126.714 58.3182C127.059 58.5871 127.483 58.7216 127.987 58.7216Z" fill="#00000A"/>
<path d="M52.4261 94.5H51.1932C51.1203 94.1454 50.9927 93.8338 50.8104 93.5653C50.6314 93.2969 50.4126 93.0715 50.1541 92.8892C49.8989 92.7036 49.6155 92.5644 49.304 92.4716C48.9924 92.3788 48.6676 92.3324 48.3295 92.3324C47.7131 92.3324 47.1546 92.4882 46.6541 92.7997C46.157 93.1113 45.7609 93.5703 45.4659 94.1768C45.1742 94.7834 45.0284 95.5275 45.0284 96.4091C45.0284 97.2907 45.1742 98.0348 45.4659 98.6413C45.7609 99.2479 46.157 99.7069 46.6541 100.018C47.1546 100.33 47.7131 100.486 48.3295 100.486C48.6676 100.486 48.9924 100.439 49.304 100.347C49.6155 100.254 49.8989 100.116 50.1541 99.9339C50.4126 99.7483 50.6314 99.5213 50.8104 99.2528C50.9927 98.9811 51.1203 98.6695 51.1932 98.3182H52.4261C52.3333 98.8385 52.1643 99.3042 51.919 99.7152C51.6738 100.126 51.3688 100.476 51.0043 100.764C50.6397 101.049 50.2304 101.266 49.7763 101.415C49.3255 101.565 48.8433 101.639 48.3295 101.639C47.4612 101.639 46.6889 101.427 46.0128 101.003C45.3366 100.579 44.8047 99.9754 44.4169 99.1932C44.0291 98.411 43.8352 97.483 43.8352 96.4091C43.8352 95.3352 44.0291 94.4072 44.4169 93.625C44.8047 92.8428 45.3366 92.2396 46.0128 91.8153C46.6889 91.3911 47.4612 91.179 48.3295 91.179C48.8433 91.179 49.3255 91.2536 49.7763 91.4027C50.2304 91.5518 50.6397 91.7706 51.0043 92.0589C51.3688 92.344 51.6738 92.692 51.919 93.103C52.1643 93.5107 52.3333 93.9763 52.4261 94.5ZM55.4327 96.9062V101.5H54.2594V91.3182H55.4327V95.0568H55.5321C55.7111 94.6624 55.9796 94.3492 56.3375 94.1172C56.6988 93.8819 57.1794 93.7642 57.7793 93.7642C58.2997 93.7642 58.7554 93.8686 59.1465 94.0774C59.5376 94.2829 59.8409 94.5994 60.0563 95.027C60.275 95.4512 60.3844 95.9915 60.3844 96.6477V101.5H59.2111V96.7273C59.2111 96.1207 59.0537 95.6518 58.7388 95.3203C58.4273 94.9856 57.9947 94.8182 57.4412 94.8182C57.0568 94.8182 56.7121 94.8994 56.4071 95.0618C56.1055 95.2242 55.8669 95.4612 55.6912 95.7727C55.5189 96.0843 55.4327 96.4621 55.4327 96.9062ZM64.7781 101.679C64.2942 101.679 63.855 101.588 63.4606 101.406C63.0662 101.22 62.753 100.953 62.521 100.605C62.2889 100.254 62.1729 99.8295 62.1729 99.3324C62.1729 98.8949 62.2591 98.5402 62.4315 98.2685C62.6038 97.9934 62.8342 97.7779 63.1225 97.6222C63.4109 97.4664 63.729 97.3504 64.0771 97.2741C64.4284 97.1946 64.7814 97.1316 65.136 97.0852C65.6 97.0256 65.9762 96.9808 66.2646 96.951C66.5562 96.9179 66.7683 96.8632 66.9009 96.7869C67.0368 96.7107 67.1048 96.5781 67.1048 96.3892V96.3494C67.1048 95.8589 66.9705 95.4777 66.7021 95.206C66.4369 94.9342 66.0342 94.7983 65.494 94.7983C64.9338 94.7983 64.4947 94.9209 64.1765 95.1662C63.8583 95.4115 63.6346 95.6733 63.5053 95.9517L62.3917 95.554C62.5906 95.09 62.8557 94.7287 63.1871 94.4702C63.5219 94.2083 63.8865 94.026 64.2809 93.9233C64.6786 93.8172 65.0697 93.7642 65.4542 93.7642C65.6995 93.7642 65.9812 93.794 66.2994 93.8537C66.6209 93.91 66.9308 94.0277 67.229 94.2067C67.5307 94.3857 67.7809 94.6558 67.9798 95.017C68.1786 95.3783 68.2781 95.8622 68.2781 96.4688V101.5H67.1048V100.466H67.0451C66.9656 100.632 66.833 100.809 66.6474 100.998C66.4618 101.187 66.2148 101.348 65.9066 101.48C65.5984 101.613 65.2222 101.679 64.7781 101.679ZM64.957 100.625C65.421 100.625 65.8121 100.534 66.1303 100.352C66.4518 100.169 66.6938 99.9339 66.8562 99.6456C67.0219 99.3572 67.1048 99.054 67.1048 98.7358V97.6619C67.055 97.7216 66.9457 97.7763 66.7766 97.826C66.6109 97.8724 66.4187 97.9138 66.1999 97.9503C65.9845 97.9834 65.774 98.0133 65.5685 98.0398C65.3664 98.063 65.2023 98.0829 65.0763 98.0994C64.7714 98.1392 64.4864 98.2038 64.2212 98.2933C63.9594 98.3795 63.7473 98.5104 63.5849 98.6861C63.4258 98.8584 63.3462 99.0937 63.3462 99.392C63.3462 99.7997 63.497 100.108 63.7987 100.317C64.1036 100.522 64.4897 100.625 64.957 100.625ZM70.4196 101.5V93.8636H71.5929V101.5H70.4196ZM71.0162 92.5909C70.7875 92.5909 70.5903 92.513 70.4245 92.3572C70.2621 92.2015 70.1809 92.0142 70.1809 91.7955C70.1809 91.5767 70.2621 91.3894 70.4245 91.2337C70.5903 91.0779 70.7875 91 71.0162 91C71.2449 91 71.4404 91.0779 71.6028 91.2337C71.7685 91.3894 71.8514 91.5767 71.8514 91.7955C71.8514 92.0142 71.7685 92.2015 71.6028 92.3572C71.4404 92.513 71.2449 92.5909 71.0162 92.5909ZM74.9151 96.9062V101.5H73.7418V93.8636H74.8754V95.0568H74.9748C75.1538 94.669 75.4255 94.3575 75.7901 94.1222C76.1547 93.8835 76.6254 93.7642 77.2021 93.7642C77.7191 93.7642 78.1715 93.8703 78.5593 94.0824C78.9471 94.2912 79.2487 94.6094 79.4641 95.0369C79.6796 95.4612 79.7873 95.9981 79.7873 96.6477V101.5H78.614V96.7273C78.614 96.1274 78.4582 95.66 78.1467 95.3253C77.8351 94.9872 77.4076 94.8182 76.864 94.8182C76.4895 94.8182 76.1547 94.8994 75.8597 95.0618C75.5681 95.2242 75.3377 95.4612 75.1687 95.7727C74.9996 96.0843 74.9151 96.4621 74.9151 96.9062Z" fill="#808080"/>
<path d="M44.2784 124.5V112.864H48.4261C49.3314 112.864 50.0814 113.028 50.6761 113.358C51.2708 113.687 51.7159 114.138 52.0114 114.71C52.3068 115.278 52.4545 115.919 52.4545 116.631C52.4545 117.347 52.3049 117.991 52.0057 118.562C51.7102 119.131 51.2633 119.581 50.6648 119.915C50.0701 120.244 49.322 120.409 48.4205 120.409H45.5682V118.92H48.2614C48.8333 118.92 49.2973 118.822 49.6534 118.625C50.0095 118.424 50.2708 118.152 50.4375 117.807C50.6042 117.462 50.6875 117.07 50.6875 116.631C50.6875 116.191 50.6042 115.801 50.4375 115.46C50.2708 115.119 50.0076 114.852 49.6477 114.659C49.2917 114.466 48.822 114.369 48.2386 114.369H46.0341V124.5H44.2784ZM59.9048 120.881V115.773H61.6094V124.5H59.9389V122.989H59.848C59.6473 123.455 59.3253 123.843 58.8821 124.153C58.4427 124.46 57.8954 124.614 57.2401 124.614C56.6795 124.614 56.1832 124.491 55.7514 124.244C55.3234 123.994 54.9863 123.625 54.7401 123.136C54.4976 122.648 54.3764 122.044 54.3764 121.324V115.773H56.0753V121.119C56.0753 121.714 56.2401 122.187 56.5696 122.54C56.8991 122.892 57.3272 123.068 57.8537 123.068C58.1719 123.068 58.4882 122.989 58.8026 122.83C59.1207 122.67 59.384 122.43 59.5923 122.108C59.8045 121.786 59.9086 121.377 59.9048 120.881ZM65.5909 112.864V124.5H63.892V112.864H65.5909ZM74.4162 117.903L72.8764 118.176C72.812 117.979 72.7098 117.792 72.5696 117.614C72.4332 117.436 72.2476 117.29 72.0128 117.176C71.7779 117.062 71.4844 117.006 71.1321 117.006C70.651 117.006 70.2495 117.114 69.9276 117.33C69.6056 117.542 69.4446 117.816 69.4446 118.153C69.4446 118.445 69.5526 118.68 69.7685 118.858C69.9844 119.036 70.3329 119.182 70.8139 119.295L72.2003 119.614C73.0033 119.799 73.6018 120.085 73.9957 120.472C74.3897 120.858 74.5866 121.36 74.5866 121.977C74.5866 122.5 74.4351 122.966 74.1321 123.375C73.8329 123.78 73.4143 124.098 72.8764 124.33C72.3423 124.561 71.723 124.676 71.0185 124.676C70.0412 124.676 69.2438 124.468 68.6264 124.051C68.009 123.631 67.6302 123.034 67.4901 122.261L69.1321 122.011C69.2344 122.439 69.4446 122.763 69.7628 122.983C70.081 123.199 70.4957 123.307 71.0071 123.307C71.5639 123.307 72.009 123.191 72.3423 122.96C72.6757 122.725 72.8423 122.439 72.8423 122.102C72.8423 121.83 72.7401 121.6 72.5355 121.415C72.3348 121.229 72.026 121.089 71.6094 120.994L70.1321 120.67C69.3177 120.485 68.7154 120.189 68.3253 119.784C67.9389 119.379 67.7457 118.866 67.7457 118.244C67.7457 117.729 67.8897 117.278 68.1776 116.892C68.4654 116.506 68.8632 116.205 69.3707 115.989C69.8783 115.769 70.4598 115.659 71.1151 115.659C72.0582 115.659 72.8007 115.864 73.3423 116.273C73.884 116.678 74.242 117.222 74.4162 117.903ZM80.2159 124.676C79.3561 124.676 78.6155 124.492 77.9943 124.125C77.3769 123.754 76.8996 123.233 76.5625 122.562C76.2292 121.888 76.0625 121.098 76.0625 120.193C76.0625 119.299 76.2292 118.511 76.5625 117.83C76.8996 117.148 77.3693 116.616 77.9716 116.233C78.5777 115.85 79.286 115.659 80.0966 115.659C80.589 115.659 81.0663 115.741 81.5284 115.903C81.9905 116.066 82.4053 116.322 82.7727 116.67C83.1402 117.019 83.4299 117.472 83.642 118.028C83.8542 118.581 83.9602 119.254 83.9602 120.045V120.648H77.0227V119.375H82.2955C82.2955 118.928 82.2045 118.532 82.0227 118.188C81.8409 117.839 81.5852 117.564 81.2557 117.364C80.9299 117.163 80.5473 117.062 80.108 117.062C79.6307 117.062 79.214 117.18 78.858 117.415C78.5057 117.646 78.233 117.949 78.0398 118.324C77.8504 118.695 77.7557 119.098 77.7557 119.534V120.528C77.7557 121.112 77.858 121.608 78.0625 122.017C78.2708 122.426 78.5606 122.739 78.9318 122.955C79.303 123.167 79.7367 123.273 80.233 123.273C80.5549 123.273 80.8485 123.227 81.1136 123.136C81.3788 123.042 81.608 122.902 81.8011 122.716C81.9943 122.53 82.142 122.301 82.2443 122.028L83.8523 122.318C83.7235 122.792 83.4924 123.206 83.1591 123.562C82.8295 123.915 82.4148 124.189 81.9148 124.386C81.4186 124.58 80.8523 124.676 80.2159 124.676ZM90.2159 124.5V112.864H94.4773C95.303 112.864 95.9867 113 96.5284 113.273C97.0701 113.542 97.4754 113.907 97.7443 114.369C98.0133 114.828 98.1477 115.345 98.1477 115.92C98.1477 116.405 98.0587 116.814 97.8807 117.148C97.7027 117.477 97.464 117.742 97.1648 117.943C96.8693 118.14 96.5436 118.284 96.1875 118.375V118.489C96.5739 118.508 96.9508 118.633 97.3182 118.864C97.6894 119.091 97.9962 119.415 98.2386 119.835C98.4811 120.256 98.6023 120.767 98.6023 121.369C98.6023 121.964 98.4621 122.498 98.1818 122.972C97.9053 123.441 97.4773 123.814 96.8977 124.091C96.3182 124.364 95.5777 124.5 94.6761 124.5H90.2159ZM91.9716 122.994H94.5057C95.3466 122.994 95.9489 122.831 96.3125 122.506C96.6761 122.18 96.858 121.773 96.858 121.284C96.858 120.917 96.7652 120.58 96.5795 120.273C96.3939 119.966 96.1288 119.722 95.7841 119.54C95.4432 119.358 95.0379 119.267 94.5682 119.267H91.9716V122.994ZM91.9716 117.898H94.3239C94.7178 117.898 95.072 117.822 95.3864 117.67C95.7045 117.519 95.9564 117.307 96.142 117.034C96.3314 116.758 96.4261 116.432 96.4261 116.057C96.4261 115.576 96.2576 115.172 95.9205 114.847C95.5833 114.521 95.0663 114.358 94.3693 114.358H91.9716V117.898ZM102.247 112.864V124.5H100.548V112.864H102.247ZM108.209 124.676C107.391 124.676 106.677 124.489 106.067 124.114C105.457 123.739 104.983 123.214 104.646 122.54C104.309 121.866 104.141 121.078 104.141 120.176C104.141 119.271 104.309 118.479 104.646 117.801C104.983 117.123 105.457 116.597 106.067 116.222C106.677 115.847 107.391 115.659 108.209 115.659C109.027 115.659 109.741 115.847 110.351 116.222C110.961 116.597 111.434 117.123 111.771 117.801C112.108 118.479 112.277 119.271 112.277 120.176C112.277 121.078 112.108 121.866 111.771 122.54C111.434 123.214 110.961 123.739 110.351 124.114C109.741 124.489 109.027 124.676 108.209 124.676ZM108.214 123.25C108.745 123.25 109.184 123.11 109.533 122.83C109.881 122.549 110.139 122.176 110.305 121.71C110.476 121.244 110.561 120.731 110.561 120.17C110.561 119.614 110.476 119.102 110.305 118.636C110.139 118.167 109.881 117.79 109.533 117.506C109.184 117.222 108.745 117.08 108.214 117.08C107.68 117.08 107.237 117.222 106.885 117.506C106.536 117.79 106.277 118.167 106.107 118.636C105.94 119.102 105.857 119.614 105.857 120.17C105.857 120.731 105.94 121.244 106.107 121.71C106.277 122.176 106.536 122.549 106.885 122.83C107.237 123.11 107.68 123.25 108.214 123.25ZM117.849 124.676C117.005 124.676 116.277 124.485 115.668 124.102C115.062 123.716 114.596 123.184 114.27 122.506C113.944 121.828 113.781 121.051 113.781 120.176C113.781 119.29 113.948 118.508 114.281 117.83C114.615 117.148 115.084 116.616 115.69 116.233C116.296 115.85 117.01 115.659 117.832 115.659C118.495 115.659 119.086 115.782 119.605 116.028C120.124 116.271 120.543 116.612 120.861 117.051C121.183 117.491 121.374 118.004 121.435 118.591H119.781C119.69 118.182 119.482 117.83 119.156 117.534C118.834 117.239 118.402 117.091 117.861 117.091C117.387 117.091 116.973 117.216 116.616 117.466C116.264 117.712 115.99 118.064 115.793 118.523C115.596 118.977 115.497 119.515 115.497 120.136C115.497 120.773 115.594 121.322 115.787 121.784C115.98 122.246 116.253 122.604 116.605 122.858C116.961 123.112 117.38 123.239 117.861 123.239C118.183 123.239 118.474 123.18 118.736 123.062C119.001 122.941 119.223 122.769 119.401 122.545C119.582 122.322 119.709 122.053 119.781 121.739H121.435C121.374 122.303 121.19 122.807 120.884 123.25C120.577 123.693 120.166 124.042 119.651 124.295C119.139 124.549 118.539 124.676 117.849 124.676ZM124.814 121.54L124.803 119.466H125.098L128.575 115.773H130.609L126.643 119.977H126.376L124.814 121.54ZM123.251 124.5V112.864H124.95V124.5H123.251ZM128.763 124.5L125.638 120.352L126.808 119.165L130.848 124.5H128.763ZM135.474 124.676C134.63 124.676 133.902 124.485 133.293 124.102C132.687 123.716 132.221 123.184 131.895 122.506C131.569 121.828 131.406 121.051 131.406 120.176C131.406 119.29 131.573 118.508 131.906 117.83C132.24 117.148 132.709 116.616 133.315 116.233C133.921 115.85 134.635 115.659 135.457 115.659C136.12 115.659 136.711 115.782 137.23 116.028C137.749 116.271 138.168 116.612 138.486 117.051C138.808 117.491 138.999 118.004 139.06 118.591H137.406C137.315 118.182 137.107 117.83 136.781 117.534C136.459 117.239 136.027 117.091 135.486 117.091C135.012 117.091 134.598 117.216 134.241 117.466C133.889 117.712 133.615 118.064 133.418 118.523C133.221 118.977 133.122 119.515 133.122 120.136C133.122 120.773 133.219 121.322 133.412 121.784C133.605 122.246 133.878 122.604 134.23 122.858C134.586 123.112 135.005 123.239 135.486 123.239C135.808 123.239 136.099 123.18 136.361 123.062C136.626 122.941 136.848 122.769 137.026 122.545C137.207 122.322 137.334 122.053 137.406 121.739H139.06C138.999 122.303 138.815 122.807 138.509 123.25C138.202 123.693 137.791 124.042 137.276 124.295C136.764 124.549 136.164 124.676 135.474 124.676ZM142.575 119.318V124.5H140.876V112.864H142.553V117.193H142.661C142.865 116.723 143.178 116.35 143.598 116.074C144.018 115.797 144.568 115.659 145.246 115.659C145.844 115.659 146.367 115.782 146.814 116.028C147.265 116.275 147.613 116.642 147.859 117.131C148.109 117.616 148.234 118.222 148.234 118.949V124.5H146.536V119.153C146.536 118.513 146.371 118.017 146.041 117.665C145.712 117.309 145.253 117.131 144.666 117.131C144.265 117.131 143.905 117.216 143.587 117.386C143.272 117.557 143.024 117.807 142.842 118.136C142.664 118.462 142.575 118.856 142.575 119.318ZM153.041 124.693C152.488 124.693 151.988 124.591 151.541 124.386C151.094 124.178 150.74 123.877 150.479 123.483C150.221 123.089 150.092 122.606 150.092 122.034C150.092 121.542 150.187 121.136 150.376 120.818C150.566 120.5 150.821 120.248 151.143 120.062C151.465 119.877 151.825 119.737 152.223 119.642C152.621 119.547 153.026 119.475 153.439 119.426C153.962 119.366 154.386 119.316 154.712 119.278C155.037 119.237 155.274 119.17 155.422 119.08C155.57 118.989 155.643 118.841 155.643 118.636V118.597C155.643 118.1 155.503 117.716 155.223 117.443C154.946 117.17 154.534 117.034 153.984 117.034C153.412 117.034 152.962 117.161 152.632 117.415C152.306 117.665 152.081 117.943 151.956 118.25L150.359 117.886C150.549 117.356 150.825 116.928 151.189 116.602C151.556 116.273 151.979 116.034 152.456 115.886C152.933 115.735 153.435 115.659 153.962 115.659C154.31 115.659 154.679 115.701 155.07 115.784C155.464 115.864 155.831 116.011 156.172 116.227C156.517 116.443 156.799 116.752 157.018 117.153C157.238 117.551 157.348 118.068 157.348 118.705V124.5H155.689V123.307H155.621C155.511 123.527 155.346 123.742 155.126 123.955C154.907 124.167 154.625 124.343 154.28 124.483C153.935 124.623 153.522 124.693 153.041 124.693ZM153.411 123.33C153.88 123.33 154.282 123.237 154.615 123.051C154.952 122.866 155.208 122.623 155.382 122.324C155.56 122.021 155.649 121.697 155.649 121.352V120.227C155.589 120.288 155.471 120.345 155.297 120.398C155.126 120.447 154.931 120.491 154.712 120.528C154.492 120.562 154.278 120.595 154.07 120.625C153.861 120.652 153.687 120.674 153.547 120.693C153.217 120.735 152.916 120.805 152.643 120.903C152.375 121.002 152.159 121.144 151.996 121.33C151.837 121.511 151.757 121.754 151.757 122.057C151.757 122.477 151.912 122.795 152.223 123.011C152.534 123.223 152.929 123.33 153.411 123.33ZM159.611 124.5V115.773H161.31V124.5H159.611ZM160.469 114.426C160.173 114.426 159.92 114.328 159.707 114.131C159.499 113.93 159.395 113.691 159.395 113.415C159.395 113.134 159.499 112.896 159.707 112.699C159.92 112.498 160.173 112.398 160.469 112.398C160.764 112.398 161.016 112.498 161.224 112.699C161.437 112.896 161.543 113.134 161.543 113.415C161.543 113.691 161.437 113.93 161.224 114.131C161.016 114.328 160.764 114.426 160.469 114.426ZM165.294 119.318V124.5H163.595V115.773H165.226V117.193H165.334C165.535 116.731 165.849 116.36 166.277 116.08C166.709 115.799 167.252 115.659 167.908 115.659C168.502 115.659 169.023 115.784 169.47 116.034C169.917 116.28 170.264 116.648 170.51 117.136C170.756 117.625 170.879 118.229 170.879 118.949V124.5H169.18V119.153C169.18 118.521 169.016 118.027 168.686 117.67C168.357 117.311 167.904 117.131 167.328 117.131C166.934 117.131 166.584 117.216 166.277 117.386C165.974 117.557 165.733 117.807 165.555 118.136C165.381 118.462 165.294 118.856 165.294 119.318Z" fill="#00000A"/>
</g>
<defs>
<filter id="filter0_d_1_684" x="0" y="0.5" width="368" height="176" filterUnits="userSpaceOnUse" color-interpolation-filters="sRGB">
<feFlood flood-opacity="0" result="BackgroundImageFix"/>
<feColorMatrix in="SourceAlpha" type="matrix" values="0 0 0 0 0 0 0 0 0 0 0 0 0 0 0 0 0 0 127 0" result="hardAlpha"/>
<feMorphology radius="1" operator="dilate" in="SourceAlpha" result="effect1_dropShadow_1_684"/>
<feOffset dy="3"/>
<feGaussianBlur stdDeviation="6"/>
<feComposite in2="hardAlpha" operator="out"/>
<feColorMatrix type="matrix" values="0 0 0 0 0.333333 0 0 0 0 0.501961 0 0 0 0 0.858824 0 0 0 0.21 0"/>
<feBlend mode="normal" in2="BackgroundImageFix" result="effect1_dropShadow_1_684"/>
<feBlend mode="normal" in="SourceGraphic" in2="effect1_dropShadow_1_684" result="shape"/>
</filter>
<linearGradient id="paint0_linear_1_684" x1="184" y1="10.5" x2="184" y2="160.5" gradientUnits="userSpaceOnUse">
<stop stop-color="#7184FD"/>
<stop offset="1" stop-color="#2D83EE"/>
</linearGradient>
</defs>
</svg>
