<svg width="292" height="14" viewBox="0 0 292 14" fill="none" xmlns="http://www.w3.org/2000/svg">
<path d="M2.608 7.4C2.608 8.18933 2.77867 8.89333 3.12 9.512C3.472 10.12 3.94133 10.6 4.528 10.952C5.11467 11.2933 5.78133 11.464 6.528 11.464C7.27467 11.464 7.93067 11.2987 8.496 10.968C9.072 10.6267 9.52533 10.1573 9.856 9.56C10.1867 8.96267 10.352 8.28 10.352 7.512C10.352 6.744 10.1867 6.05067 9.856 5.432C9.52533 4.81333 9.06667 4.32267 8.48 3.96C7.904 3.59733 7.22667 3.416 6.448 3.416C5.70133 3.416 5.04 3.58667 4.464 3.928C3.888 4.26933 3.43467 4.744 3.104 5.352C2.77333 5.94933 2.608 6.632 2.608 7.4ZM0.608 7.4C0.608 6.55733 0.752 5.784 1.04 5.08C1.33867 4.376 1.74933 3.768 2.272 3.256C2.80533 2.73333 3.424 2.328 4.128 2.04C4.84267 1.74133 5.616 1.592 6.448 1.592C7.28 1.592 8.048 1.74133 8.752 2.04C9.456 2.328 10.0693 2.73333 10.592 3.256C11.1147 3.768 11.52 4.376 11.808 5.08C12.096 5.784 12.24 6.55733 12.24 7.4C12.24 8.232 12.096 9.00533 11.808 9.72C11.5307 10.4347 11.1307 11.0533 10.608 11.576C10.0853 12.0987 9.472 12.5093 8.768 12.808C8.064 13.096 7.29067 13.24 6.448 13.24C5.60533 13.24 4.82667 13.096 4.112 12.808C3.408 12.5093 2.78933 12.0987 2.256 11.576C1.73333 11.0533 1.328 10.4347 1.04 9.72C0.752 9.00533 0.608 8.232 0.608 7.4ZM5.92 8.2H8.096L13.136 13.08H10.928L5.92 8.2ZM15.845 10.12C15.845 10.6427 15.957 11.048 16.181 11.336C16.405 11.624 16.7517 11.768 17.221 11.768C17.541 11.768 17.8237 11.6987 18.069 11.56C18.3143 11.4213 18.5063 11.2293 18.645 10.984C18.7837 10.7387 18.853 10.4507 18.853 10.12V5.64H20.581V13H18.853V11.864C18.6183 12.2907 18.3143 12.616 17.941 12.84C17.5783 13.0533 17.141 13.16 16.629 13.16C15.8077 13.16 15.173 12.904 14.725 12.392C14.2877 11.88 14.069 11.1867 14.069 10.312V5.64H15.845V10.12ZM22.5638 2.712C22.5638 2.41333 22.6704 2.16267 22.8838 1.96C23.1078 1.75733 23.3638 1.656 23.6518 1.656C23.9611 1.656 24.2224 1.75733 24.4358 1.96C24.6491 2.16267 24.7558 2.41333 24.7558 2.712C24.7558 3 24.6491 3.25067 24.4358 3.464C24.2224 3.66667 23.9611 3.768 23.6518 3.768C23.3638 3.768 23.1078 3.66667 22.8838 3.464C22.6704 3.25067 22.5638 3 22.5638 2.712ZM22.8038 5.64H24.5158V13H22.8038V5.64ZM26.7334 0.52H28.4774V13H26.7334V0.52ZM30.5109 0.52H32.2549V13H30.5109V0.52ZM35.7764 10.12L36.1444 8.52H41.3444L41.6964 10.12H35.7764ZM38.7044 4.968L36.9444 9.08L36.9124 9.496L35.3604 13H33.2324L38.7044 1.176L44.1924 13H42.0484L40.5284 9.592L40.4964 9.128L38.7044 4.968ZM46.6388 10.12C46.6388 10.6427 46.7508 11.048 46.9748 11.336C47.1988 11.624 47.5454 11.768 48.0148 11.768C48.3348 11.768 48.6174 11.6987 48.8628 11.56C49.1081 11.4213 49.3001 11.2293 49.4388 10.984C49.5774 10.7387 49.6468 10.4507 49.6468 10.12V5.64H51.3748V13H49.6468V11.864C49.4121 12.2907 49.1081 12.616 48.7348 12.84C48.3721 13.0533 47.9348 13.16 47.4228 13.16C46.6014 13.16 45.9668 12.904 45.5188 12.392C45.0814 11.88 44.8628 11.1867 44.8628 10.312V5.64H46.6388V10.12ZM58.9575 0.52H60.7015V13H58.9575V0.52ZM52.8615 9.32C52.8615 8.50933 53.0268 7.82133 53.3575 7.256C53.6882 6.68 54.1255 6.24267 54.6695 5.944C55.2242 5.63467 55.8162 5.48 56.4455 5.48C57.0642 5.48 57.6028 5.63467 58.0615 5.944C58.5308 6.25333 58.8988 6.696 59.1655 7.272C59.4428 7.83733 59.5815 8.52 59.5815 9.32C59.5815 10.1093 59.4428 10.792 59.1655 11.368C58.8988 11.944 58.5308 12.3867 58.0615 12.696C57.6028 13.0053 57.0642 13.16 56.4455 13.16C55.8162 13.16 55.2242 13.0107 54.6695 12.712C54.1255 12.4027 53.6882 11.96 53.3575 11.384C53.0268 10.808 52.8615 10.12 52.8615 9.32ZM54.6535 9.32C54.6535 9.81067 54.7548 10.232 54.9575 10.584C55.1602 10.936 55.4268 11.2027 55.7575 11.384C56.0988 11.5653 56.4668 11.656 56.8615 11.656C57.2028 11.656 57.5335 11.5653 57.8535 11.384C58.1735 11.2027 58.4348 10.9413 58.6375 10.6C58.8508 10.248 58.9575 9.82133 58.9575 9.32C58.9575 8.81867 58.8508 8.39733 58.6375 8.056C58.4348 7.704 58.1735 7.43733 57.8535 7.256C57.5335 7.07467 57.2028 6.984 56.8615 6.984C56.4668 6.984 56.0988 7.07467 55.7575 7.256C55.4268 7.43733 55.1602 7.704 54.9575 8.056C54.7548 8.408 54.6535 8.82933 54.6535 9.32ZM62.6194 2.712C62.6194 2.41333 62.726 2.16267 62.9394 1.96C63.1634 1.75733 63.4194 1.656 63.7074 1.656C64.0167 1.656 64.278 1.75733 64.4914 1.96C64.7047 2.16267 64.8114 2.41333 64.8114 2.712C64.8114 3 64.7047 3.25067 64.4914 3.464C64.278 3.66667 64.0167 3.768 63.7074 3.768C63.4194 3.768 63.1634 3.66667 62.9394 3.464C62.726 3.25067 62.6194 3 62.6194 2.712ZM62.8594 5.64H64.5714V13H62.8594V5.64ZM65.765 5.64H69.941V7.16H65.765V5.64ZM67.013 3.08H68.709V13H67.013V3.08ZM71.3088 10.568C71.5541 10.8347 71.7941 11.0587 72.0288 11.24C72.2634 11.4213 72.5034 11.56 72.7488 11.656C72.9941 11.752 73.2394 11.8 73.4848 11.8C73.7941 11.8 74.0341 11.7307 74.2048 11.592C74.3861 11.4533 74.4768 11.2613 74.4768 11.016C74.4768 10.8027 74.4074 10.6213 74.2688 10.472C74.1301 10.312 73.9381 10.1787 73.6928 10.072C73.4474 9.95467 73.1594 9.83733 72.8288 9.72C72.4981 9.592 72.1674 9.44267 71.8368 9.272C71.5168 9.09067 71.2501 8.856 71.0368 8.568C70.8341 8.28 70.7328 7.91733 70.7328 7.48C70.7328 7.032 70.8448 6.65867 71.0688 6.36C71.3034 6.06133 71.6128 5.84267 71.9968 5.704C72.3914 5.55467 72.8128 5.48 73.2608 5.48C73.6661 5.48 74.0448 5.53867 74.3968 5.656C74.7594 5.77333 75.0848 5.928 75.3728 6.12C75.6608 6.312 75.9061 6.53067 76.1088 6.776L75.1488 7.8C74.9141 7.512 74.6261 7.27733 74.2848 7.096C73.9434 6.91467 73.5914 6.824 73.2288 6.824C72.9728 6.824 72.7648 6.87733 72.6048 6.984C72.4448 7.09067 72.3648 7.24533 72.3648 7.448C72.3648 7.61867 72.4341 7.77333 72.5728 7.912C72.7221 8.04 72.9141 8.15733 73.1488 8.264C73.3941 8.37067 73.6661 8.48267 73.9648 8.6C74.3808 8.76 74.7594 8.936 75.1008 9.128C75.4421 9.32 75.7141 9.55467 75.9168 9.832C76.1194 10.1093 76.2208 10.472 76.2208 10.92C76.2208 11.6133 75.9808 12.1733 75.5008 12.6C75.0314 13.016 74.3968 13.224 73.5968 13.224C73.0848 13.224 72.6208 13.1493 72.2048 13C71.7888 12.84 71.4208 12.6373 71.1008 12.392C70.7808 12.136 70.5141 11.8693 70.3008 11.592L71.3088 10.568ZM85.8437 9.976V8.424H89.1237V9.976H85.8437ZM89.1213 9.976V8.424H92.4013V9.976H89.1213ZM98.8787 8.904L93.3587 6.536V4.824L101.519 8.296V9.384L93.3587 12.856V11.144L98.8787 8.904ZM110.598 7.656H112.63L116.438 13H114.15L110.598 7.656ZM108.278 1.8H110.166V13H108.278V1.8ZM109.398 3.432V1.8H111.734C112.555 1.8 113.265 1.944 113.862 2.232C114.459 2.52 114.923 2.92533 115.254 3.448C115.595 3.96 115.766 4.568 115.766 5.272C115.766 5.976 115.595 6.58933 115.254 7.112C114.923 7.63467 114.459 8.04 113.862 8.328C113.265 8.616 112.555 8.76 111.734 8.76H109.398V7.192H111.654C112.091 7.192 112.47 7.12267 112.79 6.984C113.11 6.83467 113.361 6.62133 113.542 6.344C113.723 6.056 113.814 5.71467 113.814 5.32C113.814 4.91467 113.723 4.57333 113.542 4.296C113.361 4.01867 113.11 3.80533 112.79 3.656C112.47 3.50667 112.091 3.432 111.654 3.432H109.398ZM120.69 13.16C119.943 13.16 119.282 13 118.706 12.68C118.14 12.36 117.703 11.912 117.394 11.336C117.084 10.76 116.93 10.088 116.93 9.32C116.93 8.54133 117.084 7.864 117.394 7.288C117.714 6.712 118.162 6.26933 118.738 5.96C119.314 5.64 119.991 5.48 120.77 5.48C121.548 5.48 122.21 5.62933 122.754 5.928C123.308 6.22667 123.73 6.65867 124.018 7.224C124.306 7.77867 124.45 8.45067 124.45 9.24C124.45 9.32533 124.444 9.416 124.434 9.512C124.434 9.608 124.434 9.67733 124.434 9.72H117.97V8.52H122.946L122.418 9.256C122.45 9.192 122.482 9.10667 122.514 9C122.556 8.89333 122.578 8.80267 122.578 8.728C122.578 8.33333 122.498 7.992 122.338 7.704C122.188 7.416 121.975 7.192 121.698 7.032C121.431 6.872 121.116 6.792 120.754 6.792C120.316 6.792 119.943 6.888 119.634 7.08C119.335 7.272 119.1 7.54933 118.93 7.912C118.77 8.27467 118.69 8.72267 118.69 9.256C118.679 9.77867 118.754 10.2267 118.914 10.6C119.084 10.9733 119.324 11.256 119.634 11.448C119.943 11.64 120.322 11.736 120.77 11.736C121.25 11.736 121.666 11.64 122.018 11.448C122.37 11.256 122.658 10.9627 122.882 10.568L124.386 11.16C123.991 11.8213 123.49 12.3227 122.882 12.664C122.274 12.9947 121.543 13.16 120.69 13.16ZM126.291 10.568C126.536 10.8347 126.776 11.0587 127.011 11.24C127.245 11.4213 127.485 11.56 127.731 11.656C127.976 11.752 128.221 11.8 128.467 11.8C128.776 11.8 129.016 11.7307 129.187 11.592C129.368 11.4533 129.459 11.2613 129.459 11.016C129.459 10.8027 129.389 10.6213 129.251 10.472C129.112 10.312 128.92 10.1787 128.675 10.072C128.429 9.95467 128.141 9.83733 127.811 9.72C127.48 9.592 127.149 9.44267 126.819 9.272C126.499 9.09067 126.232 8.856 126.019 8.568C125.816 8.28 125.715 7.91733 125.715 7.48C125.715 7.032 125.827 6.65867 126.051 6.36C126.285 6.06133 126.595 5.84267 126.979 5.704C127.373 5.55467 127.795 5.48 128.243 5.48C128.648 5.48 129.027 5.53867 129.379 5.656C129.741 5.77333 130.067 5.928 130.355 6.12C130.643 6.312 130.888 6.53067 131.091 6.776L130.131 7.8C129.896 7.512 129.608 7.27733 129.267 7.096C128.925 6.91467 128.573 6.824 128.211 6.824C127.955 6.824 127.747 6.87733 127.587 6.984C127.427 7.09067 127.347 7.24533 127.347 7.448C127.347 7.61867 127.416 7.77333 127.555 7.912C127.704 8.04 127.896 8.15733 128.131 8.264C128.376 8.37067 128.648 8.48267 128.947 8.6C129.363 8.76 129.741 8.936 130.083 9.128C130.424 9.32 130.696 9.55467 130.899 9.832C131.101 10.1093 131.203 10.472 131.203 10.92C131.203 11.6133 130.963 12.1733 130.483 12.6C130.013 13.016 129.379 13.224 128.579 13.224C128.067 13.224 127.603 13.1493 127.187 13C126.771 12.84 126.403 12.6373 126.083 12.392C125.763 12.136 125.496 11.8693 125.283 11.592L126.291 10.568ZM132.016 9.32C132.016 8.56267 132.187 7.896 132.528 7.32C132.88 6.744 133.355 6.296 133.952 5.976C134.56 5.64533 135.237 5.48 135.984 5.48C136.741 5.48 137.419 5.64533 138.016 5.976C138.613 6.296 139.083 6.744 139.424 7.32C139.776 7.896 139.952 8.56267 139.952 9.32C139.952 10.0667 139.776 10.7333 139.424 11.32C139.083 11.896 138.613 12.3493 138.016 12.68C137.419 13 136.741 13.16 135.984 13.16C135.237 13.16 134.56 13 133.952 12.68C133.355 12.3493 132.88 11.896 132.528 11.32C132.187 10.7333 132.016 10.0667 132.016 9.32ZM133.792 9.32C133.792 9.77867 133.888 10.184 134.08 10.536C134.272 10.8773 134.533 11.1493 134.864 11.352C135.195 11.544 135.568 11.64 135.984 11.64C136.4 11.64 136.773 11.544 137.104 11.352C137.435 11.1493 137.696 10.8773 137.888 10.536C138.08 10.184 138.176 9.77867 138.176 9.32C138.176 8.86133 138.08 8.456 137.888 8.104C137.696 7.752 137.435 7.48 137.104 7.288C136.773 7.096 136.4 7 135.984 7C135.568 7 135.195 7.096 134.864 7.288C134.533 7.48 134.272 7.752 134.08 8.104C133.888 8.456 133.792 8.86133 133.792 9.32ZM143.223 10.12C143.223 10.6427 143.335 11.048 143.559 11.336C143.783 11.624 144.13 11.768 144.599 11.768C144.919 11.768 145.202 11.6987 145.447 11.56C145.692 11.4213 145.884 11.2293 146.023 10.984C146.162 10.7387 146.231 10.4507 146.231 10.12V5.64H147.959V13H146.231V11.864C145.996 12.2907 145.692 12.616 145.319 12.84C144.956 13.0533 144.519 13.16 144.007 13.16C143.186 13.16 142.551 12.904 142.103 12.392C141.666 11.88 141.447 11.1867 141.447 10.312V5.64H143.223V10.12ZM151.718 5.64V13H150.006V5.64H151.718ZM153.91 7.48C153.761 7.352 153.611 7.256 153.462 7.192C153.323 7.128 153.147 7.096 152.934 7.096C152.646 7.096 152.411 7.17067 152.23 7.32C152.049 7.46933 151.915 7.67733 151.83 7.944C151.755 8.2 151.718 8.504 151.718 8.856L151.142 8.52C151.142 7.93333 151.249 7.416 151.462 6.968C151.686 6.50933 151.969 6.14667 152.31 5.88C152.662 5.60267 153.025 5.464 153.398 5.464C153.665 5.464 153.915 5.50667 154.15 5.592C154.385 5.67733 154.587 5.82133 154.758 6.024L153.91 7.48ZM156.701 9.32C156.701 9.77867 156.802 10.184 157.005 10.536C157.208 10.888 157.48 11.1653 157.821 11.368C158.173 11.5707 158.562 11.672 158.989 11.672C159.352 11.672 159.688 11.6187 159.997 11.512C160.317 11.3947 160.6 11.2453 160.845 11.064C161.09 10.872 161.272 10.6587 161.389 10.424V12.328C161.133 12.584 160.786 12.7867 160.349 12.936C159.912 13.0853 159.432 13.16 158.909 13.16C158.162 13.16 157.485 13 156.877 12.68C156.28 12.3493 155.805 11.896 155.453 11.32C155.101 10.7333 154.925 10.0667 154.925 9.32C154.925 8.56267 155.101 7.896 155.453 7.32C155.805 6.744 156.28 6.296 156.877 5.976C157.485 5.64533 158.162 5.48 158.909 5.48C159.432 5.48 159.912 5.55467 160.349 5.704C160.786 5.85333 161.133 6.05067 161.389 6.296V8.216C161.272 7.97067 161.085 7.75733 160.829 7.576C160.584 7.384 160.301 7.23467 159.981 7.128C159.661 7.02133 159.33 6.968 158.989 6.968C158.562 6.968 158.173 7.06933 157.821 7.272C157.48 7.47467 157.208 7.752 157.005 8.104C156.802 8.456 156.701 8.86133 156.701 9.32ZM166.339 13.16C165.592 13.16 164.931 13 164.355 12.68C163.79 12.36 163.352 11.912 163.043 11.336C162.734 10.76 162.579 10.088 162.579 9.32C162.579 8.54133 162.734 7.864 163.043 7.288C163.363 6.712 163.811 6.26933 164.387 5.96C164.963 5.64 165.64 5.48 166.419 5.48C167.198 5.48 167.859 5.62933 168.403 5.928C168.958 6.22667 169.379 6.65867 169.667 7.224C169.955 7.77867 170.099 8.45067 170.099 9.24C170.099 9.32533 170.094 9.416 170.083 9.512C170.083 9.608 170.083 9.67733 170.083 9.72H163.619V8.52H168.595L168.067 9.256C168.099 9.192 168.131 9.10667 168.163 9C168.206 8.89333 168.227 8.80267 168.227 8.728C168.227 8.33333 168.147 7.992 167.987 7.704C167.838 7.416 167.624 7.192 167.347 7.032C167.08 6.872 166.766 6.792 166.403 6.792C165.966 6.792 165.592 6.888 165.283 7.08C164.984 7.272 164.75 7.54933 164.579 7.912C164.419 8.27467 164.339 8.72267 164.339 9.256C164.328 9.77867 164.403 10.2267 164.563 10.6C164.734 10.9733 164.974 11.256 165.283 11.448C165.592 11.64 165.971 11.736 166.419 11.736C166.899 11.736 167.315 11.64 167.667 11.448C168.019 11.256 168.307 10.9627 168.531 10.568L170.035 11.16C169.64 11.8213 169.139 12.3227 168.531 12.664C167.923 12.9947 167.192 13.16 166.339 13.16ZM171.94 10.568C172.185 10.8347 172.425 11.0587 172.66 11.24C172.895 11.4213 173.135 11.56 173.38 11.656C173.625 11.752 173.871 11.8 174.116 11.8C174.425 11.8 174.665 11.7307 174.836 11.592C175.017 11.4533 175.108 11.2613 175.108 11.016C175.108 10.8027 175.039 10.6213 174.9 10.472C174.761 10.312 174.569 10.1787 174.324 10.072C174.079 9.95467 173.791 9.83733 173.46 9.72C173.129 9.592 172.799 9.44267 172.468 9.272C172.148 9.09067 171.881 8.856 171.668 8.568C171.465 8.28 171.364 7.91733 171.364 7.48C171.364 7.032 171.476 6.65867 171.7 6.36C171.935 6.06133 172.244 5.84267 172.628 5.704C173.023 5.55467 173.444 5.48 173.892 5.48C174.297 5.48 174.676 5.53867 175.028 5.656C175.391 5.77333 175.716 5.928 176.004 6.12C176.292 6.312 176.537 6.53067 176.74 6.776L175.78 7.8C175.545 7.512 175.257 7.27733 174.916 7.096C174.575 6.91467 174.223 6.824 173.86 6.824C173.604 6.824 173.396 6.87733 173.236 6.984C173.076 7.09067 172.996 7.24533 172.996 7.448C172.996 7.61867 173.065 7.77333 173.204 7.912C173.353 8.04 173.545 8.15733 173.78 8.264C174.025 8.37067 174.297 8.48267 174.596 8.6C175.012 8.76 175.391 8.936 175.732 9.128C176.073 9.32 176.345 9.55467 176.548 9.832C176.751 10.1093 176.852 10.472 176.852 10.92C176.852 11.6133 176.612 12.1733 176.132 12.6C175.663 13.016 175.028 13.224 174.228 13.224C173.716 13.224 173.252 13.1493 172.836 13C172.42 12.84 172.052 12.6373 171.732 12.392C171.412 12.136 171.145 11.8693 170.932 11.592L171.94 10.568ZM181.838 9.976V8.424H185.118V9.976H181.838ZM185.116 9.976V8.424H188.396V9.976H185.116ZM194.873 8.904L189.353 6.536V4.824L197.513 8.296V9.384L189.353 12.856V11.144L194.873 8.904Z" fill="white" fill-opacity="0.46"/>
<path d="M205.68 7.4C205.68 8.18933 205.856 8.88267 206.208 9.48C206.571 10.0667 207.04 10.5253 207.616 10.856C208.192 11.1867 208.822 11.352 209.504 11.352C210.038 11.352 210.518 11.2827 210.944 11.144C211.382 11.0053 211.771 10.8187 212.112 10.584C212.454 10.3387 212.752 10.0613 213.008 9.752V12.008C212.55 12.392 212.043 12.6853 211.488 12.888C210.944 13.0907 210.262 13.192 209.44 13.192C208.619 13.192 207.851 13.0533 207.136 12.776C206.432 12.4987 205.819 12.0987 205.296 11.576C204.774 11.0533 204.363 10.44 204.064 9.736C203.776 9.02133 203.632 8.24267 203.632 7.4C203.632 6.54667 203.776 5.768 204.064 5.064C204.363 4.34933 204.774 3.736 205.296 3.224C205.819 2.70133 206.432 2.30133 207.136 2.024C207.851 1.736 208.619 1.592 209.44 1.592C210.262 1.592 210.944 1.69333 211.488 1.896C212.043 2.09867 212.55 2.39733 213.008 2.792V5.032C212.752 4.73333 212.454 4.46667 212.112 4.232C211.771 3.98667 211.382 3.79467 210.944 3.656C210.518 3.51733 210.038 3.448 209.504 3.448C208.822 3.448 208.192 3.61333 207.616 3.944C207.04 4.264 206.571 4.72267 206.208 5.32C205.856 5.90667 205.68 6.6 205.68 7.4ZM216.119 10.712C216.119 10.9573 216.178 11.1707 216.295 11.352C216.412 11.5227 216.572 11.6507 216.775 11.736C216.988 11.8213 217.228 11.864 217.495 11.864C217.847 11.864 218.162 11.7947 218.439 11.656C218.727 11.5067 218.956 11.2987 219.127 11.032C219.298 10.7653 219.383 10.4453 219.383 10.072L219.639 11.032C219.639 11.5013 219.5 11.896 219.223 12.216C218.956 12.536 218.615 12.776 218.199 12.936C217.794 13.0853 217.378 13.16 216.951 13.16C216.492 13.16 216.066 13.0693 215.671 12.888C215.276 12.7067 214.962 12.44 214.727 12.088C214.492 11.736 214.375 11.3093 214.375 10.808C214.375 10.0933 214.626 9.528 215.127 9.112C215.628 8.68533 216.338 8.472 217.255 8.472C217.746 8.472 218.167 8.52533 218.519 8.632C218.882 8.73867 219.18 8.86667 219.415 9.016C219.65 9.15467 219.815 9.28267 219.911 9.4V10.28C219.58 10.0453 219.228 9.87467 218.855 9.768C218.482 9.66133 218.087 9.608 217.671 9.608C217.308 9.608 217.015 9.656 216.791 9.752C216.567 9.83733 216.396 9.96 216.279 10.12C216.172 10.28 216.119 10.4773 216.119 10.712ZM215.575 7.56L214.871 6.344C215.212 6.14133 215.644 5.944 216.167 5.752C216.69 5.56 217.298 5.464 217.991 5.464C218.588 5.464 219.122 5.55467 219.591 5.736C220.06 5.90667 220.423 6.16267 220.679 6.504C220.946 6.84533 221.079 7.26133 221.079 7.752V13H219.383V8.088C219.383 7.85333 219.346 7.66133 219.271 7.512C219.196 7.36267 219.084 7.24 218.935 7.144C218.796 7.048 218.631 6.97867 218.439 6.936C218.247 6.89333 218.039 6.872 217.815 6.872C217.474 6.872 217.148 6.91467 216.839 7C216.54 7.07467 216.284 7.17067 216.071 7.288C215.858 7.39467 215.692 7.48533 215.575 7.56ZM223.269 10.568C223.515 10.8347 223.755 11.0587 223.989 11.24C224.224 11.4213 224.464 11.56 224.709 11.656C224.955 11.752 225.2 11.8 225.445 11.8C225.755 11.8 225.995 11.7307 226.165 11.592C226.347 11.4533 226.437 11.2613 226.437 11.016C226.437 10.8027 226.368 10.6213 226.229 10.472C226.091 10.312 225.899 10.1787 225.653 10.072C225.408 9.95467 225.12 9.83733 224.789 9.72C224.459 9.592 224.128 9.44267 223.797 9.272C223.477 9.09067 223.211 8.856 222.997 8.568C222.795 8.28 222.693 7.91733 222.693 7.48C222.693 7.032 222.805 6.65867 223.029 6.36C223.264 6.06133 223.573 5.84267 223.957 5.704C224.352 5.55467 224.773 5.48 225.221 5.48C225.627 5.48 226.005 5.53867 226.357 5.656C226.72 5.77333 227.045 5.928 227.333 6.12C227.621 6.312 227.867 6.53067 228.069 6.776L227.109 7.8C226.875 7.512 226.587 7.27733 226.245 7.096C225.904 6.91467 225.552 6.824 225.189 6.824C224.933 6.824 224.725 6.87733 224.565 6.984C224.405 7.09067 224.325 7.24533 224.325 7.448C224.325 7.61867 224.395 7.77333 224.533 7.912C224.683 8.04 224.875 8.15733 225.109 8.264C225.355 8.37067 225.627 8.48267 225.925 8.6C226.341 8.76 226.72 8.936 227.061 9.128C227.403 9.32 227.675 9.55467 227.877 9.832C228.08 10.1093 228.181 10.472 228.181 10.92C228.181 11.6133 227.941 12.1733 227.461 12.6C226.992 13.016 226.357 13.224 225.557 13.224C225.045 13.224 224.581 13.1493 224.165 13C223.749 12.84 223.381 12.6373 223.061 12.392C222.741 12.136 222.475 11.8693 222.261 11.592L223.269 10.568ZM232.755 13.16C232.008 13.16 231.347 13 230.771 12.68C230.205 12.36 229.768 11.912 229.459 11.336C229.149 10.76 228.995 10.088 228.995 9.32C228.995 8.54133 229.149 7.864 229.459 7.288C229.779 6.712 230.227 6.26933 230.803 5.96C231.379 5.64 232.056 5.48 232.835 5.48C233.613 5.48 234.275 5.62933 234.819 5.928C235.373 6.22667 235.795 6.65867 236.083 7.224C236.371 7.77867 236.515 8.45067 236.515 9.24C236.515 9.32533 236.509 9.416 236.499 9.512C236.499 9.608 236.499 9.67733 236.499 9.72H230.035V8.52H235.011L234.483 9.256C234.515 9.192 234.547 9.10667 234.579 9C234.621 8.89333 234.643 8.80267 234.643 8.728C234.643 8.33333 234.563 7.992 234.403 7.704C234.253 7.416 234.04 7.192 233.763 7.032C233.496 6.872 233.181 6.792 232.819 6.792C232.381 6.792 232.008 6.888 231.699 7.08C231.4 7.272 231.165 7.54933 230.995 7.912C230.835 8.27467 230.755 8.72267 230.755 9.256C230.744 9.77867 230.819 10.2267 230.979 10.6C231.149 10.9733 231.389 11.256 231.699 11.448C232.008 11.64 232.387 11.736 232.835 11.736C233.315 11.736 233.731 11.64 234.083 11.448C234.435 11.256 234.723 10.9627 234.947 10.568L236.451 11.16C236.056 11.8213 235.555 12.3227 234.947 12.664C234.339 12.9947 233.608 13.16 232.755 13.16ZM243.537 9.384C243.782 9.82133 244.043 10.2 244.321 10.52C244.609 10.84 244.923 11.0907 245.265 11.272C245.617 11.4533 246.001 11.544 246.417 11.544C246.929 11.544 247.345 11.4053 247.665 11.128C247.985 10.8507 248.145 10.488 248.145 10.04C248.145 9.63467 248.043 9.30933 247.841 9.064C247.649 8.808 247.371 8.59467 247.009 8.424C246.646 8.24267 246.23 8.06667 245.761 7.896C245.483 7.8 245.174 7.672 244.833 7.512C244.491 7.34133 244.166 7.13333 243.857 6.888C243.547 6.632 243.291 6.32267 243.089 5.96C242.886 5.58667 242.785 5.13867 242.785 4.616C242.785 4.01867 242.939 3.496 243.249 3.048C243.558 2.58933 243.974 2.232 244.497 1.976C245.03 1.72 245.633 1.592 246.305 1.592C246.966 1.592 247.542 1.71467 248.033 1.96C248.523 2.19467 248.939 2.49333 249.281 2.856C249.622 3.21867 249.883 3.59733 250.065 3.992L248.545 4.856C248.395 4.57867 248.214 4.32267 248.001 4.088C247.787 3.84267 247.537 3.65067 247.249 3.512C246.971 3.36267 246.646 3.288 246.273 3.288C245.75 3.288 245.366 3.41067 245.121 3.656C244.875 3.89067 244.753 4.168 244.753 4.488C244.753 4.776 244.838 5.03733 245.009 5.272C245.19 5.496 245.467 5.70933 245.841 5.912C246.214 6.11467 246.699 6.32267 247.297 6.536C247.638 6.65333 247.974 6.80267 248.305 6.984C248.646 7.16533 248.95 7.38933 249.217 7.656C249.494 7.92267 249.718 8.24267 249.889 8.616C250.059 8.97867 250.145 9.40533 250.145 9.896C250.145 10.4187 250.038 10.888 249.825 11.304C249.622 11.72 249.345 12.072 248.993 12.36C248.641 12.6373 248.241 12.8507 247.793 13C247.355 13.16 246.897 13.24 246.417 13.24C245.766 13.24 245.158 13.112 244.593 12.856C244.038 12.5893 243.547 12.2373 243.121 11.8C242.705 11.3627 242.374 10.888 242.129 10.376L243.537 9.384ZM250.738 5.64H254.914V7.16H250.738V5.64ZM251.986 3.08H253.682V13H251.986V3.08ZM257.722 10.12C257.722 10.6427 257.834 11.048 258.058 11.336C258.282 11.624 258.629 11.768 259.098 11.768C259.418 11.768 259.701 11.6987 259.946 11.56C260.191 11.4213 260.383 11.2293 260.522 10.984C260.661 10.7387 260.73 10.4507 260.73 10.12V5.64H262.458V13H260.73V11.864C260.495 12.2907 260.191 12.616 259.818 12.84C259.455 13.0533 259.018 13.16 258.506 13.16C257.685 13.16 257.05 12.904 256.602 12.392C256.165 11.88 255.946 11.1867 255.946 10.312V5.64H257.722V10.12ZM270.041 0.52H271.785V13H270.041V0.52ZM263.945 9.32C263.945 8.50933 264.11 7.82133 264.441 7.256C264.771 6.68 265.209 6.24267 265.753 5.944C266.307 5.63467 266.899 5.48 267.529 5.48C268.147 5.48 268.686 5.63467 269.145 5.944C269.614 6.25333 269.982 6.696 270.249 7.272C270.526 7.83733 270.665 8.52 270.665 9.32C270.665 10.1093 270.526 10.792 270.249 11.368C269.982 11.944 269.614 12.3867 269.145 12.696C268.686 13.0053 268.147 13.16 267.529 13.16C266.899 13.16 266.307 13.0107 265.753 12.712C265.209 12.4027 264.771 11.96 264.441 11.384C264.11 10.808 263.945 10.12 263.945 9.32ZM265.737 9.32C265.737 9.81067 265.838 10.232 266.041 10.584C266.243 10.936 266.51 11.2027 266.841 11.384C267.182 11.5653 267.55 11.656 267.945 11.656C268.286 11.656 268.617 11.5653 268.937 11.384C269.257 11.2027 269.518 10.9413 269.721 10.6C269.934 10.248 270.041 9.82133 270.041 9.32C270.041 8.81867 269.934 8.39733 269.721 8.056C269.518 7.704 269.257 7.43733 268.937 7.256C268.617 7.07467 268.286 6.984 267.945 6.984C267.55 6.984 267.182 7.07467 266.841 7.256C266.51 7.43733 266.243 7.704 266.041 8.056C265.838 8.408 265.737 8.82933 265.737 9.32ZM273.703 2.712C273.703 2.41333 273.809 2.16267 274.023 1.96C274.247 1.75733 274.503 1.656 274.791 1.656C275.1 1.656 275.361 1.75733 275.575 1.96C275.788 2.16267 275.895 2.41333 275.895 2.712C275.895 3 275.788 3.25067 275.575 3.464C275.361 3.66667 275.1 3.768 274.791 3.768C274.503 3.768 274.247 3.66667 274.023 3.464C273.809 3.25067 273.703 3 273.703 2.712ZM273.943 5.64H275.655V13H273.943V5.64ZM281.072 13.16C280.325 13.16 279.664 13 279.088 12.68C278.523 12.36 278.085 11.912 277.776 11.336C277.467 10.76 277.312 10.088 277.312 9.32C277.312 8.54133 277.467 7.864 277.776 7.288C278.096 6.712 278.544 6.26933 279.12 5.96C279.696 5.64 280.373 5.48 281.152 5.48C281.931 5.48 282.592 5.62933 283.136 5.928C283.691 6.22667 284.112 6.65867 284.4 7.224C284.688 7.77867 284.832 8.45067 284.832 9.24C284.832 9.32533 284.827 9.416 284.816 9.512C284.816 9.608 284.816 9.67733 284.816 9.72H278.352V8.52H283.328L282.8 9.256C282.832 9.192 282.864 9.10667 282.896 9C282.939 8.89333 282.96 8.80267 282.96 8.728C282.96 8.33333 282.88 7.992 282.72 7.704C282.571 7.416 282.357 7.192 282.08 7.032C281.813 6.872 281.499 6.792 281.136 6.792C280.699 6.792 280.325 6.888 280.016 7.08C279.717 7.272 279.483 7.54933 279.312 7.912C279.152 8.27467 279.072 8.72267 279.072 9.256C279.061 9.77867 279.136 10.2267 279.296 10.6C279.467 10.9733 279.707 11.256 280.016 11.448C280.325 11.64 280.704 11.736 281.152 11.736C281.632 11.736 282.048 11.64 282.4 11.448C282.752 11.256 283.04 10.9627 283.264 10.568L284.768 11.16C284.373 11.8213 283.872 12.3227 283.264 12.664C282.656 12.9947 281.925 13.16 281.072 13.16ZM286.673 10.568C286.918 10.8347 287.158 11.0587 287.393 11.24C287.628 11.4213 287.868 11.56 288.113 11.656C288.358 11.752 288.604 11.8 288.849 11.8C289.158 11.8 289.398 11.7307 289.569 11.592C289.75 11.4533 289.841 11.2613 289.841 11.016C289.841 10.8027 289.772 10.6213 289.633 10.472C289.494 10.312 289.302 10.1787 289.057 10.072C288.812 9.95467 288.524 9.83733 288.193 9.72C287.862 9.592 287.532 9.44267 287.201 9.272C286.881 9.09067 286.614 8.856 286.401 8.568C286.198 8.28 286.097 7.91733 286.097 7.48C286.097 7.032 286.209 6.65867 286.433 6.36C286.668 6.06133 286.977 5.84267 287.361 5.704C287.756 5.55467 288.177 5.48 288.625 5.48C289.03 5.48 289.409 5.53867 289.761 5.656C290.124 5.77333 290.449 5.928 290.737 6.12C291.025 6.312 291.27 6.53067 291.473 6.776L290.513 7.8C290.278 7.512 289.99 7.27733 289.649 7.096C289.308 6.91467 288.956 6.824 288.593 6.824C288.337 6.824 288.129 6.87733 287.969 6.984C287.809 7.09067 287.729 7.24533 287.729 7.448C287.729 7.61867 287.798 7.77333 287.937 7.912C288.086 8.04 288.278 8.15733 288.513 8.264C288.758 8.37067 289.03 8.48267 289.329 8.6C289.745 8.76 290.124 8.936 290.465 9.128C290.806 9.32 291.078 9.55467 291.281 9.832C291.484 10.1093 291.585 10.472 291.585 10.92C291.585 11.6133 291.345 12.1733 290.865 12.6C290.396 13.016 289.761 13.224 288.961 13.224C288.449 13.224 287.985 13.1493 287.569 13C287.153 12.84 286.785 12.6373 286.465 12.392C286.145 12.136 285.878 11.8693 285.665 11.592L286.673 10.568Z" fill="white" fill-opacity="0.8"/>
</svg>
