<svg width="916" height="123" viewBox="0 0 916 123" fill="none" xmlns="http://www.w3.org/2000/svg">
<g filter="url(#filter0_dd_1_957)">
<rect x="693.379" y="56" width="207.9" height="41.58" rx="4.62" fill="url(#paint0_linear_1_957)"/>
<path d="M725.999 70.9212H727.907V82.2402H725.999V70.9212ZM727.13 72.6029V70.9212H729.41C730.24 70.9212 730.957 71.0668 731.561 71.3578C732.165 71.6381 732.634 72.0424 732.968 72.5706C733.313 73.088 733.485 73.7079 733.485 74.4301C733.485 75.1524 733.313 75.7776 732.968 76.3058C732.634 76.8341 732.165 77.2437 731.561 77.5348C730.957 77.815 730.24 77.9552 729.41 77.9552H727.13V76.2735H729.41C730.068 76.2735 730.596 76.1172 730.995 75.8046C731.394 75.492 731.593 75.0338 731.593 74.4301C731.593 73.8264 731.394 73.3737 730.995 73.0718C730.596 72.7592 730.068 72.6029 729.41 72.6029H727.13ZM735.811 79.9279C735.811 80.1759 735.871 80.3915 735.989 80.5747C736.108 80.7472 736.269 80.8766 736.474 80.9628C736.69 81.049 736.932 81.0922 737.202 81.0922C737.558 81.0922 737.876 81.0221 738.156 80.882C738.447 80.731 738.679 80.5208 738.851 80.2513C739.024 79.9818 739.11 79.6584 739.11 79.2811L739.369 80.2513C739.369 80.7256 739.229 81.1245 738.948 81.4479C738.679 81.7713 738.334 82.0139 737.913 82.1756C737.504 82.3265 737.083 82.4019 736.652 82.4019C736.189 82.4019 735.757 82.3103 735.359 82.127C734.96 81.9438 734.642 81.6743 734.405 81.3185C734.167 80.9628 734.049 80.5316 734.049 80.0249C734.049 79.3027 734.302 78.7313 734.809 78.3109C735.315 77.8797 736.032 77.6641 736.959 77.6641C737.455 77.6641 737.881 77.718 738.237 77.8258C738.603 77.9336 738.905 78.063 739.142 78.2139C739.379 78.354 739.547 78.4834 739.644 78.602V79.4913C739.309 79.2542 738.954 79.0817 738.576 78.9739C738.199 78.8661 737.8 78.8122 737.38 78.8122C737.013 78.8122 736.717 78.8607 736.49 78.9577C736.264 79.044 736.092 79.1679 735.973 79.3296C735.865 79.4913 735.811 79.6908 735.811 79.9279ZM735.262 76.7424L734.55 75.5135C734.895 75.3087 735.332 75.1093 735.86 74.9152C736.388 74.7212 737.003 74.6242 737.703 74.6242C738.307 74.6242 738.846 74.7158 739.32 74.8991C739.795 75.0715 740.161 75.3303 740.42 75.6752C740.689 76.0202 740.824 76.4406 740.824 76.9365V82.2402H739.11V77.276C739.11 77.0389 739.072 76.8448 738.997 76.6939C738.921 76.543 738.808 76.419 738.657 76.322C738.517 76.225 738.35 76.1549 738.156 76.1118C737.962 76.0687 737.752 76.0471 737.525 76.0471C737.18 76.0471 736.852 76.0902 736.539 76.1765C736.237 76.2519 735.978 76.349 735.763 76.4675C735.547 76.5753 735.38 76.667 735.262 76.7424ZM744.59 74.802V82.2402H742.86V74.802H744.59ZM746.805 76.6616C746.654 76.5322 746.504 76.4352 746.353 76.3705C746.213 76.3058 746.035 76.2735 745.819 76.2735C745.528 76.2735 745.291 76.349 745.108 76.4999C744.924 76.6508 744.79 76.861 744.703 77.1305C744.628 77.3892 744.59 77.6965 744.59 78.0522L744.008 77.7126C744.008 77.1197 744.116 76.5969 744.331 76.1441C744.558 75.6806 744.843 75.3141 745.188 75.0446C745.544 74.7643 745.911 74.6242 746.288 74.6242C746.557 74.6242 746.811 74.6673 747.048 74.7535C747.285 74.8398 747.49 74.9853 747.662 75.1901L746.805 76.6616ZM747.826 74.802H752.046V76.3382H747.826V74.802ZM749.087 72.2148H750.801V82.2402H749.087V72.2148ZM758.037 77.7126C758.037 77.1629 757.924 76.7478 757.697 76.4675C757.471 76.1873 757.126 76.0471 756.662 76.0471C756.328 76.0471 756.037 76.1172 755.789 76.2573C755.541 76.3867 755.347 76.5807 755.207 76.8395C755.078 77.0874 755.013 77.3785 755.013 77.7126V82.2402H753.25V74.802H755.013V75.9501C755.25 75.5081 755.552 75.1793 755.918 74.9637C756.296 74.7481 756.738 74.6403 757.244 74.6403C758.085 74.6403 758.727 74.8991 759.169 75.4165C759.611 75.9232 759.832 76.6185 759.832 77.5024V82.2402H758.037V77.7126ZM765.296 82.4019C764.541 82.4019 763.873 82.2402 763.291 81.9168C762.719 81.5934 762.277 81.1407 761.965 80.5586C761.652 79.9764 761.496 79.2973 761.496 78.5211C761.496 77.7342 761.652 77.0497 761.965 76.4675C762.288 75.8854 762.741 75.4381 763.323 75.1254C763.905 74.802 764.59 74.6403 765.377 74.6403C766.164 74.6403 766.832 74.7913 767.382 75.0931C767.942 75.3949 768.368 75.8315 768.659 76.4029C768.95 76.9634 769.096 77.6426 769.096 78.4403C769.096 78.5265 769.09 78.6182 769.08 78.7152C769.08 78.8122 769.08 78.8823 769.08 78.9254H762.547V77.7126H767.576L767.042 78.4565C767.074 78.3918 767.107 78.3055 767.139 78.1977C767.182 78.0899 767.204 77.9983 767.204 77.9228C767.204 77.524 767.123 77.179 766.961 76.888C766.81 76.5969 766.595 76.3705 766.315 76.2088C766.045 76.0471 765.727 75.9663 765.36 75.9663C764.918 75.9663 764.541 76.0633 764.229 76.2573C763.927 76.4514 763.69 76.7317 763.517 77.0982C763.355 77.4647 763.275 77.9175 763.275 78.4565C763.264 78.9847 763.339 79.4374 763.501 79.8147C763.673 80.192 763.916 80.4777 764.229 80.6717C764.541 80.8658 764.924 80.9628 765.377 80.9628C765.862 80.9628 766.282 80.8658 766.638 80.6717C766.994 80.4777 767.285 80.1813 767.511 79.7824L769.031 80.3807C768.632 81.049 768.126 81.5557 767.511 81.9007C766.897 82.2348 766.158 82.4019 765.296 82.4019ZM772.509 74.802V82.2402H770.778V74.802H772.509ZM774.724 76.6616C774.573 76.5322 774.422 76.4352 774.271 76.3705C774.131 76.3058 773.953 76.2735 773.738 76.2735C773.446 76.2735 773.209 76.349 773.026 76.4999C772.843 76.6508 772.708 76.861 772.622 77.1305C772.546 77.3892 772.509 77.6965 772.509 78.0522L771.927 77.7126C771.927 77.1197 772.034 76.5969 772.25 76.1441C772.476 75.6806 772.762 75.3141 773.107 75.0446C773.463 74.7643 773.829 74.6242 774.206 74.6242C774.476 74.6242 774.729 74.6673 774.966 74.7535C775.204 74.8398 775.408 74.9853 775.581 75.1901L774.724 76.6616ZM777.119 79.7824C777.367 80.0519 777.609 80.2783 777.846 80.4615C778.083 80.6448 778.326 80.7849 778.574 80.882C778.822 80.979 779.07 81.0275 779.318 81.0275C779.63 81.0275 779.873 80.9574 780.045 80.8173C780.229 80.6771 780.32 80.4831 780.32 80.2352C780.32 80.0196 780.25 79.8363 780.11 79.6854C779.97 79.5237 779.776 79.3889 779.528 79.2811C779.28 79.1625 778.989 79.044 778.655 78.9254C778.321 78.796 777.986 78.6451 777.652 78.4726C777.329 78.2894 777.059 78.0522 776.844 77.7611C776.639 77.4701 776.536 77.1036 776.536 76.6616C776.536 76.2088 776.65 75.8315 776.876 75.5297C777.113 75.2278 777.426 75.0069 777.814 74.8667C778.213 74.7158 778.639 74.6403 779.091 74.6403C779.501 74.6403 779.884 74.6996 780.239 74.8182C780.606 74.9368 780.935 75.0931 781.226 75.2871C781.517 75.4812 781.765 75.7022 781.97 75.9501L780.999 76.985C780.762 76.6939 780.471 76.4568 780.126 76.2735C779.781 76.0902 779.426 75.9986 779.059 75.9986C778.8 75.9986 778.59 76.0525 778.428 76.1603C778.267 76.2681 778.186 76.4244 778.186 76.6292C778.186 76.8017 778.256 76.958 778.396 77.0982C778.547 77.2275 778.741 77.3461 778.978 77.4539C779.226 77.5617 779.501 77.6749 779.803 77.7935C780.223 77.9552 780.606 78.1331 780.951 78.3271C781.296 78.5211 781.571 78.7583 781.776 79.0386C781.98 79.3189 782.083 79.6854 782.083 80.1381C782.083 80.8388 781.84 81.4048 781.355 81.836C780.881 82.2564 780.239 82.4666 779.431 82.4666C778.913 82.4666 778.445 82.3912 778.024 82.2402C777.604 82.0785 777.232 81.8737 776.908 81.6258C776.585 81.3671 776.315 81.0976 776.1 80.8173L777.119 79.7824ZM785.395 69.6276V82.2402H783.632V69.6276H785.395ZM788.419 77.7126C788.419 77.1629 788.305 76.7478 788.079 76.4675C787.863 76.1873 787.519 76.0471 787.044 76.0471C786.71 76.0471 786.419 76.1172 786.171 76.2573C785.923 76.3975 785.729 76.5915 785.589 76.8395C785.46 77.0874 785.395 77.3785 785.395 77.7126H784.974C784.974 77.1197 785.077 76.5915 785.282 76.128C785.497 75.6537 785.799 75.2817 786.187 75.0122C786.586 74.732 787.066 74.5918 787.626 74.5918C788.187 74.5918 788.656 74.6996 789.033 74.9152C789.41 75.1308 789.696 75.4542 789.89 75.8854C790.084 76.3058 790.181 76.8341 790.181 77.4701V82.2402H788.419V77.7126ZM792.347 71.8429C792.347 71.5411 792.455 71.2878 792.671 71.0829C792.897 70.8781 793.156 70.7757 793.447 70.7757C793.76 70.7757 794.024 70.8781 794.239 71.0829C794.455 71.2878 794.563 71.5411 794.563 71.8429C794.563 72.134 794.455 72.3873 794.239 72.6029C794.024 72.8077 793.76 72.9101 793.447 72.9101C793.156 72.9101 792.897 72.8077 792.671 72.6029C792.455 72.3873 792.347 72.134 792.347 71.8429ZM792.59 74.802H794.32V82.2402H792.59V74.802ZM798.421 85.7976H796.658V74.802H798.421V85.7976ZM804.582 78.5211C804.582 79.3404 804.415 80.0465 804.08 80.6394C803.746 81.2215 803.304 81.6689 802.754 81.9815C802.205 82.2834 801.606 82.4343 800.96 82.4343C800.334 82.4343 799.785 82.278 799.31 81.9653C798.847 81.6419 798.486 81.1892 798.227 80.6071C797.968 80.0142 797.839 79.3189 797.839 78.5211C797.839 77.7126 797.968 77.0173 798.227 76.4352C798.486 75.8531 798.847 75.4003 799.31 75.0769C799.785 74.7535 800.334 74.5918 800.96 74.5918C801.606 74.5918 802.205 74.7481 802.754 75.0608C803.304 75.3734 803.746 75.8207 804.08 76.4029C804.415 76.9742 804.582 77.6803 804.582 78.5211ZM802.771 78.5211C802.771 78.0253 802.668 77.6048 802.463 77.2599C802.259 76.9041 801.989 76.64 801.655 76.4675C801.321 76.2843 800.949 76.1927 800.539 76.1927C800.194 76.1927 799.86 76.2843 799.537 76.4675C799.213 76.64 798.944 76.8987 798.728 77.2437C798.523 77.5887 798.421 78.0145 798.421 78.5211C798.421 79.0278 798.523 79.4536 798.728 79.7986C798.944 80.1435 799.213 80.4076 799.537 80.5909C799.86 80.7634 800.194 80.8496 800.539 80.8496C800.949 80.8496 801.321 80.758 801.655 80.5747C801.989 80.3915 802.259 80.1274 802.463 79.7824C802.668 79.4374 802.771 79.017 802.771 78.5211ZM811.238 70.9212H813.146V82.2402H811.238V70.9212ZM812.37 72.6029V70.9212H814.65C815.48 70.9212 816.197 71.0668 816.801 71.3578C817.405 71.6381 817.874 72.0424 818.208 72.5706C818.553 73.088 818.725 73.7079 818.725 74.4301C818.725 75.1524 818.553 75.7776 818.208 76.3058C817.874 76.8341 817.405 77.2437 816.801 77.5348C816.197 77.815 815.48 77.9552 814.65 77.9552H812.37V76.2735H814.65C815.308 76.2735 815.836 76.1172 816.235 75.8046C816.634 75.492 816.833 75.0338 816.833 74.4301C816.833 73.8264 816.634 73.3737 816.235 73.0718C815.836 72.7592 815.308 72.6029 814.65 72.6029H812.37ZM821.856 74.802V82.2402H820.125V74.802H821.856ZM824.071 76.6616C823.92 76.5322 823.769 76.4352 823.618 76.3705C823.478 76.3058 823.3 76.2735 823.084 76.2735C822.793 76.2735 822.556 76.349 822.373 76.4999C822.19 76.6508 822.055 76.861 821.969 77.1305C821.893 77.3892 821.856 77.6965 821.856 78.0522L821.273 77.7126C821.273 77.1197 821.381 76.5969 821.597 76.1441C821.823 75.6806 822.109 75.3141 822.454 75.0446C822.81 74.7643 823.176 74.6242 823.553 74.6242C823.823 74.6242 824.076 74.6673 824.313 74.7535C824.551 74.8398 824.755 74.9853 824.928 75.1901L824.071 76.6616ZM825.323 78.5211C825.323 77.7558 825.496 77.082 825.841 76.4999C826.196 75.9178 826.676 75.465 827.28 75.1416C827.894 74.8074 828.579 74.6403 829.333 74.6403C830.099 74.6403 830.783 74.8074 831.387 75.1416C831.991 75.465 832.465 75.9178 832.81 76.4999C833.166 77.082 833.343 77.7558 833.343 78.5211C833.343 79.2757 833.166 79.9495 832.81 80.5424C832.465 81.1245 831.991 81.5827 831.387 81.9168C830.783 82.2402 830.099 82.4019 829.333 82.4019C828.579 82.4019 827.894 82.2402 827.28 81.9168C826.676 81.5827 826.196 81.1245 825.841 80.5424C825.496 79.9495 825.323 79.2757 825.323 78.5211ZM827.118 78.5211C827.118 78.9847 827.215 79.3943 827.409 79.7501C827.603 80.095 827.867 80.3699 828.201 80.5747C828.536 80.7688 828.913 80.8658 829.333 80.8658C829.754 80.8658 830.131 80.7688 830.465 80.5747C830.799 80.3699 831.063 80.095 831.258 79.7501C831.452 79.3943 831.549 78.9847 831.549 78.5211C831.549 78.0576 831.452 77.648 831.258 77.2922C831.063 76.9365 830.799 76.6616 830.465 76.4675C830.131 76.2735 829.754 76.1765 829.333 76.1765C828.913 76.1765 828.536 76.2735 828.201 76.4675C827.867 76.6616 827.603 76.9365 827.409 77.2922C827.215 77.648 827.118 78.0576 827.118 78.5211ZM834.596 82.7415H836.342C836.353 83.0757 836.445 83.3721 836.617 83.6309C836.79 83.9004 837.032 84.1106 837.345 84.2615C837.657 84.4232 838.024 84.504 838.444 84.504C838.8 84.504 839.145 84.4178 839.479 84.2453C839.813 84.0728 840.083 83.8087 840.288 83.453C840.503 83.0972 840.611 82.6391 840.611 82.0785V74.802H842.325V82.0785C842.325 82.9733 842.142 83.7117 841.775 84.2938C841.42 84.8759 840.951 85.3071 840.369 85.5874C839.786 85.8785 839.156 86.024 838.477 86.024C837.679 86.024 836.994 85.8839 836.423 85.6036C835.852 85.3341 835.41 84.9514 835.097 84.4555C834.785 83.9596 834.617 83.3883 834.596 82.7415ZM834.45 78.4726C834.45 77.6533 834.617 76.9634 834.952 76.4029C835.286 75.8315 835.728 75.3949 836.278 75.0931C836.838 74.7913 837.436 74.6403 838.072 74.6403C838.698 74.6403 839.242 74.7966 839.706 75.1093C840.18 75.4111 840.552 75.8477 840.821 76.419C841.102 76.9796 841.242 77.6641 841.242 78.4726C841.242 79.2703 841.102 79.9603 840.821 80.5424C840.552 81.1137 840.18 81.5557 839.706 81.8683C839.242 82.1702 838.698 82.3211 838.072 82.3211C837.436 82.3211 836.838 82.1702 836.278 81.8683C835.728 81.5665 835.286 81.1299 834.952 80.5586C834.617 79.9872 834.45 79.2919 834.45 78.4726ZM836.261 78.4726C836.261 78.9685 836.364 79.3943 836.569 79.7501C836.773 80.095 837.043 80.3591 837.377 80.5424C837.722 80.7149 838.094 80.8011 838.493 80.8011C838.838 80.8011 839.172 80.7149 839.495 80.5424C839.819 80.3591 840.083 80.095 840.288 79.7501C840.503 79.4051 840.611 78.9793 840.611 78.4726C840.611 78.0953 840.546 77.7665 840.417 77.4863C840.298 77.1952 840.137 76.9526 839.932 76.7586C839.727 76.5538 839.501 76.4029 839.253 76.3058C839.005 76.2088 838.752 76.1603 838.493 76.1603C838.094 76.1603 837.722 76.2519 837.377 76.4352C837.043 76.6077 836.773 76.8664 836.569 77.2114C836.364 77.5563 836.261 77.9767 836.261 78.4726ZM846.221 74.802V82.2402H844.491V74.802H846.221ZM848.436 76.6616C848.285 76.5322 848.135 76.4352 847.984 76.3705C847.843 76.3058 847.666 76.2735 847.45 76.2735C847.159 76.2735 846.922 76.349 846.739 76.4999C846.555 76.6508 846.421 76.861 846.334 77.1305C846.259 77.3892 846.221 77.6965 846.221 78.0522L845.639 77.7126C845.639 77.1197 845.747 76.5969 845.962 76.1441C846.189 75.6806 846.474 75.3141 846.819 75.0446C847.175 74.7643 847.542 74.6242 847.919 74.6242C848.188 74.6242 848.442 74.6673 848.679 74.7535C848.916 74.8398 849.121 74.9853 849.293 75.1901L848.436 76.6616ZM851.591 79.9279C851.591 80.1759 851.65 80.3915 851.769 80.5747C851.887 80.7472 852.049 80.8766 852.254 80.9628C852.47 81.049 852.712 81.0922 852.982 81.0922C853.337 81.0922 853.655 81.0221 853.936 80.882C854.227 80.731 854.459 80.5208 854.631 80.2513C854.803 79.9818 854.89 79.6584 854.89 79.2811L855.148 80.2513C855.148 80.7256 855.008 81.1245 854.728 81.4479C854.459 81.7713 854.114 82.0139 853.693 82.1756C853.284 82.3265 852.863 82.4019 852.432 82.4019C851.968 82.4019 851.537 82.3103 851.138 82.127C850.739 81.9438 850.421 81.6743 850.184 81.3185C849.947 80.9628 849.829 80.5316 849.829 80.0249C849.829 79.3027 850.082 78.7313 850.589 78.3109C851.095 77.8797 851.812 77.6641 852.739 77.6641C853.235 77.6641 853.661 77.718 854.017 77.8258C854.383 77.9336 854.685 78.063 854.922 78.2139C855.159 78.354 855.326 78.4834 855.423 78.602V79.4913C855.089 79.2542 854.733 79.0817 854.356 78.9739C853.979 78.8661 853.58 78.8122 853.16 78.8122C852.793 78.8122 852.497 78.8607 852.27 78.9577C852.044 79.044 851.871 79.1679 851.753 79.3296C851.645 79.4913 851.591 79.6908 851.591 79.9279ZM851.041 76.7424L850.33 75.5135C850.675 75.3087 851.111 75.1093 851.64 74.9152C852.168 74.7212 852.782 74.6242 853.483 74.6242C854.087 74.6242 854.626 74.7158 855.1 74.8991C855.574 75.0715 855.941 75.3303 856.199 75.6752C856.469 76.0202 856.604 76.4406 856.604 76.9365V82.2402H854.89V77.276C854.89 77.0389 854.852 76.8448 854.777 76.6939C854.701 76.543 854.588 76.419 854.437 76.322C854.297 76.225 854.13 76.1549 853.936 76.1118C853.742 76.0687 853.531 76.0471 853.305 76.0471C852.96 76.0471 852.631 76.0902 852.319 76.1765C852.017 76.2519 851.758 76.349 851.543 76.4675C851.327 76.5753 851.16 76.667 851.041 76.7424ZM869.296 77.5024V82.2402H867.533V77.7126C867.533 77.1521 867.431 76.737 867.226 76.4675C867.032 76.1873 866.725 76.0471 866.304 76.0471C866.002 76.0471 865.738 76.1118 865.512 76.2412C865.296 76.3705 865.124 76.5592 864.994 76.8071C864.876 77.0551 864.817 77.3569 864.817 77.7126V82.2402H863.07V77.7126C863.07 77.1521 862.968 76.737 862.763 76.4675C862.569 76.1873 862.256 76.0471 861.825 76.0471C861.534 76.0471 861.275 76.1118 861.049 76.2412C860.833 76.3705 860.661 76.5592 860.532 76.8071C860.413 77.0551 860.354 77.3569 860.354 77.7126V82.2402H858.64V74.802H860.354V75.8854C860.58 75.4758 860.866 75.1686 861.211 74.9637C861.556 74.7481 861.971 74.6403 862.456 74.6403C862.995 74.6403 863.442 74.7535 863.798 74.9799C864.164 75.2063 864.429 75.5351 864.59 75.9663C864.86 75.5243 865.189 75.1955 865.577 74.9799C865.975 74.7535 866.423 74.6403 866.919 74.6403C867.458 74.6403 867.9 74.7535 868.245 74.9799C868.59 75.1955 868.848 75.5189 869.021 75.9501C869.204 76.3813 869.296 76.8987 869.296 77.5024Z" fill="white"/>
</g>
<g filter="url(#filter1_dd_1_957)">
<rect x="240.459" y="55.7799" width="207.9" height="41.58" rx="4.62" fill="url(#paint1_linear_1_957)"/>
<path d="M303.948 78.2687L306.584 70.7012H308.815L304.174 82.6185L300.681 74.6143L297.189 82.6185L292.564 70.7012H294.779L297.48 78.2687L300.681 70.1352L303.948 78.2687ZM309.929 79.1096L310.301 77.4926H315.557L315.912 79.1096H309.929ZM312.889 73.9028L311.11 78.0585L311.078 78.4789L309.509 82.0202H307.358L312.889 70.0705L318.435 82.0202H316.268L314.732 78.576L314.7 78.107L312.889 73.9028ZM324.63 77.719V76.102H330.08C330.101 76.932 329.994 77.719 329.756 78.4628C329.519 79.1958 329.163 79.848 328.689 80.4193C328.215 80.9907 327.627 81.4434 326.927 81.7776C326.226 82.101 325.423 82.2627 324.517 82.2627C323.666 82.2627 322.879 82.1226 322.156 81.8423C321.434 81.5512 320.804 81.1416 320.265 80.6134C319.736 80.0852 319.327 79.4599 319.036 78.7377C318.745 78.0154 318.599 77.2231 318.599 76.3607C318.599 75.4983 318.745 74.7113 319.036 73.9999C319.338 73.2776 319.758 72.6577 320.297 72.1403C320.836 71.6121 321.467 71.2078 322.189 70.9276C322.911 70.6365 323.698 70.491 324.55 70.491C325.293 70.491 325.967 70.5934 326.571 70.7982C327.185 71.003 327.73 71.2941 328.204 71.6714C328.678 72.0379 329.083 72.4853 329.417 73.0135L327.864 74.0484C327.552 73.5094 327.115 73.0782 326.555 72.7548C326.005 72.4314 325.337 72.2697 324.55 72.2697C323.827 72.2697 323.164 72.4421 322.561 72.7871C321.968 73.1213 321.494 73.5956 321.138 74.2101C320.793 74.8137 320.62 75.5306 320.62 76.3607C320.62 77.18 320.793 77.9022 321.138 78.5275C321.483 79.1419 321.952 79.6216 322.545 79.9666C323.137 80.3115 323.806 80.484 324.55 80.484C325.056 80.484 325.509 80.414 325.908 80.2738C326.307 80.1337 326.652 79.9342 326.943 79.6755C327.234 79.4168 327.476 79.1204 327.67 78.7862C327.864 78.452 328.01 78.0963 328.107 77.719H324.63ZM332.78 78.3658C333.028 78.8077 333.292 79.1904 333.573 79.5138C333.864 79.8372 334.182 80.0906 334.527 80.2738C334.883 80.4571 335.271 80.5487 335.691 80.5487C336.208 80.5487 336.629 80.4086 336.952 80.1283C337.276 79.848 337.437 79.4815 337.437 79.0287C337.437 78.6191 337.335 78.2903 337.13 78.0424C336.936 77.7836 336.656 77.568 336.289 77.3956C335.923 77.2123 335.502 77.0344 335.028 76.8619C334.748 76.7649 334.435 76.6356 334.09 76.4739C333.745 76.3014 333.416 76.0912 333.104 75.8432C332.791 75.5845 332.532 75.2719 332.328 74.9054C332.123 74.5281 332.02 74.0753 332.02 73.5471C332.02 72.9434 332.177 72.4152 332.489 71.9624C332.802 71.4989 333.222 71.1378 333.751 70.879C334.29 70.6203 334.899 70.491 335.578 70.491C336.246 70.491 336.828 70.6149 337.324 70.8629C337.82 71.1 338.24 71.4019 338.585 71.7684C338.93 72.1349 339.195 72.5176 339.378 72.9165L337.842 73.7896C337.691 73.5094 337.507 73.2506 337.292 73.0135C337.076 72.7655 336.823 72.5715 336.532 72.4314C336.252 72.2804 335.923 72.205 335.545 72.205C335.017 72.205 334.629 72.329 334.381 72.5769C334.133 72.8141 334.009 73.0943 334.009 73.4177C334.009 73.7088 334.096 73.9729 334.268 74.2101C334.451 74.4364 334.732 74.652 335.109 74.8569C335.486 75.0617 335.977 75.2719 336.58 75.4875C336.925 75.6061 337.265 75.757 337.599 75.9403C337.944 76.1235 338.251 76.3499 338.521 76.6194C338.801 76.8889 339.027 77.2123 339.2 77.5896C339.372 77.9561 339.459 78.3873 339.459 78.8832C339.459 79.4114 339.351 79.8857 339.135 80.3062C338.93 80.7266 338.65 81.0823 338.294 81.3734C337.939 81.6537 337.534 81.8693 337.082 82.0202C336.64 82.1819 336.176 82.2627 335.691 82.2627C335.033 82.2627 334.419 82.1334 333.848 81.8746C333.287 81.6051 332.791 81.2494 332.36 80.8074C331.94 80.3654 331.605 79.8857 331.357 79.3683L332.78 78.3658ZM341.401 70.7012H343.341V82.0202H341.401V70.7012ZM356.086 77.719V76.102H361.535C361.557 76.932 361.449 77.719 361.212 78.4628C360.975 79.1958 360.619 79.848 360.145 80.4193C359.671 80.9907 359.083 81.4434 358.382 81.7776C357.682 82.101 356.879 82.2627 355.973 82.2627C355.121 82.2627 354.334 82.1226 353.612 81.8423C352.89 81.5512 352.259 81.1416 351.72 80.6134C351.192 80.0852 350.782 79.4599 350.491 78.7377C350.2 78.0154 350.055 77.2231 350.055 76.3607C350.055 75.4983 350.2 74.7113 350.491 73.9999C350.793 73.2776 351.214 72.6577 351.753 72.1403C352.292 71.6121 352.922 71.2078 353.645 70.9276C354.367 70.6365 355.154 70.491 356.005 70.491C356.749 70.491 357.423 70.5934 358.027 70.7982C358.641 71.003 359.185 71.2941 359.66 71.6714C360.134 72.0379 360.538 72.4853 360.873 73.0135L359.32 74.0484C359.008 73.5094 358.571 73.0782 358.01 72.7548C357.461 72.4314 356.792 72.2697 356.005 72.2697C355.283 72.2697 354.62 72.4421 354.016 72.7871C353.424 73.1213 352.949 73.5956 352.593 74.2101C352.249 74.8137 352.076 75.5306 352.076 76.3607C352.076 77.18 352.249 77.9022 352.593 78.5275C352.938 79.1419 353.407 79.6216 354 79.9666C354.593 80.3115 355.262 80.484 356.005 80.484C356.512 80.484 356.965 80.414 357.364 80.2738C357.762 80.1337 358.107 79.9342 358.399 79.6755C358.69 79.4168 358.932 79.1204 359.126 78.7862C359.32 78.452 359.466 78.0963 359.563 77.719H356.086ZM365.077 74.582V82.0202H363.347V74.582H365.077ZM367.292 76.4415C367.141 76.3122 366.99 76.2151 366.839 76.1505C366.699 76.0858 366.521 76.0534 366.306 76.0534C366.015 76.0534 365.778 76.1289 365.594 76.2798C365.411 76.4307 365.276 76.641 365.19 76.9105C365.115 77.1692 365.077 77.4764 365.077 77.8321L364.495 77.4926C364.495 76.8997 364.603 76.3768 364.818 75.9241C365.045 75.4605 365.33 75.094 365.675 74.8245C366.031 74.5442 366.398 74.4041 366.775 74.4041C367.044 74.4041 367.298 74.4472 367.535 74.5335C367.772 74.6197 367.977 74.7652 368.149 74.9701L367.292 76.4415ZM370.447 79.7079C370.447 79.9558 370.506 80.1714 370.625 80.3547C370.743 80.5271 370.905 80.6565 371.11 80.7427C371.325 80.829 371.568 80.8721 371.838 80.8721C372.193 80.8721 372.511 80.802 372.792 80.6619C373.083 80.511 373.314 80.3008 373.487 80.0313C373.659 79.7618 373.746 79.4384 373.746 79.0611L374.004 80.0313C374.004 80.5056 373.864 80.9044 373.584 81.2278C373.314 81.5512 372.969 81.7938 372.549 81.9555C372.139 82.1064 371.719 82.1819 371.288 82.1819C370.824 82.1819 370.393 82.0902 369.994 81.907C369.595 81.7237 369.277 81.4542 369.04 81.0985C368.803 80.7427 368.684 80.3115 368.684 79.8049C368.684 79.0826 368.938 78.5113 369.444 78.0909C369.951 77.6597 370.668 77.4441 371.595 77.4441C372.091 77.4441 372.517 77.498 372.872 77.6058C373.239 77.7136 373.541 77.8429 373.778 77.9938C374.015 78.134 374.182 78.2633 374.279 78.3819V79.2713C373.945 79.0341 373.589 78.8616 373.212 78.7538C372.835 78.646 372.436 78.5921 372.015 78.5921C371.649 78.5921 371.352 78.6406 371.126 78.7377C370.9 78.8239 370.727 78.9479 370.609 79.1096C370.501 79.2713 370.447 79.4707 370.447 79.7079ZM369.897 76.5224L369.186 75.2935C369.531 75.0886 369.967 74.8892 370.495 74.6952C371.024 74.5011 371.638 74.4041 372.339 74.4041C372.942 74.4041 373.481 74.4957 373.956 74.679C374.43 74.8515 374.797 75.1102 375.055 75.4552C375.325 75.8001 375.46 76.2205 375.46 76.7164V82.0202H373.746V77.056C373.746 76.8188 373.708 76.6248 373.632 76.4739C373.557 76.3229 373.444 76.199 373.293 76.102C373.153 76.0049 372.986 75.9349 372.792 75.8917C372.598 75.8486 372.387 75.8271 372.161 75.8271C371.816 75.8271 371.487 75.8702 371.175 75.9564C370.873 76.0319 370.614 76.1289 370.398 76.2475C370.183 76.3553 370.016 76.4469 369.897 76.5224ZM382.282 77.4926C382.282 76.9428 382.169 76.5278 381.942 76.2475C381.716 75.9672 381.371 75.8271 380.907 75.8271C380.573 75.8271 380.282 75.8971 380.034 76.0373C379.786 76.1666 379.592 76.3607 379.452 76.6194C379.323 76.8673 379.258 77.1584 379.258 77.4926V82.0202H377.496V74.582H379.258V75.73C379.495 75.2881 379.797 74.9593 380.164 74.7437C380.541 74.5281 380.983 74.4203 381.49 74.4203C382.33 74.4203 382.972 74.679 383.414 75.1964C383.856 75.7031 384.077 76.3984 384.077 77.2824V82.0202H382.282V77.4926ZM385.272 74.582H389.492V76.1181H385.272V74.582ZM386.533 71.9948H388.247V82.0202H386.533V71.9948ZM391.036 79.5623C391.284 79.8318 391.527 80.0582 391.764 80.2415C392.001 80.4247 392.244 80.5649 392.492 80.6619C392.74 80.7589 392.988 80.8074 393.236 80.8074C393.548 80.8074 393.791 80.7374 393.963 80.5972C394.146 80.4571 394.238 80.263 394.238 80.0151C394.238 79.7995 394.168 79.6162 394.028 79.4653C393.888 79.3036 393.694 79.1689 393.446 79.0611C393.198 78.9425 392.907 78.8239 392.573 78.7053C392.238 78.576 391.904 78.425 391.57 78.2526C391.247 78.0693 390.977 77.8321 390.761 77.5411C390.557 77.25 390.454 76.8835 390.454 76.4415C390.454 75.9888 390.567 75.6115 390.794 75.3096C391.031 75.0078 391.344 74.7868 391.732 74.6467C392.131 74.4957 392.556 74.4203 393.009 74.4203C393.419 74.4203 393.801 74.4796 394.157 74.5981C394.524 74.7167 394.853 74.873 395.144 75.0671C395.435 75.2611 395.683 75.4821 395.887 75.73L394.917 76.7649C394.68 76.4739 394.389 76.2367 394.044 76.0534C393.699 75.8702 393.343 75.7786 392.977 75.7786C392.718 75.7786 392.508 75.8325 392.346 75.9403C392.184 76.0481 392.104 76.2044 392.104 76.4092C392.104 76.5817 392.174 76.738 392.314 76.8781C392.465 77.0075 392.659 77.1261 392.896 77.2339C393.144 77.3417 393.419 77.4548 393.721 77.5734C394.141 77.7351 394.524 77.913 394.869 78.107C395.214 78.3011 395.489 78.5382 395.693 78.8185C395.898 79.0988 396.001 79.4653 396.001 79.9181C396.001 80.6188 395.758 81.1847 395.273 81.6159C394.799 82.0363 394.157 82.2466 393.349 82.2466C392.831 82.2466 392.362 82.1711 391.942 82.0202C391.521 81.8585 391.15 81.6537 390.826 81.4057C390.503 81.147 390.233 80.8775 390.018 80.5972L391.036 79.5623Z" fill="white"/>
</g>
<g filter="url(#filter2_dd_1_957)">
<rect x="467" y="56" width="207.9" height="41.58" rx="4.62" fill="url(#paint2_linear_1_957)"/>
<path d="M497.603 79.3296L497.975 77.7126H503.23L503.586 79.3296H497.603ZM500.562 74.1229L498.784 78.2786L498.751 78.699L497.183 82.2402H495.032L500.562 70.2906L506.109 82.2402H503.942L502.406 78.796L502.373 78.3271L500.562 74.1229ZM517.92 77.5024V82.2402H516.157V77.7126C516.157 77.1521 516.055 76.737 515.85 76.4675C515.656 76.1873 515.349 76.0471 514.928 76.0471C514.626 76.0471 514.362 76.1118 514.136 76.2412C513.92 76.3705 513.748 76.5592 513.619 76.8071C513.5 77.0551 513.441 77.3569 513.441 77.7126V82.2402H511.694V77.7126C511.694 77.1521 511.592 76.737 511.387 76.4675C511.193 76.1873 510.88 76.0471 510.449 76.0471C510.158 76.0471 509.899 76.1118 509.673 76.2412C509.457 76.3705 509.285 76.5592 509.156 76.8071C509.037 77.0551 508.978 77.3569 508.978 77.7126V82.2402H507.264V74.802H508.978V75.8854C509.204 75.4758 509.49 75.1686 509.835 74.9637C510.18 74.7481 510.595 74.6403 511.08 74.6403C511.619 74.6403 512.066 74.7535 512.422 74.9799C512.789 75.2063 513.053 75.5351 513.214 75.9663C513.484 75.5243 513.813 75.1955 514.201 74.9799C514.6 74.7535 515.047 74.6403 515.543 74.6403C516.082 74.6403 516.524 74.7535 516.869 74.9799C517.214 75.1955 517.472 75.5189 517.645 75.9501C517.828 76.3813 517.92 76.8987 517.92 77.5024ZM521.831 69.6276V82.2402H520.069V69.6276H521.831ZM527.992 78.5211C527.992 79.3296 527.825 80.0249 527.491 80.6071C527.157 81.1892 526.715 81.6366 526.165 81.9492C525.615 82.251 525.017 82.4019 524.37 82.4019C523.756 82.4019 523.211 82.2456 522.737 81.933C522.262 81.6204 521.885 81.173 521.605 80.5909C521.335 80.0088 521.201 79.3189 521.201 78.5211C521.201 77.7126 521.335 77.0227 521.605 76.4514C521.885 75.8693 522.262 75.4219 522.737 75.1093C523.211 74.7966 523.756 74.6403 524.37 74.6403C525.017 74.6403 525.615 74.7966 526.165 75.1093C526.715 75.4111 527.157 75.8531 527.491 76.4352C527.825 77.0065 527.992 77.7019 527.992 78.5211ZM526.181 78.5211C526.181 78.0253 526.079 77.5994 525.874 77.2437C525.669 76.888 525.399 76.6185 525.065 76.4352C524.731 76.2519 524.359 76.1603 523.95 76.1603C523.605 76.1603 523.27 76.2519 522.947 76.4352C522.624 76.6185 522.354 76.888 522.139 77.2437C521.934 77.5887 521.831 78.0145 521.831 78.5211C521.831 79.0278 521.934 79.459 522.139 79.8147C522.354 80.1597 522.624 80.4238 522.947 80.6071C523.27 80.7903 523.605 80.882 523.95 80.882C524.359 80.882 524.731 80.7903 525.065 80.6071C525.399 80.4238 525.669 80.1543 525.874 79.7986C526.079 79.4428 526.181 79.017 526.181 78.5211ZM530.755 79.9279C530.755 80.1759 530.814 80.3915 530.933 80.5747C531.051 80.7472 531.213 80.8766 531.418 80.9628C531.634 81.049 531.876 81.0922 532.146 81.0922C532.501 81.0922 532.819 81.0221 533.1 80.882C533.391 80.731 533.622 80.5208 533.795 80.2513C533.967 79.9818 534.054 79.6584 534.054 79.2811L534.312 80.2513C534.312 80.7256 534.172 81.1245 533.892 81.4479C533.622 81.7713 533.277 82.0139 532.857 82.1756C532.447 82.3265 532.027 82.4019 531.596 82.4019C531.132 82.4019 530.701 82.3103 530.302 82.127C529.903 81.9438 529.585 81.6743 529.348 81.3185C529.111 80.9628 528.992 80.5316 528.992 80.0249C528.992 79.3027 529.246 78.7313 529.752 78.3109C530.259 77.8797 530.976 77.6641 531.903 77.6641C532.399 77.6641 532.825 77.718 533.18 77.8258C533.547 77.9336 533.849 78.063 534.086 78.2139C534.323 78.354 534.49 78.4834 534.587 78.602V79.4913C534.253 79.2542 533.897 79.0817 533.52 78.9739C533.143 78.8661 532.744 78.8122 532.323 78.8122C531.957 78.8122 531.66 78.8607 531.434 78.9577C531.208 79.044 531.035 79.1679 530.917 79.3296C530.809 79.4913 530.755 79.6908 530.755 79.9279ZM530.205 76.7424L529.494 75.5135C529.839 75.3087 530.275 75.1093 530.803 74.9152C531.332 74.7212 531.946 74.6242 532.647 74.6242C533.251 74.6242 533.79 74.7158 534.264 74.8991C534.738 75.0715 535.105 75.3303 535.363 75.6752C535.633 76.0202 535.768 76.4406 535.768 76.9365V82.2402H534.054V77.276C534.054 77.0389 534.016 76.8448 533.94 76.6939C533.865 76.543 533.752 76.419 533.601 76.322C533.461 76.225 533.294 76.1549 533.1 76.1118C532.906 76.0687 532.695 76.0471 532.469 76.0471C532.124 76.0471 531.795 76.0902 531.483 76.1765C531.181 76.2519 530.922 76.349 530.706 76.4675C530.491 76.5753 530.324 76.667 530.205 76.7424ZM538.143 79.7824C538.391 80.0519 538.634 80.2783 538.871 80.4615C539.108 80.6448 539.351 80.7849 539.598 80.882C539.846 80.979 540.094 81.0275 540.342 81.0275C540.655 81.0275 540.897 80.9574 541.07 80.8173C541.253 80.6771 541.345 80.4831 541.345 80.2352C541.345 80.0196 541.275 79.8363 541.135 79.6854C540.994 79.5237 540.8 79.3889 540.552 79.2811C540.305 79.1625 540.013 79.044 539.679 78.9254C539.345 78.796 539.011 78.6451 538.677 78.4726C538.353 78.2894 538.084 78.0522 537.868 77.7611C537.663 77.4701 537.561 77.1036 537.561 76.6616C537.561 76.2088 537.674 75.8315 537.901 75.5297C538.138 75.2278 538.45 75.0069 538.838 74.8667C539.237 74.7158 539.663 74.6403 540.116 74.6403C540.526 74.6403 540.908 74.6996 541.264 74.8182C541.63 74.9368 541.959 75.0931 542.25 75.2871C542.541 75.4812 542.789 75.7022 542.994 75.9501L542.024 76.985C541.787 76.6939 541.496 76.4568 541.151 76.2735C540.806 76.0902 540.45 75.9986 540.084 75.9986C539.825 75.9986 539.615 76.0525 539.453 76.1603C539.291 76.2681 539.21 76.4244 539.21 76.6292C539.21 76.8017 539.28 76.958 539.421 77.0982C539.571 77.2275 539.766 77.3461 540.003 77.4539C540.251 77.5617 540.526 77.6749 540.827 77.7935C541.248 77.9552 541.63 78.1331 541.975 78.3271C542.32 78.5211 542.595 78.7583 542.8 79.0386C543.005 79.3189 543.107 79.6854 543.107 80.1381C543.107 80.8388 542.865 81.4048 542.38 81.836C541.905 82.2564 541.264 82.4666 540.455 82.4666C539.938 82.4666 539.469 82.3912 539.049 82.2402C538.628 82.0785 538.256 81.8737 537.933 81.6258C537.61 81.3671 537.34 81.0976 537.124 80.8173L538.143 79.7824ZM544.996 79.7824C545.244 80.0519 545.487 80.2783 545.724 80.4615C545.961 80.6448 546.204 80.7849 546.452 80.882C546.7 80.979 546.948 81.0275 547.196 81.0275C547.508 81.0275 547.751 80.9574 547.923 80.8173C548.106 80.6771 548.198 80.4831 548.198 80.2352C548.198 80.0196 548.128 79.8363 547.988 79.6854C547.848 79.5237 547.654 79.3889 547.406 79.2811C547.158 79.1625 546.867 79.044 546.533 78.9254C546.198 78.796 545.864 78.6451 545.53 78.4726C545.207 78.2894 544.937 78.0522 544.722 77.7611C544.517 77.4701 544.414 77.1036 544.414 76.6616C544.414 76.2088 544.528 75.8315 544.754 75.5297C544.991 75.2278 545.304 75.0069 545.692 74.8667C546.091 74.7158 546.516 74.6403 546.969 74.6403C547.379 74.6403 547.762 74.6996 548.117 74.8182C548.484 74.9368 548.813 75.0931 549.104 75.2871C549.395 75.4812 549.643 75.7022 549.847 75.9501L548.877 76.985C548.64 76.6939 548.349 76.4568 548.004 76.2735C547.659 76.0902 547.303 75.9986 546.937 75.9986C546.678 75.9986 546.468 76.0525 546.306 76.1603C546.145 76.2681 546.064 76.4244 546.064 76.6292C546.064 76.8017 546.134 76.958 546.274 77.0982C546.425 77.2275 546.619 77.3461 546.856 77.4539C547.104 77.5617 547.379 77.6749 547.681 77.7935C548.101 77.9552 548.484 78.1331 548.829 78.3271C549.174 78.5211 549.449 78.7583 549.653 79.0386C549.858 79.3189 549.961 79.6854 549.961 80.1381C549.961 80.8388 549.718 81.4048 549.233 81.836C548.759 82.2564 548.117 82.4666 547.309 82.4666C546.791 82.4666 546.322 82.3912 545.902 82.2402C545.482 82.0785 545.11 81.8737 544.786 81.6258C544.463 81.3671 544.193 81.0976 543.978 80.8173L544.996 79.7824ZM552.61 79.9279C552.61 80.1759 552.669 80.3915 552.788 80.5747C552.906 80.7472 553.068 80.8766 553.273 80.9628C553.488 81.049 553.731 81.0922 554 81.0922C554.356 81.0922 554.674 81.0221 554.954 80.882C555.245 80.731 555.477 80.5208 555.65 80.2513C555.822 79.9818 555.908 79.6584 555.908 79.2811L556.167 80.2513C556.167 80.7256 556.027 81.1245 555.747 81.4479C555.477 81.7713 555.132 82.0139 554.712 82.1756C554.302 82.3265 553.882 82.4019 553.451 82.4019C552.987 82.4019 552.556 82.3103 552.157 82.127C551.758 81.9438 551.44 81.6743 551.203 81.3185C550.966 80.9628 550.847 80.5316 550.847 80.0249C550.847 79.3027 551.101 78.7313 551.607 78.3109C552.114 77.8797 552.831 77.6641 553.758 77.6641C554.254 77.6641 554.679 77.718 555.035 77.8258C555.402 77.9336 555.704 78.063 555.941 78.2139C556.178 78.354 556.345 78.4834 556.442 78.602V79.4913C556.108 79.2542 555.752 79.0817 555.375 78.9739C554.998 78.8661 554.599 78.8122 554.178 78.8122C553.812 78.8122 553.515 78.8607 553.289 78.9577C553.062 79.044 552.89 79.1679 552.771 79.3296C552.664 79.4913 552.61 79.6908 552.61 79.9279ZM552.06 76.7424L551.348 75.5135C551.693 75.3087 552.13 75.1093 552.658 74.9152C553.186 74.7212 553.801 74.6242 554.502 74.6242C555.105 74.6242 555.644 74.7158 556.119 74.8991C556.593 75.0715 556.959 75.3303 557.218 75.6752C557.488 76.0202 557.622 76.4406 557.622 76.9365V82.2402H555.908V77.276C555.908 77.0389 555.871 76.8448 555.795 76.6939C555.72 76.543 555.607 76.419 555.456 76.322C555.316 76.225 555.148 76.1549 554.954 76.1118C554.76 76.0687 554.55 76.0471 554.324 76.0471C553.979 76.0471 553.65 76.0902 553.337 76.1765C553.036 76.2519 552.777 76.349 552.561 76.4675C552.346 76.5753 552.179 76.667 552.06 76.7424ZM565.253 69.6276H567.016V82.2402H565.253V69.6276ZM559.092 78.5211C559.092 77.7019 559.259 77.0065 559.594 76.4352C559.928 75.8531 560.37 75.4111 560.92 75.1093C561.48 74.7966 562.078 74.6403 562.714 74.6403C563.34 74.6403 563.884 74.7966 564.348 75.1093C564.822 75.4219 565.194 75.8693 565.463 76.4514C565.744 77.0227 565.884 77.7126 565.884 78.5211C565.884 79.3189 565.744 80.0088 565.463 80.5909C565.194 81.173 564.822 81.6204 564.348 81.933C563.884 82.2456 563.34 82.4019 562.714 82.4019C562.078 82.4019 561.48 82.251 560.92 81.9492C560.37 81.6366 559.928 81.1892 559.594 80.6071C559.259 80.0249 559.092 79.3296 559.092 78.5211ZM560.903 78.5211C560.903 79.017 561.006 79.4428 561.211 79.7986C561.415 80.1543 561.685 80.4238 562.019 80.6071C562.364 80.7903 562.736 80.882 563.135 80.882C563.48 80.882 563.814 80.7903 564.137 80.6071C564.461 80.4238 564.725 80.1597 564.93 79.8147C565.145 79.459 565.253 79.0278 565.253 78.5211C565.253 78.0145 565.145 77.5887 564.93 77.2437C564.725 76.888 564.461 76.6185 564.137 76.4352C563.814 76.2519 563.48 76.1603 563.135 76.1603C562.736 76.1603 562.364 76.2519 562.019 76.4352C561.685 76.6185 561.415 76.888 561.211 77.2437C561.006 77.5994 560.903 78.0253 560.903 78.5211ZM568.614 78.5211C568.614 77.7558 568.787 77.082 569.132 76.4999C569.488 75.9178 569.967 75.465 570.571 75.1416C571.185 74.8074 571.87 74.6403 572.625 74.6403C573.39 74.6403 574.074 74.8074 574.678 75.1416C575.282 75.465 575.756 75.9178 576.101 76.4999C576.457 77.082 576.635 77.7558 576.635 78.5211C576.635 79.2757 576.457 79.9495 576.101 80.5424C575.756 81.1245 575.282 81.5827 574.678 81.9168C574.074 82.2402 573.39 82.4019 572.625 82.4019C571.87 82.4019 571.185 82.2402 570.571 81.9168C569.967 81.5827 569.488 81.1245 569.132 80.5424C568.787 79.9495 568.614 79.2757 568.614 78.5211ZM570.409 78.5211C570.409 78.9847 570.506 79.3943 570.7 79.7501C570.894 80.095 571.158 80.3699 571.493 80.5747C571.827 80.7688 572.204 80.8658 572.625 80.8658C573.045 80.8658 573.422 80.7688 573.756 80.5747C574.091 80.3699 574.355 80.095 574.549 79.7501C574.743 79.3943 574.84 78.9847 574.84 78.5211C574.84 78.0576 574.743 77.648 574.549 77.2922C574.355 76.9365 574.091 76.6616 573.756 76.4675C573.422 76.2735 573.045 76.1765 572.625 76.1765C572.204 76.1765 571.827 76.2735 571.493 76.4675C571.158 76.6616 570.894 76.9365 570.7 77.2922C570.506 77.648 570.409 78.0576 570.409 78.5211ZM580.038 74.802V82.2402H578.308V74.802H580.038ZM582.253 76.6616C582.102 76.5322 581.951 76.4352 581.8 76.3705C581.66 76.3058 581.482 76.2735 581.267 76.2735C580.976 76.2735 580.738 76.349 580.555 76.4999C580.372 76.6508 580.237 76.861 580.151 77.1305C580.075 77.3892 580.038 77.6965 580.038 78.0522L579.456 77.7126C579.456 77.1197 579.563 76.5969 579.779 76.1441C580.005 75.6806 580.291 75.3141 580.636 75.0446C580.992 74.7643 581.358 74.6242 581.736 74.6242C582.005 74.6242 582.258 74.6673 582.496 74.7535C582.733 74.8398 582.938 74.9853 583.11 75.1901L582.253 76.6616ZM589.301 70.9212H591.21V82.2402H589.301V70.9212ZM590.433 72.6029V70.9212H592.713C593.543 70.9212 594.26 71.0668 594.864 71.3578C595.468 71.6381 595.937 72.0424 596.271 72.5706C596.616 73.088 596.788 73.7079 596.788 74.4301C596.788 75.1524 596.616 75.7776 596.271 76.3058C595.937 76.8341 595.468 77.2437 594.864 77.5348C594.26 77.815 593.543 77.9552 592.713 77.9552H590.433V76.2735H592.713C593.371 76.2735 593.899 76.1172 594.298 75.8046C594.697 75.492 594.896 75.0338 594.896 74.4301C594.896 73.8264 594.697 73.3737 594.298 73.0718C593.899 72.7592 593.371 72.6029 592.713 72.6029H590.433ZM599.919 74.802V82.2402H598.188V74.802H599.919ZM602.134 76.6616C601.983 76.5322 601.832 76.4352 601.681 76.3705C601.541 76.3058 601.363 76.2735 601.148 76.2735C600.856 76.2735 600.619 76.349 600.436 76.4999C600.253 76.6508 600.118 76.861 600.032 77.1305C599.956 77.3892 599.919 77.6965 599.919 78.0522L599.336 77.7126C599.336 77.1197 599.444 76.5969 599.66 76.1441C599.886 75.6806 600.172 75.3141 600.517 75.0446C600.873 74.7643 601.239 74.6242 601.616 74.6242C601.886 74.6242 602.139 74.6673 602.376 74.7535C602.614 74.8398 602.818 74.9853 602.991 75.1901L602.134 76.6616ZM603.386 78.5211C603.386 77.7558 603.559 77.082 603.904 76.4999C604.259 75.9178 604.739 75.465 605.343 75.1416C605.957 74.8074 606.642 74.6403 607.396 74.6403C608.162 74.6403 608.846 74.8074 609.45 75.1416C610.054 75.465 610.528 75.9178 610.873 76.4999C611.229 77.082 611.407 77.7558 611.407 78.5211C611.407 79.2757 611.229 79.9495 610.873 80.5424C610.528 81.1245 610.054 81.5827 609.45 81.9168C608.846 82.2402 608.162 82.4019 607.396 82.4019C606.642 82.4019 605.957 82.2402 605.343 81.9168C604.739 81.5827 604.259 81.1245 603.904 80.5424C603.559 79.9495 603.386 79.2757 603.386 78.5211ZM605.181 78.5211C605.181 78.9847 605.278 79.3943 605.472 79.7501C605.666 80.095 605.93 80.3699 606.264 80.5747C606.599 80.7688 606.976 80.8658 607.396 80.8658C607.817 80.8658 608.194 80.7688 608.528 80.5747C608.862 80.3699 609.127 80.095 609.321 79.7501C609.515 79.3943 609.612 78.9847 609.612 78.5211C609.612 78.0576 609.515 77.648 609.321 77.2922C609.127 76.9365 608.862 76.6616 608.528 76.4675C608.194 76.2735 607.817 76.1765 607.396 76.1765C606.976 76.1765 606.599 76.2735 606.264 76.4675C605.93 76.6616 605.666 76.9365 605.472 77.2922C605.278 77.648 605.181 78.0576 605.181 78.5211ZM612.659 82.7415H614.405C614.416 83.0757 614.508 83.3721 614.68 83.6309C614.853 83.9004 615.095 84.1106 615.408 84.2615C615.72 84.4232 616.087 84.504 616.507 84.504C616.863 84.504 617.208 84.4178 617.542 84.2453C617.876 84.0728 618.146 83.8087 618.351 83.453C618.566 83.0972 618.674 82.6391 618.674 82.0785V74.802H620.388V82.0785C620.388 82.9733 620.205 83.7117 619.838 84.2938C619.483 84.8759 619.014 85.3071 618.432 85.5874C617.849 85.8785 617.219 86.024 616.54 86.024C615.742 86.024 615.057 85.8839 614.486 85.6036C613.915 85.3341 613.473 84.9514 613.16 84.4555C612.848 83.9596 612.68 83.3883 612.659 82.7415ZM612.513 78.4726C612.513 77.6533 612.68 76.9634 613.015 76.4029C613.349 75.8315 613.791 75.3949 614.341 75.0931C614.901 74.7913 615.499 74.6403 616.135 74.6403C616.761 74.6403 617.305 74.7966 617.769 75.1093C618.243 75.4111 618.615 75.8477 618.884 76.419C619.165 76.9796 619.305 77.6641 619.305 78.4726C619.305 79.2703 619.165 79.9603 618.884 80.5424C618.615 81.1137 618.243 81.5557 617.769 81.8683C617.305 82.1702 616.761 82.3211 616.135 82.3211C615.499 82.3211 614.901 82.1702 614.341 81.8683C613.791 81.5665 613.349 81.1299 613.015 80.5586C612.68 79.9872 612.513 79.2919 612.513 78.4726ZM614.324 78.4726C614.324 78.9685 614.427 79.3943 614.632 79.7501C614.836 80.095 615.106 80.3591 615.44 80.5424C615.785 80.7149 616.157 80.8011 616.556 80.8011C616.901 80.8011 617.235 80.7149 617.558 80.5424C617.882 80.3591 618.146 80.095 618.351 79.7501C618.566 79.4051 618.674 78.9793 618.674 78.4726C618.674 78.0953 618.609 77.7665 618.48 77.4863C618.362 77.1952 618.2 76.9526 617.995 76.7586C617.79 76.5538 617.564 76.4029 617.316 76.3058C617.068 76.2088 616.815 76.1603 616.556 76.1603C616.157 76.1603 615.785 76.2519 615.44 76.4352C615.106 76.6077 614.836 76.8664 614.632 77.2114C614.427 77.5563 614.324 77.9767 614.324 78.4726ZM624.284 74.802V82.2402H622.554V74.802H624.284ZM626.499 76.6616C626.349 76.5322 626.198 76.4352 626.047 76.3705C625.907 76.3058 625.729 76.2735 625.513 76.2735C625.222 76.2735 624.985 76.349 624.802 76.4999C624.618 76.6508 624.484 76.861 624.397 77.1305C624.322 77.3892 624.284 77.6965 624.284 78.0522L623.702 77.7126C623.702 77.1197 623.81 76.5969 624.025 76.1441C624.252 75.6806 624.537 75.3141 624.882 75.0446C625.238 74.7643 625.605 74.6242 625.982 74.6242C626.251 74.6242 626.505 74.6673 626.742 74.7535C626.979 74.8398 627.184 74.9853 627.356 75.1901L626.499 76.6616ZM629.654 79.9279C629.654 80.1759 629.713 80.3915 629.832 80.5747C629.951 80.7472 630.112 80.8766 630.317 80.9628C630.533 81.049 630.775 81.0922 631.045 81.0922C631.4 81.0922 631.718 81.0221 631.999 80.882C632.29 80.731 632.522 80.5208 632.694 80.2513C632.867 79.9818 632.953 79.6584 632.953 79.2811L633.212 80.2513C633.212 80.7256 633.071 81.1245 632.791 81.4479C632.522 81.7713 632.177 82.0139 631.756 82.1756C631.347 82.3265 630.926 82.4019 630.495 82.4019C630.031 82.4019 629.6 82.3103 629.201 82.127C628.802 81.9438 628.484 81.6743 628.247 81.3185C628.01 80.9628 627.892 80.5316 627.892 80.0249C627.892 79.3027 628.145 78.7313 628.652 78.3109C629.158 77.8797 629.875 77.6641 630.802 77.6641C631.298 77.6641 631.724 77.718 632.08 77.8258C632.446 77.9336 632.748 78.063 632.985 78.2139C633.222 78.354 633.389 78.4834 633.486 78.602V79.4913C633.152 79.2542 632.796 79.0817 632.419 78.9739C632.042 78.8661 631.643 78.8122 631.223 78.8122C630.856 78.8122 630.56 78.8607 630.333 78.9577C630.107 79.044 629.934 79.1679 629.816 79.3296C629.708 79.4913 629.654 79.6908 629.654 79.9279ZM629.104 76.7424L628.393 75.5135C628.738 75.3087 629.174 75.1093 629.703 74.9152C630.231 74.7212 630.845 74.6242 631.546 74.6242C632.15 74.6242 632.689 74.7158 633.163 74.8991C633.637 75.0715 634.004 75.3303 634.263 75.6752C634.532 76.0202 634.667 76.4406 634.667 76.9365V82.2402H632.953V77.276C632.953 77.0389 632.915 76.8448 632.84 76.6939C632.764 76.543 632.651 76.419 632.5 76.322C632.36 76.225 632.193 76.1549 631.999 76.1118C631.805 76.0687 631.595 76.0471 631.368 76.0471C631.023 76.0471 630.694 76.0902 630.382 76.1765C630.08 76.2519 629.821 76.349 629.606 76.4675C629.39 76.5753 629.223 76.667 629.104 76.7424ZM647.359 77.5024V82.2402H645.596V77.7126C645.596 77.1521 645.494 76.737 645.289 76.4675C645.095 76.1873 644.788 76.0471 644.367 76.0471C644.065 76.0471 643.801 76.1118 643.575 76.2412C643.359 76.3705 643.187 76.5592 643.058 76.8071C642.939 77.0551 642.88 77.3569 642.88 77.7126V82.2402H641.133V77.7126C641.133 77.1521 641.031 76.737 640.826 76.4675C640.632 76.1873 640.319 76.0471 639.888 76.0471C639.597 76.0471 639.338 76.1118 639.112 76.2412C638.896 76.3705 638.724 76.5592 638.595 76.8071C638.476 77.0551 638.417 77.3569 638.417 77.7126V82.2402H636.703V74.802H638.417V75.8854C638.643 75.4758 638.929 75.1686 639.274 74.9637C639.619 74.7481 640.034 74.6403 640.519 74.6403C641.058 74.6403 641.505 74.7535 641.861 74.9799C642.227 75.2063 642.492 75.5351 642.653 75.9663C642.923 75.5243 643.252 75.1955 643.64 74.9799C644.038 74.7535 644.486 74.6403 644.982 74.6403C645.521 74.6403 645.963 74.7535 646.308 74.9799C646.653 75.1955 646.911 75.5189 647.084 75.9501C647.267 76.3813 647.359 76.8987 647.359 77.5024Z" fill="white"/>
</g>
<g filter="url(#filter3_dd_1_957)">
<rect x="14.0801" y="55.7799" width="207.9" height="41.58" rx="4.62" fill="url(#paint3_linear_1_957)"/>
<path d="M58.4151 76.6194H60.4687L64.3172 82.0202H62.0049L58.4151 76.6194ZM56.0705 70.7012H57.9786V82.0202H56.0705V70.7012ZM57.2024 72.3505V70.7012H59.5632C60.3933 70.7012 61.1101 70.8467 61.7138 71.1378C62.3175 71.4288 62.7864 71.8385 63.1206 72.3667C63.4656 72.8841 63.6381 73.4986 63.6381 74.2101C63.6381 74.9215 63.4656 75.5414 63.1206 76.0696C62.7864 76.5978 62.3175 77.0075 61.7138 77.2985C61.1101 77.5896 60.3933 77.7351 59.5632 77.7351H57.2024V76.1505H59.4824C59.9243 76.1505 60.307 76.0804 60.6304 75.9403C60.9538 75.7893 61.2072 75.5737 61.3904 75.2935C61.5737 75.0024 61.6653 74.6574 61.6653 74.2586C61.6653 73.8489 61.5737 73.504 61.3904 73.2237C61.2072 72.9434 60.9538 72.7278 60.6304 72.5769C60.307 72.426 59.9243 72.3505 59.4824 72.3505H57.2024ZM68.7757 82.1819C68.0211 82.1819 67.3527 82.0202 66.7706 81.6968C66.1993 81.3734 65.7573 80.9206 65.4447 80.3385C65.1321 79.7564 64.9757 79.0772 64.9757 78.3011C64.9757 77.5141 65.1321 76.8296 65.4447 76.2475C65.7681 75.6654 66.2208 75.218 66.803 74.9054C67.3851 74.582 68.0696 74.4203 68.8565 74.4203C69.6435 74.4203 70.3118 74.5712 70.8616 74.873C71.4222 75.1749 71.848 75.6115 72.1391 76.1828C72.4301 76.7434 72.5756 77.4225 72.5756 78.2202C72.5756 78.3065 72.5703 78.3981 72.5595 78.4951C72.5595 78.5921 72.5595 78.6622 72.5595 78.7053H66.0268V77.4926H71.0557L70.5221 78.2364C70.5544 78.1717 70.5867 78.0855 70.6191 77.9777C70.6622 77.8699 70.6838 77.7782 70.6838 77.7028C70.6838 77.3039 70.6029 76.959 70.4412 76.6679C70.2903 76.3768 70.0747 76.1505 69.7944 75.9888C69.5249 75.8271 69.2069 75.7462 68.8404 75.7462C68.3984 75.7462 68.0211 75.8432 67.7085 76.0373C67.4066 76.2313 67.1695 76.5116 66.997 76.8781C66.8353 77.2446 66.7544 77.6974 66.7544 78.2364C66.7437 78.7646 66.8191 79.2174 66.9808 79.5947C67.1533 79.972 67.3959 80.2576 67.7085 80.4517C68.0211 80.6457 68.4038 80.7427 68.8565 80.7427C69.3416 80.7427 69.7621 80.6457 70.1178 80.4517C70.4735 80.2576 70.7646 79.9612 70.991 79.5623L72.511 80.1606C72.1121 80.829 71.6054 81.3356 70.991 81.6806C70.3765 82.0148 69.6381 82.1819 68.7757 82.1819ZM73.6439 74.582H77.9128V76.1181H73.6439V74.582ZM77.7349 71.2833C77.6271 71.1108 77.5031 70.9976 77.363 70.9437C77.2228 70.8898 77.0881 70.8629 76.9587 70.8629C76.797 70.8629 76.6569 70.906 76.5383 70.9922C76.4305 71.0785 76.3443 71.2186 76.2796 71.4127C76.2149 71.6067 76.1826 71.86 76.1826 72.1726V82.0202H74.4524V71.8331C74.4524 71.251 74.544 70.7712 74.7273 70.3939C74.9213 70.0059 75.1962 69.7094 75.5519 69.5046C75.9077 69.2998 76.3497 69.1974 76.8779 69.1974C77.1689 69.1974 77.4223 69.2351 77.6379 69.3106C77.8535 69.386 78.0367 69.483 78.1876 69.6016C78.3386 69.7094 78.4571 69.8172 78.5434 69.925L77.7349 71.2833ZM82.4823 82.1819C81.7277 82.1819 81.0593 82.0202 80.4772 81.6968C79.9059 81.3734 79.4639 80.9206 79.1513 80.3385C78.8387 79.7564 78.6823 79.0772 78.6823 78.3011C78.6823 77.5141 78.8387 76.8296 79.1513 76.2475C79.4747 75.6654 79.9274 75.218 80.5096 74.9054C81.0917 74.582 81.7762 74.4203 82.5631 74.4203C83.3501 74.4203 84.0184 74.5712 84.5682 74.873C85.1288 75.1749 85.5546 75.6115 85.8457 76.1828C86.1367 76.7434 86.2822 77.4225 86.2822 78.2202C86.2822 78.3065 86.2769 78.3981 86.2661 78.4951C86.2661 78.5921 86.2661 78.6622 86.2661 78.7053H79.7334V77.4926H84.7623L84.2287 78.2364C84.261 78.1717 84.2933 78.0855 84.3257 77.9777C84.3688 77.8699 84.3904 77.7782 84.3904 77.7028C84.3904 77.3039 84.3095 76.959 84.1478 76.6679C83.9969 76.3768 83.7813 76.1505 83.501 75.9888C83.2315 75.8271 82.9135 75.7462 82.547 75.7462C82.105 75.7462 81.7277 75.8432 81.4151 76.0373C81.1132 76.2313 80.8761 76.5116 80.7036 76.8781C80.5419 77.2446 80.461 77.6974 80.461 78.2364C80.4503 78.7646 80.5257 79.2174 80.6874 79.5947C80.8599 79.972 81.1025 80.2576 81.4151 80.4517C81.7277 80.6457 82.1104 80.7427 82.5631 80.7427C83.0482 80.7427 83.4687 80.6457 83.8244 80.4517C84.1801 80.2576 84.4712 79.9612 84.6976 79.5623L86.2176 80.1606C85.8187 80.829 85.312 81.3356 84.6976 81.6806C84.0831 82.0148 83.3447 82.1819 82.4823 82.1819ZM89.6951 74.582V82.0202H87.9649V74.582H89.6951ZM91.9104 76.4415C91.7595 76.3122 91.6086 76.2151 91.4577 76.1505C91.3175 76.0858 91.1396 76.0534 90.924 76.0534C90.633 76.0534 90.3958 76.1289 90.2126 76.2798C90.0293 76.4307 89.8946 76.641 89.8083 76.9105C89.7329 77.1692 89.6951 77.4764 89.6951 77.8321L89.113 77.4926C89.113 76.8997 89.2208 76.3768 89.4364 75.9241C89.6628 75.4605 89.9485 75.094 90.2934 74.8245C90.6492 74.5442 91.0157 74.4041 91.393 74.4041C91.6625 74.4041 91.9158 74.4472 92.153 74.5335C92.3901 74.6197 92.5949 74.7652 92.7674 74.9701L91.9104 76.4415ZM92.9306 78.964V77.3956H96.2455V78.964H92.9306ZM98.7655 82.0202V80.3385H104.473V82.0202H98.7655ZM98.7655 72.3829V70.7012H104.473V72.3829H98.7655ZM98.7655 76.7811V75.1318H104.15V76.7811H98.7655ZM97.5851 70.7012H99.4608V82.0202H97.5851V70.7012ZM107.777 79.7079C107.777 79.9558 107.836 80.1714 107.955 80.3547C108.073 80.5271 108.235 80.6565 108.44 80.7427C108.655 80.829 108.898 80.8721 109.167 80.8721C109.523 80.8721 109.841 80.802 110.122 80.6619C110.413 80.511 110.644 80.3008 110.817 80.0313C110.989 79.7618 111.076 79.4384 111.076 79.0611L111.334 80.0313C111.334 80.5056 111.194 80.9044 110.914 81.2278C110.644 81.5512 110.299 81.7938 109.879 81.9555C109.469 82.1064 109.049 82.1819 108.618 82.1819C108.154 82.1819 107.723 82.0902 107.324 81.907C106.925 81.7237 106.607 81.4542 106.37 81.0985C106.133 80.7427 106.014 80.3115 106.014 79.8049C106.014 79.0826 106.268 78.5113 106.774 78.0909C107.281 77.6597 107.998 77.4441 108.925 77.4441C109.421 77.4441 109.847 77.498 110.202 77.6058C110.569 77.7136 110.871 77.8429 111.108 77.9938C111.345 78.134 111.512 78.2633 111.609 78.3819V79.2713C111.275 79.0341 110.919 78.8616 110.542 78.7538C110.165 78.646 109.766 78.5921 109.345 78.5921C108.979 78.5921 108.682 78.6406 108.456 78.7377C108.23 78.8239 108.057 78.9479 107.939 79.1096C107.831 79.2713 107.777 79.4707 107.777 79.7079ZM107.227 76.5224L106.516 75.2935C106.861 75.0886 107.297 74.8892 107.825 74.6952C108.354 74.5011 108.968 74.4041 109.669 74.4041C110.272 74.4041 110.811 74.4957 111.286 74.679C111.76 74.8515 112.127 75.1102 112.385 75.4552C112.655 75.8001 112.79 76.2205 112.79 76.7164V82.0202H111.076V77.056C111.076 76.8188 111.038 76.6248 110.962 76.4739C110.887 76.3229 110.774 76.199 110.623 76.102C110.483 76.0049 110.316 75.9349 110.122 75.8917C109.927 75.8486 109.717 75.8271 109.491 75.8271C109.146 75.8271 108.817 75.8702 108.505 75.9564C108.203 76.0319 107.944 76.1289 107.728 76.2475C107.513 76.3553 107.346 76.4469 107.227 76.5224ZM116.556 74.582V82.0202H114.825V74.582H116.556ZM118.771 76.4415C118.62 76.3122 118.469 76.2151 118.318 76.1505C118.178 76.0858 118 76.0534 117.785 76.0534C117.494 76.0534 117.256 76.1289 117.073 76.2798C116.89 76.4307 116.755 76.641 116.669 76.9105C116.593 77.1692 116.556 77.4764 116.556 77.8321L115.974 77.4926C115.974 76.8997 116.081 76.3768 116.297 75.9241C116.523 75.4605 116.809 75.094 117.154 74.8245C117.51 74.5442 117.876 74.4041 118.253 74.4041C118.523 74.4041 118.776 74.4472 119.013 74.5335C119.251 74.6197 119.455 74.7652 119.628 74.9701L118.771 76.4415ZM125.612 77.4926C125.612 76.9428 125.499 76.5278 125.273 76.2475C125.046 75.9672 124.701 75.8271 124.238 75.8271C123.904 75.8271 123.613 75.8971 123.365 76.0373C123.117 76.1666 122.923 76.3607 122.783 76.6194C122.653 76.8673 122.589 77.1584 122.589 77.4926V82.0202H120.826V74.582H122.589V75.73C122.826 75.2881 123.128 74.9593 123.494 74.7437C123.871 74.5281 124.313 74.4203 124.82 74.4203C125.661 74.4203 126.302 74.679 126.744 75.1964C127.186 75.7031 127.407 76.3984 127.407 77.2824V82.0202H125.612V77.4926ZM128.603 78.964V77.3956H131.917V78.964H128.603ZM134.001 78.3658C134.249 78.8077 134.513 79.1904 134.793 79.5138C135.084 79.8372 135.402 80.0906 135.747 80.2738C136.103 80.4571 136.491 80.5487 136.911 80.5487C137.429 80.5487 137.849 80.4086 138.173 80.1283C138.496 79.848 138.658 79.4815 138.658 79.0287C138.658 78.6191 138.555 78.2903 138.351 78.0424C138.156 77.7836 137.876 77.568 137.51 77.3956C137.143 77.2123 136.723 77.0344 136.248 76.8619C135.968 76.7649 135.656 76.6356 135.311 76.4739C134.966 76.3014 134.637 76.0912 134.324 75.8432C134.012 75.5845 133.753 75.2719 133.548 74.9054C133.343 74.5281 133.241 74.0753 133.241 73.5471C133.241 72.9434 133.397 72.4152 133.71 71.9624C134.022 71.4989 134.443 71.1378 134.971 70.879C135.51 70.6203 136.119 70.491 136.798 70.491C137.467 70.491 138.049 70.6149 138.545 70.8629C139.04 71.1 139.461 71.4019 139.806 71.7684C140.151 72.1349 140.415 72.5176 140.598 72.9165L139.062 73.7896C138.911 73.5094 138.728 73.2506 138.512 73.0135C138.297 72.7655 138.043 72.5715 137.752 72.4314C137.472 72.2804 137.143 72.205 136.766 72.205C136.238 72.205 135.85 72.329 135.602 72.5769C135.354 72.8141 135.23 73.0943 135.23 73.4177C135.23 73.7088 135.316 73.9729 135.488 74.2101C135.672 74.4364 135.952 74.652 136.329 74.8569C136.707 75.0617 137.197 75.2719 137.801 75.4875C138.146 75.6061 138.485 75.757 138.819 75.9403C139.164 76.1235 139.472 76.3499 139.741 76.6194C140.021 76.8889 140.248 77.2123 140.42 77.5896C140.593 77.9561 140.679 78.3873 140.679 78.8832C140.679 79.4114 140.571 79.8857 140.356 80.3062C140.151 80.7266 139.871 81.0823 139.515 81.3734C139.159 81.6537 138.755 81.8693 138.302 82.0202C137.86 82.1819 137.397 82.2627 136.911 82.2627C136.254 82.2627 135.639 82.1334 135.068 81.8746C134.507 81.6051 134.012 81.2494 133.58 80.8074C133.16 80.3654 132.826 79.8857 132.578 79.3683L134.001 78.3658ZM145.71 82.1819C144.955 82.1819 144.287 82.0202 143.704 81.6968C143.133 81.3734 142.691 80.9206 142.379 80.3385C142.066 79.7564 141.91 79.0772 141.91 78.3011C141.91 77.5141 142.066 76.8296 142.379 76.2475C142.702 75.6654 143.155 75.218 143.737 74.9054C144.319 74.582 145.003 74.4203 145.79 74.4203C146.577 74.4203 147.246 74.5712 147.795 74.873C148.356 75.1749 148.782 75.6115 149.073 76.1828C149.364 76.7434 149.509 77.4225 149.509 78.2202C149.509 78.3065 149.504 78.3981 149.493 78.4951C149.493 78.5921 149.493 78.6622 149.493 78.7053H142.961V77.4926H147.99L147.456 78.2364C147.488 78.1717 147.521 78.0855 147.553 77.9777C147.596 77.8699 147.618 77.7782 147.618 77.7028C147.618 77.3039 147.537 76.959 147.375 76.6679C147.224 76.3768 147.009 76.1505 146.728 75.9888C146.459 75.8271 146.141 75.7462 145.774 75.7462C145.332 75.7462 144.955 75.8432 144.642 76.0373C144.34 76.2313 144.103 76.5116 143.931 76.8781C143.769 77.2446 143.688 77.6974 143.688 78.2364C143.678 78.7646 143.753 79.2174 143.915 79.5947C144.087 79.972 144.33 80.2576 144.642 80.4517C144.955 80.6457 145.338 80.7427 145.79 80.7427C146.275 80.7427 146.696 80.6457 147.052 80.4517C147.407 80.2576 147.698 79.9612 147.925 79.5623L149.445 80.1606C149.046 80.829 148.539 81.3356 147.925 81.6806C147.31 82.0148 146.572 82.1819 145.71 82.1819ZM152.356 78.3011C152.356 78.7646 152.459 79.1743 152.664 79.53C152.868 79.8857 153.143 80.166 153.488 80.3708C153.844 80.5757 154.238 80.6781 154.669 80.6781C155.035 80.6781 155.375 80.6242 155.687 80.5164C156.011 80.3978 156.296 80.2469 156.544 80.0636C156.792 79.8696 156.976 79.654 157.094 79.4168V81.341C156.835 81.5998 156.485 81.8046 156.043 81.9555C155.601 82.1064 155.116 82.1819 154.588 82.1819C153.833 82.1819 153.149 82.0202 152.534 81.6968C151.931 81.3626 151.451 80.9044 151.095 80.3223C150.739 79.7294 150.562 79.0557 150.562 78.3011C150.562 77.5357 150.739 76.8619 151.095 76.2798C151.451 75.6977 151.931 75.2449 152.534 74.9215C153.149 74.5874 153.833 74.4203 154.588 74.4203C155.116 74.4203 155.601 74.4957 156.043 74.6467C156.485 74.7976 156.835 74.997 157.094 75.2449V77.1853C156.976 76.9374 156.787 76.7218 156.528 76.5385C156.28 76.3445 155.995 76.1936 155.671 76.0858C155.348 75.978 155.014 75.9241 154.669 75.9241C154.238 75.9241 153.844 76.0265 153.488 76.2313C153.143 76.4361 152.868 76.7164 152.664 77.0722C152.459 77.4279 152.356 77.8375 152.356 78.3011ZM160.819 79.1096C160.819 79.6378 160.933 80.0474 161.159 80.3385C161.385 80.6296 161.736 80.7751 162.21 80.7751C162.533 80.7751 162.819 80.705 163.067 80.5649C163.315 80.4247 163.509 80.2307 163.649 79.9828C163.789 79.7348 163.859 79.4438 163.859 79.1096V74.582H165.606V82.0202H163.859V80.8721C163.622 81.3033 163.315 81.6321 162.938 81.8585C162.571 82.0741 162.129 82.1819 161.612 82.1819C160.782 82.1819 160.14 81.9232 159.687 81.4057C159.246 80.8883 159.025 80.1876 159.025 79.3036V74.582H160.819V79.1096ZM169.566 74.582V82.0202H167.836V74.582H169.566ZM171.781 76.4415C171.63 76.3122 171.48 76.2151 171.329 76.1505C171.188 76.0858 171.011 76.0534 170.795 76.0534C170.504 76.0534 170.267 76.1289 170.084 76.2798C169.9 76.4307 169.766 76.641 169.679 76.9105C169.604 77.1692 169.566 77.4764 169.566 77.8321L168.984 77.4926C168.984 76.8997 169.092 76.3768 169.307 75.9241C169.534 75.4605 169.819 75.094 170.164 74.8245C170.52 74.5442 170.887 74.4041 171.264 74.4041C171.533 74.4041 171.787 74.4472 172.024 74.5335C172.261 74.6197 172.466 74.7652 172.638 74.9701L171.781 76.4415ZM176.834 82.1819C176.079 82.1819 175.411 82.0202 174.829 81.6968C174.257 81.3734 173.815 80.9206 173.503 80.3385C173.19 79.7564 173.034 79.0772 173.034 78.3011C173.034 77.5141 173.19 76.8296 173.503 76.2475C173.826 75.6654 174.279 75.218 174.861 74.9054C175.443 74.582 176.128 74.4203 176.914 74.4203C177.701 74.4203 178.37 74.5712 178.92 74.873C179.48 75.1749 179.906 75.6115 180.197 76.1828C180.488 76.7434 180.634 77.4225 180.634 78.2202C180.634 78.3065 180.628 78.3981 180.617 78.4951C180.617 78.5921 180.617 78.6622 180.617 78.7053H174.085V77.4926H179.114L178.58 78.2364C178.612 78.1717 178.645 78.0855 178.677 77.9777C178.72 77.8699 178.742 77.7782 178.742 77.7028C178.742 77.3039 178.661 76.959 178.499 76.6679C178.348 76.3768 178.133 76.1505 177.852 75.9888C177.583 75.8271 177.265 75.7462 176.898 75.7462C176.456 75.7462 176.079 75.8432 175.766 76.0373C175.465 76.2313 175.227 76.5116 175.055 76.8781C174.893 77.2446 174.812 77.6974 174.812 78.2364C174.802 78.7646 174.877 79.2174 175.039 79.5947C175.211 79.972 175.454 80.2576 175.766 80.4517C176.079 80.6457 176.462 80.7427 176.914 80.7427C177.4 80.7427 177.82 80.6457 178.176 80.4517C178.531 80.2576 178.823 79.9612 179.049 79.5623L180.569 80.1606C180.17 80.829 179.663 81.3356 179.049 81.6806C178.434 82.0148 177.696 82.1819 176.834 82.1819Z" fill="white"/>
</g>
<rect x="14.0801" y="34.9899" width="157.08" height="2.31" rx="1.155" fill="#2D83EE"/>
<path d="M17.4688 15.0634C17.4688 16.0614 17.6837 16.9484 18.1133 17.7246C18.543 18.5007 19.1251 19.1175 19.8597 19.5749C20.6081 20.0184 21.4605 20.2401 22.4169 20.2401C23.3871 20.2401 24.2395 20.0184 24.974 19.5749C25.7225 19.1175 26.3046 18.5007 26.7204 17.7246C27.1501 16.9484 27.3649 16.0614 27.3649 15.0634C27.3649 14.0655 27.157 13.1785 26.7412 12.4023C26.3254 11.6123 25.7433 10.9955 24.9948 10.552C24.2603 10.1085 23.4009 9.88672 22.4169 9.88672C21.4605 9.88672 20.6081 10.1085 19.8597 10.552C19.1251 10.9955 18.543 11.6123 18.1133 12.4023C17.6837 13.1785 17.4688 14.0655 17.4688 15.0634ZM14.8701 15.0634C14.8701 13.9685 15.0572 12.9636 15.4314 12.0489C15.8056 11.1341 16.3323 10.3441 17.0115 9.67882C17.7045 8.99968 18.5083 8.473 19.4231 8.09878C20.3517 7.7107 21.3496 7.51666 22.4169 7.51666C23.5118 7.51666 24.5167 7.7107 25.4314 8.09878C26.3462 8.473 27.1431 8.99968 27.8223 9.67882C28.5153 10.3441 29.0489 11.1341 29.4231 12.0489C29.7973 12.9636 29.9844 13.9685 29.9844 15.0634C29.9844 16.1445 29.7973 17.1494 29.4231 18.078C29.0489 19.0066 28.5222 19.8105 27.8431 20.4896C27.1639 21.1688 26.367 21.7024 25.4522 22.0905C24.5375 22.4647 23.5257 22.6518 22.4169 22.6518C21.3358 22.6518 20.3309 22.4647 19.4023 22.0905C18.4876 21.7024 17.6906 21.1688 17.0115 20.4896C16.3323 19.8105 15.8056 19.0066 15.4314 18.078C15.0572 17.1494 14.8701 16.1445 14.8701 15.0634ZM34.5111 18.5977C34.5111 19.2769 34.6567 19.8036 34.9477 20.1778C35.2388 20.552 35.6892 20.7391 36.2991 20.7391C36.7149 20.7391 37.0822 20.649 37.4009 20.4688C37.7197 20.2887 37.9692 20.0392 38.1494 19.7204C38.3296 19.4016 38.4197 19.0274 38.4197 18.5977V12.7765H40.665V22.3399H38.4197V20.8638C38.1147 21.4182 37.7197 21.841 37.2346 22.132C36.7634 22.4092 36.1951 22.5478 35.5298 22.5478C34.4626 22.5478 33.638 22.2152 33.0558 21.5499C32.4876 20.8846 32.2034 19.9837 32.2034 18.8472V12.7765H34.5111V18.5977ZM45.7569 12.7765V22.3399H43.5324V12.7765H45.7569ZM48.6051 15.1674C48.4111 15.0011 48.2171 14.8763 48.023 14.7932C47.8428 14.71 47.6141 14.6684 47.3369 14.6684C46.9627 14.6684 46.6578 14.7654 46.4222 14.9595C46.1866 15.1535 46.0133 15.4238 45.9024 15.7703C45.8054 16.1029 45.7569 16.4979 45.7569 16.9553L45.0085 16.5187C45.0085 15.7564 45.1471 15.0842 45.4243 14.5021C45.7153 13.9061 46.0826 13.4349 46.5261 13.0884C46.9835 12.728 47.4547 12.5478 47.9399 12.5478C48.2864 12.5478 48.6121 12.6033 48.917 12.7142C49.2219 12.825 49.4852 13.0122 49.707 13.2755L48.6051 15.1674ZM57.6675 7.78693H60.1207V22.3399H57.6675V7.78693ZM59.1228 9.94909V7.78693H62.0542C63.1214 7.78693 64.0431 7.97404 64.8192 8.34826C65.5954 8.70862 66.1983 9.22837 66.628 9.90751C67.0715 10.5728 67.2932 11.3697 67.2932 12.2984C67.2932 13.227 67.0715 14.0309 66.628 14.71C66.1983 15.3891 65.5954 15.9158 64.8192 16.29C64.0431 16.6504 63.1214 16.8306 62.0542 16.8306H59.1228V14.6684H62.0542C62.8996 14.6684 63.5788 14.4675 64.0916 14.0655C64.6044 13.6636 64.8608 13.0745 64.8608 12.2984C64.8608 11.5222 64.6044 10.9401 64.0916 10.552C63.5788 10.1501 62.8996 9.94909 62.0542 9.94909H59.1228ZM71.318 12.7765V22.3399H69.0935V12.7765H71.318ZM74.1663 15.1674C73.9722 15.0011 73.7782 14.8763 73.5842 14.7932C73.404 14.71 73.1753 14.6684 72.8981 14.6684C72.5239 14.6684 72.2189 14.7654 71.9833 14.9595C71.7477 15.1535 71.5745 15.4238 71.4636 15.7703C71.3666 16.1029 71.318 16.4979 71.318 16.9553L70.5696 16.5187C70.5696 15.7564 70.7082 15.0842 70.9854 14.5021C71.2765 13.9061 71.6438 13.4349 72.0873 13.0884C72.5447 12.728 73.0159 12.5478 73.501 12.5478C73.8475 12.5478 74.1732 12.6033 74.4781 12.7142C74.7831 12.825 75.0464 13.0122 75.2682 13.2755L74.1663 15.1674ZM75.7764 17.5582C75.7764 16.5742 75.9981 15.7079 76.4416 14.9595C76.899 14.211 77.5158 13.6289 78.292 13.2131C79.082 12.7835 79.9621 12.5686 80.9323 12.5686C81.9163 12.5686 82.7965 12.7835 83.5726 13.2131C84.3488 13.6289 84.9586 14.211 85.4021 14.9595C85.8595 15.7079 86.0882 16.5742 86.0882 17.5582C86.0882 18.5284 85.8595 19.3947 85.4021 20.157C84.9586 20.9054 84.3488 21.4945 83.5726 21.9241C82.7965 22.3399 81.9163 22.5478 80.9323 22.5478C79.9621 22.5478 79.082 22.3399 78.292 21.9241C77.5158 21.4945 76.899 20.9054 76.4416 20.157C75.9981 19.3947 75.7764 18.5284 75.7764 17.5582ZM78.0841 17.5582C78.0841 18.1542 78.2088 18.6809 78.4583 19.1383C78.7078 19.5818 79.0473 19.9352 79.477 20.1986C79.9066 20.448 80.3917 20.5728 80.9323 20.5728C81.4728 20.5728 81.9579 20.448 82.3876 20.1986C82.8172 19.9352 83.1568 19.5818 83.4063 19.1383C83.6558 18.6809 83.7805 18.1542 83.7805 17.5582C83.7805 16.9623 83.6558 16.4356 83.4063 15.9782C83.1568 15.5208 82.8172 15.1674 82.3876 14.9179C81.9579 14.6684 81.4728 14.5437 80.9323 14.5437C80.3917 14.5437 79.9066 14.6684 79.477 14.9179C79.0473 15.1674 78.7078 15.5208 78.4583 15.9782C78.2088 16.4356 78.0841 16.9623 78.0841 17.5582ZM87.6985 22.9844H89.9438C89.9576 23.4141 90.0755 23.7952 90.2972 24.1279C90.519 24.4744 90.8308 24.7446 91.2328 24.9387C91.6347 25.1466 92.1059 25.2505 92.6465 25.2505C93.1039 25.2505 93.5474 25.1397 93.977 24.9179C94.4067 24.6961 94.7532 24.3566 95.0165 23.8992C95.2937 23.4418 95.4323 22.8528 95.4323 22.132V12.7765H97.6361V22.132C97.6361 23.2824 97.4005 24.2318 96.9292 24.9803C96.4718 25.7287 95.8689 26.2831 95.1205 26.6435C94.3721 27.0177 93.5612 27.2048 92.6881 27.2048C91.6624 27.2048 90.7823 27.0246 90.0477 26.6643C89.3131 26.3178 88.7449 25.8257 88.3429 25.1882C87.941 24.5506 87.7262 23.816 87.6985 22.9844ZM87.5113 17.4959C87.5113 16.4425 87.7262 15.5555 88.1558 14.8347C88.5855 14.1002 89.1538 13.5388 89.8606 13.1508C90.5813 12.7627 91.3506 12.5686 92.1683 12.5686C92.9722 12.5686 93.6721 12.7696 94.2681 13.1715C94.8779 13.5596 95.3561 14.121 95.7026 14.8555C96.063 15.5763 96.2432 16.4564 96.2432 17.4959C96.2432 18.5215 96.063 19.4085 95.7026 20.157C95.3561 20.8916 94.8779 21.4598 94.2681 21.8618C93.6721 22.2498 92.9722 22.4439 92.1683 22.4439C91.3506 22.4439 90.5813 22.2498 89.8606 21.8618C89.1538 21.4737 88.5855 20.9124 88.1558 20.1778C87.7262 19.4432 87.5113 18.5492 87.5113 17.4959ZM89.8398 17.4959C89.8398 18.1334 89.9715 18.6809 90.2348 19.1383C90.4982 19.5818 90.8447 19.9214 91.2743 20.157C91.7179 20.3787 92.196 20.4896 92.7089 20.4896C93.1524 20.4896 93.582 20.3787 93.9978 20.157C94.4136 19.9214 94.7532 19.5818 95.0165 19.1383C95.2937 18.6948 95.4323 18.1473 95.4323 17.4959C95.4323 17.0108 95.3492 16.588 95.1829 16.2277C95.0304 15.8535 94.8225 15.5416 94.5592 15.2921C94.2958 15.0288 94.0048 14.8347 93.686 14.71C93.3672 14.5853 93.0415 14.5229 92.7089 14.5229C92.196 14.5229 91.7179 14.6407 91.2743 14.8763C90.8447 15.0981 90.4982 15.4307 90.2348 15.8742C89.9715 16.3178 89.8398 16.8583 89.8398 17.4959ZM102.645 12.7765V22.3399H100.421V12.7765H102.645ZM105.493 15.1674C105.299 15.0011 105.105 14.8763 104.911 14.7932C104.731 14.71 104.502 14.6684 104.225 14.6684C103.851 14.6684 103.546 14.7654 103.31 14.9595C103.075 15.1535 102.902 15.4238 102.791 15.7703C102.694 16.1029 102.645 16.4979 102.645 16.9553L101.897 16.5187C101.897 15.7564 102.035 15.0842 102.313 14.5021C102.604 13.9061 102.971 13.4349 103.414 13.0884C103.872 12.728 104.343 12.5478 104.828 12.5478C105.175 12.5478 105.5 12.6033 105.805 12.7142C106.11 12.825 106.374 13.0122 106.595 13.2755L105.493 15.1674ZM109.549 19.367C109.549 19.6857 109.626 19.9629 109.778 20.1986C109.931 20.4203 110.138 20.5866 110.402 20.6975C110.679 20.8084 110.991 20.8638 111.337 20.8638C111.795 20.8638 112.204 20.7738 112.564 20.5936C112.938 20.3995 113.236 20.1293 113.458 19.7828C113.68 19.4363 113.791 19.0205 113.791 18.5354L114.123 19.7828C114.123 20.3926 113.943 20.9054 113.583 21.3212C113.236 21.737 112.793 22.0489 112.252 22.2568C111.725 22.4508 111.185 22.5478 110.63 22.5478C110.035 22.5478 109.48 22.43 108.967 22.1944C108.454 21.9588 108.046 21.6123 107.741 21.1549C107.436 20.6975 107.283 20.1431 107.283 19.4917C107.283 18.5631 107.609 17.8285 108.26 17.288C108.912 16.7336 109.834 16.4564 111.025 16.4564C111.663 16.4564 112.211 16.5257 112.668 16.6643C113.139 16.8029 113.527 16.9692 113.832 17.1632C114.137 17.3434 114.352 17.5097 114.477 17.6622V18.8056C114.047 18.5007 113.59 18.279 113.104 18.1404C112.619 18.0018 112.107 17.9325 111.566 17.9325C111.095 17.9325 110.714 17.9948 110.423 18.1196C110.132 18.2304 109.91 18.3898 109.757 18.5977C109.619 18.8056 109.549 19.062 109.549 19.367ZM108.843 15.2713L107.928 13.6913C108.371 13.428 108.933 13.1715 109.612 12.9221C110.291 12.6726 111.081 12.5478 111.982 12.5478C112.758 12.5478 113.451 12.6657 114.061 12.9013C114.671 13.123 115.142 13.4557 115.475 13.8992C115.821 14.3427 115.994 14.8833 115.994 15.5208V22.3399H113.791V15.9574C113.791 15.6525 113.742 15.403 113.645 15.209C113.548 15.0149 113.402 14.8555 113.208 14.7308C113.028 14.6061 112.813 14.516 112.564 14.4605C112.314 14.4051 112.044 14.3774 111.753 14.3774C111.31 14.3774 110.887 14.4328 110.485 14.5437C110.097 14.6407 109.764 14.7654 109.487 14.9179C109.21 15.0565 108.995 15.1743 108.843 15.2713ZM132.313 16.2485V22.3399H130.046V16.5187C130.046 15.798 129.915 15.2644 129.651 14.9179C129.402 14.5575 129.007 14.3774 128.466 14.3774C128.078 14.3774 127.739 14.4605 127.448 14.6268C127.17 14.7932 126.949 15.0357 126.782 15.3545C126.63 15.6733 126.554 16.0614 126.554 16.5187V22.3399H124.308V16.5187C124.308 15.798 124.177 15.2644 123.913 14.9179C123.664 14.5575 123.262 14.3774 122.708 14.3774C122.333 14.3774 122.001 14.4605 121.71 14.6268C121.432 14.7932 121.211 15.0357 121.044 15.3545C120.892 15.6733 120.816 16.0614 120.816 16.5187V22.3399H118.612V12.7765H120.816V14.1695C121.107 13.6428 121.474 13.2478 121.918 12.9844C122.361 12.7072 122.895 12.5686 123.518 12.5686C124.211 12.5686 124.787 12.7142 125.244 13.0052C125.715 13.2963 126.055 13.719 126.263 14.2734C126.609 13.7052 127.032 13.2824 127.531 13.0052C128.044 12.7142 128.619 12.5686 129.256 12.5686C129.949 12.5686 130.518 12.7142 130.961 13.0052C131.405 13.2824 131.737 13.6982 131.959 14.2526C132.195 14.807 132.313 15.4723 132.313 16.2485ZM148.859 16.2485V22.3399H146.593V16.5187C146.593 15.798 146.461 15.2644 146.198 14.9179C145.949 14.5575 145.554 14.3774 145.013 14.3774C144.625 14.3774 144.285 14.4605 143.994 14.6268C143.717 14.7932 143.495 15.0357 143.329 15.3545C143.177 15.6733 143.1 16.0614 143.1 16.5187V22.3399H140.855V16.5187C140.855 15.798 140.723 15.2644 140.46 14.9179C140.211 14.5575 139.809 14.3774 139.254 14.3774C138.88 14.3774 138.547 14.4605 138.256 14.6268C137.979 14.7932 137.757 15.0357 137.591 15.3545C137.439 15.6733 137.362 16.0614 137.362 16.5187V22.3399H135.159V12.7765H137.362V14.1695C137.653 13.6428 138.021 13.2478 138.464 12.9844C138.908 12.7072 139.441 12.5686 140.065 12.5686C140.758 12.5686 141.333 12.7142 141.791 13.0052C142.262 13.2963 142.601 13.719 142.809 14.2734C143.156 13.7052 143.579 13.2824 144.078 13.0052C144.59 12.7142 145.166 12.5686 145.803 12.5686C146.496 12.5686 147.064 12.7142 147.508 13.0052C147.951 13.2824 148.284 13.6982 148.506 14.2526C148.741 14.807 148.859 15.4723 148.859 16.2485ZM155.863 22.5478C154.893 22.5478 154.034 22.3399 153.285 21.9241C152.551 21.5083 151.983 20.9262 151.581 20.1778C151.179 19.4293 150.978 18.5562 150.978 17.5582C150.978 16.5465 151.179 15.6663 151.581 14.9179C151.996 14.1695 152.579 13.5943 153.327 13.1923C154.075 12.7765 154.956 12.5686 155.967 12.5686C156.979 12.5686 157.838 12.7627 158.545 13.1508C159.266 13.5388 159.813 14.1002 160.188 14.8347C160.562 15.5555 160.749 16.4286 160.749 17.4543C160.749 17.5652 160.742 17.683 160.728 17.8077C160.728 17.9325 160.728 18.0225 160.728 18.078H152.329V16.5187H158.795L158.109 17.4751C158.15 17.3919 158.192 17.281 158.233 17.1424C158.289 17.0038 158.317 16.886 158.317 16.789C158.317 16.2762 158.213 15.8327 158.005 15.4584C157.811 15.0842 157.533 14.7932 157.173 14.5853C156.827 14.3774 156.418 14.2734 155.947 14.2734C155.378 14.2734 154.893 14.3982 154.491 14.6476C154.103 14.8971 153.798 15.2575 153.576 15.7287C153.369 16.2 153.265 16.7821 153.265 17.4751C153.251 18.1542 153.348 18.7363 153.556 19.2214C153.777 19.7065 154.089 20.0738 154.491 20.3233C154.893 20.5728 155.385 20.6975 155.967 20.6975C156.591 20.6975 157.132 20.5728 157.589 20.3233C158.046 20.0738 158.421 19.6927 158.712 19.1799L160.666 19.9491C160.153 20.8084 159.502 21.4598 158.712 21.9033C157.922 22.333 156.972 22.5478 155.863 22.5478ZM163.349 19.1799C163.668 19.5264 163.98 19.8174 164.285 20.053C164.59 20.2887 164.901 20.4688 165.22 20.5936C165.539 20.7183 165.858 20.7807 166.177 20.7807C166.578 20.7807 166.89 20.6906 167.112 20.5104C167.348 20.3302 167.465 20.0808 167.465 19.762C167.465 19.4848 167.375 19.2492 167.195 19.0551C167.015 18.8472 166.766 18.674 166.447 18.5354C166.128 18.3829 165.754 18.2304 165.324 18.078C164.894 17.9117 164.465 17.7176 164.035 17.4959C163.619 17.2602 163.273 16.9553 162.996 16.5811C162.732 16.2069 162.601 15.7356 162.601 15.1674C162.601 14.5853 162.746 14.1002 163.037 13.7121C163.342 13.324 163.744 13.0399 164.243 12.8597C164.756 12.6657 165.303 12.5686 165.885 12.5686C166.412 12.5686 166.904 12.6449 167.362 12.7973C167.833 12.9498 168.256 13.1508 168.63 13.4002C169.004 13.6497 169.323 13.9338 169.586 14.2526L168.339 15.5832C168.034 15.209 167.66 14.904 167.216 14.6684C166.772 14.4328 166.315 14.315 165.844 14.315C165.511 14.315 165.241 14.3843 165.033 14.5229C164.825 14.6615 164.721 14.8625 164.721 15.1258C164.721 15.3476 164.811 15.5485 164.991 15.7287C165.186 15.895 165.435 16.0475 165.74 16.1861C166.059 16.3247 166.412 16.4702 166.8 16.6227C167.341 16.8306 167.833 17.0593 168.276 17.3088C168.72 17.5582 169.073 17.8632 169.337 18.2235C169.6 18.5839 169.732 19.0551 169.732 19.6372C169.732 20.5381 169.42 21.2658 168.796 21.8202C168.186 22.3607 167.362 22.631 166.322 22.631C165.657 22.631 165.054 22.534 164.513 22.3399C163.973 22.132 163.495 21.8687 163.079 21.5499C162.663 21.2173 162.316 20.8708 162.039 20.5104L163.349 19.1799Z" fill="white"/>
<defs>
<filter id="filter0_dd_1_957" x="679.519" y="53.69" width="235.62" height="69.3" filterUnits="userSpaceOnUse" color-interpolation-filters="sRGB">
<feFlood flood-opacity="0" result="BackgroundImageFix"/>
<feColorMatrix in="SourceAlpha" type="matrix" values="0 0 0 0 0 0 0 0 0 0 0 0 0 0 0 0 0 0 127 0" result="hardAlpha"/>
<feMorphology radius="4.62" operator="erode" in="SourceAlpha" result="effect1_dropShadow_1_957"/>
<feOffset dy="4.62"/>
<feGaussianBlur stdDeviation="3.465"/>
<feComposite in2="hardAlpha" operator="out"/>
<feColorMatrix type="matrix" values="0 0 0 0 0 0 0 0 0 0 0 0 0 0 0 0 0 0 0.1 0"/>
<feBlend mode="normal" in2="BackgroundImageFix" result="effect1_dropShadow_1_957"/>
<feColorMatrix in="SourceAlpha" type="matrix" values="0 0 0 0 0 0 0 0 0 0 0 0 0 0 0 0 0 0 127 0" result="hardAlpha"/>
<feMorphology radius="3.465" operator="erode" in="SourceAlpha" result="effect2_dropShadow_1_957"/>
<feOffset dy="11.55"/>
<feGaussianBlur stdDeviation="8.6625"/>
<feComposite in2="hardAlpha" operator="out"/>
<feColorMatrix type="matrix" values="0 0 0 0 0 0 0 0 0 0 0 0 0 0 0 0 0 0 0.1 0"/>
<feBlend mode="normal" in2="effect1_dropShadow_1_957" result="effect2_dropShadow_1_957"/>
<feBlend mode="normal" in="SourceGraphic" in2="effect2_dropShadow_1_957" result="shape"/>
</filter>
<filter id="filter1_dd_1_957" x="226.599" y="53.4699" width="235.62" height="69.3" filterUnits="userSpaceOnUse" color-interpolation-filters="sRGB">
<feFlood flood-opacity="0" result="BackgroundImageFix"/>
<feColorMatrix in="SourceAlpha" type="matrix" values="0 0 0 0 0 0 0 0 0 0 0 0 0 0 0 0 0 0 127 0" result="hardAlpha"/>
<feMorphology radius="4.62" operator="erode" in="SourceAlpha" result="effect1_dropShadow_1_957"/>
<feOffset dy="4.62"/>
<feGaussianBlur stdDeviation="3.465"/>
<feComposite in2="hardAlpha" operator="out"/>
<feColorMatrix type="matrix" values="0 0 0 0 0 0 0 0 0 0 0 0 0 0 0 0 0 0 0.1 0"/>
<feBlend mode="normal" in2="BackgroundImageFix" result="effect1_dropShadow_1_957"/>
<feColorMatrix in="SourceAlpha" type="matrix" values="0 0 0 0 0 0 0 0 0 0 0 0 0 0 0 0 0 0 127 0" result="hardAlpha"/>
<feMorphology radius="3.465" operator="erode" in="SourceAlpha" result="effect2_dropShadow_1_957"/>
<feOffset dy="11.55"/>
<feGaussianBlur stdDeviation="8.6625"/>
<feComposite in2="hardAlpha" operator="out"/>
<feColorMatrix type="matrix" values="0 0 0 0 0 0 0 0 0 0 0 0 0 0 0 0 0 0 0.1 0"/>
<feBlend mode="normal" in2="effect1_dropShadow_1_957" result="effect2_dropShadow_1_957"/>
<feBlend mode="normal" in="SourceGraphic" in2="effect2_dropShadow_1_957" result="shape"/>
</filter>
<filter id="filter2_dd_1_957" x="453.14" y="53.69" width="235.62" height="69.3" filterUnits="userSpaceOnUse" color-interpolation-filters="sRGB">
<feFlood flood-opacity="0" result="BackgroundImageFix"/>
<feColorMatrix in="SourceAlpha" type="matrix" values="0 0 0 0 0 0 0 0 0 0 0 0 0 0 0 0 0 0 127 0" result="hardAlpha"/>
<feMorphology radius="4.62" operator="erode" in="SourceAlpha" result="effect1_dropShadow_1_957"/>
<feOffset dy="4.62"/>
<feGaussianBlur stdDeviation="3.465"/>
<feComposite in2="hardAlpha" operator="out"/>
<feColorMatrix type="matrix" values="0 0 0 0 0 0 0 0 0 0 0 0 0 0 0 0 0 0 0.1 0"/>
<feBlend mode="normal" in2="BackgroundImageFix" result="effect1_dropShadow_1_957"/>
<feColorMatrix in="SourceAlpha" type="matrix" values="0 0 0 0 0 0 0 0 0 0 0 0 0 0 0 0 0 0 127 0" result="hardAlpha"/>
<feMorphology radius="3.465" operator="erode" in="SourceAlpha" result="effect2_dropShadow_1_957"/>
<feOffset dy="11.55"/>
<feGaussianBlur stdDeviation="8.6625"/>
<feComposite in2="hardAlpha" operator="out"/>
<feColorMatrix type="matrix" values="0 0 0 0 0 0 0 0 0 0 0 0 0 0 0 0 0 0 0.1 0"/>
<feBlend mode="normal" in2="effect1_dropShadow_1_957" result="effect2_dropShadow_1_957"/>
<feBlend mode="normal" in="SourceGraphic" in2="effect2_dropShadow_1_957" result="shape"/>
</filter>
<filter id="filter3_dd_1_957" x="0.220079" y="53.4699" width="235.62" height="69.3" filterUnits="userSpaceOnUse" color-interpolation-filters="sRGB">
<feFlood flood-opacity="0" result="BackgroundImageFix"/>
<feColorMatrix in="SourceAlpha" type="matrix" values="0 0 0 0 0 0 0 0 0 0 0 0 0 0 0 0 0 0 127 0" result="hardAlpha"/>
<feMorphology radius="4.62" operator="erode" in="SourceAlpha" result="effect1_dropShadow_1_957"/>
<feOffset dy="4.62"/>
<feGaussianBlur stdDeviation="3.465"/>
<feComposite in2="hardAlpha" operator="out"/>
<feColorMatrix type="matrix" values="0 0 0 0 0 0 0 0 0 0 0 0 0 0 0 0 0 0 0.1 0"/>
<feBlend mode="normal" in2="BackgroundImageFix" result="effect1_dropShadow_1_957"/>
<feColorMatrix in="SourceAlpha" type="matrix" values="0 0 0 0 0 0 0 0 0 0 0 0 0 0 0 0 0 0 127 0" result="hardAlpha"/>
<feMorphology radius="3.465" operator="erode" in="SourceAlpha" result="effect2_dropShadow_1_957"/>
<feOffset dy="11.55"/>
<feGaussianBlur stdDeviation="8.6625"/>
<feComposite in2="hardAlpha" operator="out"/>
<feColorMatrix type="matrix" values="0 0 0 0 0 0 0 0 0 0 0 0 0 0 0 0 0 0 0.1 0"/>
<feBlend mode="normal" in2="effect1_dropShadow_1_957" result="effect2_dropShadow_1_957"/>
<feBlend mode="normal" in="SourceGraphic" in2="effect2_dropShadow_1_957" result="shape"/>
</filter>
<linearGradient id="paint0_linear_1_957" x1="897.987" y1="42.2706" x2="691.961" y2="91.6676" gradientUnits="userSpaceOnUse">
<stop offset="0.2" stop-color="#7184FD"/>
<stop offset="0.5" stop-color="#3F7AF0"/>
<stop offset="1" stop-color="#4F37EE"/>
</linearGradient>
<linearGradient id="paint1_linear_1_957" x1="445.068" y1="42.0506" x2="239.042" y2="91.4476" gradientUnits="userSpaceOnUse">
<stop offset="0.2" stop-color="#7184FD"/>
<stop offset="0.5" stop-color="#3F7AF0"/>
<stop offset="1" stop-color="#4F37EE"/>
</linearGradient>
<linearGradient id="paint2_linear_1_957" x1="671.608" y1="42.2706" x2="465.582" y2="91.6676" gradientUnits="userSpaceOnUse">
<stop offset="0.2" stop-color="#7184FD"/>
<stop offset="0.5" stop-color="#3F7AF0"/>
<stop offset="1" stop-color="#4F37EE"/>
</linearGradient>
<linearGradient id="paint3_linear_1_957" x1="218.688" y1="42.0506" x2="12.6625" y2="91.4476" gradientUnits="userSpaceOnUse">
<stop offset="0.2" stop-color="#7184FD"/>
<stop offset="0.5" stop-color="#3F7AF0"/>
<stop offset="1" stop-color="#4F37EE"/>
</linearGradient>
</defs>
</svg>
