<svg width="125" height="337" viewBox="0 0 125 337" fill="none" xmlns="http://www.w3.org/2000/svg">
<path d="M1.35892 61.1213H3.26698V72.4403H1.35892V61.1213ZM2.49082 62.803V61.1213H4.77079C5.60085 61.1213 6.31772 61.2668 6.9214 61.5579C7.52508 61.8382 7.99401 62.2424 8.32819 62.7706C8.67315 63.2881 8.84563 63.9079 8.84563 64.6302C8.84563 65.3525 8.67315 65.9777 8.32819 66.5059C7.99401 67.0341 7.52508 67.4438 6.9214 67.7348C6.31772 68.0151 5.60085 68.1553 4.77079 68.1553H2.49082V66.4736H4.77079C5.42837 66.4736 5.95659 66.3173 6.35545 66.0046C6.75431 65.692 6.95374 65.2339 6.95374 64.6302C6.95374 64.0265 6.75431 63.5738 6.35545 63.2719C5.95659 62.9593 5.42837 62.803 4.77079 62.803H2.49082ZM11.976 65.0021V72.4403H10.2458V65.0021H11.976ZM14.1913 66.8617C14.0404 66.7323 13.8895 66.6353 13.7386 66.5706C13.5984 66.5059 13.4206 66.4736 13.205 66.4736C12.9139 66.4736 12.6767 66.549 12.4935 66.7C12.3102 66.8509 12.1755 67.0611 12.0892 67.3306C12.0138 67.5893 11.976 67.8965 11.976 68.2523L11.3939 67.9127C11.3939 67.3198 11.5017 66.797 11.7173 66.3442C11.9437 65.8807 12.2294 65.5142 12.5743 65.2447C12.9301 64.9644 13.2966 64.8242 13.6739 64.8242C13.9434 64.8242 14.1967 64.8674 14.4339 64.9536C14.671 65.0398 14.8759 65.1854 15.0483 65.3902L14.1913 66.8617ZM16.1818 62.043C16.1818 61.7412 16.2896 61.4878 16.5052 61.283C16.7315 61.0782 16.9903 60.9758 17.2813 60.9758C17.5939 60.9758 17.858 61.0782 18.0736 61.283C18.2892 61.4878 18.397 61.7412 18.397 62.043C18.397 62.3341 18.2892 62.5874 18.0736 62.803C17.858 63.0078 17.5939 63.1102 17.2813 63.1102C16.9903 63.1102 16.7315 63.0078 16.5052 62.803C16.2896 62.5874 16.1818 62.3341 16.1818 62.043ZM16.4243 65.0021H18.1545V72.4403H16.4243V65.0021ZM21.7216 68.7212C21.7216 69.1847 21.824 69.5944 22.0289 69.9501C22.2337 70.3059 22.5086 70.5861 22.8535 70.791C23.2093 70.9958 23.6027 71.0982 24.0339 71.0982C24.4005 71.0982 24.74 71.0443 25.0526 70.9365C25.376 70.8179 25.6617 70.667 25.9097 70.4837C26.1576 70.2897 26.3409 70.0741 26.4594 69.8369V71.7612C26.2007 72.0199 25.8504 72.2247 25.4084 72.3756C24.9664 72.5265 24.4813 72.602 23.9531 72.602C23.1985 72.602 22.514 72.4403 21.8995 72.1169C21.2958 71.7827 20.8161 71.3246 20.4604 70.7425C20.1046 70.1496 19.9268 69.4758 19.9268 68.7212C19.9268 67.9558 20.1046 67.2821 20.4604 66.7C20.8161 66.1178 21.2958 65.6651 21.8995 65.3417C22.514 65.0075 23.1985 64.8404 23.9531 64.8404C24.4813 64.8404 24.9664 64.9159 25.4084 65.0668C25.8504 65.2177 26.2007 65.4171 26.4594 65.6651V67.6055C26.3409 67.3575 26.1522 67.1419 25.8935 66.9587C25.6455 66.7646 25.3599 66.6137 25.0365 66.5059C24.7131 66.3981 24.3789 66.3442 24.0339 66.3442C23.6027 66.3442 23.2093 66.4466 22.8535 66.6514C22.5086 66.8563 22.2337 67.1365 22.0289 67.4923C21.824 67.848 21.7216 68.2577 21.7216 68.7212ZM28.325 62.043C28.325 61.7412 28.4328 61.4878 28.6484 61.283C28.8748 61.0782 29.1335 60.9758 29.4246 60.9758C29.7372 60.9758 30.0013 61.0782 30.2169 61.283C30.4325 61.4878 30.5403 61.7412 30.5403 62.043C30.5403 62.3341 30.4325 62.5874 30.2169 62.803C30.0013 63.0078 29.7372 63.1102 29.4246 63.1102C29.1335 63.1102 28.8748 63.0078 28.6484 62.803C28.4328 62.5874 28.325 62.3341 28.325 62.043ZM28.5676 65.0021H30.2978V72.4403H28.5676V65.0021ZM37.487 67.9127C37.487 67.3629 37.3738 66.9479 37.1474 66.6676C36.921 66.3873 36.5761 66.2472 36.1125 66.2472C35.7784 66.2472 35.4873 66.3173 35.2394 66.4574C34.9914 66.5868 34.7974 66.7808 34.6572 67.0395C34.5279 67.2875 34.4632 67.5785 34.4632 67.9127V72.4403H32.7007V65.0021H34.4632V66.1502C34.7004 65.7082 35.0022 65.3794 35.3687 65.1638C35.746 64.9482 36.188 64.8404 36.6947 64.8404C37.5355 64.8404 38.1769 65.0991 38.6189 65.6166C39.0609 66.1232 39.2819 66.8185 39.2819 67.7025V72.4403H37.487V67.9127ZM41.0916 72.9416H42.838C42.8488 73.2758 42.9404 73.5722 43.1129 73.8309C43.2854 74.1004 43.5279 74.3106 43.8405 74.4616C44.1532 74.6233 44.5197 74.7041 44.9401 74.7041C45.2958 74.7041 45.6408 74.6179 45.975 74.4454C46.3092 74.2729 46.5787 74.0088 46.7835 73.6531C46.9991 73.2973 47.1069 72.8392 47.1069 72.2786V65.0021H48.8209V72.2786C48.8209 73.1733 48.6376 73.9118 48.2711 74.4939C47.9154 75.076 47.4464 75.5072 46.8643 75.7875C46.2822 76.0786 45.6516 76.2241 44.9724 76.2241C44.1747 76.2241 43.4902 76.0839 42.9188 75.8037C42.3475 75.5342 41.9055 75.1515 41.5929 74.6556C41.2803 74.1597 41.1132 73.5884 41.0916 72.9416ZM40.9461 68.6727C40.9461 67.8534 41.1132 67.1635 41.4474 66.6029C41.7816 66.0316 42.2235 65.595 42.7733 65.2932C43.3339 64.9913 43.9322 64.8404 44.5682 64.8404C45.1934 64.8404 45.7378 64.9967 46.2014 65.3093C46.6757 65.6112 47.0476 66.0478 47.3171 66.6191C47.5974 67.1797 47.7375 67.8642 47.7375 68.6727C47.7375 69.4704 47.5974 70.1603 47.3171 70.7425C47.0476 71.3138 46.6757 71.7558 46.2014 72.0684C45.7378 72.3702 45.1934 72.5212 44.5682 72.5212C43.9322 72.5212 43.3339 72.3702 42.7733 72.0684C42.2235 71.7666 41.7816 71.33 41.4474 70.7586C41.1132 70.1873 40.9461 69.492 40.9461 68.6727ZM42.7571 68.6727C42.7571 69.1686 42.8596 69.5944 43.0644 69.9501C43.2692 70.2951 43.5387 70.5592 43.8729 70.7425C44.2178 70.9149 44.5897 71.0012 44.9886 71.0012C45.3336 71.0012 45.6677 70.9149 45.9911 70.7425C46.3145 70.5592 46.5787 70.2951 46.7835 69.9501C46.9991 69.6052 47.1069 69.1794 47.1069 68.6727C47.1069 68.2954 47.0422 67.9666 46.9128 67.6863C46.7943 67.3953 46.6326 67.1527 46.4277 66.9587C46.2229 66.7539 45.9965 66.6029 45.7486 66.5059C45.5007 66.4089 45.2473 66.3604 44.9886 66.3604C44.5897 66.3604 44.2178 66.452 43.8729 66.6353C43.5387 66.8078 43.2692 67.0665 43.0644 67.4114C42.8596 67.7564 42.7571 68.1768 42.7571 68.6727Z" fill="#F1F1F1"/>
<path d="M2.7172 106.39L3.08911 104.773H8.34436L8.7001 106.39H2.7172ZM5.67631 101.183L3.89761 105.339L3.86527 105.759L2.29678 109.3H0.146166L5.67631 97.3507L11.2226 109.3H9.05584L7.51969 105.856L7.48735 105.387L5.67631 101.183ZM13.8567 106.39C13.8567 106.918 13.9699 107.328 14.1963 107.619C14.4226 107.91 14.773 108.055 15.2473 108.055C15.5707 108.055 15.8564 107.985 16.1043 107.845C16.3523 107.705 16.5463 107.511 16.6864 107.263C16.8266 107.015 16.8966 106.724 16.8966 106.39V101.862H18.643V109.3H16.8966V108.152C16.6595 108.583 16.3523 108.912 15.975 109.139C15.6084 109.354 15.1665 109.462 14.649 109.462C13.819 109.462 13.1775 109.203 12.7248 108.686C12.2828 108.168 12.0618 107.468 12.0618 106.584V101.862H13.8567V106.39ZM26.468 96.6877H28.2306V109.3H26.468V96.6877ZM20.3073 105.581C20.3073 104.762 20.4743 104.067 20.8085 103.495C21.1427 102.913 21.5847 102.471 22.1345 102.169C22.695 101.857 23.2933 101.7 23.9293 101.7C24.5546 101.7 25.099 101.857 25.5625 102.169C26.0368 102.482 26.4087 102.929 26.6782 103.511C26.9585 104.083 27.0987 104.773 27.0987 105.581C27.0987 106.379 26.9585 107.069 26.6782 107.651C26.4087 108.233 26.0368 108.68 25.5625 108.993C25.099 109.306 24.5546 109.462 23.9293 109.462C23.2933 109.462 22.695 109.311 22.1345 109.009C21.5847 108.697 21.1427 108.249 20.8085 107.667C20.4743 107.085 20.3073 106.39 20.3073 105.581ZM22.1183 105.581C22.1183 106.077 22.2207 106.503 22.4255 106.859C22.6303 107.214 22.8998 107.484 23.234 107.667C23.579 107.85 23.9509 107.942 24.3498 107.942C24.6947 107.942 25.0289 107.85 25.3523 107.667C25.6757 107.484 25.9398 107.22 26.1446 106.875C26.3602 106.519 26.468 106.088 26.468 105.581C26.468 105.075 26.3602 104.649 26.1446 104.304C25.9398 103.948 25.6757 103.679 25.3523 103.495C25.0289 103.312 24.6947 103.22 24.3498 103.22C23.9509 103.22 23.579 103.312 23.234 103.495C22.8998 103.679 22.6303 103.948 22.4255 104.304C22.2207 104.66 22.1183 105.085 22.1183 105.581ZM30.3305 98.903C30.3305 98.6011 30.4383 98.3478 30.6539 98.143C30.8803 97.9382 31.139 97.8358 31.4301 97.8358C31.7427 97.8358 32.0068 97.9382 32.2224 98.143C32.438 98.3478 32.5458 98.6011 32.5458 98.903C32.5458 99.194 32.438 99.4474 32.2224 99.663C32.0068 99.8678 31.7427 99.9702 31.4301 99.9702C31.139 99.9702 30.8803 99.8678 30.6539 99.663C30.4383 99.4474 30.3305 99.194 30.3305 98.903ZM30.5731 101.862H32.3032V109.3H30.5731V101.862ZM33.6713 101.862H37.8916V103.398H33.6713V101.862ZM34.9325 99.2749H36.6465V109.3H34.9325V99.2749ZM44.0894 97.9813H45.9975V109.3H44.0894V97.9813ZM45.2213 99.663V97.9813H47.5013C48.3313 97.9813 49.0482 98.1268 49.6519 98.4179C50.2556 98.6982 50.7245 99.1024 51.0587 99.6306C51.4036 100.148 51.5761 100.768 51.5761 101.49C51.5761 102.212 51.4036 102.838 51.0587 103.366C50.7245 103.894 50.2556 104.304 49.6519 104.595C49.0482 104.875 48.3313 105.015 47.5013 105.015H45.2213V103.334H47.5013C48.1589 103.334 48.6871 103.177 49.0859 102.865C49.4848 102.552 49.6842 102.094 49.6842 101.49C49.6842 100.887 49.4848 100.434 49.0859 100.132C48.6871 99.8193 48.1589 99.663 47.5013 99.663H45.2213ZM54.7065 101.862V109.3H52.9763V101.862H54.7065ZM56.9218 103.722C56.7709 103.592 56.62 103.495 56.4691 103.431C56.3289 103.366 56.151 103.334 55.9354 103.334C55.6444 103.334 55.4072 103.409 55.224 103.56C55.0407 103.711 54.906 103.921 54.8197 104.191C54.7443 104.449 54.7065 104.757 54.7065 105.112L54.1244 104.773C54.1244 104.18 54.2322 103.657 54.4478 103.204C54.6742 102.741 54.9599 102.374 55.3048 102.105C55.6606 101.824 56.0271 101.684 56.4044 101.684C56.6739 101.684 56.9272 101.727 57.1644 101.814C57.4015 101.9 57.6063 102.045 57.7788 102.25L56.9218 103.722ZM58.1741 105.581C58.1741 104.816 58.3466 104.142 58.6915 103.56C59.0473 102.978 59.527 102.525 60.1307 102.202C60.7451 101.867 61.4297 101.7 62.1843 101.7C62.9496 101.7 63.6342 101.867 64.2379 102.202C64.8415 102.525 65.3159 102.978 65.6608 103.56C66.0166 104.142 66.1944 104.816 66.1944 105.581C66.1944 106.336 66.0166 107.01 65.6608 107.602C65.3159 108.185 64.8415 108.643 64.2379 108.977C63.6342 109.3 62.9496 109.462 62.1843 109.462C61.4297 109.462 60.7451 109.3 60.1307 108.977C59.527 108.643 59.0473 108.185 58.6915 107.602C58.3466 107.01 58.1741 106.336 58.1741 105.581ZM59.969 105.581C59.969 106.045 60.066 106.454 60.26 106.81C60.4541 107.155 60.7182 107.43 61.0524 107.635C61.3865 107.829 61.7638 107.926 62.1843 107.926C62.6047 107.926 62.982 107.829 63.3162 107.635C63.6503 107.43 63.9145 107.155 64.1085 106.81C64.3025 106.454 64.3996 106.045 64.3996 105.581C64.3996 105.118 64.3025 104.708 64.1085 104.352C63.9145 103.997 63.6503 103.722 63.3162 103.528C62.982 103.334 62.6047 103.237 62.1843 103.237C61.7638 103.237 61.3865 103.334 61.0524 103.528C60.7182 103.722 60.4541 103.997 60.26 104.352C60.066 104.708 59.969 105.118 59.969 105.581ZM69.0315 105.581C69.0315 106.045 69.1339 106.454 69.3387 106.81C69.5436 107.166 69.8184 107.446 70.1634 107.651C70.5191 107.856 70.9126 107.958 71.3438 107.958C71.7103 107.958 72.0499 107.904 72.3625 107.796C72.6859 107.678 72.9716 107.527 73.2195 107.344C73.4675 107.15 73.6507 106.934 73.7693 106.697V108.621C73.5106 108.88 73.1602 109.085 72.7183 109.236C72.2763 109.387 71.7912 109.462 71.263 109.462C70.5084 109.462 69.8238 109.3 69.2094 108.977C68.6057 108.643 68.126 108.185 67.7702 107.602C67.4145 107.01 67.2366 106.336 67.2366 105.581C67.2366 104.816 67.4145 104.142 67.7702 103.56C68.126 102.978 68.6057 102.525 69.2094 102.202C69.8238 101.867 70.5084 101.7 71.263 101.7C71.7912 101.7 72.2763 101.776 72.7183 101.927C73.1602 102.078 73.5106 102.277 73.7693 102.525V104.465C73.6507 104.218 73.4621 104.002 73.2034 103.819C72.9554 103.625 72.6698 103.474 72.3464 103.366C72.023 103.258 71.6888 103.204 71.3438 103.204C70.9126 103.204 70.5191 103.307 70.1634 103.511C69.8184 103.716 69.5436 103.997 69.3387 104.352C69.1339 104.708 69.0315 105.118 69.0315 105.581ZM78.9336 109.462C78.179 109.462 77.5106 109.3 76.9285 108.977C76.3572 108.653 75.9152 108.201 75.6026 107.619C75.29 107.036 75.1337 106.357 75.1337 105.581C75.1337 104.794 75.29 104.11 75.6026 103.528C75.926 102.945 76.3787 102.498 76.9609 102.185C77.543 101.862 78.2275 101.7 79.0145 101.7C79.8014 101.7 80.4698 101.851 81.0195 102.153C81.5801 102.455 82.0059 102.892 82.297 103.463C82.588 104.023 82.7336 104.703 82.7336 105.5C82.7336 105.587 82.7282 105.678 82.7174 105.775C82.7174 105.872 82.7174 105.942 82.7174 105.985H76.1847V104.773H81.2136L80.68 105.517C80.7123 105.452 80.7446 105.366 80.777 105.258C80.8201 105.15 80.8417 105.058 80.8417 104.983C80.8417 104.584 80.7608 104.239 80.5991 103.948C80.4482 103.657 80.2326 103.431 79.9523 103.269C79.6828 103.107 79.3648 103.026 78.9983 103.026C78.5563 103.026 78.179 103.123 77.8664 103.317C77.5645 103.511 77.3274 103.792 77.1549 104.158C76.9932 104.525 76.9124 104.978 76.9124 105.517C76.9016 106.045 76.977 106.497 77.1387 106.875C77.3112 107.252 77.5538 107.538 77.8664 107.732C78.179 107.926 78.5617 108.023 79.0145 108.023C79.4996 108.023 79.92 107.926 80.2757 107.732C80.6315 107.538 80.9225 107.241 81.1489 106.842L82.6689 107.441C82.27 108.109 81.7634 108.616 81.1489 108.961C80.5344 109.295 79.796 109.462 78.9336 109.462ZM84.7558 106.842C85.0038 107.112 85.2463 107.338 85.4835 107.522C85.7206 107.705 85.9632 107.845 86.2111 107.942C86.4591 108.039 86.707 108.088 86.9549 108.088C87.2676 108.088 87.5101 108.017 87.6826 107.877C87.8658 107.737 87.9575 107.543 87.9575 107.295C87.9575 107.08 87.8874 106.896 87.7473 106.745C87.6071 106.584 87.4131 106.449 87.1651 106.341C86.9172 106.223 86.6261 106.104 86.292 105.985C85.9578 105.856 85.6236 105.705 85.2894 105.533C84.966 105.349 84.6965 105.112 84.4809 104.821C84.2761 104.53 84.1737 104.164 84.1737 103.722C84.1737 103.269 84.2869 102.892 84.5133 102.59C84.7504 102.288 85.063 102.067 85.4511 101.927C85.85 101.776 86.2758 101.7 86.7286 101.7C87.1382 101.7 87.5209 101.76 87.8766 101.878C88.2431 101.997 88.5719 102.153 88.863 102.347C89.1541 102.541 89.402 102.762 89.6068 103.01L88.6366 104.045C88.3995 103.754 88.1084 103.517 87.7634 103.334C87.4185 103.15 87.0627 103.059 86.6962 103.059C86.4375 103.059 86.2273 103.113 86.0656 103.22C85.9039 103.328 85.823 103.484 85.823 103.689C85.823 103.862 85.8931 104.018 86.0332 104.158C86.1842 104.288 86.3782 104.406 86.6154 104.514C86.8633 104.622 87.1382 104.735 87.44 104.854C87.8605 105.015 88.2431 105.193 88.5881 105.387C88.9331 105.581 89.208 105.818 89.4128 106.099C89.6176 106.379 89.72 106.745 89.72 107.198C89.72 107.899 89.4775 108.465 88.9924 108.896C88.518 109.316 87.8766 109.527 87.0681 109.527C86.5507 109.527 86.0818 109.451 85.6613 109.3C85.2409 109.139 84.869 108.934 84.5456 108.686C84.2222 108.427 83.9527 108.158 83.7371 107.877L84.7558 106.842ZM91.6091 106.842C91.8571 107.112 92.0996 107.338 92.3368 107.522C92.5739 107.705 92.8165 107.845 93.0644 107.942C93.3124 108.039 93.5603 108.088 93.8082 108.088C94.1209 108.088 94.3634 108.017 94.5359 107.877C94.7191 107.737 94.8108 107.543 94.8108 107.295C94.8108 107.08 94.7407 106.896 94.6006 106.745C94.4604 106.584 94.2664 106.449 94.0184 106.341C93.7705 106.223 93.4794 106.104 93.1453 105.985C92.8111 105.856 92.4769 105.705 92.1427 105.533C91.8193 105.349 91.5498 105.112 91.3342 104.821C91.1294 104.53 91.027 104.164 91.027 103.722C91.027 103.269 91.1402 102.892 91.3666 102.59C91.6037 102.288 91.9163 102.067 92.3044 101.927C92.7033 101.776 93.1291 101.7 93.5819 101.7C93.9915 101.7 94.3742 101.76 94.7299 101.878C95.0964 101.997 95.4252 102.153 95.7163 102.347C96.0074 102.541 96.2553 102.762 96.4601 103.01L95.4899 104.045C95.2528 103.754 94.9617 103.517 94.6167 103.334C94.2718 103.15 93.916 103.059 93.5495 103.059C93.2908 103.059 93.0806 103.113 92.9189 103.22C92.7572 103.328 92.6763 103.484 92.6763 103.689C92.6763 103.862 92.7464 104.018 92.8865 104.158C93.0375 104.288 93.2315 104.406 93.4687 104.514C93.7166 104.622 93.9915 104.735 94.2933 104.854C94.7138 105.015 95.0964 105.193 95.4414 105.387C95.7864 105.581 96.0613 105.818 96.2661 106.099C96.4709 106.379 96.5733 106.745 96.5733 107.198C96.5733 107.899 96.3308 108.465 95.8457 108.896C95.3713 109.316 94.7299 109.527 93.9214 109.527C93.404 109.527 92.9351 109.451 92.5146 109.3C92.0942 109.139 91.7223 108.934 91.3989 108.686C91.0755 108.427 90.806 108.158 90.5904 107.877L91.6091 106.842Z" fill="#F1F1F1"/>
<path d="M2.73337 140.501C2.73337 141.277 2.90046 141.967 3.23464 142.571C3.56882 143.174 4.02158 143.654 4.59292 144.01C5.17504 144.355 5.83801 144.527 6.58183 144.527C7.33643 144.527 7.9994 144.355 8.57074 144.01C9.15286 143.654 9.60562 143.174 9.92902 142.571C10.2632 141.967 10.4303 141.277 10.4303 140.501C10.4303 139.725 10.2686 139.035 9.94519 138.431C9.62179 137.817 9.16903 137.337 8.58691 136.992C8.01557 136.647 7.34721 136.475 6.58183 136.475C5.83801 136.475 5.17504 136.647 4.59292 136.992C4.02158 137.337 3.56882 137.817 3.23464 138.431C2.90046 139.035 2.73337 139.725 2.73337 140.501ZM0.712116 140.501C0.712116 139.649 0.857646 138.868 1.14871 138.156C1.43977 137.445 1.84941 136.83 2.37763 136.313C2.91663 135.785 3.54187 135.375 4.25335 135.084C4.97561 134.782 5.75177 134.631 6.58183 134.631C7.43345 134.631 8.215 134.782 8.92648 135.084C9.63796 135.375 10.2578 135.785 10.786 136.313C11.325 136.83 11.7401 137.445 12.0311 138.156C12.3222 138.868 12.4677 139.649 12.4677 140.501C12.4677 141.342 12.3222 142.123 12.0311 142.845C11.7401 143.568 11.3304 144.193 10.8022 144.721C10.274 145.249 9.65413 145.664 8.94265 145.966C8.23117 146.257 7.44423 146.403 6.58183 146.403C5.74099 146.403 4.95944 146.257 4.23718 145.966C3.5257 145.664 2.90585 145.249 2.37763 144.721C1.84941 144.193 1.43977 143.568 1.14871 142.845C0.857646 142.123 0.712116 141.342 0.712116 140.501ZM15.9885 143.25C15.9885 143.778 16.1017 144.188 16.328 144.479C16.5544 144.77 16.9048 144.915 17.3791 144.915C17.7025 144.915 17.9882 144.845 18.2361 144.705C18.484 144.565 18.6781 144.371 18.8182 144.123C18.9584 143.875 19.0284 143.584 19.0284 143.25V138.722H20.7748V146.16H19.0284V145.012C18.7913 145.443 18.484 145.772 18.1067 145.999C17.7402 146.214 17.2982 146.322 16.7808 146.322C15.9507 146.322 15.3093 146.063 14.8566 145.546C14.4146 145.028 14.1936 144.328 14.1936 143.444V138.722H15.9885V143.25ZM24.7352 138.722V146.16H23.005V138.722H24.7352ZM26.9505 140.582C26.7995 140.452 26.6486 140.355 26.4977 140.291C26.3576 140.226 26.1797 140.194 25.9641 140.194C25.673 140.194 25.4359 140.269 25.2526 140.42C25.0694 140.571 24.9346 140.781 24.8484 141.051C24.7729 141.309 24.7352 141.617 24.7352 141.972L24.1531 141.633C24.1531 141.04 24.2609 140.517 24.4765 140.064C24.7028 139.601 24.9885 139.234 25.3335 138.965C25.6892 138.684 26.0557 138.544 26.433 138.544C26.7025 138.544 26.9559 138.587 27.193 138.674C27.4302 138.76 27.635 138.905 27.8075 139.11L26.9505 140.582ZM35.3572 143.25L35.7291 141.633H40.9844L41.3401 143.25H35.3572ZM38.3163 138.043L36.5376 142.199L36.5053 142.619L34.9368 146.16H32.7862L38.3163 134.211L43.8626 146.16H41.6959L40.1597 142.716L40.1274 142.247L38.3163 138.043ZM46.4967 143.25C46.4967 143.778 46.6099 144.188 46.8363 144.479C47.0627 144.77 47.413 144.915 47.8873 144.915C48.2107 144.915 48.4964 144.845 48.7443 144.705C48.9923 144.565 49.1863 144.371 49.3265 144.123C49.4666 143.875 49.5367 143.584 49.5367 143.25V138.722H51.283V146.16H49.5367V145.012C49.2995 145.443 48.9923 145.772 48.615 145.999C48.2485 146.214 47.8065 146.322 47.289 146.322C46.459 146.322 45.8176 146.063 45.3648 145.546C44.9228 145.028 44.7018 144.328 44.7018 143.444V138.722H46.4967V143.25ZM59.108 133.548H60.8706V146.16H59.108V133.548ZM52.9473 142.441C52.9473 141.622 53.1144 140.927 53.4485 140.355C53.7827 139.773 54.2247 139.331 54.7745 139.029C55.335 138.717 55.9333 138.56 56.5694 138.56C57.1946 138.56 57.739 138.717 58.2025 139.029C58.6768 139.342 59.0488 139.789 59.3183 140.371C59.5985 140.943 59.7387 141.633 59.7387 142.441C59.7387 143.239 59.5985 143.929 59.3183 144.511C59.0488 145.093 58.6768 145.54 58.2025 145.853C57.739 146.166 57.1946 146.322 56.5694 146.322C55.9333 146.322 55.335 146.171 54.7745 145.869C54.2247 145.557 53.7827 145.109 53.4485 144.527C53.1144 143.945 52.9473 143.25 52.9473 142.441ZM54.7583 142.441C54.7583 142.937 54.8607 143.363 55.0655 143.719C55.2704 144.074 55.5399 144.344 55.874 144.527C56.219 144.71 56.5909 144.802 56.9898 144.802C57.3347 144.802 57.6689 144.71 57.9923 144.527C58.3157 144.344 58.5798 144.08 58.7846 143.735C59.0002 143.379 59.108 142.948 59.108 142.441C59.108 141.935 59.0002 141.509 58.7846 141.164C58.5798 140.808 58.3157 140.539 57.9923 140.355C57.6689 140.172 57.3347 140.08 56.9898 140.08C56.5909 140.08 56.219 140.172 55.874 140.355C55.5399 140.539 55.2704 140.808 55.0655 141.164C54.8607 141.52 54.7583 141.945 54.7583 142.441ZM62.9705 135.763C62.9705 135.461 63.0783 135.208 63.2939 135.003C63.5203 134.798 63.779 134.696 64.0701 134.696C64.3827 134.696 64.6468 134.798 64.8624 135.003C65.078 135.208 65.1858 135.461 65.1858 135.763C65.1858 136.054 65.078 136.307 64.8624 136.523C64.6468 136.728 64.3827 136.83 64.0701 136.83C63.779 136.83 63.5203 136.728 63.2939 136.523C63.0783 136.307 62.9705 136.054 62.9705 135.763ZM63.2131 138.722H64.9433V146.16H63.2131V138.722ZM66.3113 138.722H70.5317V140.258H66.3113V138.722ZM67.5725 136.135H69.2866V146.16H67.5725V136.135ZM72.0756 143.702C72.3236 143.972 72.5661 144.198 72.8033 144.382C73.0404 144.565 73.283 144.705 73.5309 144.802C73.7789 144.899 74.0268 144.948 74.2748 144.948C74.5874 144.948 74.8299 144.878 75.0024 144.737C75.1857 144.597 75.2773 144.403 75.2773 144.155C75.2773 143.94 75.2072 143.756 75.0671 143.605C74.9269 143.444 74.7329 143.309 74.485 143.201C74.237 143.083 73.946 142.964 73.6118 142.845C73.2776 142.716 72.9434 142.565 72.6092 142.393C72.2858 142.209 72.0163 141.972 71.8007 141.681C71.5959 141.39 71.4935 141.024 71.4935 140.582C71.4935 140.129 71.6067 139.752 71.8331 139.45C72.0702 139.148 72.3829 138.927 72.7709 138.787C73.1698 138.636 73.5956 138.56 74.0484 138.56C74.458 138.56 74.8407 138.62 75.1964 138.738C75.563 138.857 75.8918 139.013 76.1828 139.207C76.4739 139.401 76.7218 139.622 76.9266 139.87L75.9564 140.905C75.7193 140.614 75.4282 140.377 75.0833 140.194C74.7383 140.01 74.3826 139.919 74.016 139.919C73.7573 139.919 73.5471 139.973 73.3854 140.08C73.2237 140.188 73.1429 140.345 73.1429 140.549C73.1429 140.722 73.2129 140.878 73.3531 141.018C73.504 141.148 73.698 141.266 73.9352 141.374C74.1831 141.482 74.458 141.595 74.7599 141.714C75.1803 141.875 75.563 142.053 75.9079 142.247C76.2529 142.441 76.5278 142.678 76.7326 142.959C76.9374 143.239 77.0398 143.605 77.0398 144.058C77.0398 144.759 76.7973 145.325 76.3122 145.756C75.8379 146.177 75.1964 146.387 74.3879 146.387C73.8705 146.387 73.4016 146.311 72.9812 146.16C72.5607 145.999 72.1888 145.794 71.8654 145.546C71.542 145.287 71.2725 145.018 71.0569 144.737L72.0756 143.702Z" fill="#F1F1F1"/>
<path d="M0.227016 173.464V171.701H8.11798V173.464H5.12653V183.02H3.21847V173.464H0.227016ZM10.9849 183.182C10.2303 183.182 9.56191 183.02 8.97979 182.697C8.40845 182.374 7.96647 181.921 7.65385 181.339C7.34123 180.757 7.18492 180.077 7.18492 179.301C7.18492 178.514 7.34123 177.83 7.65385 177.248C7.97725 176.666 8.43001 176.218 9.01213 175.906C9.59425 175.582 10.2788 175.42 11.0657 175.42C11.8527 175.42 12.521 175.571 13.0708 175.873C13.6314 176.175 14.0572 176.612 14.3482 177.183C14.6393 177.744 14.7848 178.423 14.7848 179.22C14.7848 179.307 14.7794 179.398 14.7686 179.495C14.7686 179.592 14.7686 179.662 14.7686 179.705H8.23597V178.493H13.2648L12.7312 179.237C12.7636 179.172 12.7959 179.086 12.8282 178.978C12.8714 178.87 12.8929 178.778 12.8929 178.703C12.8929 178.304 12.8121 177.959 12.6504 177.668C12.4995 177.377 12.2839 177.151 12.0036 176.989C11.7341 176.827 11.4161 176.746 11.0495 176.746C10.6076 176.746 10.2303 176.843 9.91765 177.037C9.61581 177.231 9.37865 177.512 9.20617 177.878C9.04447 178.245 8.96362 178.698 8.96362 179.237C8.95284 179.765 9.0283 180.218 9.19 180.595C9.36248 180.972 9.60503 181.258 9.91765 181.452C10.2303 181.646 10.613 181.743 11.0657 181.743C11.5508 181.743 11.9712 181.646 12.327 181.452C12.6827 181.258 12.9738 180.961 13.2002 180.562L14.7201 181.161C14.3213 181.829 13.8146 182.336 13.2002 182.681C12.5857 183.015 11.8473 183.182 10.9849 183.182ZM16.8071 180.562C17.055 180.832 17.2976 181.058 17.5347 181.242C17.7719 181.425 18.0144 181.565 18.2624 181.662C18.5103 181.759 18.7583 181.808 19.0062 181.808C19.3188 181.808 19.5614 181.738 19.7338 181.597C19.9171 181.457 20.0087 181.263 20.0087 181.015C20.0087 180.8 19.9387 180.616 19.7985 180.465C19.6584 180.304 19.4643 180.169 19.2164 180.061C18.9685 179.943 18.6774 179.824 18.3432 179.705C18.009 179.576 17.6749 179.425 17.3407 179.253C17.0173 179.069 16.7478 178.832 16.5322 178.541C16.3274 178.25 16.225 177.884 16.225 177.442C16.225 176.989 16.3381 176.612 16.5645 176.31C16.8017 176.008 17.1143 175.787 17.5024 175.647C17.9012 175.496 18.3271 175.42 18.7798 175.42C19.1895 175.42 19.5721 175.48 19.9279 175.598C20.2944 175.717 20.6232 175.873 20.9143 176.067C21.2053 176.261 21.4533 176.482 21.6581 176.73L20.6879 177.765C20.4507 177.474 20.1597 177.237 19.8147 177.054C19.4697 176.87 19.114 176.779 18.7475 176.779C18.4888 176.779 18.2785 176.833 18.1168 176.94C17.9551 177.048 17.8743 177.205 17.8743 177.409C17.8743 177.582 17.9444 177.738 18.0845 177.878C18.2354 178.008 18.4295 178.126 18.6666 178.234C18.9146 178.342 19.1895 178.455 19.4913 178.574C19.9117 178.735 20.2944 178.913 20.6394 179.107C20.9843 179.301 21.2592 179.538 21.464 179.819C21.6689 180.099 21.7713 180.465 21.7713 180.918C21.7713 181.619 21.5287 182.185 21.0436 182.616C20.5693 183.036 19.9279 183.247 19.1194 183.247C18.6019 183.247 18.133 183.171 17.7126 183.02C17.2922 182.859 16.9203 182.654 16.5969 182.406C16.2735 182.147 16.004 181.878 15.7884 181.597L16.8071 180.562ZM22.2859 175.582H26.5063V177.118H22.2859V175.582ZM23.5472 172.995H25.2612V183.02H23.5472V172.995ZM27.646 172.623C27.646 172.321 27.7538 172.068 27.9694 171.863C28.1958 171.658 28.4545 171.556 28.7456 171.556C29.0582 171.556 29.3223 171.658 29.5379 171.863C29.7535 172.068 29.8613 172.321 29.8613 172.623C29.8613 172.914 29.7535 173.167 29.5379 173.383C29.3223 173.588 29.0582 173.69 28.7456 173.69C28.4545 173.69 28.1958 173.588 27.9694 173.383C27.7538 173.167 27.646 172.914 27.646 172.623ZM27.8886 175.582H29.6188V183.02H27.8886V175.582ZM42.6777 178.283V183.02H40.9152V178.493C40.9152 177.932 40.8127 177.517 40.6079 177.248C40.4139 176.967 40.1067 176.827 39.6862 176.827C39.3844 176.827 39.1203 176.892 38.8939 177.021C38.6783 177.151 38.5058 177.339 38.3765 177.587C38.2579 177.835 38.1986 178.137 38.1986 178.493V183.02H36.4522V178.493C36.4522 177.932 36.3498 177.517 36.145 177.248C35.951 176.967 35.6383 176.827 35.2071 176.827C34.9161 176.827 34.6574 176.892 34.431 177.021C34.2154 177.151 34.0429 177.339 33.9135 177.587C33.795 177.835 33.7357 178.137 33.7357 178.493V183.02H32.0217V175.582H33.7357V176.666C33.9621 176.256 34.2477 175.949 34.5927 175.744C34.9376 175.528 35.3527 175.42 35.8378 175.42C36.3768 175.42 36.8241 175.534 37.1799 175.76C37.5464 175.986 37.8105 176.315 37.9722 176.746C38.2417 176.304 38.5705 175.976 38.9586 175.76C39.3574 175.534 39.8048 175.42 40.3007 175.42C40.8397 175.42 41.2817 175.534 41.6266 175.76C41.9716 175.976 42.2303 176.299 42.4028 176.73C42.5861 177.161 42.6777 177.679 42.6777 178.283ZM44.3254 179.301C44.3254 178.536 44.4979 177.862 44.8428 177.28C45.1986 176.698 45.6783 176.245 46.282 175.922C46.8964 175.588 47.5809 175.42 48.3355 175.42C49.1009 175.42 49.7855 175.588 50.3891 175.922C50.9928 176.245 51.4671 176.698 51.8121 177.28C52.1678 177.862 52.3457 178.536 52.3457 179.301C52.3457 180.056 52.1678 180.73 51.8121 181.322C51.4671 181.905 50.9928 182.363 50.3891 182.697C49.7855 183.02 49.1009 183.182 48.3355 183.182C47.5809 183.182 46.8964 183.02 46.282 182.697C45.6783 182.363 45.1986 181.905 44.8428 181.322C44.4979 180.73 44.3254 180.056 44.3254 179.301ZM46.1203 179.301C46.1203 179.765 46.2173 180.174 46.4113 180.53C46.6054 180.875 46.8695 181.15 47.2036 181.355C47.5378 181.549 47.9151 181.646 48.3355 181.646C48.756 181.646 49.1333 181.549 49.4674 181.355C49.8016 181.15 50.0657 180.875 50.2598 180.53C50.4538 180.174 50.5508 179.765 50.5508 179.301C50.5508 178.838 50.4538 178.428 50.2598 178.072C50.0657 177.717 49.8016 177.442 49.4674 177.248C49.1333 177.054 48.756 176.957 48.3355 176.957C47.9151 176.957 47.5378 177.054 47.2036 177.248C46.8695 177.442 46.6054 177.717 46.4113 178.072C46.2173 178.428 46.1203 178.838 46.1203 179.301ZM58.8049 178.493C58.8049 177.943 58.6917 177.528 58.4653 177.248C58.2389 176.967 57.894 176.827 57.4304 176.827C57.0962 176.827 56.8052 176.897 56.5572 177.037C56.3093 177.167 56.1153 177.361 55.9751 177.62C55.8458 177.867 55.7811 178.159 55.7811 178.493V183.02H54.0185V175.582H55.7811V176.73C56.0182 176.288 56.3201 175.959 56.6866 175.744C57.0639 175.528 57.5059 175.42 58.0125 175.42C58.8534 175.42 59.4948 175.679 59.9368 176.197C60.3787 176.703 60.5997 177.399 60.5997 178.283V183.02H58.8049V178.493ZM62.7652 172.623C62.7652 172.321 62.873 172.068 63.0886 171.863C63.315 171.658 63.5737 171.556 63.8648 171.556C64.1774 171.556 64.4415 171.658 64.6571 171.863C64.8727 172.068 64.9805 172.321 64.9805 172.623C64.9805 172.914 64.8727 173.167 64.6571 173.383C64.4415 173.588 64.1774 173.69 63.8648 173.69C63.5737 173.69 63.315 173.588 63.0886 173.383C62.873 173.167 62.7652 172.914 62.7652 172.623ZM63.0078 175.582H64.738V183.02H63.0078V175.582ZM68.2404 180.708C68.2404 180.956 68.2997 181.172 68.4183 181.355C68.5369 181.527 68.6986 181.657 68.9034 181.743C69.119 181.829 69.3616 181.872 69.6311 181.872C69.9868 181.872 70.3048 181.802 70.5851 181.662C70.8761 181.511 71.1079 181.301 71.2804 181.031C71.4529 180.762 71.5391 180.439 71.5391 180.061L71.7978 181.031C71.7978 181.506 71.6577 181.905 71.3774 182.228C71.1079 182.551 70.763 182.794 70.3425 182.956C69.9329 183.107 69.5125 183.182 69.0813 183.182C68.6177 183.182 68.1865 183.09 67.7877 182.907C67.3888 182.724 67.0708 182.454 66.8336 182.099C66.5965 181.743 66.4779 181.312 66.4779 180.805C66.4779 180.083 66.7312 179.511 67.2379 179.091C67.7446 178.66 68.4614 178.444 69.3885 178.444C69.8844 178.444 70.3102 178.498 70.6659 178.606C71.0325 178.714 71.3343 178.843 71.5715 178.994C71.8086 179.134 71.9757 179.263 72.0727 179.382V180.271C71.7385 180.034 71.3828 179.862 71.0055 179.754C70.6282 179.646 70.2293 179.592 69.8089 179.592C69.4424 179.592 69.146 179.641 68.9196 179.738C68.6932 179.824 68.5207 179.948 68.4021 180.11C68.2943 180.271 68.2404 180.471 68.2404 180.708ZM67.6907 177.523L66.9792 176.294C67.3241 176.089 67.7607 175.889 68.2889 175.695C68.8172 175.501 69.4316 175.404 70.1323 175.404C70.736 175.404 71.275 175.496 71.7493 175.679C72.2236 175.852 72.5902 176.11 72.8489 176.455C73.1184 176.8 73.2531 177.221 73.2531 177.717V183.02H71.5391V178.056C71.5391 177.819 71.5014 177.625 71.4259 177.474C71.3505 177.323 71.2373 177.199 71.0864 177.102C70.9462 177.005 70.7791 176.935 70.5851 176.892C70.391 176.849 70.1808 176.827 69.9545 176.827C69.6095 176.827 69.2807 176.87 68.9681 176.957C68.6662 177.032 68.4075 177.129 68.1919 177.248C67.9763 177.355 67.8092 177.447 67.6907 177.523ZM75.289 170.408H77.0516V183.02H75.289V170.408ZM79.6079 180.562C79.8559 180.832 80.0984 181.058 80.3356 181.242C80.5728 181.425 80.8153 181.565 81.0632 181.662C81.3112 181.759 81.5591 181.808 81.8071 181.808C82.1197 181.808 82.3622 181.738 82.5347 181.597C82.718 181.457 82.8096 181.263 82.8096 181.015C82.8096 180.8 82.7395 180.616 82.5994 180.465C82.4593 180.304 82.2652 180.169 82.0173 180.061C81.7693 179.943 81.4783 179.824 81.1441 179.705C80.8099 179.576 80.4757 179.425 80.1416 179.253C79.8182 179.069 79.5487 178.832 79.3331 178.541C79.1282 178.25 79.0258 177.884 79.0258 177.442C79.0258 176.989 79.139 176.612 79.3654 176.31C79.6026 176.008 79.9152 175.787 80.3033 175.647C80.7021 175.496 81.1279 175.42 81.5807 175.42C81.9903 175.42 82.373 175.48 82.7288 175.598C83.0953 175.717 83.4241 175.873 83.7151 176.067C84.0062 176.261 84.2541 176.482 84.4589 176.73L83.4887 177.765C83.2516 177.474 82.9605 177.237 82.6156 177.054C82.2706 176.87 81.9149 176.779 81.5483 176.779C81.2896 176.779 81.0794 176.833 80.9177 176.94C80.756 177.048 80.6752 177.205 80.6752 177.409C80.6752 177.582 80.7452 177.738 80.8854 177.878C81.0363 178.008 81.2303 178.126 81.4675 178.234C81.7154 178.342 81.9903 178.455 82.2922 178.574C82.7126 178.735 83.0953 178.913 83.4402 179.107C83.7852 179.301 84.0601 179.538 84.2649 179.819C84.4697 180.099 84.5721 180.465 84.5721 180.918C84.5721 181.619 84.3296 182.185 83.8445 182.616C83.3702 183.036 82.7288 183.247 81.9203 183.247C81.4028 183.247 80.9339 183.171 80.5135 183.02C80.093 182.859 79.7211 182.654 79.3977 182.406C79.0743 182.147 78.8048 181.878 78.5892 181.597L79.6079 180.562Z" fill="#F1F1F1"/>
<path d="M2.10274 216.226C2.35068 216.668 2.61479 217.051 2.89507 217.374C3.18613 217.697 3.50414 217.951 3.8491 218.134C4.20484 218.317 4.59292 218.409 5.01334 218.409C5.53078 218.409 5.9512 218.269 6.2746 217.988C6.598 217.708 6.7597 217.342 6.7597 216.889C6.7597 216.479 6.65729 216.15 6.45247 215.902C6.25843 215.644 5.97815 215.428 5.61163 215.256C5.24511 215.072 4.82469 214.895 4.35037 214.722C4.07009 214.625 3.75747 214.496 3.41251 214.334C3.06755 214.162 2.73876 213.951 2.42614 213.703C2.11352 213.445 1.8548 213.132 1.64998 212.766C1.44516 212.388 1.34275 211.935 1.34275 211.407C1.34275 210.804 1.49906 210.275 1.81168 209.823C2.1243 209.359 2.54472 208.998 3.07294 208.739C3.61194 208.48 4.22101 208.351 4.90015 208.351C5.56851 208.351 6.15063 208.475 6.64651 208.723C7.14239 208.96 7.56281 209.262 7.90777 209.629C8.25273 209.995 8.51684 210.378 8.7001 210.777L7.16395 211.65C7.01303 211.369 6.82977 211.111 6.61417 210.874C6.39857 210.626 6.14524 210.432 5.85418 210.291C5.5739 210.141 5.24511 210.065 4.86781 210.065C4.33959 210.065 3.95151 210.189 3.70357 210.437C3.45563 210.674 3.33166 210.954 3.33166 211.278C3.33166 211.569 3.4179 211.833 3.59038 212.07C3.77364 212.297 4.05392 212.512 4.43122 212.717C4.80852 212.922 5.29901 213.132 5.90269 213.348C6.24765 213.466 6.58722 213.617 6.9214 213.8C7.26636 213.984 7.57359 214.21 7.84309 214.48C8.12337 214.749 8.34975 215.072 8.52223 215.45C8.69471 215.816 8.78095 216.247 8.78095 216.743C8.78095 217.272 8.67315 217.746 8.45755 218.166C8.25273 218.587 7.97245 218.942 7.61671 219.234C7.26097 219.514 6.85672 219.729 6.40396 219.88C5.96198 220.042 5.49844 220.123 5.01334 220.123C4.35576 220.123 3.7413 219.994 3.16996 219.735C2.6094 219.465 2.11352 219.11 1.68232 218.668C1.2619 218.226 0.927716 217.746 0.679776 217.228L2.10274 216.226ZM13.8115 220.042C13.0569 220.042 12.3885 219.88 11.8064 219.557C11.235 219.234 10.7931 218.781 10.4804 218.199C10.1678 217.617 10.0115 216.937 10.0115 216.161C10.0115 215.374 10.1678 214.69 10.4804 214.108C10.8038 213.525 11.2566 213.078 11.8387 212.766C12.4208 212.442 13.1054 212.28 13.8923 212.28C14.6792 212.28 15.3476 212.431 15.8974 212.733C16.4579 213.035 16.8838 213.472 17.1748 214.043C17.4659 214.603 17.6114 215.283 17.6114 216.08C17.6114 216.167 17.606 216.258 17.5952 216.355C17.5952 216.452 17.5952 216.522 17.5952 216.565H11.0626V215.353H16.0914L15.5578 216.097C15.5902 216.032 15.6225 215.946 15.6548 215.838C15.698 215.73 15.7195 215.638 15.7195 215.563C15.7195 215.164 15.6387 214.819 15.477 214.528C15.326 214.237 15.1104 214.011 14.8302 213.849C14.5607 213.687 14.2427 213.606 13.8761 213.606C13.4342 213.606 13.0569 213.703 12.7442 213.897C12.4424 214.091 12.2052 214.372 12.0328 214.738C11.8711 215.105 11.7902 215.558 11.7902 216.097C11.7794 216.625 11.8549 217.078 12.0166 217.455C12.1891 217.832 12.4316 218.118 12.7442 218.312C13.0569 218.506 13.4395 218.603 13.8923 218.603C14.3774 218.603 14.7978 218.506 15.1536 218.312C15.5093 218.118 15.8004 217.821 16.0267 217.422L17.5467 218.021C17.1479 218.689 16.6412 219.196 16.0267 219.541C15.4123 219.875 14.6739 220.042 13.8115 220.042ZM20.4583 216.161C20.4583 216.625 20.5607 217.034 20.7656 217.39C20.9704 217.746 21.2453 218.026 21.5902 218.231C21.946 218.436 22.3394 218.538 22.7706 218.538C23.1372 218.538 23.4767 218.484 23.7894 218.377C24.1128 218.258 24.3984 218.107 24.6464 217.924C24.8943 217.73 25.0776 217.514 25.1961 217.277V219.201C24.9374 219.46 24.5871 219.665 24.1451 219.816C23.7031 219.967 23.218 220.042 22.6898 220.042C21.9352 220.042 21.2507 219.88 20.6362 219.557C20.0325 219.223 19.5528 218.765 19.1971 218.182C18.8413 217.59 18.6635 216.916 18.6635 216.161C18.6635 215.396 18.8413 214.722 19.1971 214.14C19.5528 213.558 20.0325 213.105 20.6362 212.782C21.2507 212.447 21.9352 212.28 22.6898 212.28C23.218 212.28 23.7031 212.356 24.1451 212.507C24.5871 212.658 24.9374 212.857 25.1961 213.105V215.045C25.0776 214.798 24.8889 214.582 24.6302 214.399C24.3823 214.205 24.0966 214.054 23.7732 213.946C23.4498 213.838 23.1156 213.784 22.7706 213.784C22.3394 213.784 21.946 213.887 21.5902 214.091C21.2453 214.296 20.9704 214.577 20.7656 214.932C20.5607 215.288 20.4583 215.698 20.4583 216.161ZM28.9213 216.97C28.9213 217.498 29.0345 217.908 29.2609 218.199C29.4873 218.49 29.8376 218.635 30.3119 218.635C30.6353 218.635 30.921 218.565 31.1689 218.425C31.4169 218.285 31.6109 218.091 31.7511 217.843C31.8912 217.595 31.9613 217.304 31.9613 216.97V212.442H33.7076V219.88H31.9613V218.732C31.7241 219.163 31.4169 219.492 31.0396 219.719C30.6731 219.934 30.2311 220.042 29.7136 220.042C28.8836 220.042 28.2422 219.783 27.7894 219.266C27.3474 218.748 27.1264 218.048 27.1264 217.164V212.442H28.9213V216.97ZM37.668 212.442V219.88H35.9378V212.442H37.668ZM39.8833 214.302C39.7324 214.172 39.5815 214.075 39.4305 214.011C39.2904 213.946 39.1125 213.914 38.8969 213.914C38.6059 213.914 38.3687 213.989 38.1855 214.14C38.0022 214.291 37.8674 214.501 37.7812 214.771C37.7057 215.029 37.668 215.337 37.668 215.692L37.0859 215.353C37.0859 214.76 37.1937 214.237 37.4093 213.784C37.6357 213.321 37.9213 212.954 38.2663 212.685C38.622 212.404 38.9886 212.264 39.3659 212.264C39.6354 212.264 39.8887 212.307 40.1259 212.394C40.363 212.48 40.5678 212.625 40.7403 212.83L39.8833 214.302ZM41.8737 209.483C41.8737 209.181 41.9815 208.928 42.1971 208.723C42.4235 208.518 42.6822 208.416 42.9733 208.416C43.2859 208.416 43.55 208.518 43.7656 208.723C43.9812 208.928 44.089 209.181 44.089 209.483C44.089 209.774 43.9812 210.027 43.7656 210.243C43.55 210.448 43.2859 210.55 42.9733 210.55C42.6822 210.55 42.4235 210.448 42.1971 210.243C41.9815 210.027 41.8737 209.774 41.8737 209.483ZM42.1163 212.442H43.8465V219.88H42.1163V212.442ZM45.2145 212.442H49.4349V213.978H45.2145V212.442ZM46.4757 209.855H48.1898V219.88H46.4757V209.855ZM57.2205 212.442L52.3695 223.438H50.5099L52.4665 219.007L49.4589 212.442H51.4639L53.8409 218.328L53.0163 218.279L55.3447 212.442H57.2205ZM64.0193 216.226C64.2672 216.668 64.5314 217.051 64.8116 217.374C65.1027 217.697 65.4207 217.951 65.7657 218.134C66.1214 218.317 66.5095 218.409 66.9299 218.409C67.4473 218.409 67.8678 218.269 68.1912 217.988C68.5146 217.708 68.6763 217.342 68.6763 216.889C68.6763 216.479 68.5739 216.15 68.369 215.902C68.175 215.644 67.8947 215.428 67.5282 215.256C67.1617 215.072 66.7413 214.895 66.2669 214.722C65.9867 214.625 65.674 214.496 65.3291 214.334C64.9841 214.162 64.6553 213.951 64.3427 213.703C64.0301 213.445 63.7714 213.132 63.5665 212.766C63.3617 212.388 63.2593 211.935 63.2593 211.407C63.2593 210.804 63.4156 210.275 63.7282 209.823C64.0409 209.359 64.4613 208.998 64.9895 208.739C65.5285 208.48 66.1376 208.351 66.8167 208.351C67.4851 208.351 68.0672 208.475 68.5631 208.723C69.059 208.96 69.4794 209.262 69.8243 209.629C70.1693 209.995 70.4334 210.378 70.6167 210.777L69.0805 211.65C68.9296 211.369 68.7463 211.111 68.5307 210.874C68.3151 210.626 68.0618 210.432 67.7707 210.291C67.4905 210.141 67.1617 210.065 66.7844 210.065C66.2562 210.065 65.8681 210.189 65.6201 210.437C65.3722 210.674 65.2482 210.954 65.2482 211.278C65.2482 211.569 65.3345 211.833 65.5069 212.07C65.6902 212.297 65.9705 212.512 66.3478 212.717C66.7251 212.922 67.2156 213.132 67.8193 213.348C68.1642 213.466 68.5038 213.617 68.838 213.8C69.1829 213.984 69.4902 214.21 69.7597 214.48C70.0399 214.749 70.2663 215.072 70.4388 215.45C70.6113 215.816 70.6975 216.247 70.6975 216.743C70.6975 217.272 70.5897 217.746 70.3741 218.166C70.1693 218.587 69.889 218.942 69.5333 219.234C69.1775 219.514 68.7733 219.729 68.3205 219.88C67.8785 220.042 67.415 220.123 66.9299 220.123C66.2723 220.123 65.6579 219.994 65.0865 219.735C64.526 219.465 64.0301 219.11 63.5989 218.668C63.1785 218.226 62.8443 217.746 62.5963 217.228L64.0193 216.226ZM79.0752 212.442L74.2242 223.438H72.3647L74.3212 219.007L71.3136 212.442H73.3187L75.6957 218.328L74.871 218.279L77.1995 212.442H79.0752ZM84.9232 215.353C84.9232 214.803 84.81 214.388 84.5836 214.108C84.3572 213.827 84.0123 213.687 83.5487 213.687C83.2146 213.687 82.9235 213.757 82.6756 213.897C82.4276 214.027 82.2336 214.221 82.0934 214.48C81.9641 214.727 81.8994 215.019 81.8994 215.353V219.88H80.1369V212.442H81.8994V213.59C82.1366 213.148 82.4384 212.819 82.8049 212.604C83.1822 212.388 83.6242 212.28 84.1309 212.28C84.9717 212.28 85.6131 212.539 86.0551 213.057C86.4971 213.563 86.7181 214.259 86.7181 215.142V219.88H84.9232V215.353ZM88.3823 216.161C88.3823 215.396 88.5548 214.722 88.8998 214.14C89.2555 213.558 89.7352 213.105 90.3389 212.782C90.9534 212.447 91.6379 212.28 92.3925 212.28C93.1579 212.28 93.8424 212.447 94.4461 212.782C95.0498 213.105 95.5241 213.558 95.869 214.14C96.2248 214.722 96.4026 215.396 96.4026 216.161C96.4026 216.916 96.2248 217.59 95.869 218.182C95.5241 218.765 95.0498 219.223 94.4461 219.557C93.8424 219.88 93.1579 220.042 92.3925 220.042C91.6379 220.042 90.9534 219.88 90.3389 219.557C89.7352 219.223 89.2555 218.765 88.8998 218.182C88.5548 217.59 88.3823 216.916 88.3823 216.161ZM90.1772 216.161C90.1772 216.625 90.2742 217.034 90.4683 217.39C90.6623 217.735 90.9264 218.01 91.2606 218.215C91.5948 218.409 91.9721 218.506 92.3925 218.506C92.8129 218.506 93.1902 218.409 93.5244 218.215C93.8586 218.01 94.1227 217.735 94.3167 217.39C94.5108 217.034 94.6078 216.625 94.6078 216.161C94.6078 215.698 94.5108 215.288 94.3167 214.932C94.1227 214.577 93.8586 214.302 93.5244 214.108C93.1902 213.914 92.8129 213.817 92.3925 213.817C91.9721 213.817 91.5948 213.914 91.2606 214.108C90.9264 214.302 90.6623 214.577 90.4683 214.932C90.2742 215.288 90.1772 215.698 90.1772 216.161ZM99.7733 223.438H98.0108V212.442H99.7733V223.438ZM105.934 216.161C105.934 216.98 105.767 217.687 105.433 218.279C105.099 218.862 104.657 219.309 104.107 219.622C103.557 219.923 102.959 220.074 102.312 220.074C101.687 220.074 101.137 219.918 100.663 219.605C100.199 219.282 99.838 218.829 99.5793 218.247C99.3206 217.654 99.1912 216.959 99.1912 216.161C99.1912 215.353 99.3206 214.657 99.5793 214.075C99.838 213.493 100.199 213.04 100.663 212.717C101.137 212.394 101.687 212.232 102.312 212.232C102.959 212.232 103.557 212.388 104.107 212.701C104.657 213.013 105.099 213.461 105.433 214.043C105.767 214.614 105.934 215.32 105.934 216.161ZM104.123 216.161C104.123 215.665 104.021 215.245 103.816 214.9C103.611 214.544 103.342 214.28 103.007 214.108C102.673 213.924 102.301 213.833 101.892 213.833C101.547 213.833 101.212 213.924 100.889 214.108C100.566 214.28 100.296 214.539 100.081 214.884C99.8757 215.229 99.7733 215.655 99.7733 216.161C99.7733 216.668 99.8757 217.094 100.081 217.439C100.296 217.784 100.566 218.048 100.889 218.231C101.212 218.403 101.547 218.49 101.892 218.49C102.301 218.49 102.673 218.398 103.007 218.215C103.342 218.032 103.611 217.767 103.816 217.422C104.021 217.078 104.123 216.657 104.123 216.161ZM107.937 217.422C108.185 217.692 108.428 217.918 108.665 218.102C108.902 218.285 109.144 218.425 109.392 218.522C109.64 218.619 109.888 218.668 110.136 218.668C110.449 218.668 110.691 218.597 110.864 218.457C111.047 218.317 111.139 218.123 111.139 217.875C111.139 217.66 111.069 217.476 110.928 217.325C110.788 217.164 110.594 217.029 110.346 216.921C110.098 216.803 109.807 216.684 109.473 216.565C109.139 216.436 108.805 216.285 108.471 216.113C108.147 215.929 107.878 215.692 107.662 215.401C107.457 215.11 107.355 214.744 107.355 214.302C107.355 213.849 107.468 213.472 107.694 213.17C107.932 212.868 108.244 212.647 108.632 212.507C109.031 212.356 109.457 212.28 109.91 212.28C110.319 212.28 110.702 212.34 111.058 212.458C111.424 212.577 111.753 212.733 112.044 212.927C112.335 213.121 112.583 213.342 112.788 213.59L111.818 214.625C111.581 214.334 111.29 214.097 110.945 213.914C110.6 213.73 110.244 213.639 109.877 213.639C109.619 213.639 109.408 213.693 109.247 213.8C109.085 213.908 109.004 214.064 109.004 214.269C109.004 214.442 109.074 214.598 109.214 214.738C109.365 214.868 109.559 214.986 109.797 215.094C110.045 215.202 110.319 215.315 110.621 215.434C111.042 215.595 111.424 215.773 111.769 215.967C112.114 216.161 112.389 216.398 112.594 216.679C112.799 216.959 112.901 217.325 112.901 217.778C112.901 218.479 112.659 219.045 112.174 219.476C111.699 219.896 111.058 220.107 110.249 220.107C109.732 220.107 109.263 220.031 108.843 219.88C108.422 219.719 108.05 219.514 107.727 219.266C107.403 219.007 107.134 218.738 106.918 218.457L107.937 217.422ZM114.386 209.483C114.386 209.181 114.494 208.928 114.709 208.723C114.936 208.518 115.195 208.416 115.486 208.416C115.798 208.416 116.062 208.518 116.278 208.723C116.494 208.928 116.601 209.181 116.601 209.483C116.601 209.774 116.494 210.027 116.278 210.243C116.062 210.448 115.798 210.55 115.486 210.55C115.195 210.55 114.936 210.448 114.709 210.243C114.494 210.027 114.386 209.774 114.386 209.483ZM114.629 212.442H116.359V219.88H114.629V212.442ZM119.101 217.422C119.349 217.692 119.592 217.918 119.829 218.102C120.066 218.285 120.309 218.425 120.557 218.522C120.805 218.619 121.052 218.668 121.3 218.668C121.613 218.668 121.856 218.597 122.028 218.457C122.211 218.317 122.303 218.123 122.303 217.875C122.303 217.66 122.233 217.476 122.093 217.325C121.953 217.164 121.759 217.029 121.511 216.921C121.263 216.803 120.972 216.684 120.637 216.565C120.303 216.436 119.969 216.285 119.635 216.113C119.311 215.929 119.042 215.692 118.826 215.401C118.622 215.11 118.519 214.744 118.519 214.302C118.519 213.849 118.632 213.472 118.859 213.17C119.096 212.868 119.409 212.647 119.797 212.507C120.195 212.356 120.621 212.28 121.074 212.28C121.484 212.28 121.866 212.34 122.222 212.458C122.589 212.577 122.917 212.733 123.208 212.927C123.5 213.121 123.747 213.342 123.952 213.59L122.982 214.625C122.745 214.334 122.454 214.097 122.109 213.914C121.764 213.73 121.408 213.639 121.042 213.639C120.783 213.639 120.573 213.693 120.411 213.8C120.249 213.908 120.169 214.064 120.169 214.269C120.169 214.442 120.239 214.598 120.379 214.738C120.53 214.868 120.724 214.986 120.961 215.094C121.209 215.202 121.484 215.315 121.786 215.434C122.206 215.595 122.589 215.773 122.934 215.967C123.279 216.161 123.553 216.398 123.758 216.679C123.963 216.959 124.065 217.325 124.065 217.778C124.065 218.479 123.823 219.045 123.338 219.476C122.864 219.896 122.222 220.107 121.414 220.107C120.896 220.107 120.427 220.031 120.007 219.88C119.586 219.719 119.214 219.514 118.891 219.266C118.568 219.007 118.298 218.738 118.083 218.457L119.101 217.422Z" fill="#F1F1F1"/>
<path d="M2.81422 250.903V249.965H4.64143C4.99717 249.965 5.30979 249.906 5.57929 249.787C5.84879 249.669 6.059 249.502 6.20992 249.286C6.36084 249.06 6.4363 248.79 6.4363 248.477C6.4363 248.003 6.26921 247.637 5.93503 247.378C5.61163 247.119 5.18043 246.99 4.64143 246.99H3.26698V255.156H4.85164C5.28284 255.156 5.66553 255.086 5.99971 254.945C6.33389 254.805 6.598 254.6 6.79204 254.331C6.98608 254.051 7.0831 253.7 7.0831 253.28C7.0831 252.967 7.0292 252.698 6.9214 252.471C6.8136 252.245 6.65729 252.056 6.45247 251.905C6.24765 251.744 6.01049 251.631 5.74099 251.566C5.47149 251.49 5.17504 251.453 4.85164 251.453H2.81422V250.386H4.96483C5.51461 250.386 6.03205 250.45 6.51715 250.58C7.01303 250.698 7.44962 250.881 7.82692 251.129C8.20422 251.377 8.50067 251.695 8.71627 252.083C8.93187 252.471 9.03967 252.935 9.03967 253.474C9.03967 254.218 8.86719 254.832 8.52223 255.317C8.17727 255.802 7.69756 256.164 7.0831 256.401C6.47942 256.627 5.77333 256.74 4.96483 256.74H1.35892V245.421H4.77079C5.49305 245.421 6.12368 245.524 6.66268 245.729C7.20168 245.933 7.6221 246.246 7.92394 246.666C8.23656 247.087 8.39287 247.62 8.39287 248.267C8.39287 248.828 8.23656 249.308 7.92394 249.706C7.6221 250.094 7.20168 250.391 6.66268 250.596C6.12368 250.801 5.49305 250.903 4.77079 250.903H2.81422ZM10.9249 244.128H12.6874V256.74H10.9249V244.128ZM14.3382 253.021C14.3382 252.256 14.5107 251.582 14.8557 251C15.2114 250.418 15.6911 249.965 16.2948 249.642C16.9093 249.308 17.5938 249.14 18.3484 249.14C19.1138 249.14 19.7983 249.308 20.402 249.642C21.0057 249.965 21.48 250.418 21.825 251C22.1807 251.582 22.3586 252.256 22.3586 253.021C22.3586 253.776 22.1807 254.45 21.825 255.042C21.48 255.625 21.0057 256.083 20.402 256.417C19.7983 256.74 19.1138 256.902 18.3484 256.902C17.5938 256.902 16.9093 256.74 16.2948 256.417C15.6911 256.083 15.2114 255.625 14.8557 255.042C14.5107 254.45 14.3382 253.776 14.3382 253.021ZM16.1331 253.021C16.1331 253.485 16.2301 253.894 16.4242 254.25C16.6182 254.595 16.8823 254.87 17.2165 255.075C17.5507 255.269 17.928 255.366 18.3484 255.366C18.7688 255.366 19.1461 255.269 19.4803 255.075C19.8145 254.87 20.0786 254.595 20.2726 254.25C20.4667 253.894 20.5637 253.485 20.5637 253.021C20.5637 252.558 20.4667 252.148 20.2726 251.792C20.0786 251.437 19.8145 251.162 19.4803 250.968C19.1461 250.774 18.7688 250.677 18.3484 250.677C17.928 250.677 17.5507 250.774 17.2165 250.968C16.8823 251.162 16.6182 251.437 16.4242 251.792C16.2301 252.148 16.1331 252.558 16.1331 253.021ZM23.611 257.242H25.3573C25.3681 257.576 25.4598 257.872 25.6322 258.131C25.8047 258.4 26.0473 258.611 26.3599 258.762C26.6725 258.923 27.039 259.004 27.4594 259.004C27.8152 259.004 28.1601 258.918 28.4943 258.745C28.8285 258.573 29.098 258.309 29.3028 257.953C29.5184 257.597 29.6262 257.139 29.6262 256.579V249.302H31.3402V256.579C31.3402 257.473 31.157 258.212 30.7905 258.794C30.4347 259.376 29.9658 259.807 29.3837 260.088C28.8016 260.379 28.1709 260.524 27.4918 260.524C26.6941 260.524 26.0095 260.384 25.4382 260.104C24.8669 259.834 24.4249 259.451 24.1123 258.956C23.7996 258.46 23.6325 257.888 23.611 257.242ZM23.4655 252.973C23.4655 252.153 23.6325 251.464 23.9667 250.903C24.3009 250.332 24.7429 249.895 25.2927 249.593C25.8532 249.291 26.4515 249.14 27.0875 249.14C27.7128 249.14 28.2572 249.297 28.7207 249.609C29.195 249.911 29.5669 250.348 29.8364 250.919C30.1167 251.48 30.2569 252.164 30.2569 252.973C30.2569 253.77 30.1167 254.46 29.8364 255.042C29.5669 255.614 29.195 256.056 28.7207 256.368C28.2572 256.67 27.7128 256.821 27.0875 256.821C26.4515 256.821 25.8532 256.67 25.2927 256.368C24.7429 256.067 24.3009 255.63 23.9667 255.059C23.6325 254.487 23.4655 253.792 23.4655 252.973ZM25.2765 252.973C25.2765 253.469 25.3789 253.894 25.5837 254.25C25.7885 254.595 26.058 254.859 26.3922 255.042C26.7372 255.215 27.1091 255.301 27.508 255.301C27.8529 255.301 28.1871 255.215 28.5105 255.042C28.8339 254.859 29.098 254.595 29.3028 254.25C29.5184 253.905 29.6262 253.479 29.6262 252.973C29.6262 252.595 29.5615 252.267 29.4322 251.986C29.3136 251.695 29.1519 251.453 28.9471 251.259C28.7423 251.054 28.5159 250.903 28.2679 250.806C28.02 250.709 27.7667 250.66 27.508 250.66C27.1091 250.66 26.7372 250.752 26.3922 250.935C26.058 251.108 25.7885 251.366 25.5837 251.711C25.3789 252.056 25.2765 252.477 25.2765 252.973Z" fill="#F1F1F1"/>
<path d="M2.78188 287.941C2.78188 288.739 2.95975 289.439 3.31549 290.043C3.68201 290.636 4.15633 291.099 4.73845 291.434C5.32057 291.768 5.95659 291.935 6.64651 291.935C7.18551 291.935 7.67061 291.865 8.10181 291.725C8.54379 291.584 8.93726 291.396 9.28222 291.159C9.62718 290.911 9.92902 290.63 10.1877 290.318V292.598C9.7242 292.986 9.21215 293.282 8.65159 293.487C8.10181 293.692 7.41189 293.794 6.58183 293.794C5.75177 293.794 4.97561 293.654 4.25335 293.374C3.54187 293.094 2.92202 292.689 2.3938 292.161C1.86558 291.633 1.45055 291.013 1.14871 290.302C0.857646 289.579 0.712116 288.792 0.712116 287.941C0.712116 287.078 0.857646 286.292 1.14871 285.58C1.45055 284.858 1.86558 284.238 2.3938 283.72C2.92202 283.192 3.54187 282.788 4.25335 282.508C4.97561 282.217 5.75177 282.071 6.58183 282.071C7.41189 282.071 8.10181 282.174 8.65159 282.378C9.21215 282.583 9.7242 282.885 10.1877 283.284V285.548C9.92902 285.246 9.62718 284.976 9.28222 284.739C8.93726 284.491 8.54379 284.297 8.10181 284.157C7.67061 284.017 7.18551 283.947 6.64651 283.947C5.95659 283.947 5.32057 284.114 4.73845 284.448C4.15633 284.772 3.68201 285.235 3.31549 285.839C2.95975 286.432 2.78188 287.132 2.78188 287.941ZM12.3934 280.988H14.156V293.6H12.3934V280.988ZM16.3081 283.203C16.3081 282.901 16.4159 282.648 16.6315 282.443C16.8579 282.238 17.1166 282.136 17.4076 282.136C17.7203 282.136 17.9844 282.238 18.2 282.443C18.4156 282.648 18.5234 282.901 18.5234 283.203C18.5234 283.494 18.4156 283.747 18.2 283.963C17.9844 284.168 17.7203 284.27 17.4076 284.27C17.1166 284.27 16.8579 284.168 16.6315 283.963C16.4159 283.747 16.3081 283.494 16.3081 283.203ZM16.5506 286.162H18.2808V293.6H16.5506V286.162ZM23.9177 293.762C23.1631 293.762 22.4948 293.6 21.9126 293.277C21.3413 292.954 20.8993 292.501 20.5867 291.919C20.2741 291.337 20.1178 290.657 20.1178 289.881C20.1178 289.094 20.2741 288.41 20.5867 287.828C20.9101 287.246 21.3628 286.798 21.945 286.486C22.5271 286.162 23.2116 286 23.9986 286C24.7855 286 25.4539 286.151 26.0036 286.453C26.5642 286.755 26.99 287.192 27.2811 287.763C27.5721 288.324 27.7177 289.003 27.7177 289.8C27.7177 289.887 27.7123 289.978 27.7015 290.075C27.7015 290.172 27.7015 290.242 27.7015 290.285H21.1688V289.073H26.1977L25.6641 289.817C25.6964 289.752 25.7288 289.666 25.7611 289.558C25.8042 289.45 25.8258 289.358 25.8258 289.283C25.8258 288.884 25.7449 288.539 25.5832 288.248C25.4323 287.957 25.2167 287.731 24.9364 287.569C24.6669 287.407 24.3489 287.326 23.9824 287.326C23.5404 287.326 23.1631 287.423 22.8505 287.617C22.5487 287.811 22.3115 288.092 22.139 288.458C21.9773 288.825 21.8965 289.278 21.8965 289.817C21.8857 290.345 21.9611 290.798 22.1228 291.175C22.2953 291.552 22.5379 291.838 22.8505 292.032C23.1631 292.226 23.5458 292.323 23.9986 292.323C24.4837 292.323 24.9041 292.226 25.2598 292.032C25.6156 291.838 25.9066 291.541 26.133 291.143L27.653 291.741C27.2541 292.409 26.7475 292.916 26.133 293.261C25.5185 293.595 24.7801 293.762 23.9177 293.762ZM34.1867 289.073C34.1867 288.523 34.0735 288.108 33.8471 287.828C33.6207 287.547 33.2758 287.407 32.8122 287.407C32.478 287.407 32.187 287.477 31.939 287.617C31.6911 287.747 31.4971 287.941 31.3569 288.2C31.2276 288.448 31.1629 288.739 31.1629 289.073V293.6H29.4004V286.162H31.1629V287.31C31.4 286.868 31.7019 286.539 32.0684 286.324C32.4457 286.108 32.8877 286 33.3943 286C34.2352 286 34.8766 286.259 35.3186 286.777C35.7606 287.283 35.9815 287.979 35.9815 288.863V293.6H34.1867V289.073ZM37.1769 286.162H41.3972V287.698H37.1769V286.162ZM38.4381 283.575H40.1521V293.6H38.4381V283.575ZM42.9412 291.143C43.1891 291.412 43.4317 291.638 43.6689 291.822C43.906 292.005 44.1486 292.145 44.3965 292.242C44.6444 292.339 44.8924 292.388 45.1403 292.388C45.4529 292.388 45.6955 292.318 45.868 292.177C46.0512 292.037 46.1429 291.843 46.1429 291.595C46.1429 291.38 46.0728 291.196 45.9327 291.045C45.7925 290.884 45.5985 290.749 45.3505 290.641C45.1026 290.523 44.8115 290.404 44.4774 290.285C44.1432 290.156 43.809 290.005 43.4748 289.833C43.1514 289.649 42.8819 289.412 42.6663 289.121C42.4615 288.83 42.3591 288.464 42.3591 288.022C42.3591 287.569 42.4723 287.192 42.6987 286.89C42.9358 286.588 43.2484 286.367 43.6365 286.227C44.0354 286.076 44.4612 286 44.9139 286C45.3236 286 45.7063 286.06 46.062 286.178C46.4285 286.297 46.7573 286.453 47.0484 286.647C47.3394 286.841 47.5874 287.062 47.7922 287.31L46.822 288.345C46.5848 288.054 46.2938 287.817 45.9488 287.634C45.6039 287.45 45.2481 287.359 44.8816 287.359C44.6229 287.359 44.4127 287.413 44.251 287.52C44.0893 287.628 44.0084 287.785 44.0084 287.989C44.0084 288.162 44.0785 288.318 44.2186 288.458C44.3696 288.588 44.5636 288.706 44.8008 288.814C45.0487 288.922 45.3236 289.035 45.6254 289.154C46.0458 289.315 46.4285 289.493 46.7735 289.687C47.1185 289.881 47.3933 290.118 47.5982 290.399C47.803 290.679 47.9054 291.045 47.9054 291.498C47.9054 292.199 47.6628 292.765 47.1777 293.196C46.7034 293.617 46.062 293.827 45.2535 293.827C44.7361 293.827 44.2671 293.751 43.8467 293.6C43.4263 293.439 43.0544 293.234 42.731 292.986C42.4076 292.727 42.1381 292.458 41.9225 292.177L42.9412 291.143Z" fill="#F1F1F1"/>
<rect x="64.7754" y="313.46" width="55.44" height="23.1" rx="4.62" fill="#2D83EE"/>
<path d="M74.8313 325.166V323.656H81.7613V325.166H74.8313ZM80.6941 319.913H82.3296V329.615H80.6941V319.913ZM74.1799 319.913H75.8154V329.615H74.1799V319.913ZM84.3135 320.703C84.3135 320.445 84.4059 320.227 84.5907 320.052C84.7848 319.876 85.0065 319.789 85.256 319.789C85.524 319.789 85.7504 319.876 85.9352 320.052C86.12 320.227 86.2124 320.445 86.2124 320.703C86.2124 320.953 86.12 321.17 85.9352 321.355C85.7504 321.53 85.524 321.618 85.256 321.618C85.0065 321.618 84.7848 321.53 84.5907 321.355C84.4059 321.17 84.3135 320.953 84.3135 320.703ZM84.5214 323.24H86.0045V329.615H84.5214V323.24ZM89.5471 323.24V329.615H88.0641V323.24H89.5471ZM91.4459 324.834C91.3166 324.723 91.1872 324.64 91.0578 324.584C90.9377 324.529 90.7853 324.501 90.6005 324.501C90.351 324.501 90.1477 324.566 89.9906 324.695C89.8335 324.824 89.718 325.005 89.6441 325.236C89.5794 325.457 89.5471 325.721 89.5471 326.026L89.0481 325.735C89.0481 325.226 89.1405 324.778 89.3253 324.39C89.5194 323.993 89.7642 323.679 90.0599 323.448C90.3648 323.207 90.679 323.087 91.0024 323.087C91.2334 323.087 91.4505 323.124 91.6538 323.198C91.8571 323.272 92.0327 323.397 92.1805 323.572L91.4459 324.834ZM93.152 320.703C93.152 320.445 93.2444 320.227 93.4292 320.052C93.6232 319.876 93.845 319.789 94.0945 319.789C94.3624 319.789 94.5888 319.876 94.7736 320.052C94.9584 320.227 95.0508 320.445 95.0508 320.703C95.0508 320.953 94.9584 321.17 94.7736 321.355C94.5888 321.53 94.3624 321.618 94.0945 321.618C93.845 321.618 93.6232 321.53 93.4292 321.355C93.2444 321.17 93.152 320.953 93.152 320.703ZM93.3599 323.24H94.8429V329.615H93.3599V323.24ZM101.005 325.735C101.005 325.263 100.908 324.908 100.714 324.667C100.52 324.427 100.224 324.307 99.827 324.307C99.5406 324.307 99.2911 324.367 99.0786 324.487C98.866 324.598 98.6997 324.764 98.5796 324.986C98.4687 325.199 98.4133 325.448 98.4133 325.735V329.615H96.9025V323.24H98.4133V324.224C98.6166 323.845 98.8753 323.563 99.1894 323.378C99.5128 323.194 99.8917 323.101 100.326 323.101C101.047 323.101 101.596 323.323 101.975 323.766C102.354 324.201 102.544 324.797 102.544 325.554V329.615H101.005V325.735ZM104.095 330.045H105.592C105.601 330.331 105.679 330.586 105.827 330.807C105.975 331.038 106.183 331.218 106.451 331.348C106.719 331.486 107.033 331.556 107.393 331.556C107.698 331.556 107.994 331.482 108.281 331.334C108.567 331.186 108.798 330.96 108.974 330.655C109.158 330.35 109.251 329.957 109.251 329.477V323.24H110.72V329.477C110.72 330.244 110.563 330.877 110.249 331.376C109.944 331.875 109.542 332.244 109.043 332.484C108.544 332.734 108.003 332.859 107.421 332.859C106.737 332.859 106.151 332.738 105.661 332.498C105.171 332.267 104.792 331.939 104.524 331.514C104.256 331.089 104.113 330.599 104.095 330.045ZM103.97 326.386C103.97 325.684 104.113 325.092 104.4 324.612C104.686 324.122 105.065 323.748 105.536 323.489C106.017 323.23 106.53 323.101 107.075 323.101C107.611 323.101 108.077 323.235 108.475 323.503C108.881 323.762 109.2 324.136 109.431 324.626C109.671 325.106 109.791 325.693 109.791 326.386C109.791 327.07 109.671 327.661 109.431 328.16C109.2 328.65 108.881 329.029 108.475 329.297C108.077 329.555 107.611 329.685 107.075 329.685C106.53 329.685 106.017 329.555 105.536 329.297C105.065 329.038 104.686 328.664 104.4 328.174C104.113 327.684 103.97 327.088 103.97 326.386ZM105.522 326.386C105.522 326.811 105.61 327.176 105.786 327.481C105.961 327.777 106.192 328.003 106.479 328.16C106.774 328.308 107.093 328.382 107.435 328.382C107.731 328.382 108.017 328.308 108.294 328.16C108.572 328.003 108.798 327.777 108.974 327.481C109.158 327.185 109.251 326.82 109.251 326.386C109.251 326.063 109.195 325.781 109.084 325.54C108.983 325.291 108.844 325.083 108.669 324.917C108.493 324.741 108.299 324.612 108.086 324.529C107.874 324.446 107.657 324.404 107.435 324.404C107.093 324.404 106.774 324.483 106.479 324.64C106.192 324.787 105.961 325.009 105.786 325.305C105.61 325.601 105.522 325.961 105.522 326.386Z" fill="white"/>
<path d="M2.7809 324.801C2.7809 325.599 2.95877 326.299 3.31451 326.903C3.68103 327.496 4.15535 327.959 4.73747 328.294C5.31959 328.628 5.95561 328.795 6.64553 328.795C7.18453 328.795 7.66963 328.725 8.10083 328.585C8.54281 328.444 8.93628 328.256 9.28124 328.019C9.6262 327.771 9.92804 327.49 10.1868 327.178V329.458C9.72322 329.846 9.21117 330.142 8.65061 330.347C8.10083 330.552 7.41091 330.654 6.58085 330.654C5.75079 330.654 4.97463 330.514 4.25237 330.234C3.54089 329.954 2.92104 329.549 2.39282 329.021C1.8646 328.493 1.44957 327.873 1.14773 327.162C0.85667 326.439 0.71114 325.652 0.71114 324.801C0.71114 323.938 0.85667 323.151 1.14773 322.44C1.44957 321.718 1.8646 321.098 2.39282 320.58C2.92104 320.052 3.54089 319.648 4.25237 319.368C4.97463 319.077 5.75079 318.931 6.58085 318.931C7.41091 318.931 8.10083 319.034 8.65061 319.238C9.21117 319.443 9.72322 319.745 10.1868 320.144V322.408C9.92804 322.106 9.6262 321.836 9.28124 321.599C8.93628 321.351 8.54281 321.157 8.10083 321.017C7.66963 320.877 7.18453 320.807 6.64553 320.807C5.95561 320.807 5.31959 320.974 4.73747 321.308C4.15535 321.632 3.68103 322.095 3.31451 322.699C2.95877 323.292 2.7809 323.992 2.7809 324.801ZM13.492 328.148C13.492 328.396 13.5513 328.612 13.6699 328.795C13.7885 328.967 13.9502 329.097 14.155 329.183C14.3706 329.269 14.6131 329.312 14.8826 329.312C15.2384 329.312 15.5564 329.242 15.8367 329.102C16.1277 328.951 16.3595 328.741 16.532 328.471C16.7044 328.202 16.7907 327.879 16.7907 327.501L17.0494 328.471C17.0494 328.946 16.9093 329.345 16.629 329.668C16.3595 329.991 16.0145 330.234 15.5941 330.396C15.1845 330.547 14.764 330.622 14.3328 330.622C13.8693 330.622 13.4381 330.53 13.0392 330.347C12.6404 330.164 12.3224 329.894 12.0852 329.539C11.8481 329.183 11.7295 328.752 11.7295 328.245C11.7295 327.523 11.9828 326.951 12.4895 326.531C12.9961 326.1 13.713 325.884 14.6401 325.884C15.136 325.884 15.5618 325.938 15.9175 326.046C16.284 326.154 16.5859 326.283 16.823 326.434C17.0602 326.574 17.2273 326.703 17.3243 326.822V327.711C16.9901 327.474 16.6344 327.302 16.2571 327.194C15.8798 327.086 15.4809 327.032 15.0605 327.032C14.694 327.032 14.3975 327.081 14.1711 327.178C13.9448 327.264 13.7723 327.388 13.6537 327.55C13.5459 327.711 13.492 327.911 13.492 328.148ZM12.9422 324.963L12.2307 323.734C12.5757 323.529 13.0123 323.329 13.5405 323.135C14.0687 322.941 14.6832 322.844 15.3839 322.844C15.9876 322.844 16.5266 322.936 17.0009 323.119C17.4752 323.292 17.8417 323.55 18.1005 323.895C18.37 324.24 18.5047 324.661 18.5047 325.157V330.46H16.7907V325.496C16.7907 325.259 16.753 325.065 16.6775 324.914C16.602 324.763 16.4888 324.639 16.3379 324.542C16.1978 324.445 16.0307 324.375 15.8367 324.332C15.6426 324.289 15.4324 324.267 15.206 324.267C14.8611 324.267 14.5323 324.31 14.2197 324.397C13.9178 324.472 13.6591 324.569 13.4435 324.688C13.2279 324.795 13.0608 324.887 12.9422 324.963ZM22.2708 323.022V330.46H20.5406V323.022H22.2708ZM24.4861 324.882C24.3352 324.752 24.1843 324.655 24.0333 324.591C23.8932 324.526 23.7153 324.494 23.4997 324.494C23.2087 324.494 22.9715 324.569 22.7882 324.72C22.605 324.871 22.4702 325.081 22.384 325.351C22.3085 325.609 22.2708 325.917 22.2708 326.272L21.6887 325.933C21.6887 325.34 21.7965 324.817 22.0121 324.364C22.2385 323.901 22.5241 323.534 22.8691 323.265C23.2248 322.984 23.5914 322.844 23.9687 322.844C24.2382 322.844 24.4915 322.887 24.7286 322.974C24.9658 323.06 25.1706 323.205 25.3431 323.41L24.4861 324.882ZM29.5383 330.622C28.7837 330.622 28.1154 330.46 27.5333 330.137C26.9619 329.814 26.5199 329.361 26.2073 328.779C25.8947 328.197 25.7384 327.517 25.7384 326.741C25.7384 325.954 25.8947 325.27 26.2073 324.688C26.5307 324.106 26.9835 323.658 27.5656 323.346C28.1477 323.022 28.8322 322.86 29.6192 322.86C30.4061 322.86 31.0745 323.011 31.6243 323.313C32.1848 323.615 32.6106 324.052 32.9017 324.623C33.1928 325.184 33.3383 325.863 33.3383 326.66C33.3383 326.747 33.3329 326.838 33.3221 326.935C33.3221 327.032 33.3221 327.102 33.3221 327.145H26.7894V325.933H31.8183L31.2847 326.677C31.317 326.612 31.3494 326.526 31.3817 326.418C31.4248 326.31 31.4464 326.218 31.4464 326.143C31.4464 325.744 31.3655 325.399 31.2038 325.108C31.0529 324.817 30.8373 324.591 30.557 324.429C30.2875 324.267 29.9695 324.186 29.603 324.186C29.161 324.186 28.7837 324.283 28.4711 324.477C28.1693 324.671 27.9321 324.952 27.7596 325.318C27.5979 325.685 27.5171 326.138 27.5171 326.677C27.5063 327.205 27.5818 327.658 27.7435 328.035C27.9159 328.412 28.1585 328.698 28.4711 328.892C28.7837 329.086 29.1664 329.183 29.6192 329.183C30.1043 329.183 30.5247 329.086 30.8804 328.892C31.2362 328.698 31.5272 328.401 31.7536 328.002L33.2736 328.601C32.8747 329.269 32.3681 329.776 31.7536 330.121C31.1392 330.455 30.4007 330.622 29.5383 330.622ZM38.255 330.622C37.5004 330.622 36.832 330.46 36.2499 330.137C35.6786 329.814 35.2366 329.361 34.924 328.779C34.6113 328.197 34.455 327.517 34.455 326.741C34.455 325.954 34.6113 325.27 34.924 324.688C35.2474 324.106 35.7001 323.658 36.2822 323.346C36.8644 323.022 37.5489 322.86 38.3358 322.86C39.1228 322.86 39.7911 323.011 40.3409 323.313C40.9015 323.615 41.3273 324.052 41.6183 324.623C41.9094 325.184 42.0549 325.863 42.0549 326.66C42.0549 326.747 42.0495 326.838 42.0388 326.935C42.0388 327.032 42.0388 327.102 42.0388 327.145H35.5061V325.933H40.5349L40.0013 326.677C40.0337 326.612 40.066 326.526 40.0984 326.418C40.1415 326.31 40.163 326.218 40.163 326.143C40.163 325.744 40.0822 325.399 39.9205 325.108C39.7696 324.817 39.554 324.591 39.2737 324.429C39.0042 324.267 38.6862 324.186 38.3197 324.186C37.8777 324.186 37.5004 324.283 37.1878 324.477C36.8859 324.671 36.6488 324.952 36.4763 325.318C36.3146 325.685 36.2337 326.138 36.2337 326.677C36.2229 327.205 36.2984 327.658 36.4601 328.035C36.6326 328.412 36.8751 328.698 37.1878 328.892C37.5004 329.086 37.8831 329.183 38.3358 329.183C38.8209 329.183 39.2413 329.086 39.5971 328.892C39.9528 328.698 40.2439 328.401 40.4703 328.002L41.9902 328.601C41.5914 329.269 41.0847 329.776 40.4703 330.121C39.8558 330.455 39.1174 330.622 38.255 330.622ZM45.4678 323.022V330.46H43.7376V323.022H45.4678ZM47.6831 324.882C47.5322 324.752 47.3813 324.655 47.2303 324.591C47.0902 324.526 46.9123 324.494 46.6967 324.494C46.4057 324.494 46.1685 324.569 45.9852 324.72C45.802 324.871 45.6672 325.081 45.581 325.351C45.5055 325.609 45.4678 325.917 45.4678 326.272L44.8857 325.933C44.8857 325.34 44.9935 324.817 45.2091 324.364C45.4355 323.901 45.7211 323.534 46.0661 323.265C46.4218 322.984 46.7884 322.844 47.1657 322.844C47.4352 322.844 47.6885 322.887 47.9256 322.974C48.1628 323.06 48.3676 323.205 48.5401 323.41L47.6831 324.882ZM50.0778 328.002C50.3257 328.272 50.5683 328.498 50.8054 328.682C51.0426 328.865 51.2851 329.005 51.5331 329.102C51.781 329.199 52.029 329.248 52.2769 329.248C52.5895 329.248 52.8321 329.178 53.0045 329.037C53.1878 328.897 53.2794 328.703 53.2794 328.455C53.2794 328.24 53.2094 328.056 53.0692 327.905C52.9291 327.744 52.735 327.609 52.4871 327.501C52.2392 327.383 51.9481 327.264 51.6139 327.145C51.2797 327.016 50.9456 326.865 50.6114 326.693C50.288 326.509 50.0185 326.272 49.8029 325.981C49.5981 325.69 49.4957 325.324 49.4957 324.882C49.4957 324.429 49.6088 324.052 49.8352 323.75C50.0724 323.448 50.385 323.227 50.7731 323.087C51.1719 322.936 51.5978 322.86 52.0505 322.86C52.4602 322.86 52.8428 322.92 53.1986 323.038C53.5651 323.157 53.8939 323.313 54.185 323.507C54.476 323.701 54.724 323.922 54.9288 324.17L53.9586 325.205C53.7214 324.914 53.4304 324.677 53.0854 324.494C52.7404 324.31 52.3847 324.219 52.0182 324.219C51.7595 324.219 51.5492 324.273 51.3875 324.38C51.2258 324.488 51.145 324.645 51.145 324.849C51.145 325.022 51.2151 325.178 51.3552 325.318C51.5061 325.448 51.7002 325.566 51.9373 325.674C52.1853 325.782 52.4602 325.895 52.762 326.014C53.1824 326.175 53.5651 326.353 53.9101 326.547C54.255 326.741 54.5299 326.978 54.7347 327.259C54.9396 327.539 55.042 327.905 55.042 328.358C55.042 329.059 54.7994 329.625 54.3143 330.056C53.84 330.476 53.1986 330.687 52.3901 330.687C51.8726 330.687 51.4037 330.611 50.9833 330.46C50.5629 330.299 50.191 330.094 49.8676 329.846C49.5442 329.587 49.2747 329.318 49.0591 329.037L50.0778 328.002Z" fill="#F1F1F1"/>
<rect x="0.0976562" y="34.65" width="107.415" height="2.31" rx="1.155" fill="#2D83EE"/>
<path d="M3.48643 14.7235C3.48643 15.7491 3.70819 16.6639 4.15171 17.4678C4.60909 18.2578 5.21893 18.8815 5.98123 19.3389C6.74353 19.7824 7.60978 20.0042 8.57998 20.0042C9.55018 20.0042 10.4026 19.7893 11.1371 19.3597C11.8856 18.9161 12.4746 18.3063 12.9043 17.5301C13.334 16.754 13.5488 15.8669 13.5488 14.869C13.5488 13.8711 13.334 12.9702 12.9043 12.1663C12.4746 11.3624 11.8787 10.7249 11.1164 10.2536C10.3679 9.78241 9.48781 9.54679 8.47603 9.54679C7.50583 9.54679 6.64651 9.76855 5.89807 10.2121C5.14963 10.6556 4.56058 11.2724 4.13092 12.0624C3.70126 12.8385 3.48643 13.7256 3.48643 14.7235ZM0.887676 14.7235C0.887676 13.6286 1.07479 12.6237 1.44901 11.7089C1.83709 10.7942 2.3707 10.0042 3.04984 9.33889C3.74284 8.65975 4.54672 8.13307 5.46148 7.75885C6.3901 7.37077 7.39495 7.17673 8.47603 7.17673C9.55711 7.17673 10.555 7.37077 11.4698 7.75885C12.3845 8.13307 13.1815 8.65975 13.8606 9.33889C14.5398 10.0042 15.0665 10.7942 15.4407 11.7089C15.8149 12.6237 16.002 13.6286 16.002 14.7235C16.002 15.8046 15.8149 16.8094 15.4407 17.738C15.0803 18.6667 14.5606 19.4705 13.8814 20.1497C13.2023 20.8288 12.4053 21.3624 11.4906 21.7505C10.5758 22.1247 9.57097 22.3119 8.47603 22.3119C7.38109 22.3119 6.36931 22.1247 5.44069 21.7505C4.52593 21.3624 3.72205 20.8288 3.02905 20.1497C2.34991 19.4705 1.82323 18.6667 1.44901 17.738C1.07479 16.8094 0.887676 15.8046 0.887676 14.7235ZM7.78996 15.763H10.6174L17.1663 22.104H14.2972L7.78996 15.763ZM20.8942 18.2578C20.8942 18.9369 21.0397 19.4636 21.3307 19.8378C21.6218 20.2121 22.0723 20.3992 22.6821 20.3992C23.0979 20.3992 23.4652 20.3091 23.784 20.1289C24.1027 19.9487 24.3522 19.6992 24.5324 19.3805C24.7126 19.0617 24.8027 18.6875 24.8027 18.2578V12.4366H27.048V22H24.8027V20.5239C24.4978 21.0783 24.1027 21.501 23.6176 21.7921C23.1464 22.0693 22.5781 22.2079 21.9129 22.2079C20.8456 22.2079 20.021 21.8753 19.4389 21.21C18.8706 20.5447 18.5865 19.6438 18.5865 18.5073V12.4366H20.8942V18.2578ZM29.8322 8.63203C29.8322 8.24395 29.9708 7.91824 30.248 7.6549C30.5391 7.39156 30.8717 7.25989 31.246 7.25989C31.6479 7.25989 31.9875 7.39156 32.2647 7.6549C32.5419 7.91824 32.6805 8.24395 32.6805 8.63203C32.6805 9.00625 32.5419 9.33196 32.2647 9.60916C31.9875 9.8725 31.6479 10.0042 31.246 10.0042C30.8717 10.0042 30.5391 9.8725 30.248 9.60916C29.9708 9.33196 29.8322 9.00625 29.8322 8.63203ZM30.1441 12.4366H32.3686V22H30.1441V12.4366ZM36.9549 17.2183C36.9549 17.8143 37.0866 18.341 37.3499 18.7983C37.6133 19.2557 37.9667 19.6161 38.4102 19.8794C38.8676 20.1428 39.3735 20.2744 39.9279 20.2744C40.3991 20.2744 40.8357 20.2051 41.2377 20.0665C41.6535 19.9141 42.0208 19.72 42.3395 19.4844C42.6583 19.2349 42.8939 18.9577 43.0464 18.6528V21.1268C42.7138 21.4595 42.2633 21.7228 41.695 21.9168C41.1268 22.1109 40.5031 22.2079 39.8239 22.2079C38.8537 22.2079 37.9736 22 37.1836 21.5842C36.4075 21.1545 35.7907 20.5655 35.3333 19.817C34.8759 19.0547 34.6472 18.1885 34.6472 17.2183C34.6472 16.2342 34.8759 15.368 35.3333 14.6195C35.7907 13.8711 36.4075 13.289 37.1836 12.8732C37.9736 12.4435 38.8537 12.2287 39.8239 12.2287C40.5031 12.2287 41.1268 12.3257 41.695 12.5198C42.2633 12.7138 42.7138 12.9702 43.0464 13.289V15.7838C42.8939 15.465 42.6514 15.1878 42.3187 14.9522C42 14.7027 41.6327 14.5087 41.2169 14.3701C40.8011 14.2315 40.3714 14.1622 39.9279 14.1622C39.3735 14.1622 38.8676 14.2938 38.4102 14.5572C37.9667 14.8205 37.6133 15.1809 37.3499 15.6383C37.0866 16.0956 36.9549 16.6223 36.9549 17.2183ZM45.445 5.7838H47.6488V22H45.445V5.7838ZM51.1623 12.4366H53.9274L49.7902 16.3867L54.3432 22H51.5989L47.0459 16.3867L51.1623 12.4366ZM62.2417 7.447H64.695V19.7963H70.4746V22H62.2417V7.447ZM71.9807 8.63203C71.9807 8.24395 72.1193 7.91824 72.3965 7.6549C72.6876 7.39156 73.0202 7.25989 73.3944 7.25989C73.7964 7.25989 74.136 7.39156 74.4132 7.6549C74.6904 7.91824 74.829 8.24395 74.829 8.63203C74.829 9.00625 74.6904 9.33196 74.4132 9.60916C74.136 9.8725 73.7964 10.0042 73.3944 10.0042C73.0202 10.0042 72.6876 9.8725 72.3965 9.60916C72.1193 9.33196 71.9807 9.00625 71.9807 8.63203ZM72.2926 12.4366H74.5171V22H72.2926V12.4366ZM83.7604 16.1788C83.7604 15.4719 83.6148 14.9383 83.3238 14.578C83.0327 14.2176 82.5892 14.0374 81.9932 14.0374C81.5636 14.0374 81.1893 14.1275 80.8706 14.3077C80.5518 14.474 80.3023 14.7235 80.1221 15.0561C79.9558 15.3749 79.8726 15.7491 79.8726 16.1788V22H77.6065V12.4366H79.8726V13.9127C80.1776 13.3444 80.5656 12.9217 81.0369 12.6445C81.522 12.3673 82.0902 12.2287 82.7417 12.2287C83.8227 12.2287 84.6474 12.5613 85.2157 13.2266C85.7839 13.878 86.0681 14.772 86.0681 15.9085V22H83.7604V16.1788ZM88.8523 5.7838H91.056V22H88.8523V5.7838ZM94.5695 12.4366H97.3346L93.1974 16.3867L97.7504 22H95.0061L90.4531 16.3867L94.5695 12.4366ZM99.6655 18.8399C99.9843 19.1864 100.296 19.4775 100.601 19.7131C100.906 19.9487 101.218 20.1289 101.537 20.2536C101.855 20.3784 102.174 20.4407 102.493 20.4407C102.895 20.4407 103.207 20.3507 103.429 20.1705C103.664 19.9903 103.782 19.7408 103.782 19.422C103.782 19.1448 103.692 18.9092 103.512 18.7152C103.332 18.5073 103.082 18.334 102.763 18.1954C102.444 18.043 102.07 17.8905 101.641 17.738C101.211 17.5717 100.781 17.3777 100.352 17.1559C99.9358 16.9203 99.5893 16.6154 99.3121 16.2412C99.0488 15.8669 98.9171 15.3957 98.9171 14.8274C98.9171 14.2453 99.0626 13.7602 99.3537 13.3721C99.6586 12.9841 100.061 12.6999 100.56 12.5198C101.072 12.3257 101.62 12.2287 102.202 12.2287C102.729 12.2287 103.221 12.3049 103.678 12.4574C104.149 12.6098 104.572 12.8108 104.946 13.0603C105.32 13.3098 105.639 13.5939 105.903 13.9127L104.655 15.2432C104.35 14.869 103.976 14.5641 103.532 14.3285C103.089 14.0929 102.632 13.9751 102.16 13.9751C101.828 13.9751 101.557 14.0444 101.35 14.183C101.142 14.3216 101.038 14.5225 101.038 14.7859C101.038 15.0076 101.128 15.2086 101.308 15.3888C101.502 15.5551 101.751 15.7076 102.056 15.8462C102.375 15.9848 102.729 16.1303 103.117 16.2827C103.657 16.4906 104.149 16.7193 104.593 16.9688C105.036 17.2183 105.39 17.5232 105.653 17.8836C105.916 18.2439 106.048 18.7152 106.048 19.2973C106.048 20.1982 105.736 20.9258 105.113 21.4802C104.503 22.0208 103.678 22.2911 102.639 22.2911C101.973 22.2911 101.37 22.194 100.83 22C100.289 21.7921 99.8111 21.5288 99.3953 21.21C98.9795 20.8773 98.633 20.5308 98.3558 20.1705L99.6655 18.8399Z" fill="white"/>
</svg>
