<svg width="146" height="300" viewBox="0 0 146 300" fill="none" xmlns="http://www.w3.org/2000/svg">
<path d="M3.00876 66.7803C3.00876 67.578 3.18124 68.2895 3.5262 68.9147C3.88194 69.5292 4.35626 70.0143 4.94916 70.37C5.54206 70.715 6.21581 70.8874 6.97041 70.8874C7.72501 70.8874 8.38798 70.7203 8.95932 70.3862C9.54144 70.0412 9.99959 69.5669 10.3338 68.9632C10.6679 68.3595 10.835 67.6696 10.835 66.8934C10.835 66.1173 10.6679 65.4166 10.3338 64.7913C9.99959 64.1661 9.53605 63.6702 8.94315 63.3037C8.36103 62.9372 7.6765 62.7539 6.88956 62.7539C6.13496 62.7539 5.4666 62.9264 4.88448 63.2714C4.30236 63.6163 3.84421 64.096 3.51003 64.7105C3.17585 65.3142 3.00876 66.0041 3.00876 66.7803ZM0.987507 66.7803C0.987507 65.9286 1.13304 65.1471 1.4241 64.4356C1.72594 63.7241 2.14097 63.1097 2.66919 62.5922C3.20819 62.064 3.83343 61.6544 4.54491 61.3633C5.26717 61.0615 6.04872 60.9105 6.88956 60.9105C7.7304 60.9105 8.50656 61.0615 9.21804 61.3633C9.92952 61.6544 10.5494 62.064 11.0776 62.5922C11.6058 63.1097 12.0154 63.7241 12.3065 64.4356C12.5976 65.1471 12.7431 65.9286 12.7431 66.7803C12.7431 67.6211 12.5976 68.4026 12.3065 69.1249C12.0262 69.8472 11.622 70.4724 11.0938 71.0006C10.5655 71.5288 9.94569 71.9439 9.23421 72.2457C8.52273 72.5368 7.74118 72.6823 6.88956 72.6823C6.03794 72.6823 5.251 72.5368 4.52874 72.2457C3.81726 71.9439 3.19202 71.5288 2.65302 71.0006C2.1248 70.4724 1.71516 69.8472 1.4241 69.1249C1.13304 68.4026 0.987507 67.6211 0.987507 66.7803ZM6.35595 67.5888H8.55507L13.6486 72.5206H11.4172L6.35595 67.5888ZM16.5481 69.5292C16.5481 70.0574 16.6613 70.467 16.8877 70.7581C17.1141 71.0491 17.4644 71.1947 17.9387 71.1947C18.2621 71.1947 18.5478 71.1246 18.7957 70.9845C19.0437 70.8443 19.2377 70.6503 19.3779 70.4023C19.518 70.1544 19.5881 69.8633 19.5881 69.5292V65.0016H21.3344V72.4398H19.5881V71.2917C19.3509 71.7229 19.0437 72.0517 18.6664 72.2781C18.2999 72.4937 17.8579 72.6015 17.3404 72.6015C16.5104 72.6015 15.869 72.3427 15.4162 71.8253C14.9742 71.3079 14.7532 70.6072 14.7532 69.7232V65.0016H16.5481V69.5292ZM23.4999 62.0424C23.4999 61.7406 23.6077 61.4873 23.8233 61.2825C24.0497 61.0776 24.3084 60.9752 24.5995 60.9752C24.9121 60.9752 25.1762 61.0776 25.3918 61.2825C25.6074 61.4873 25.7152 61.7406 25.7152 62.0424C25.7152 62.3335 25.6074 62.5868 25.3918 62.8024C25.1762 63.0073 24.9121 63.1097 24.5995 63.1097C24.3084 63.1097 24.0497 63.0073 23.8233 62.8024C23.6077 62.5868 23.4999 62.3335 23.4999 62.0424ZM23.7425 65.0016H25.4727V72.4398H23.7425V65.0016ZM27.8756 59.8272H29.6381V72.4398H27.8756V59.8272ZM31.8549 59.8272H33.6174V72.4398H31.8549V59.8272ZM37.338 69.5292L37.71 67.9122H42.9652L43.3209 69.5292H37.338ZM40.2972 64.3224L38.5185 68.4781L38.4861 68.8985L36.9176 72.4398H34.767L40.2972 60.4901L45.8435 72.4398H43.6767L42.1405 68.9955L42.1082 68.5266L40.2972 64.3224ZM47.144 61.1208H49.0844V72.4398H47.144V61.1208Z" fill="#F1F1F1"/>
<path d="M3.00876 103.64C3.00876 104.438 3.18124 105.149 3.5262 105.775C3.88194 106.389 4.35626 106.874 4.94916 107.23C5.54206 107.575 6.21581 107.747 6.97041 107.747C7.72501 107.747 8.38798 107.58 8.95932 107.246C9.54144 106.901 9.99959 106.427 10.3338 105.823C10.6679 105.22 10.835 104.53 10.835 103.753C10.835 102.977 10.6679 102.277 10.3338 101.651C9.99959 101.026 9.53605 100.53 8.94315 100.164C8.36103 99.7972 7.6765 99.6139 6.88956 99.6139C6.13496 99.6139 5.4666 99.7864 4.88448 100.131C4.30236 100.476 3.84421 100.956 3.51003 101.57C3.17585 102.174 3.00876 102.864 3.00876 103.64ZM0.987507 103.64C0.987507 102.789 1.13304 102.007 1.4241 101.296C1.72594 100.584 2.14097 99.9697 2.66919 99.4522C3.20819 98.924 3.83343 98.5144 4.54491 98.2233C5.26717 97.9215 6.04872 97.7705 6.88956 97.7705C7.7304 97.7705 8.50656 97.9215 9.21804 98.2233C9.92952 98.5144 10.5494 98.924 11.0776 99.4522C11.6058 99.9697 12.0154 100.584 12.3065 101.296C12.5976 102.007 12.7431 102.789 12.7431 103.64C12.7431 104.481 12.5976 105.263 12.3065 105.985C12.0262 106.707 11.622 107.332 11.0938 107.861C10.5655 108.389 9.94569 108.804 9.23421 109.106C8.52273 109.397 7.74118 109.542 6.88956 109.542C6.03794 109.542 5.251 109.397 4.52874 109.106C3.81726 108.804 3.19202 108.389 2.65302 107.861C2.1248 107.332 1.71516 106.707 1.4241 105.985C1.13304 105.263 0.987507 104.481 0.987507 103.64ZM6.35595 104.449H8.55507L13.6486 109.381H11.4172L6.35595 104.449ZM16.5481 106.389C16.5481 106.917 16.6613 107.327 16.8877 107.618C17.1141 107.909 17.4644 108.055 17.9387 108.055C18.2621 108.055 18.5478 107.985 18.7957 107.844C19.0437 107.704 19.2377 107.51 19.3779 107.262C19.518 107.014 19.5881 106.723 19.5881 106.389V101.862H21.3344V109.3H19.5881V108.152C19.3509 108.583 19.0437 108.912 18.6664 109.138C18.2999 109.354 17.8579 109.461 17.3404 109.461C16.5104 109.461 15.869 109.203 15.4162 108.685C14.9742 108.168 14.7532 107.467 14.7532 106.583V101.862H16.5481V106.389ZM23.4999 98.9024C23.4999 98.6006 23.6077 98.3473 23.8233 98.1424C24.0497 97.9376 24.3084 97.8352 24.5995 97.8352C24.9121 97.8352 25.1762 97.9376 25.3918 98.1424C25.6074 98.3473 25.7152 98.6006 25.7152 98.9024C25.7152 99.1935 25.6074 99.4468 25.3918 99.6624C25.1762 99.8672 24.9121 99.9697 24.5995 99.9697C24.3084 99.9697 24.0497 99.8672 23.8233 99.6624C23.6077 99.4468 23.4999 99.1935 23.4999 98.9024ZM23.7425 101.862H25.4727V109.3H23.7425V101.862ZM27.8756 96.6871H29.6381V109.3H27.8756V96.6871ZM31.8549 96.6871H33.6174V109.3H31.8549V96.6871ZM37.4027 103.64C37.4027 104.438 37.5806 105.139 37.9363 105.742C38.3029 106.335 38.7772 106.799 39.3593 107.133C39.9414 107.467 40.5774 107.634 41.2674 107.634C41.8064 107.634 42.2915 107.564 42.7227 107.424C43.1646 107.284 43.5581 107.095 43.9031 106.858C44.248 106.61 44.5499 106.33 44.8086 106.017V108.297C44.345 108.685 43.833 108.982 43.2724 109.187C42.7227 109.391 42.0327 109.494 41.2027 109.494C40.3726 109.494 39.5965 109.354 38.8742 109.073C38.1627 108.793 37.5429 108.389 37.0146 107.861C36.4864 107.332 36.0714 106.713 35.7696 106.001C35.4785 105.279 35.333 104.492 35.333 103.64C35.333 102.778 35.4785 101.991 35.7696 101.279C36.0714 100.557 36.4864 99.9373 37.0146 99.4199C37.5429 98.8917 38.1627 98.4874 38.8742 98.2071C39.5965 97.9161 40.3726 97.7705 41.2027 97.7705C42.0327 97.7705 42.7227 97.8729 43.2724 98.0778C43.833 98.2826 44.345 98.5844 44.8086 98.9833V101.247C44.5499 100.945 44.248 100.676 43.9031 100.439C43.5581 100.191 43.1646 99.9966 42.7227 99.8565C42.2915 99.7163 41.8064 99.6463 41.2674 99.6463C40.5774 99.6463 39.9414 99.8133 39.3593 100.148C38.7772 100.471 38.3029 100.934 37.9363 101.538C37.5806 102.131 37.4027 102.832 37.4027 103.64ZM48.7768 96.6871V109.3H47.0143V96.6871H48.7768ZM51.8006 104.772C51.8006 104.222 51.6874 103.807 51.461 103.527C51.2454 103.247 50.9005 103.107 50.4261 103.107C50.092 103.107 49.8009 103.177 49.553 103.317C49.305 103.457 49.111 103.651 48.9708 103.899C48.8415 104.147 48.7768 104.438 48.7768 104.772H48.3564C48.3564 104.179 48.4588 103.651 48.6636 103.187C48.8792 102.713 49.1811 102.341 49.5691 102.072C49.968 101.791 50.4477 101.651 51.0083 101.651C51.5688 101.651 52.0378 101.759 52.4151 101.975C52.7924 102.19 53.078 102.514 53.2721 102.945C53.4661 103.365 53.5631 103.894 53.5631 104.53V109.3H51.8006V104.772ZM59.0281 109.461C58.2735 109.461 57.6051 109.3 57.023 108.976C56.4517 108.653 56.0097 108.2 55.6971 107.618C55.3844 107.036 55.2281 106.357 55.2281 105.581C55.2281 104.794 55.3844 104.109 55.6971 103.527C56.0205 102.945 56.4732 102.498 57.0553 102.185C57.6375 101.862 58.322 101.7 59.1089 101.7C59.8959 101.7 60.5642 101.851 61.114 102.153C61.6746 102.454 62.1004 102.891 62.3914 103.462C62.6825 104.023 62.828 104.702 62.828 105.5C62.828 105.586 62.8226 105.678 62.8119 105.775C62.8119 105.872 62.8119 105.942 62.8119 105.985H56.2792V104.772H61.3081L60.7744 105.516C60.8068 105.451 60.8391 105.365 60.8715 105.257C60.9146 105.149 60.9361 105.058 60.9361 104.982C60.9361 104.583 60.8553 104.239 60.6936 103.947C60.5427 103.656 60.3271 103.43 60.0468 103.268C59.7773 103.107 59.4593 103.026 59.0928 103.026C58.6508 103.026 58.2735 103.123 57.9609 103.317C57.659 103.511 57.4219 103.791 57.2494 104.158C57.0877 104.524 57.0068 104.977 57.0068 105.516C56.9961 106.044 57.0715 106.497 57.2332 106.874C57.4057 107.252 57.6482 107.537 57.9609 107.731C58.2735 107.925 58.6562 108.022 59.1089 108.022C59.594 108.022 60.0145 107.925 60.3702 107.731C60.7259 107.537 61.017 107.241 61.2434 106.842L62.7634 107.44C62.3645 108.109 61.8578 108.615 61.2434 108.96C60.6289 109.294 59.8905 109.461 59.0281 109.461ZM65.675 105.581C65.675 106.044 65.7774 106.454 65.9822 106.81C66.187 107.165 66.4619 107.446 66.8069 107.65C67.1626 107.855 67.5561 107.958 67.9873 107.958C68.3538 107.958 68.6934 107.904 69.006 107.796C69.3294 107.677 69.6151 107.526 69.863 107.343C70.1109 107.149 70.2942 106.934 70.4128 106.696V108.621C70.1541 108.879 69.8037 109.084 69.3617 109.235C68.9197 109.386 68.4346 109.461 67.9064 109.461C67.1518 109.461 66.4673 109.3 65.8528 108.976C65.2492 108.642 64.7694 108.184 64.4137 107.602C64.058 107.009 63.8801 106.335 63.8801 105.581C63.8801 104.815 64.058 104.142 64.4137 103.559C64.7694 102.977 65.2492 102.525 65.8528 102.201C66.4673 101.867 67.1518 101.7 67.9064 101.7C68.4346 101.7 68.9197 101.775 69.3617 101.926C69.8037 102.077 70.1541 102.277 70.4128 102.525V104.465C70.2942 104.217 70.1055 104.001 69.8468 103.818C69.5989 103.624 69.3132 103.473 68.9898 103.365C68.6664 103.258 68.3322 103.204 67.9873 103.204C67.5561 103.204 67.1626 103.306 66.8069 103.511C66.4619 103.716 66.187 103.996 65.9822 104.352C65.7774 104.707 65.675 105.117 65.675 105.581ZM72.2784 96.6871H73.9924V109.3H72.2784V96.6871ZM76.7251 101.862H78.8757L75.6579 104.934L79.1991 109.3H77.0647L73.5235 104.934L76.7251 101.862Z" fill="#F1F1F1"/>
<path d="M3.00876 140.5C3.00876 141.298 3.18124 142.009 3.5262 142.635C3.88194 143.249 4.35626 143.734 4.94916 144.09C5.54206 144.435 6.21581 144.607 6.97041 144.607C7.72501 144.607 8.38798 144.44 8.95932 144.106C9.54144 143.761 9.99959 143.287 10.3338 142.683C10.6679 142.08 10.835 141.39 10.835 140.613C10.835 139.837 10.6679 139.137 10.3338 138.511C9.99959 137.886 9.53605 137.39 8.94315 137.024C8.36103 136.657 7.6765 136.474 6.88956 136.474C6.13496 136.474 5.4666 136.646 4.88448 136.991C4.30236 137.336 3.84421 137.816 3.51003 138.431C3.17585 139.034 3.00876 139.724 3.00876 140.5ZM0.987507 140.5C0.987507 139.649 1.13304 138.867 1.4241 138.156C1.72594 137.444 2.14097 136.83 2.66919 136.312C3.20819 135.784 3.83343 135.374 4.54491 135.083C5.26717 134.781 6.04872 134.631 6.88956 134.631C7.7304 134.631 8.50656 134.781 9.21804 135.083C9.92952 135.374 10.5494 135.784 11.0776 136.312C11.6058 136.83 12.0154 137.444 12.3065 138.156C12.5976 138.867 12.7431 139.649 12.7431 140.5C12.7431 141.341 12.5976 142.123 12.3065 142.845C12.0262 143.567 11.622 144.192 11.0938 144.721C10.5655 145.249 9.94569 145.664 9.23421 145.966C8.52273 146.257 7.74118 146.402 6.88956 146.402C6.03794 146.402 5.251 146.257 4.52874 145.966C3.81726 145.664 3.19202 145.249 2.65302 144.721C2.1248 144.192 1.71516 143.567 1.4241 142.845C1.13304 142.123 0.987507 141.341 0.987507 140.5ZM6.35595 141.309H8.55507L13.6486 146.241H11.4172L6.35595 141.309ZM16.5481 143.249C16.5481 143.777 16.6613 144.187 16.8877 144.478C17.1141 144.769 17.4644 144.915 17.9387 144.915C18.2621 144.915 18.5478 144.845 18.7957 144.704C19.0437 144.564 19.2377 144.37 19.3779 144.122C19.518 143.874 19.5881 143.583 19.5881 143.249V138.722H21.3344V146.16H19.5881V145.012C19.3509 145.443 19.0437 145.772 18.6664 145.998C18.2999 146.214 17.8579 146.321 17.3404 146.321C16.5104 146.321 15.869 146.063 15.4162 145.545C14.9742 145.028 14.7532 144.327 14.7532 143.443V138.722H16.5481V143.249ZM23.4999 135.762C23.4999 135.461 23.6077 135.207 23.8233 135.002C24.0497 134.798 24.3084 134.695 24.5995 134.695C24.9121 134.695 25.1762 134.798 25.3918 135.002C25.6074 135.207 25.7152 135.461 25.7152 135.762C25.7152 136.054 25.6074 136.307 25.3918 136.522C25.1762 136.727 24.9121 136.83 24.5995 136.83C24.3084 136.83 24.0497 136.727 23.8233 136.522C23.6077 136.307 23.4999 136.054 23.4999 135.762ZM23.7425 138.722H25.4727V146.16H23.7425V138.722ZM27.8756 133.547H29.6381V146.16H27.8756V133.547ZM31.8549 133.547H33.6174V146.16H31.8549V133.547ZM36.7236 142.505C36.9715 142.947 37.2356 143.33 37.5159 143.653C37.807 143.977 38.125 144.23 38.4699 144.413C38.8257 144.597 39.2138 144.688 39.6342 144.688C40.1516 144.688 40.572 144.548 40.8954 144.268C41.2188 143.988 41.3805 143.621 41.3805 143.168C41.3805 142.759 41.2781 142.43 41.0733 142.182C40.8793 141.923 40.599 141.708 40.2325 141.535C39.866 141.352 39.4455 141.174 38.9712 141.002C38.6909 140.905 38.3783 140.775 38.0334 140.613C37.6884 140.441 37.3596 140.231 37.047 139.983C36.7344 139.724 36.4756 139.412 36.2708 139.045C36.066 138.668 35.9636 138.215 35.9636 137.687C35.9636 137.083 36.1199 136.555 36.4325 136.102C36.7451 135.639 37.1656 135.277 37.6938 135.019C38.2328 134.76 38.8419 134.631 39.521 134.631C40.1894 134.631 40.7715 134.755 41.2674 135.002C41.7632 135.24 42.1837 135.541 42.5286 135.908C42.8736 136.275 43.1377 136.657 43.3209 137.056L41.7848 137.929C41.6339 137.649 41.4506 137.39 41.235 137.153C41.0194 136.905 40.7661 136.711 40.475 136.571C40.1947 136.42 39.866 136.345 39.4887 136.345C38.9604 136.345 38.5724 136.469 38.3244 136.717C38.0765 136.954 37.9525 137.234 37.9525 137.557C37.9525 137.848 38.0387 138.113 38.2112 138.35C38.3945 138.576 38.6748 138.792 39.0521 138.996C39.4294 139.201 39.9199 139.412 40.5235 139.627C40.8685 139.746 41.2081 139.897 41.5422 140.08C41.8872 140.263 42.1944 140.49 42.4639 140.759C42.7442 141.029 42.9706 141.352 43.1431 141.729C43.3156 142.096 43.4018 142.527 43.4018 143.023C43.4018 143.551 43.294 144.025 43.0784 144.446C42.8736 144.866 42.5933 145.222 42.2376 145.513C41.8818 145.793 41.4776 146.009 41.0248 146.16C40.5828 146.321 40.1193 146.402 39.6342 146.402C38.9766 146.402 38.3621 146.273 37.7908 146.014C37.2302 145.745 36.7344 145.389 36.3032 144.947C35.8827 144.505 35.5486 144.025 35.3006 143.508L36.7236 142.505ZM46.9608 133.547V146.16H45.1983V133.547H46.9608ZM49.9846 141.632C49.9846 141.082 49.8714 140.667 49.6451 140.387C49.4295 140.107 49.0845 139.967 48.6102 139.967C48.276 139.967 47.9849 140.037 47.737 140.177C47.4891 140.317 47.295 140.511 47.1549 140.759C47.0255 141.007 46.9608 141.298 46.9608 141.632H46.5404C46.5404 141.039 46.6428 140.511 46.8476 140.048C47.0632 139.573 47.3651 139.201 47.7532 138.932C48.152 138.652 48.6317 138.511 49.1923 138.511C49.7529 138.511 50.2218 138.619 50.5991 138.835C50.9764 139.05 51.2621 139.374 51.4561 139.805C51.6501 140.225 51.7472 140.754 51.7472 141.39V146.16H49.9846V141.632ZM53.9134 135.762C53.9134 135.461 54.0212 135.207 54.2368 135.002C54.4632 134.798 54.7219 134.695 55.013 134.695C55.3256 134.695 55.5897 134.798 55.8053 135.002C56.0209 135.207 56.1287 135.461 56.1287 135.762C56.1287 136.054 56.0209 136.307 55.8053 136.522C55.5897 136.727 55.3256 136.83 55.013 136.83C54.7219 136.83 54.4632 136.727 54.2368 136.522C54.0212 136.307 53.9134 136.054 53.9134 135.762ZM54.156 138.722H55.8862V146.16H54.156V138.722ZM61.5231 146.321C60.7685 146.321 60.1001 146.16 59.518 145.836C58.9466 145.513 58.5047 145.06 58.192 144.478C57.8794 143.896 57.7231 143.217 57.7231 142.441C57.7231 141.654 57.8794 140.969 58.192 140.387C58.5154 139.805 58.9682 139.358 59.5503 139.045C60.1324 138.722 60.817 138.56 61.6039 138.56C62.3909 138.56 63.0592 138.711 63.609 139.013C64.1696 139.314 64.5954 139.751 64.8864 140.322C65.1775 140.883 65.323 141.562 65.323 142.36C65.323 142.446 65.3176 142.538 65.3068 142.635C65.3068 142.732 65.3068 142.802 65.3068 142.845H58.7742V141.632H63.803L63.2694 142.376C63.3018 142.311 63.3341 142.225 63.3664 142.117C63.4096 142.009 63.4311 141.918 63.4311 141.842C63.4311 141.444 63.3503 141.099 63.1886 140.808C63.0377 140.516 62.8221 140.29 62.5418 140.128C62.2723 139.967 61.9543 139.886 61.5877 139.886C61.1458 139.886 60.7685 139.983 60.4558 140.177C60.154 140.371 59.9168 140.651 59.7444 141.018C59.5827 141.384 59.5018 141.837 59.5018 142.376C59.491 142.904 59.5665 143.357 59.7282 143.734C59.9007 144.112 60.1432 144.397 60.4558 144.591C60.7685 144.785 61.1512 144.882 61.6039 144.882C62.089 144.882 62.5094 144.785 62.8652 144.591C63.2209 144.397 63.512 144.101 63.7384 143.702L65.2583 144.3C64.8595 144.969 64.3528 145.475 63.7384 145.82C63.1239 146.154 62.3855 146.321 61.5231 146.321ZM67.0057 133.547H68.7682V146.16H67.0057V133.547ZM76.5799 133.547H78.3424V146.16H76.5799V133.547ZM70.4191 142.441C70.4191 141.621 70.5862 140.926 70.9204 140.355C71.2545 139.773 71.6965 139.331 72.2463 139.029C72.8069 138.716 73.4051 138.56 74.0412 138.56C74.6664 138.56 75.2108 138.716 75.6743 139.029C76.1487 139.341 76.5206 139.789 76.7901 140.371C77.0703 140.942 77.2105 141.632 77.2105 142.441C77.2105 143.238 77.0703 143.928 76.7901 144.51C76.5206 145.093 76.1487 145.54 75.6743 145.853C75.2108 146.165 74.6664 146.321 74.0412 146.321C73.4051 146.321 72.8069 146.171 72.2463 145.869C71.6965 145.556 71.2545 145.109 70.9204 144.527C70.5862 143.944 70.4191 143.249 70.4191 142.441ZM72.2301 142.441C72.2301 142.937 72.3325 143.362 72.5374 143.718C72.7422 144.074 73.0117 144.343 73.3459 144.527C73.6908 144.71 74.0627 144.802 74.4616 144.802C74.8065 144.802 75.1407 144.71 75.4641 144.527C75.7875 144.343 76.0516 144.079 76.2565 143.734C76.4721 143.379 76.5799 142.947 76.5799 142.441C76.5799 141.934 76.4721 141.508 76.2565 141.163C76.0516 140.808 75.7875 140.538 75.4641 140.355C75.1407 140.171 74.8065 140.08 74.4616 140.08C74.0627 140.08 73.6908 140.171 73.3459 140.355C73.0117 140.538 72.7422 140.808 72.5374 141.163C72.3325 141.519 72.2301 141.945 72.2301 142.441Z" fill="#F1F1F1"/>
<path d="M3.00876 177.36C3.00876 178.158 3.18124 178.869 3.5262 179.495C3.88194 180.109 4.35626 180.594 4.94916 180.95C5.54206 181.295 6.21581 181.467 6.97041 181.467C7.72501 181.467 8.38798 181.3 8.95932 180.966C9.54144 180.621 9.99959 180.147 10.3338 179.543C10.6679 178.94 10.835 178.25 10.835 177.473C10.835 176.697 10.6679 175.997 10.3338 175.371C9.99959 174.746 9.53605 174.25 8.94315 173.884C8.36103 173.517 7.6765 173.334 6.88956 173.334C6.13496 173.334 5.4666 173.506 4.88448 173.851C4.30236 174.196 3.84421 174.676 3.51003 175.291C3.17585 175.894 3.00876 176.584 3.00876 177.36ZM0.987507 177.36C0.987507 176.509 1.13304 175.727 1.4241 175.016C1.72594 174.304 2.14097 173.69 2.66919 173.172C3.20819 172.644 3.83343 172.234 4.54491 171.943C5.26717 171.641 6.04872 171.491 6.88956 171.491C7.7304 171.491 8.50656 171.641 9.21804 171.943C9.92952 172.234 10.5494 172.644 11.0776 173.172C11.6058 173.69 12.0154 174.304 12.3065 175.016C12.5976 175.727 12.7431 176.509 12.7431 177.36C12.7431 178.201 12.5976 178.983 12.3065 179.705C12.0262 180.427 11.622 181.052 11.0938 181.581C10.5655 182.109 9.94569 182.524 9.23421 182.826C8.52273 183.117 7.74118 183.262 6.88956 183.262C6.03794 183.262 5.251 183.117 4.52874 182.826C3.81726 182.524 3.19202 182.109 2.65302 181.581C2.1248 181.052 1.71516 180.427 1.4241 179.705C1.13304 178.983 0.987507 178.201 0.987507 177.36ZM6.35595 178.169H8.55507L13.6486 183.101H11.4172L6.35595 178.169ZM16.5481 180.109C16.5481 180.637 16.6613 181.047 16.8877 181.338C17.1141 181.629 17.4644 181.775 17.9387 181.775C18.2621 181.775 18.5478 181.705 18.7957 181.564C19.0437 181.424 19.2377 181.23 19.3779 180.982C19.518 180.734 19.5881 180.443 19.5881 180.109V175.582H21.3344V183.02H19.5881V181.872C19.3509 182.303 19.0437 182.632 18.6664 182.858C18.2999 183.074 17.8579 183.181 17.3404 183.181C16.5104 183.181 15.869 182.923 15.4162 182.405C14.9742 181.888 14.7532 181.187 14.7532 180.303V175.582H16.5481V180.109ZM23.4999 172.622C23.4999 172.321 23.6077 172.067 23.8233 171.862C24.0497 171.658 24.3084 171.555 24.5995 171.555C24.9121 171.555 25.1762 171.658 25.3918 171.862C25.6074 172.067 25.7152 172.321 25.7152 172.622C25.7152 172.914 25.6074 173.167 25.3918 173.382C25.1762 173.587 24.9121 173.69 24.5995 173.69C24.3084 173.69 24.0497 173.587 23.8233 173.382C23.6077 173.167 23.4999 172.914 23.4999 172.622ZM23.7425 175.582H25.4727V183.02H23.7425V175.582ZM27.8756 170.407H29.6381V183.02H27.8756V170.407ZM31.8549 170.407H33.6174V183.02H31.8549V170.407ZM37.338 180.109L37.71 178.492H42.9652L43.3209 180.109H37.338ZM40.2972 174.902L38.5185 179.058L38.4861 179.479L36.9176 183.02H34.767L40.2972 171.07L45.8435 183.02H43.6767L42.1405 179.576L42.1082 179.107L40.2972 174.902ZM48.1627 179.301C48.1627 179.764 48.2651 180.174 48.47 180.53C48.6748 180.885 48.9497 181.166 49.2946 181.37C49.6504 181.575 50.0438 181.678 50.475 181.678C50.8416 181.678 51.1811 181.624 51.4937 181.516C51.8171 181.397 52.1028 181.246 52.3508 181.063C52.5987 180.869 52.782 180.654 52.9005 180.416V182.341C52.6418 182.599 52.2915 182.804 51.8495 182.955C51.4075 183.106 50.9224 183.181 50.3942 183.181C49.6396 183.181 48.9551 183.02 48.3406 182.696C47.7369 182.362 47.2572 181.904 46.9015 181.322C46.5457 180.729 46.3679 180.055 46.3679 179.301C46.3679 178.535 46.5457 177.862 46.9015 177.279C47.2572 176.697 47.7369 176.245 48.3406 175.921C48.9551 175.587 49.6396 175.42 50.3942 175.42C50.9224 175.42 51.4075 175.495 51.8495 175.646C52.2915 175.797 52.6418 175.997 52.9005 176.245V178.185C52.782 177.937 52.5933 177.721 52.3346 177.538C52.0866 177.344 51.801 177.193 51.4776 177.085C51.1542 176.978 50.82 176.924 50.475 176.924C50.0438 176.924 49.6504 177.026 49.2946 177.231C48.9497 177.436 48.6748 177.716 48.47 178.072C48.2651 178.427 48.1627 178.837 48.1627 179.301ZM55.9304 180.707C55.9304 180.955 55.9897 181.171 56.1083 181.354C56.2268 181.527 56.3885 181.656 56.5934 181.742C56.809 181.829 57.0515 181.872 57.321 181.872C57.6767 181.872 57.9948 181.802 58.275 181.661C58.5661 181.511 58.7979 181.3 58.9703 181.031C59.1428 180.761 59.2291 180.438 59.2291 180.061L59.4878 181.031C59.4878 181.505 59.3476 181.904 59.0674 182.227C58.7979 182.551 58.4529 182.793 58.0325 182.955C57.6228 183.106 57.2024 183.181 56.7712 183.181C56.3077 183.181 55.8765 183.09 55.4776 182.907C55.0788 182.723 54.7608 182.454 54.5236 182.098C54.2864 181.742 54.1679 181.311 54.1679 180.804C54.1679 180.082 54.4212 179.511 54.9278 179.09C55.4345 178.659 56.1514 178.444 57.0785 178.444C57.5743 178.444 58.0001 178.498 58.3559 178.605C58.7224 178.713 59.0242 178.843 59.2614 178.993C59.4986 179.134 59.6657 179.263 59.7627 179.382V180.271C59.4285 180.034 59.0728 179.861 58.6955 179.753C58.3182 179.646 57.9193 179.592 57.4989 179.592C57.1324 179.592 56.8359 179.64 56.6095 179.737C56.3831 179.824 56.2107 179.947 56.0921 180.109C55.9843 180.271 55.9304 180.47 55.9304 180.707ZM55.3806 177.522L54.6691 176.293C55.0141 176.088 55.4507 175.889 55.9789 175.695C56.5071 175.501 57.1216 175.404 57.8223 175.404C58.426 175.404 58.965 175.495 59.4393 175.679C59.9136 175.851 60.2801 176.11 60.5388 176.455C60.8083 176.8 60.9431 177.22 60.9431 177.716V183.02H59.2291V178.056C59.2291 177.818 59.1913 177.624 59.1159 177.473C59.0404 177.323 58.9272 177.199 58.7763 177.102C58.6362 177.005 58.4691 176.934 58.275 176.891C58.081 176.848 57.8708 176.827 57.6444 176.827C57.2994 176.827 56.9707 176.87 56.658 176.956C56.3562 177.031 56.0975 177.129 55.8819 177.247C55.6663 177.355 55.4992 177.447 55.3806 177.522ZM68.5738 170.407H70.3363V183.02H68.5738V170.407ZM62.413 179.301C62.413 178.481 62.5801 177.786 62.9143 177.215C63.2485 176.633 63.6905 176.191 64.2403 175.889C64.8008 175.576 65.3991 175.42 66.0351 175.42C66.6604 175.42 67.2048 175.576 67.6683 175.889C68.1426 176.201 68.5145 176.649 68.784 177.231C69.0643 177.802 69.2044 178.492 69.2044 179.301C69.2044 180.098 69.0643 180.788 68.784 181.37C68.5145 181.953 68.1426 182.4 67.6683 182.713C67.2048 183.025 66.6604 183.181 66.0351 183.181C65.3991 183.181 64.8008 183.031 64.2403 182.729C63.6905 182.416 63.2485 181.969 62.9143 181.387C62.5801 180.804 62.413 180.109 62.413 179.301ZM64.2241 179.301C64.2241 179.797 64.3265 180.222 64.5313 180.578C64.7361 180.934 65.0056 181.203 65.3398 181.387C65.6848 181.57 66.0567 181.661 66.4555 181.661C66.8005 181.661 67.1347 181.57 67.4581 181.387C67.7815 181.203 68.0456 180.939 68.2504 180.594C68.466 180.239 68.5738 179.807 68.5738 179.301C68.5738 178.794 68.466 178.368 68.2504 178.023C68.0456 177.668 67.7815 177.398 67.4581 177.215C67.1347 177.031 66.8005 176.94 66.4555 176.94C66.0567 176.94 65.6848 177.031 65.3398 177.215C65.0056 177.398 64.7361 177.668 64.5313 178.023C64.3265 178.379 64.2241 178.805 64.2241 179.301ZM75.735 183.181C74.9804 183.181 74.312 183.02 73.7299 182.696C73.1586 182.373 72.7166 181.92 72.404 181.338C72.0913 180.756 71.935 180.077 71.935 179.301C71.935 178.514 72.0913 177.829 72.404 177.247C72.7274 176.665 73.1801 176.218 73.7622 175.905C74.3444 175.582 75.0289 175.42 75.8158 175.42C76.6028 175.42 77.2711 175.571 77.8209 175.873C78.3815 176.174 78.8073 176.611 79.0983 177.182C79.3894 177.743 79.5349 178.422 79.5349 179.22C79.5349 179.306 79.5295 179.398 79.5188 179.495C79.5188 179.592 79.5188 179.662 79.5188 179.705H72.9861V178.492H78.0149L77.4813 179.236C77.5137 179.171 77.546 179.085 77.5784 178.977C77.6215 178.869 77.643 178.778 77.643 178.702C77.643 178.304 77.5622 177.959 77.4005 177.668C77.2496 177.376 77.034 177.15 76.7537 176.988C76.4842 176.827 76.1662 176.746 75.7997 176.746C75.3577 176.746 74.9804 176.843 74.6678 177.037C74.3659 177.231 74.1288 177.511 73.9563 177.878C73.7946 178.244 73.7137 178.697 73.7137 179.236C73.7029 179.764 73.7784 180.217 73.9401 180.594C74.1126 180.972 74.3551 181.257 74.6678 181.451C74.9804 181.645 75.3631 181.742 75.8158 181.742C76.3009 181.742 76.7213 181.645 77.0771 181.451C77.4328 181.257 77.7239 180.961 77.9503 180.562L79.4702 181.16C79.0714 181.829 78.5647 182.335 77.9503 182.68C77.3358 183.014 76.5974 183.181 75.735 183.181ZM91.8736 178.282V183.02H90.1111V178.492C90.1111 177.932 90.0087 177.517 89.8039 177.247C89.6098 176.967 89.3026 176.827 88.8822 176.827C88.5804 176.827 88.3162 176.891 88.0899 177.021C87.8743 177.15 87.7018 177.339 87.5724 177.587C87.4538 177.835 87.3946 178.136 87.3946 178.492V183.02H85.6482V178.492C85.6482 177.932 85.5458 177.517 85.341 177.247C85.1469 176.967 84.8343 176.827 84.4031 176.827C84.112 176.827 83.8533 176.891 83.6269 177.021C83.4113 177.15 83.2389 177.339 83.1095 177.587C82.9909 177.835 82.9316 178.136 82.9316 178.492V183.02H81.2176V175.582H82.9316V176.665C83.158 176.255 83.4437 175.948 83.7886 175.743C84.1336 175.528 84.5486 175.42 85.0337 175.42C85.5727 175.42 86.0201 175.533 86.3758 175.759C86.7424 175.986 87.0065 176.315 87.1682 176.746C87.4377 176.304 87.7665 175.975 88.1545 175.759C88.5534 175.533 89.0008 175.42 89.4967 175.42C90.0357 175.42 90.4776 175.533 90.8226 175.759C91.1676 175.975 91.4263 176.298 91.5988 176.73C91.782 177.161 91.8736 177.678 91.8736 178.282ZM100.59 175.582L95.7385 186.577H93.879L95.8355 182.147L92.8279 175.582H94.833L97.21 181.467L96.3853 181.419L98.7138 175.582H100.59Z" fill="#F1F1F1"/>
<path d="M3.00876 214.22C3.00876 215.018 3.18124 215.729 3.5262 216.355C3.88194 216.969 4.35626 217.454 4.94916 217.81C5.54206 218.155 6.21581 218.327 6.97041 218.327C7.72501 218.327 8.38798 218.16 8.95932 217.826C9.54144 217.481 9.99959 217.007 10.3338 216.403C10.6679 215.8 10.835 215.11 10.835 214.333C10.835 213.557 10.6679 212.857 10.3338 212.231C9.99959 211.606 9.53605 211.11 8.94315 210.744C8.36103 210.377 7.6765 210.194 6.88956 210.194C6.13496 210.194 5.4666 210.366 4.88448 210.711C4.30236 211.056 3.84421 211.536 3.51003 212.151C3.17585 212.754 3.00876 213.444 3.00876 214.22ZM0.987507 214.22C0.987507 213.369 1.13304 212.587 1.4241 211.876C1.72594 211.164 2.14097 210.55 2.66919 210.032C3.20819 209.504 3.83343 209.094 4.54491 208.803C5.26717 208.501 6.04872 208.351 6.88956 208.351C7.7304 208.351 8.50656 208.501 9.21804 208.803C9.92952 209.094 10.5494 209.504 11.0776 210.032C11.6058 210.55 12.0154 211.164 12.3065 211.876C12.5976 212.587 12.7431 213.369 12.7431 214.22C12.7431 215.061 12.5976 215.843 12.3065 216.565C12.0262 217.287 11.622 217.912 11.0938 218.441C10.5655 218.969 9.94569 219.384 9.23421 219.686C8.52273 219.977 7.74118 220.122 6.88956 220.122C6.03794 220.122 5.251 219.977 4.52874 219.686C3.81726 219.384 3.19202 218.969 2.65302 218.441C2.1248 217.912 1.71516 217.287 1.4241 216.565C1.13304 215.843 0.987507 215.061 0.987507 214.22ZM6.35595 215.029H8.55507L13.6486 219.961H11.4172L6.35595 215.029ZM16.5481 216.969C16.5481 217.497 16.6613 217.907 16.8877 218.198C17.1141 218.489 17.4644 218.635 17.9387 218.635C18.2621 218.635 18.5478 218.565 18.7957 218.424C19.0437 218.284 19.2377 218.09 19.3779 217.842C19.518 217.594 19.5881 217.303 19.5881 216.969V212.442H21.3344V219.88H19.5881V218.732C19.3509 219.163 19.0437 219.492 18.6664 219.718C18.2999 219.934 17.8579 220.041 17.3404 220.041C16.5104 220.041 15.869 219.783 15.4162 219.265C14.9742 218.748 14.7532 218.047 14.7532 217.163V212.442H16.5481V216.969ZM23.4999 209.482C23.4999 209.181 23.6077 208.927 23.8233 208.722C24.0497 208.518 24.3084 208.415 24.5995 208.415C24.9121 208.415 25.1762 208.518 25.3918 208.722C25.6074 208.927 25.7152 209.181 25.7152 209.482C25.7152 209.774 25.6074 210.027 25.3918 210.242C25.1762 210.447 24.9121 210.55 24.5995 210.55C24.3084 210.55 24.0497 210.447 23.8233 210.242C23.6077 210.027 23.4999 209.774 23.4999 209.482ZM23.7425 212.442H25.4727V219.88H23.7425V212.442ZM27.8756 207.267H29.6381V219.88H27.8756V207.267ZM31.8549 207.267H33.6174V219.88H31.8549V207.267ZM38.0819 212.991L37.3057 219.88H35.333L36.8853 207.995L41.5261 215.676L46.183 207.995L47.7354 219.88H45.7626L44.9865 212.991L41.5261 218.829L38.0819 212.991ZM48.8959 216.161C48.8959 215.395 49.0684 214.722 49.4134 214.139C49.7691 213.557 50.2488 213.105 50.8525 212.781C51.467 212.447 52.1515 212.28 52.9061 212.28C53.6715 212.28 54.356 212.447 54.9597 212.781C55.5634 213.105 56.0377 213.557 56.3826 214.139C56.7384 214.722 56.9163 215.395 56.9163 216.161C56.9163 216.915 56.7384 217.589 56.3826 218.182C56.0377 218.764 55.5634 219.222 54.9597 219.556C54.356 219.88 53.6715 220.041 52.9061 220.041C52.1515 220.041 51.467 219.88 50.8525 219.556C50.2488 219.222 49.7691 218.764 49.4134 218.182C49.0684 217.589 48.8959 216.915 48.8959 216.161ZM50.6908 216.161C50.6908 216.624 50.7878 217.034 50.9819 217.39C51.1759 217.735 51.44 218.009 51.7742 218.214C52.1084 218.408 52.4857 218.505 52.9061 218.505C53.3265 218.505 53.7038 218.408 54.038 218.214C54.3722 218.009 54.6363 217.735 54.8303 217.39C55.0244 217.034 55.1214 216.624 55.1214 216.161C55.1214 215.697 55.0244 215.287 54.8303 214.932C54.6363 214.576 54.3722 214.301 54.038 214.107C53.7038 213.913 53.3265 213.816 52.9061 213.816C52.4857 213.816 52.1084 213.913 51.7742 214.107C51.44 214.301 51.1759 214.576 50.9819 214.932C50.7878 215.287 50.6908 215.697 50.6908 216.161ZM63.3754 215.352C63.3754 214.802 63.2622 214.387 63.0358 214.107C62.8095 213.827 62.4645 213.687 62.001 213.687C61.6668 213.687 61.3757 213.757 61.1278 213.897C60.8798 214.026 60.6858 214.22 60.5457 214.479C60.4163 214.727 60.3516 215.018 60.3516 215.352V219.88H58.5891V212.442H60.3516V213.59C60.5888 213.148 60.8906 212.819 61.2571 212.603C61.6344 212.388 62.0764 212.28 62.5831 212.28C63.4239 212.28 64.0653 212.539 64.5073 213.056C64.9493 213.563 65.1703 214.258 65.1703 215.142V219.88H63.3754V215.352ZM67.3358 209.482C67.3358 209.181 67.4436 208.927 67.6592 208.722C67.8856 208.518 68.1443 208.415 68.4354 208.415C68.748 208.415 69.0121 208.518 69.2277 208.722C69.4433 208.927 69.5511 209.181 69.5511 209.482C69.5511 209.774 69.4433 210.027 69.2277 210.242C69.0121 210.447 68.748 210.55 68.4354 210.55C68.1443 210.55 67.8856 210.447 67.6592 210.242C67.4436 210.027 67.3358 209.774 67.3358 209.482ZM67.5783 212.442H69.3085V219.88H67.5783V212.442ZM70.6765 212.442H74.8969V213.978H70.6765V212.442ZM71.9378 209.854H73.6518V219.88H71.9378V209.854ZM75.5354 216.161C75.5354 215.395 75.7079 214.722 76.0528 214.139C76.4086 213.557 76.8883 213.105 77.4919 212.781C78.1064 212.447 78.7909 212.28 79.5455 212.28C80.3109 212.28 80.9954 212.447 81.5991 212.781C82.2028 213.105 82.6771 213.557 83.0221 214.139C83.3778 214.722 83.5557 215.395 83.5557 216.161C83.5557 216.915 83.3778 217.589 83.0221 218.182C82.6771 218.764 82.2028 219.222 81.5991 219.556C80.9954 219.88 80.3109 220.041 79.5455 220.041C78.7909 220.041 78.1064 219.88 77.4919 219.556C76.8883 219.222 76.4086 218.764 76.0528 218.182C75.7079 217.589 75.5354 216.915 75.5354 216.161ZM77.3302 216.161C77.3302 216.624 77.4273 217.034 77.6213 217.39C77.8153 217.735 78.0795 218.009 78.4136 218.214C78.7478 218.408 79.1251 218.505 79.5455 218.505C79.966 218.505 80.3433 218.408 80.6774 218.214C81.0116 218.009 81.2757 217.735 81.4698 217.39C81.6638 217.034 81.7608 216.624 81.7608 216.161C81.7608 215.697 81.6638 215.287 81.4698 214.932C81.2757 214.576 81.0116 214.301 80.6774 214.107C80.3433 213.913 79.966 213.816 79.5455 213.816C79.1251 213.816 78.7478 213.913 78.4136 214.107C78.0795 214.301 77.8153 214.576 77.6213 214.932C77.4273 215.287 77.3302 215.697 77.3302 216.161ZM86.9587 212.442V219.88H85.2285V212.442H86.9587ZM89.174 214.301C89.0231 214.172 88.8722 214.075 88.7213 214.01C88.5811 213.945 88.4032 213.913 88.1876 213.913C87.8966 213.913 87.6594 213.988 87.4762 214.139C87.2929 214.29 87.1582 214.501 87.0719 214.77C86.9965 215.029 86.9587 215.336 86.9587 215.692L86.3766 215.352C86.3766 214.759 86.4844 214.236 86.7 213.784C86.9264 213.32 87.2121 212.954 87.557 212.684C87.9128 212.404 88.2793 212.264 88.6566 212.264C88.9261 212.264 89.1794 212.307 89.4166 212.393C89.6537 212.479 89.8585 212.625 90.031 212.83L89.174 214.301Z" fill="#F1F1F1"/>
<path d="M11.8861 252.988L14.5218 245.421H16.7533L12.1125 257.338L8.61975 249.334L5.12703 257.338L0.502407 245.421H2.7177L5.41809 252.988L8.61975 244.855L11.8861 252.988ZM19.9137 256.901C19.1591 256.901 18.4908 256.74 17.9087 256.416C17.3373 256.093 16.8953 255.64 16.5827 255.058C16.2701 254.476 16.1138 253.797 16.1138 253.021C16.1138 252.234 16.2701 251.549 16.5827 250.967C16.9061 250.385 17.3589 249.938 17.941 249.625C18.5231 249.302 19.2076 249.14 19.9946 249.14C20.7815 249.14 21.4499 249.291 21.9997 249.593C22.5602 249.894 22.986 250.331 23.2771 250.902C23.5682 251.463 23.7137 252.142 23.7137 252.94C23.7137 253.026 23.7083 253.118 23.6975 253.215C23.6975 253.312 23.6975 253.382 23.6975 253.425H17.1648V252.212H22.1937L21.6601 252.956C21.6924 252.891 21.7248 252.805 21.7571 252.697C21.8002 252.589 21.8218 252.498 21.8218 252.422C21.8218 252.024 21.7409 251.679 21.5792 251.388C21.4283 251.096 21.2127 250.87 20.9324 250.708C20.6629 250.547 20.3449 250.466 19.9784 250.466C19.5364 250.466 19.1591 250.563 18.8465 250.757C18.5447 250.951 18.3075 251.231 18.135 251.598C17.9733 251.964 17.8925 252.417 17.8925 252.956C17.8817 253.484 17.9572 253.937 18.1189 254.314C18.2913 254.692 18.5339 254.977 18.8465 255.171C19.1591 255.365 19.5418 255.462 19.9946 255.462C20.4797 255.462 20.9001 255.365 21.2558 255.171C21.6116 254.977 21.9026 254.681 22.129 254.282L23.649 254.88C23.2501 255.549 22.7435 256.055 22.129 256.4C21.5146 256.734 20.7761 256.901 19.9137 256.901ZM27.0942 244.127V256.74H25.3317V244.127H27.0942ZM33.255 253.021C33.255 253.829 33.0879 254.524 32.7537 255.107C32.4195 255.689 31.9776 256.136 31.4278 256.449C30.878 256.751 30.2797 256.901 29.6329 256.901C29.0185 256.901 28.4741 256.745 27.9997 256.433C27.5254 256.12 27.1481 255.673 26.8678 255.09C26.5983 254.508 26.4636 253.818 26.4636 253.021C26.4636 252.212 26.5983 251.522 26.8678 250.951C27.1481 250.369 27.5254 249.921 27.9997 249.609C28.4741 249.296 29.0185 249.14 29.6329 249.14C30.2797 249.14 30.878 249.296 31.4278 249.609C31.9776 249.911 32.4195 250.353 32.7537 250.935C33.0879 251.506 33.255 252.201 33.255 253.021ZM31.444 253.021C31.444 252.525 31.3415 252.099 31.1367 251.743C30.9319 251.388 30.6624 251.118 30.3282 250.935C29.994 250.751 29.6221 250.66 29.2125 250.66C28.8675 250.66 28.5334 250.751 28.21 250.935C27.8866 251.118 27.6171 251.388 27.4015 251.743C27.1966 252.088 27.0942 252.514 27.0942 253.021C27.0942 253.527 27.1966 253.959 27.4015 254.314C27.6171 254.659 27.8866 254.923 28.21 255.107C28.5334 255.29 28.8675 255.381 29.2125 255.381C29.6221 255.381 29.994 255.29 30.3282 255.107C30.6624 254.923 30.9319 254.654 31.1367 254.298C31.3415 253.942 31.444 253.517 31.444 253.021ZM38.0392 251.193V250.175C38.3841 250.175 38.6914 250.132 38.9609 250.045C39.2304 249.948 39.4567 249.819 39.64 249.657C39.834 249.485 39.9796 249.291 40.0766 249.075C40.1844 248.86 40.2383 248.633 40.2383 248.396C40.2383 248.094 40.179 247.83 40.0604 247.604C39.9526 247.367 39.7855 247.183 39.5591 247.054C39.3328 246.925 39.0471 246.86 38.7021 246.86C38.217 246.86 37.8074 247.011 37.4732 247.313C37.139 247.604 36.9719 247.976 36.9719 248.428H35.1771C35.1771 247.803 35.3226 247.253 35.6137 246.779C35.9155 246.305 36.3305 245.933 36.8588 245.663C37.387 245.383 37.996 245.243 38.686 245.243C39.419 245.243 40.0442 245.383 40.5617 245.663C41.0791 245.944 41.4726 246.316 41.7421 246.779C42.0224 247.232 42.1625 247.738 42.1625 248.299C42.1625 248.87 41.9846 249.377 41.6289 249.819C41.2732 250.261 40.7827 250.601 40.1574 250.838C39.543 251.075 38.8369 251.193 38.0392 251.193ZM38.6051 256.934C38.0014 256.934 37.457 256.848 36.9719 256.675C36.4976 256.492 36.088 256.244 35.743 255.931C35.4088 255.608 35.1501 255.241 34.9669 254.832C34.7836 254.411 34.692 253.969 34.692 253.506H36.6162C36.6162 253.862 36.7024 254.174 36.8749 254.444C37.0582 254.713 37.3007 254.923 37.6026 255.074C37.9152 255.214 38.2602 255.284 38.6375 255.284C39.0255 255.284 39.3651 255.214 39.6562 255.074C39.9472 254.934 40.1682 254.735 40.3191 254.476C40.4808 254.206 40.5617 253.883 40.5617 253.506C40.5617 253.204 40.5024 252.934 40.3838 252.697C40.2652 252.46 40.0928 252.261 39.8664 252.099C39.6508 251.937 39.3867 251.813 39.074 251.727C38.7722 251.641 38.4272 251.598 38.0392 251.598V250.514C38.6644 250.514 39.2465 250.574 39.7855 250.692C40.3245 250.811 40.7935 250.999 41.1923 251.258C41.602 251.517 41.92 251.851 42.1463 252.261C42.3727 252.66 42.4859 253.139 42.4859 253.7C42.4859 254.347 42.3242 254.913 42.0008 255.398C41.6774 255.883 41.2247 256.26 40.6425 256.53C40.0604 256.799 39.3813 256.934 38.6051 256.934ZM45.1244 253.085C45.3723 253.527 45.6365 253.91 45.9167 254.233C46.2078 254.557 46.5258 254.81 46.8708 254.993C47.2265 255.177 47.6146 255.268 48.035 255.268C48.5524 255.268 48.9729 255.128 49.2963 254.848C49.6197 254.568 49.7814 254.201 49.7814 253.748C49.7814 253.339 49.679 253.01 49.4741 252.762C49.2801 252.503 48.9998 252.288 48.6333 252.115C48.2668 251.932 47.8464 251.754 47.372 251.582C47.0918 251.485 46.7791 251.355 46.4342 251.193C46.0892 251.021 45.7604 250.811 45.4478 250.563C45.1352 250.304 44.8765 249.991 44.6716 249.625C44.4668 249.248 44.3644 248.795 44.3644 248.267C44.3644 247.663 44.5207 247.135 44.8333 246.682C45.146 246.218 45.5664 245.857 46.0946 245.599C46.6336 245.34 47.2427 245.211 47.9218 245.211C48.5902 245.211 49.1723 245.335 49.6682 245.582C50.1641 245.82 50.5845 246.121 50.9294 246.488C51.2744 246.855 51.5385 247.237 51.7218 247.636L50.1856 248.509C50.0347 248.229 49.8514 247.97 49.6358 247.733C49.4202 247.485 49.1669 247.291 48.8758 247.151C48.5956 247 48.2668 246.925 47.8895 246.925C47.3613 246.925 46.9732 247.049 46.7252 247.296C46.4773 247.534 46.3533 247.814 46.3533 248.137C46.3533 248.428 46.4396 248.693 46.612 248.93C46.7953 249.156 47.0756 249.372 47.4529 249.576C47.8302 249.781 48.3207 249.991 48.9244 250.207C49.2693 250.326 49.6089 250.477 49.9431 250.66C50.288 250.843 50.5953 251.069 50.8648 251.339C51.145 251.608 51.3714 251.932 51.5439 252.309C51.7164 252.676 51.8026 253.107 51.8026 253.603C51.8026 254.131 51.6948 254.605 51.4792 255.026C51.2744 255.446 50.9941 255.802 50.6384 256.093C50.2826 256.373 49.8784 256.589 49.4256 256.74C48.9836 256.901 48.5201 256.982 48.035 256.982C47.3774 256.982 46.763 256.853 46.1916 256.594C45.6311 256.325 45.1352 255.969 44.704 255.527C44.2836 255.085 43.9494 254.605 43.7014 254.088L45.1244 253.085ZM55.394 253.829C55.394 254.357 55.5072 254.767 55.7336 255.058C55.9599 255.349 56.3103 255.495 56.7846 255.495C57.108 255.495 57.3937 255.425 57.6416 255.284C57.8896 255.144 58.0836 254.95 58.2237 254.702C58.3639 254.454 58.434 254.163 58.434 253.829V249.302H60.1803V256.74H58.434V255.592C58.1968 256.023 57.8896 256.352 57.5123 256.578C57.1457 256.794 56.7038 256.901 56.1863 256.901C55.3563 256.901 54.7149 256.643 54.2621 256.125C53.8201 255.608 53.5991 254.907 53.5991 254.023V249.302H55.394V253.829ZM61.9901 257.241H63.7365C63.7472 257.575 63.8389 257.872 64.0113 258.13C64.1838 258.4 64.4264 258.61 64.739 258.761C65.0516 258.923 65.4181 259.004 65.8386 259.004C66.1943 259.004 66.5393 258.917 66.8734 258.745C67.2076 258.572 67.4771 258.308 67.6819 257.953C67.8975 257.597 68.0053 257.139 68.0053 256.578V249.302H69.7194V256.578C69.7194 257.473 69.5361 258.211 69.1696 258.793C68.8138 259.375 68.3449 259.807 67.7628 260.087C67.1807 260.378 66.55 260.524 65.8709 260.524C65.0732 260.524 64.3886 260.383 63.8173 260.103C63.246 259.834 62.804 259.451 62.4914 258.955C62.1787 258.459 62.0117 257.888 61.9901 257.241ZM61.8446 252.972C61.8446 252.153 62.0117 251.463 62.3458 250.902C62.68 250.331 63.122 249.894 63.6718 249.593C64.2323 249.291 64.8306 249.14 65.4666 249.14C66.0919 249.14 66.6363 249.296 67.0998 249.609C67.5741 249.911 67.946 250.347 68.2155 250.919C68.4958 251.479 68.636 252.164 68.636 252.972C68.636 253.77 68.4958 254.46 68.2155 255.042C67.946 255.613 67.5741 256.055 67.0998 256.368C66.6363 256.67 66.0919 256.821 65.4666 256.821C64.8306 256.821 64.2323 256.67 63.6718 256.368C63.122 256.066 62.68 255.629 62.3458 255.058C62.0117 254.487 61.8446 253.791 61.8446 252.972ZM63.6556 252.972C63.6556 253.468 63.758 253.894 63.9628 254.25C64.1677 254.595 64.4372 254.859 64.7713 255.042C65.1163 255.214 65.4882 255.301 65.8871 255.301C66.232 255.301 66.5662 255.214 66.8896 255.042C67.213 254.859 67.4771 254.595 67.6819 254.25C67.8975 253.905 68.0053 253.479 68.0053 252.972C68.0053 252.595 67.9407 252.266 67.8113 251.986C67.6927 251.695 67.531 251.452 67.3262 251.258C67.1214 251.053 66.895 250.902 66.6471 250.805C66.3991 250.708 66.1458 250.66 65.8871 250.66C65.4882 250.66 65.1163 250.751 64.7713 250.935C64.4372 251.107 64.1677 251.366 63.9628 251.711C63.758 252.056 63.6556 252.476 63.6556 252.972ZM71.4647 257.241H73.2111C73.2218 257.575 73.3135 257.872 73.486 258.13C73.6584 258.4 73.901 258.61 74.2136 258.761C74.5262 258.923 74.8927 259.004 75.3132 259.004C75.6689 259.004 76.0139 258.917 76.348 258.745C76.6822 258.572 76.9517 258.308 77.1565 257.953C77.3721 257.597 77.4799 257.139 77.4799 256.578V249.302H79.194V256.578C79.194 257.473 79.0107 258.211 78.6442 258.793C78.2884 259.375 77.8195 259.807 77.2374 260.087C76.6553 260.378 76.0246 260.524 75.3455 260.524C74.5478 260.524 73.8633 260.383 73.2919 260.103C72.7206 259.834 72.2786 259.451 71.966 258.955C71.6534 258.459 71.4863 257.888 71.4647 257.241ZM71.3192 252.972C71.3192 252.153 71.4863 251.463 71.8204 250.902C72.1546 250.331 72.5966 249.894 73.1464 249.593C73.7069 249.291 74.3052 249.14 74.9413 249.14C75.5665 249.14 76.1109 249.296 76.5744 249.609C77.0487 249.911 77.4207 250.347 77.6902 250.919C77.9704 251.479 78.1106 252.164 78.1106 252.972C78.1106 253.77 77.9704 254.46 77.6902 255.042C77.4207 255.613 77.0487 256.055 76.5744 256.368C76.1109 256.67 75.5665 256.821 74.9413 256.821C74.3052 256.821 73.7069 256.67 73.1464 256.368C72.5966 256.066 72.1546 255.629 71.8204 255.058C71.4863 254.487 71.3192 253.791 71.3192 252.972ZM73.1302 252.972C73.1302 253.468 73.2326 253.894 73.4374 254.25C73.6423 254.595 73.9118 254.859 74.2459 255.042C74.5909 255.214 74.9628 255.301 75.3617 255.301C75.7066 255.301 76.0408 255.214 76.3642 255.042C76.6876 254.859 76.9517 254.595 77.1565 254.25C77.3721 253.905 77.4799 253.479 77.4799 252.972C77.4799 252.595 77.4153 252.266 77.2859 251.986C77.1673 251.695 77.0056 251.452 76.8008 251.258C76.596 251.053 76.3696 250.902 76.1217 250.805C75.8737 250.708 75.6204 250.66 75.3617 250.66C74.9628 250.66 74.5909 250.751 74.2459 250.935C73.9118 251.107 73.6423 251.366 73.4374 251.711C73.2326 252.056 73.1302 252.476 73.1302 252.972ZM84.5937 256.901C83.8391 256.901 83.1708 256.74 82.5887 256.416C82.0173 256.093 81.5753 255.64 81.2627 255.058C80.9501 254.476 80.7938 253.797 80.7938 253.021C80.7938 252.234 80.9501 251.549 81.2627 250.967C81.5861 250.385 82.0389 249.938 82.621 249.625C83.2031 249.302 83.8876 249.14 84.6746 249.14C85.4615 249.14 86.1299 249.291 86.6797 249.593C87.2402 249.894 87.666 250.331 87.9571 250.902C88.2482 251.463 88.3937 252.142 88.3937 252.94C88.3937 253.026 88.3883 253.118 88.3775 253.215C88.3775 253.312 88.3775 253.382 88.3775 253.425H81.8448V252.212H86.8737L86.3401 252.956C86.3724 252.891 86.4048 252.805 86.4371 252.697C86.4802 252.589 86.5018 252.498 86.5018 252.422C86.5018 252.024 86.4209 251.679 86.2592 251.388C86.1083 251.096 85.8927 250.87 85.6124 250.708C85.3429 250.547 85.0249 250.466 84.6584 250.466C84.2164 250.466 83.8391 250.563 83.5265 250.757C83.2247 250.951 82.9875 251.231 82.815 251.598C82.6533 251.964 82.5725 252.417 82.5725 252.956C82.5617 253.484 82.6372 253.937 82.7989 254.314C82.9713 254.692 83.2139 254.977 83.5265 255.171C83.8391 255.365 84.2218 255.462 84.6746 255.462C85.1597 255.462 85.5801 255.365 85.9358 255.171C86.2916 254.977 86.5826 254.681 86.809 254.282L88.329 254.88C87.9301 255.549 87.4235 256.055 86.809 256.4C86.1946 256.734 85.4561 256.901 84.5937 256.901ZM90.4159 254.282C90.6639 254.551 90.9064 254.778 91.1436 254.961C91.3808 255.144 91.6233 255.284 91.8712 255.381C92.1192 255.479 92.3671 255.527 92.6151 255.527C92.9277 255.527 93.1702 255.457 93.3427 255.317C93.526 255.177 93.6176 254.983 93.6176 254.735C93.6176 254.519 93.5475 254.336 93.4074 254.185C93.2673 254.023 93.0732 253.888 92.8253 253.781C92.5773 253.662 92.2863 253.544 91.9521 253.425C91.6179 253.296 91.2837 253.145 90.9496 252.972C90.6262 252.789 90.3567 252.552 90.1411 252.261C89.9362 251.97 89.8338 251.603 89.8338 251.161C89.8338 250.708 89.947 250.331 90.1734 250.029C90.4106 249.727 90.7232 249.506 91.1113 249.366C91.5101 249.215 91.9359 249.14 92.3887 249.14C92.7983 249.14 93.181 249.199 93.5368 249.318C93.9033 249.436 94.2321 249.593 94.5231 249.787C94.8142 249.981 95.0621 250.202 95.2669 250.45L94.2967 251.485C94.0596 251.193 93.7685 250.956 93.4236 250.773C93.0786 250.59 92.7229 250.498 92.3563 250.498C92.0976 250.498 91.8874 250.552 91.7257 250.66C91.564 250.768 91.4832 250.924 91.4832 251.129C91.4832 251.301 91.5532 251.458 91.6934 251.598C91.8443 251.727 92.0383 251.846 92.2755 251.953C92.5234 252.061 92.7983 252.174 93.1002 252.293C93.5206 252.455 93.9033 252.633 94.2482 252.827C94.5932 253.021 94.8681 253.258 95.0729 253.538C95.2777 253.818 95.3801 254.185 95.3801 254.638C95.3801 255.338 95.1376 255.904 94.6525 256.336C94.1782 256.756 93.5368 256.966 92.7283 256.966C92.2108 256.966 91.7419 256.891 91.3215 256.74C90.901 256.578 90.5291 256.373 90.2057 256.125C89.8823 255.867 89.6128 255.597 89.3972 255.317L90.4159 254.282ZM95.8948 249.302H100.115V250.838H95.8948V249.302ZM97.1561 246.714H98.8701V256.74H97.1561V246.714Z" fill="#F1F1F1"/>
<path d="M2.81472 293.6V291.918H8.52273V293.6H2.81472ZM2.81472 283.962V282.281H8.52273V283.962H2.81472ZM2.81472 288.361V286.711H8.19933V288.361H2.81472ZM1.63431 282.281H3.51003V293.6H1.63431V282.281ZM15.0116 286.162H16.9681L14.3001 289.768L17.1298 293.6H15.1733L13.3946 291.045L11.6159 293.6H9.61079L12.4567 289.768L9.77249 286.162H11.7776L13.3946 288.49L15.0116 286.162ZM19.9409 297.157H18.1784V286.162H19.9409V297.157ZM26.1017 289.881C26.1017 290.7 25.9346 291.406 25.6004 291.999C25.2662 292.581 24.8242 293.028 24.2745 293.341C23.7247 293.643 23.1264 293.794 22.4796 293.794C21.8543 293.794 21.3046 293.638 20.8302 293.325C20.3667 293.002 20.0056 292.549 19.7469 291.967C19.4881 291.374 19.3588 290.678 19.3588 289.881C19.3588 289.072 19.4881 288.377 19.7469 287.795C20.0056 287.213 20.3667 286.76 20.8302 286.436C21.3046 286.113 21.8543 285.951 22.4796 285.951C23.1264 285.951 23.7247 286.108 24.2745 286.42C24.8242 286.733 25.2662 287.18 25.6004 287.762C25.9346 288.334 26.1017 289.04 26.1017 289.881ZM24.2906 289.881C24.2906 289.385 24.1882 288.964 23.9834 288.619C23.7786 288.264 23.5091 288 23.1749 287.827C22.8407 287.644 22.4688 287.552 22.0592 287.552C21.7142 287.552 21.38 287.644 21.0566 287.827C20.7332 288 20.4637 288.258 20.2481 288.603C20.0433 288.948 19.9409 289.374 19.9409 289.881C19.9409 290.387 20.0433 290.813 20.2481 291.158C20.4637 291.503 20.7332 291.767 21.0566 291.95C21.38 292.123 21.7142 292.209 22.0592 292.209C22.4688 292.209 22.8407 292.118 23.1749 291.934C23.5091 291.751 23.7786 291.487 23.9834 291.142C24.1882 290.797 24.2906 290.377 24.2906 289.881ZM27.765 280.987H29.5276V293.6H27.765V280.987ZM31.1784 289.881C31.1784 289.115 31.3509 288.442 31.6959 287.859C32.0516 287.277 32.5313 286.825 33.135 286.501C33.7494 286.167 34.434 286 35.1886 286C35.954 286 36.6385 286.167 37.2422 286.501C37.8458 286.825 38.3202 287.277 38.6651 287.859C39.0209 288.442 39.1987 289.115 39.1987 289.881C39.1987 290.635 39.0209 291.309 38.6651 291.902C38.3202 292.484 37.8458 292.942 37.2422 293.276C36.6385 293.6 35.954 293.761 35.1886 293.761C34.434 293.761 33.7494 293.6 33.135 293.276C32.5313 292.942 32.0516 292.484 31.6959 291.902C31.3509 291.309 31.1784 290.635 31.1784 289.881ZM32.9733 289.881C32.9733 290.344 33.0703 290.754 33.2643 291.11C33.4584 291.455 33.7225 291.729 34.0567 291.934C34.3909 292.128 34.7682 292.225 35.1886 292.225C35.609 292.225 35.9863 292.128 36.3205 291.934C36.6547 291.729 36.9188 291.455 37.1128 291.11C37.3068 290.754 37.4039 290.344 37.4039 289.881C37.4039 289.417 37.3068 289.008 37.1128 288.652C36.9188 288.296 36.6547 288.021 36.3205 287.827C35.9863 287.633 35.609 287.536 35.1886 287.536C34.7682 287.536 34.3909 287.633 34.0567 287.827C33.7225 288.021 33.4584 288.296 33.2643 288.652C33.0703 289.008 32.9733 289.417 32.9733 289.881ZM42.6018 286.162V293.6H40.8716V286.162H42.6018ZM44.8171 288.021C44.6661 287.892 44.5152 287.795 44.3643 287.73C44.2242 287.665 44.0463 287.633 43.8307 287.633C43.5396 287.633 43.3025 287.709 43.1192 287.859C42.9359 288.01 42.8012 288.221 42.715 288.49C42.6395 288.749 42.6018 289.056 42.6018 289.412L42.0196 289.072C42.0196 288.479 42.1274 287.956 42.343 287.504C42.5694 287.04 42.8551 286.674 43.2001 286.404C43.5558 286.124 43.9223 285.984 44.2996 285.984C44.5691 285.984 44.8224 286.027 45.0596 286.113C45.2968 286.199 45.5016 286.345 45.6741 286.55L44.8171 288.021ZM49.8693 293.761C49.1147 293.761 48.4463 293.6 47.8642 293.276C47.2929 292.953 46.8509 292.5 46.5383 291.918C46.2257 291.336 46.0693 290.657 46.0693 289.881C46.0693 289.094 46.2257 288.409 46.5383 287.827C46.8617 287.245 47.3144 286.798 47.8966 286.485C48.4787 286.162 49.1632 286 49.9501 286C50.7371 286 51.4054 286.151 51.9552 286.453C52.5158 286.754 52.9416 287.191 53.2327 287.762C53.5237 288.323 53.6692 289.002 53.6692 289.8C53.6692 289.886 53.6639 289.978 53.6531 290.075C53.6531 290.172 53.6531 290.242 53.6531 290.285H47.1204V289.072H52.1493L51.6157 289.816C51.648 289.751 51.6803 289.665 51.7127 289.557C51.7558 289.449 51.7774 289.358 51.7774 289.282C51.7774 288.884 51.6965 288.539 51.5348 288.248C51.3839 287.956 51.1683 287.73 50.888 287.568C50.6185 287.407 50.3005 287.326 49.934 287.326C49.492 287.326 49.1147 287.423 48.8021 287.617C48.5002 287.811 48.2631 288.091 48.0906 288.458C47.9289 288.824 47.848 289.277 47.848 289.816C47.8373 290.344 47.9127 290.797 48.0744 291.174C48.2469 291.552 48.4895 291.837 48.8021 292.031C49.1147 292.225 49.4974 292.322 49.9501 292.322C50.4352 292.322 50.8557 292.225 51.2114 292.031C51.5671 291.837 51.8582 291.541 52.0846 291.142L53.6046 291.74C53.2057 292.409 52.699 292.915 52.0846 293.26C51.4701 293.594 50.7317 293.761 49.8693 293.761ZM61.7036 290.689L62.0755 289.072H67.3307L67.6865 290.689H61.7036ZM64.6627 285.482L62.884 289.638L62.8517 290.059L61.2832 293.6H59.1326L64.6627 281.65L70.209 293.6H68.0422L66.5061 290.156L66.4737 289.687L64.6627 285.482ZM71.364 280.987H73.1266V293.6H71.364V280.987ZM75.3434 280.987H77.1059V293.6H75.3434V280.987ZM83.1842 284.043V282.281H91.0751V284.043H88.0837V293.6H86.1756V284.043H83.1842ZM90.1421 289.881C90.1421 289.115 90.3145 288.442 90.6595 287.859C91.0152 287.277 91.495 286.825 92.0986 286.501C92.7131 286.167 93.3976 286 94.1522 286C94.9176 286 95.6021 286.167 96.2058 286.501C96.8095 286.825 97.2838 287.277 97.6288 287.859C97.9845 288.442 98.1624 289.115 98.1624 289.881C98.1624 290.635 97.9845 291.309 97.6288 291.902C97.2838 292.484 96.8095 292.942 96.2058 293.276C95.6021 293.6 94.9176 293.761 94.1522 293.761C93.3976 293.761 92.7131 293.6 92.0986 293.276C91.495 292.942 91.0152 292.484 90.6595 291.902C90.3145 291.309 90.1421 290.635 90.1421 289.881ZM91.9369 289.881C91.9369 290.344 92.034 290.754 92.228 291.11C92.422 291.455 92.6861 291.729 93.0203 291.934C93.3545 292.128 93.7318 292.225 94.1522 292.225C94.5726 292.225 94.9499 292.128 95.2841 291.934C95.6183 291.729 95.8824 291.455 96.0765 291.11C96.2705 290.754 96.3675 290.344 96.3675 289.881C96.3675 289.417 96.2705 289.008 96.0765 288.652C95.8824 288.296 95.6183 288.021 95.2841 287.827C94.9499 287.633 94.5726 287.536 94.1522 287.536C93.7318 287.536 93.3545 287.633 93.0203 287.827C92.6861 288.021 92.422 288.296 92.228 288.652C92.034 289.008 91.9369 289.417 91.9369 289.881ZM99.2693 289.881C99.2693 289.115 99.4418 288.442 99.7867 287.859C100.142 287.277 100.622 286.825 101.226 286.501C101.84 286.167 102.525 286 103.279 286C104.045 286 104.729 286.167 105.333 286.501C105.937 286.825 106.411 287.277 106.756 287.859C107.112 288.442 107.29 289.115 107.29 289.881C107.29 290.635 107.112 291.309 106.756 291.902C106.411 292.484 105.937 292.942 105.333 293.276C104.729 293.6 104.045 293.761 103.279 293.761C102.525 293.761 101.84 293.6 101.226 293.276C100.622 292.942 100.142 292.484 99.7867 291.902C99.4418 291.309 99.2693 290.635 99.2693 289.881ZM101.064 289.881C101.064 290.344 101.161 290.754 101.355 291.11C101.549 291.455 101.813 291.729 102.148 291.934C102.482 292.128 102.859 292.225 103.279 292.225C103.7 292.225 104.077 292.128 104.411 291.934C104.746 291.729 105.01 291.455 105.204 291.11C105.398 290.754 105.495 290.344 105.495 289.881C105.495 289.417 105.398 289.008 105.204 288.652C105.01 288.296 104.746 288.021 104.411 287.827C104.077 287.633 103.7 287.536 103.279 287.536C102.859 287.536 102.482 287.633 102.148 287.827C101.813 288.021 101.549 288.296 101.355 288.652C101.161 289.008 101.064 289.417 101.064 289.881ZM108.962 280.987H110.725V293.6H108.962V280.987ZM113.281 291.142C113.529 291.411 113.772 291.638 114.009 291.821C114.246 292.004 114.489 292.144 114.737 292.242C114.985 292.339 115.233 292.387 115.48 292.387C115.793 292.387 116.036 292.317 116.208 292.177C116.391 292.037 116.483 291.843 116.483 291.595C116.483 291.379 116.413 291.196 116.273 291.045C116.133 290.883 115.939 290.748 115.691 290.641C115.443 290.522 115.152 290.404 114.817 290.285C114.483 290.156 114.149 290.005 113.815 289.832C113.492 289.649 113.222 289.412 113.006 289.121C112.802 288.83 112.699 288.463 112.699 288.021C112.699 287.568 112.812 287.191 113.039 286.889C113.276 286.587 113.589 286.366 113.977 286.226C114.376 286.075 114.801 286 115.254 286C115.664 286 116.046 286.059 116.402 286.178C116.769 286.296 117.097 286.453 117.389 286.647C117.68 286.841 117.928 287.062 118.132 287.31L117.162 288.345C116.925 288.053 116.634 287.816 116.289 287.633C115.944 287.45 115.588 287.358 115.222 287.358C114.963 287.358 114.753 287.412 114.591 287.52C114.429 287.628 114.349 287.784 114.349 287.989C114.349 288.161 114.419 288.318 114.559 288.458C114.71 288.587 114.904 288.706 115.141 288.813C115.389 288.921 115.664 289.034 115.966 289.153C116.386 289.315 116.769 289.493 117.114 289.687C117.459 289.881 117.733 290.118 117.938 290.398C118.143 290.678 118.246 291.045 118.246 291.498C118.246 292.198 118.003 292.764 117.518 293.196C117.044 293.616 116.402 293.826 115.594 293.826C115.076 293.826 114.607 293.751 114.187 293.6C113.766 293.438 113.395 293.233 113.071 292.985C112.748 292.727 112.478 292.457 112.263 292.177L113.281 291.142Z" fill="#F1F1F1"/>
<rect x="0.373047" y="34.65" width="145.53" height="2.31" rx="1.155" fill="#2D83EE"/>
<path d="M3.76182 14.7235C3.76182 15.7491 3.98358 16.6639 4.4271 17.4678C4.88448 18.2578 5.49432 18.8815 6.25662 19.3389C7.01892 19.7824 7.88517 20.0042 8.85537 20.0042C9.82557 20.0042 10.678 19.7893 11.4125 19.3597C12.161 18.9161 12.75 18.3063 13.1797 17.5301C13.6094 16.754 13.8242 15.8669 13.8242 14.869C13.8242 13.8711 13.6094 12.9702 13.1797 12.1663C12.75 11.3624 12.1541 10.7249 11.3918 10.2536C10.6433 9.78241 9.7632 9.54679 8.75142 9.54679C7.78122 9.54679 6.9219 9.76855 6.17346 10.2121C5.42502 10.6556 4.83597 11.2724 4.40631 12.0624C3.97665 12.8385 3.76182 13.7256 3.76182 14.7235ZM1.16307 14.7235C1.16307 13.6286 1.35018 12.6237 1.7244 11.7089C2.11248 10.7942 2.64609 10.0042 3.32523 9.33889C4.01823 8.65975 4.82211 8.13307 5.73687 7.75885C6.66549 7.37077 7.67034 7.17673 8.75142 7.17673C9.8325 7.17673 10.8304 7.37077 11.7452 7.75885C12.6599 8.13307 13.4569 8.65975 14.136 9.33889C14.8152 10.0042 15.3419 10.7942 15.7161 11.7089C16.0903 12.6237 16.2774 13.6286 16.2774 14.7235C16.2774 15.8046 16.0903 16.8094 15.7161 17.738C15.3557 18.6667 14.836 19.4705 14.1568 20.1497C13.4777 20.8288 12.6807 21.3624 11.766 21.7505C10.8512 22.1247 9.84636 22.3119 8.75142 22.3119C7.65648 22.3119 6.6447 22.1247 5.71608 21.7505C4.80132 21.3624 3.99744 20.8288 3.30444 20.1497C2.6253 19.4705 2.09862 18.6667 1.7244 17.738C1.35018 16.8094 1.16307 15.8046 1.16307 14.7235ZM8.06535 15.763H10.8928L17.4416 22.104H14.5726L8.06535 15.763ZM21.1695 18.2578C21.1695 18.9369 21.3151 19.4636 21.6061 19.8378C21.8972 20.2121 22.3476 20.3992 22.9575 20.3992C23.3733 20.3992 23.7406 20.3091 24.0594 20.1289C24.3781 19.9487 24.6276 19.6992 24.8078 19.3805C24.988 19.0617 25.0781 18.6875 25.0781 18.2578V12.4366H27.3234V22H25.0781V20.5239C24.7731 21.0783 24.3781 21.501 23.893 21.7921C23.4218 22.0693 22.8535 22.2079 22.1883 22.2079C21.121 22.2079 20.2964 21.8753 19.7142 21.21C19.146 20.5447 18.8619 19.6438 18.8619 18.5073V12.4366H21.1695V18.2578ZM30.1076 8.63203C30.1076 8.24395 30.2462 7.91824 30.5234 7.6549C30.8145 7.39156 31.1471 7.25989 31.5213 7.25989C31.9233 7.25989 32.2629 7.39156 32.5401 7.6549C32.8173 7.91824 32.9559 8.24395 32.9559 8.63203C32.9559 9.00625 32.8173 9.33196 32.5401 9.60916C32.2629 9.8725 31.9233 10.0042 31.5213 10.0042C31.1471 10.0042 30.8145 9.8725 30.5234 9.60916C30.2462 9.33196 30.1076 9.00625 30.1076 8.63203ZM30.4195 12.4366H32.644V22H30.4195V12.4366ZM35.7334 5.7838H37.9995V22H35.7334V5.7838ZM40.8497 5.7838H43.1158V22H40.8497V5.7838ZM53.9037 22V19.8378H61.2426V22H53.9037ZM53.9037 9.60916V7.447H61.2426V9.60916H53.9037ZM53.9037 15.264V13.1435H60.8268V15.264H53.9037ZM52.3861 7.447H54.7977V22H52.3861V7.447ZM65.5729 17.2183C65.5729 17.8143 65.7046 18.341 65.9679 18.7983C66.2313 19.2557 66.5847 19.6161 67.0282 19.8794C67.4856 20.1428 67.9915 20.2744 68.5459 20.2744C69.0171 20.2744 69.4537 20.2051 69.8557 20.0665C70.2715 19.9141 70.6388 19.72 70.9575 19.4844C71.2763 19.2349 71.5119 18.9577 71.6644 18.6528V21.1268C71.3318 21.4595 70.8813 21.7228 70.3131 21.9168C69.7448 22.1109 69.1211 22.2079 68.442 22.2079C67.4718 22.2079 66.5916 22 65.8016 21.5842C65.0255 21.1545 64.4087 20.5655 63.9513 19.817C63.4939 19.0547 63.2652 18.1885 63.2652 17.2183C63.2652 16.2342 63.4939 15.368 63.9513 14.6195C64.4087 13.8711 65.0255 13.289 65.8016 12.8732C66.5916 12.4435 67.4718 12.2287 68.442 12.2287C69.1211 12.2287 69.7448 12.3257 70.3131 12.5198C70.8813 12.7138 71.3318 12.9702 71.6644 13.289V15.7838C71.5119 15.465 71.2694 15.1878 70.9368 14.9522C70.618 14.7027 70.2507 14.5087 69.8349 14.3701C69.4191 14.2315 68.9894 14.1622 68.5459 14.1622C67.9915 14.1622 67.4856 14.2938 67.0282 14.5572C66.5847 14.8205 66.2313 15.1809 65.9679 15.6383C65.7046 16.0956 65.5729 16.6223 65.5729 17.2183ZM73.4186 17.2183C73.4186 16.2342 73.6403 15.368 74.0838 14.6195C74.5412 13.8711 75.158 13.289 75.9342 12.8732C76.7242 12.4435 77.6043 12.2287 78.5745 12.2287C79.5585 12.2287 80.4387 12.4435 81.2148 12.8732C81.991 13.289 82.6008 13.8711 83.0443 14.6195C83.5017 15.368 83.7304 16.2342 83.7304 17.2183C83.7304 18.1885 83.5017 19.0547 83.0443 19.817C82.6008 20.5655 81.991 21.1545 81.2148 21.5842C80.4387 22 79.5585 22.2079 78.5745 22.2079C77.6043 22.2079 76.7242 22 75.9342 21.5842C75.158 21.1545 74.5412 20.5655 74.0838 19.817C73.6403 19.0547 73.4186 18.1885 73.4186 17.2183ZM75.7263 17.2183C75.7263 17.8143 75.851 18.341 76.1005 18.7983C76.35 19.2419 76.6895 19.5953 77.1192 19.8586C77.5488 20.1081 78.0339 20.2328 78.5745 20.2328C79.115 20.2328 79.6001 20.1081 80.0298 19.8586C80.4595 19.5953 80.799 19.2419 81.0485 18.7983C81.298 18.341 81.4227 17.8143 81.4227 17.2183C81.4227 16.6223 81.298 16.0956 81.0485 15.6383C80.799 15.1809 80.4595 14.8274 80.0298 14.578C79.6001 14.3285 79.115 14.2037 78.5745 14.2037C78.0339 14.2037 77.5488 14.3285 77.1192 14.578C76.6895 14.8274 76.35 15.1809 76.1005 15.6383C75.851 16.0956 75.7263 16.6223 75.7263 17.2183ZM86.3178 18.8399C86.6366 19.1864 86.9484 19.4775 87.2533 19.7131C87.5583 19.9487 87.8701 20.1289 88.1889 20.2536C88.5077 20.3784 88.8264 20.4407 89.1452 20.4407C89.5472 20.4407 89.859 20.3507 90.0808 20.1705C90.3164 19.9903 90.4342 19.7408 90.4342 19.422C90.4342 19.1448 90.3441 18.9092 90.1639 18.7152C89.9838 18.5073 89.7343 18.334 89.4155 18.1954C89.0967 18.043 88.7225 17.8905 88.2928 17.738C87.8632 17.5717 87.4335 17.3777 87.0039 17.1559C86.5881 16.9203 86.2416 16.6154 85.9644 16.2412C85.701 15.8669 85.5693 15.3957 85.5693 14.8274C85.5693 14.2453 85.7149 13.7602 86.0059 13.3721C86.3109 12.9841 86.7128 12.6999 87.2118 12.5198C87.7246 12.3257 88.272 12.2287 88.8542 12.2287C89.3808 12.2287 89.8729 12.3049 90.3303 12.4574C90.8015 12.6098 91.2242 12.8108 91.5984 13.0603C91.9727 13.3098 92.2914 13.5939 92.5548 13.9127L91.3074 15.2432C91.0025 14.869 90.6282 14.5641 90.1847 14.3285C89.7412 14.0929 89.2838 13.9751 88.8126 13.9751C88.4799 13.9751 88.2097 14.0444 88.0018 14.183C87.7939 14.3216 87.6899 14.5225 87.6899 14.7859C87.6899 15.0076 87.78 15.2086 87.9602 15.3888C88.1542 15.5551 88.4037 15.7076 88.7086 15.8462C89.0274 15.9848 89.3808 16.1303 89.7689 16.2827C90.3095 16.4906 90.8015 16.7193 91.245 16.9688C91.6885 17.2183 92.042 17.5232 92.3053 17.8836C92.5686 18.2439 92.7003 18.7152 92.7003 19.2973C92.7003 20.1982 92.3885 20.9258 91.7648 21.4802C91.1549 22.0208 90.3303 22.2911 89.2908 22.2911C88.6255 22.2911 88.0226 22.194 87.482 22C86.9415 21.7921 86.4633 21.5288 86.0475 21.21C85.6317 20.8773 85.2852 20.5308 85.008 20.1705L86.3178 18.8399ZM103.053 12.4366L96.8156 26.5738H94.4248L96.9403 20.8773L93.0734 12.4366H95.6514L98.7075 20.0042L97.6472 19.9418L100.641 12.4366H103.053ZM104.854 18.8399C105.173 19.1864 105.485 19.4775 105.79 19.7131C106.095 19.9487 106.407 20.1289 106.725 20.2536C107.044 20.3784 107.363 20.4407 107.682 20.4407C108.084 20.4407 108.395 20.3507 108.617 20.1705C108.853 19.9903 108.971 19.7408 108.971 19.422C108.971 19.1448 108.881 18.9092 108.7 18.7152C108.52 18.5073 108.271 18.334 107.952 18.1954C107.633 18.043 107.259 17.8905 106.829 17.738C106.4 17.5717 105.97 17.3777 105.54 17.1559C105.124 16.9203 104.778 16.6154 104.501 16.2412C104.237 15.8669 104.106 15.3957 104.106 14.8274C104.106 14.2453 104.251 13.7602 104.542 13.3721C104.847 12.9841 105.249 12.6999 105.748 12.5198C106.261 12.3257 106.808 12.2287 107.391 12.2287C107.917 12.2287 108.409 12.3049 108.867 12.4574C109.338 12.6098 109.761 12.8108 110.135 13.0603C110.509 13.3098 110.828 13.5939 111.091 13.9127L109.844 15.2432C109.539 14.869 109.165 14.5641 108.721 14.3285C108.278 14.0929 107.82 13.9751 107.349 13.9751C107.016 13.9751 106.746 14.0444 106.538 14.183C106.33 14.3216 106.226 14.5225 106.226 14.7859C106.226 15.0076 106.316 15.2086 106.497 15.3888C106.691 15.5551 106.94 15.7076 107.245 15.8462C107.564 15.9848 107.917 16.1303 108.305 16.2827C108.846 16.4906 109.338 16.7193 109.781 16.9688C110.225 17.2183 110.578 17.5232 110.842 17.8836C111.105 18.2439 111.237 18.7152 111.237 19.2973C111.237 20.1982 110.925 20.9258 110.301 21.4802C109.691 22.0208 108.867 22.2911 107.827 22.2911C107.162 22.2911 106.559 22.194 106.018 22C105.478 21.7921 105 21.5288 104.584 21.21C104.168 20.8773 103.822 20.5308 103.544 20.1705L104.854 18.8399ZM111.898 12.4366H117.325V14.4116H111.898V12.4366ZM113.52 9.1102H115.724V22H113.52V9.1102ZM123.031 22.2079C122.061 22.2079 121.202 22 120.453 21.5842C119.719 21.1684 119.15 20.5863 118.748 19.8378C118.346 19.0894 118.145 18.2162 118.145 17.2183C118.145 16.2065 118.346 15.3264 118.748 14.578C119.164 13.8295 119.746 13.2543 120.495 12.8524C121.243 12.4366 122.123 12.2287 123.135 12.2287C124.147 12.2287 125.006 12.4227 125.713 12.8108C126.434 13.1989 126.981 13.7602 127.355 14.4948C127.73 15.2155 127.917 16.0887 127.917 17.1143C127.917 17.2252 127.91 17.343 127.896 17.4678C127.896 17.5925 127.896 17.6826 127.896 17.738H119.497V16.1788H125.963L125.276 17.1351C125.318 17.052 125.36 16.9411 125.401 16.8025C125.457 16.6639 125.484 16.5461 125.484 16.4491C125.484 15.9362 125.38 15.4927 125.173 15.1185C124.978 14.7443 124.701 14.4532 124.341 14.2453C123.994 14.0374 123.586 13.9335 123.114 13.9335C122.546 13.9335 122.061 14.0582 121.659 14.3077C121.271 14.5572 120.966 14.9175 120.744 15.3888C120.536 15.86 120.432 16.4421 120.432 17.1351C120.419 17.8143 120.516 18.3964 120.723 18.8815C120.945 19.3666 121.257 19.7339 121.659 19.9834C122.061 20.2328 122.553 20.3576 123.135 20.3576C123.759 20.3576 124.299 20.2328 124.757 19.9834C125.214 19.7339 125.588 19.3527 125.879 18.8399L127.834 19.6091C127.321 20.4685 126.669 21.1199 125.879 21.5634C125.089 21.9931 124.14 22.2079 123.031 22.2079ZM143.781 15.9085V22H141.515V16.1788C141.515 15.4581 141.383 14.9245 141.12 14.578C140.87 14.2176 140.475 14.0374 139.935 14.0374C139.547 14.0374 139.207 14.1206 138.916 14.2869C138.639 14.4532 138.417 14.6958 138.251 15.0146C138.098 15.3333 138.022 15.7214 138.022 16.1788V22H135.777V16.1788C135.777 15.4581 135.645 14.9245 135.382 14.578C135.132 14.2176 134.73 14.0374 134.176 14.0374C133.802 14.0374 133.469 14.1206 133.178 14.2869C132.901 14.4532 132.679 14.6958 132.513 15.0146C132.36 15.3333 132.284 15.7214 132.284 16.1788V22H130.08V12.4366H132.284V13.8295C132.575 13.3028 132.942 12.9078 133.386 12.6445C133.829 12.3673 134.363 12.2287 134.987 12.2287C135.68 12.2287 136.255 12.3742 136.712 12.6653C137.184 12.9563 137.523 13.3791 137.731 13.9335C138.077 13.3652 138.5 12.9425 138.999 12.6653C139.512 12.3742 140.087 12.2287 140.725 12.2287C141.418 12.2287 141.986 12.3742 142.43 12.6653C142.873 12.9425 143.206 13.3583 143.427 13.9127C143.663 14.4671 143.781 15.1324 143.781 15.9085Z" fill="white"/>
</svg>
