<svg width="416" height="24" viewBox="0 0 416 24" fill="none" xmlns="http://www.w3.org/2000/svg">
<path d="M22.3551 21.5634L14.6162 10.5741L13.7412 9.33132L8.20341 1.47179L7.74451 0.819977H0.942871L2.60147 3.17633L9.96315 13.6297L10.8382 14.8706L16.7532 23.2699L17.212 23.9197H24.0156L22.3551 21.5634ZM18.019 22.4147L11.8745 13.6886L10.9995 12.4459L3.86926 2.32308H6.93566L12.7029 10.5114L13.5779 11.7542L21.0873 22.4166H18.019V22.4147Z" fill="#DDDDDD"/>
<path d="M11.0004 12.448L11.8754 13.6907L10.839 14.8708L2.87845 23.9199H0.916504L9.96403 13.63L11.0004 12.448Z" fill="#DDDDDD"/>
<path d="M23.1964 0.819977L14.6175 10.5741L13.5791 11.7542L12.7041 10.5114L13.7424 9.33132L19.5544 2.72027L21.2344 0.819977H23.1964Z" fill="#DDDDDD"/>
<path d="M81.5094 0.819946C82.1901 0.819946 82.8429 1.09036 83.3243 1.57171C83.8057 2.05305 84.0761 2.70589 84.0761 3.38661V21.3533C84.0761 22.034 83.8057 22.6868 83.3243 23.1682C82.8429 23.6495 82.1901 23.9199 81.5094 23.9199H63.5427C62.862 23.9199 62.2092 23.6495 61.7278 23.1682C61.2465 22.6868 60.9761 22.034 60.9761 21.3533V3.38661C60.9761 2.70589 61.2465 2.05305 61.7278 1.57171C62.2092 1.09036 62.862 0.819946 63.5427 0.819946H81.5094ZM80.8677 20.7116V13.9099C80.8677 12.8004 80.4269 11.7362 79.6424 10.9516C78.8578 10.1671 77.7936 9.72628 76.6841 9.72628C75.5932 9.72628 74.3227 10.3936 73.7067 11.3946V9.97011H70.1262V20.7116H73.7067V14.3848C73.7067 13.3966 74.5024 12.5881 75.4906 12.5881C75.9671 12.5881 76.4241 12.7774 76.7609 13.1144C77.0979 13.4513 77.2872 13.9083 77.2872 14.3848V20.7116H80.8677ZM65.9554 7.95528C66.5272 7.95528 67.0756 7.72813 67.4799 7.3238C67.8843 6.91948 68.1114 6.37108 68.1114 5.79928C68.1114 4.60578 67.1489 3.63045 65.9554 3.63045C65.3802 3.63045 64.8286 3.85894 64.4218 4.26568C64.0151 4.67242 63.7866 5.22406 63.7866 5.79928C63.7866 6.99278 64.7619 7.95528 65.9554 7.95528ZM67.7392 20.7116V9.97011H64.1844V20.7116H67.7392Z" fill="#DDDDDD"/>
<path fill-rule="evenodd" clip-rule="evenodd" d="M149.853 1.30477C149.83 1.20131 149.779 1.10569 149.705 1.02758C149.631 0.949478 149.537 0.891656 149.433 0.859984C149.054 0.787078 148.661 0.814081 148.296 0.938201C148.296 0.938201 122.997 9.76273 121.552 10.7399C121.242 10.95 121.137 11.0726 121.086 11.2162C120.835 11.9166 121.614 12.2178 121.614 12.2178L128.134 14.2795C128.245 14.2986 128.358 14.2922 128.465 14.2608C129.947 13.3514 143.383 5.11523 144.164 4.83855C144.284 4.80353 144.377 4.83855 144.353 4.92611C144.042 5.98262 132.432 15.9909 132.368 16.0516C132.337 16.0763 132.313 16.1081 132.298 16.1442C132.282 16.1803 132.277 16.2195 132.281 16.2583L131.673 22.4362C131.673 22.4362 131.417 24.359 133.399 22.4362C134.804 21.0715 136.153 19.9415 136.826 19.3916C139.069 20.8941 141.481 22.5553 142.522 23.4251C142.697 23.5894 142.904 23.718 143.131 23.8028C143.359 23.8876 143.602 23.9272 143.845 23.9189C144.145 23.8834 144.426 23.7602 144.652 23.5656C144.878 23.371 145.038 23.1143 145.109 22.8297C145.109 22.8297 149.717 4.82454 149.871 2.41265C149.887 2.17917 149.907 2.02507 149.91 1.8628C149.917 1.67516 149.898 1.4874 149.853 1.30477Z" fill="#DDDDDD"/>
<path fill-rule="evenodd" clip-rule="evenodd" d="M212.281 12.1412C212.281 10.3115 210.905 8.82489 209.211 8.82489C208.47 8.82489 207.834 9.0536 207.305 9.51103C205.399 8.25311 203.07 7.45261 200.529 7.33826L201.799 2.87836L205.399 3.79321C205.505 5.16549 206.564 6.30905 207.94 6.30905C209.317 6.30905 210.481 5.05113 210.481 3.5645C210.481 2.07787 209.317 0.819946 207.94 0.819946C206.987 0.819946 206.14 1.39173 205.717 2.30658L201.482 1.27737C201.164 1.16302 200.741 1.39173 200.635 1.7348L199.047 7.33826C196.4 7.45261 193.753 8.13875 191.847 9.51103C191.318 9.0536 190.683 8.82489 189.941 8.82489C188.247 8.82489 186.871 10.3115 186.871 12.1412C186.871 13.2848 187.4 14.314 188.142 14.8858C188.142 15.1145 188.142 15.4576 188.142 15.6863C188.142 17.9734 189.412 20.0318 191.635 21.6328C193.753 23.1195 196.612 23.9199 199.576 23.9199C202.541 23.9199 205.399 23.1195 207.517 21.6328C209.74 20.0318 211.011 17.9734 211.011 15.6863C211.011 15.4576 211.011 15.2289 211.011 15.0002C211.752 14.314 212.281 13.2848 212.281 12.1412ZM208.046 2.30658C208.681 2.30658 209.211 2.87836 209.211 3.5645C209.211 4.25064 208.681 4.82242 208.046 4.82242C207.411 4.82242 206.881 4.25064 206.881 3.5645C206.881 2.87836 207.411 2.30658 208.046 2.30658ZM194.071 14.1997C194.071 13.1705 194.918 12.37 195.765 12.37C196.717 12.37 197.459 13.2848 197.459 14.1997C197.459 15.1145 196.717 16.0294 195.765 16.0294C194.918 16.0294 194.071 15.2289 194.071 14.1997ZM203.811 19.5744C202.964 20.4893 201.588 20.9467 199.682 20.9467C197.776 20.9467 196.4 20.4893 195.553 19.5744C195.235 19.2313 195.235 18.7739 195.553 18.5452C195.87 18.2021 196.294 18.2021 196.506 18.5452C197.141 19.2313 198.2 19.5744 199.682 19.5744C201.164 19.5744 202.223 19.2313 202.858 18.5452C203.176 18.2021 203.599 18.2021 203.811 18.5452C204.023 18.8883 204.023 19.3457 203.811 19.5744ZM203.388 16.0294C202.435 16.0294 201.588 15.2289 201.588 14.1997C201.588 13.1705 202.435 12.37 203.388 12.37C204.34 12.37 205.082 13.2848 205.082 14.1997C205.082 15.1145 204.34 16.0294 203.388 16.0294Z" fill="#DDDDDD"/>
<path d="M267.486 12.37C267.486 17.4731 263.402 21.61 258.365 21.61C253.328 21.61 249.244 17.4731 249.244 12.37C249.244 7.26684 253.328 3.12996 258.365 3.12996C263.402 3.12996 267.486 7.26684 267.486 12.37Z" fill="#DDDDDD"/>
<path d="M277.491 12.3686C277.491 17.1724 275.449 21.0664 272.93 21.0664C270.411 21.0664 268.37 17.1721 268.37 12.3686C268.37 7.56511 270.411 3.67081 272.93 3.67081C275.449 3.67081 277.491 7.56511 277.491 12.3686Z" fill="#DDDDDD"/>
<path d="M281.583 12.3717C281.583 16.6757 280.865 20.1647 279.979 20.1647C279.093 20.1647 278.375 16.6757 278.375 12.3717C278.375 8.06775 279.093 4.57878 279.979 4.57878C280.865 4.57878 281.583 8.06775 281.583 12.3717Z" fill="#DDDDDD"/>
<path d="M343.979 2.75461C342.01 1.83894 339.926 1.18832 337.784 0.819946C337.517 1.2994 337.205 1.94424 336.99 2.45726C334.68 2.11209 332.392 2.11209 330.124 2.45726C329.909 1.94435 329.59 1.2994 329.321 0.819946C327.176 1.1885 325.091 1.84077 323.121 2.75939C319.2 8.64712 318.137 14.3884 318.669 20.0484C321.269 21.9781 323.789 23.1505 326.267 23.9176C326.883 23.0761 327.427 22.1853 327.894 21.2542C327.005 20.9177 326.147 20.5029 325.332 20.0148C325.546 19.8568 325.756 19.6921 325.96 19.521C330.901 21.8175 336.27 21.8175 341.152 19.521C341.357 19.6909 341.567 19.8556 341.78 20.0148C340.963 20.5042 340.104 20.9198 339.213 21.2567C339.683 22.1915 340.226 23.0832 340.84 23.9199C343.32 23.1528 345.843 21.9806 348.443 20.0484C349.067 13.4871 347.378 7.79846 343.979 2.75461ZM328.567 16.5676C327.084 16.5676 325.868 15.1915 325.868 13.5159C325.868 11.8402 327.058 10.4619 328.567 10.4619C330.077 10.4619 331.293 11.8378 331.267 13.5159C331.27 15.1915 330.077 16.5676 328.567 16.5676ZM338.544 16.5676C337.061 16.5676 335.845 15.1915 335.845 13.5159C335.845 11.8402 337.035 10.4619 338.544 10.4619C340.054 10.4619 341.27 11.8378 341.244 13.5159C341.244 15.1915 340.054 16.5676 338.544 16.5676Z" fill="#DDDDDD"/>
<path fill-rule="evenodd" clip-rule="evenodd" d="M415.311 5.76994C415.311 5.76994 415.061 3.43244 414.06 2.46994C412.934 1.09495 411.682 1.09495 411.057 1.09495C406.802 0.819946 400.546 0.819946 400.546 0.819946C400.546 0.819946 394.29 0.819946 390.036 1.09495C389.41 1.23245 388.159 1.23245 387.033 2.46994C386.157 3.43244 385.782 5.76994 385.782 5.76994C385.782 5.76994 385.531 8.38243 385.531 11.1325V13.6075C385.531 16.22 385.782 18.97 385.782 18.97C385.782 18.97 386.032 21.3075 387.033 22.2699C388.159 23.6449 389.66 23.5074 390.286 23.6449C392.663 23.9199 400.546 23.9199 400.546 23.9199C400.546 23.9199 406.802 23.9199 411.057 23.5074C411.682 23.3699 412.934 23.3699 414.06 22.1325C414.936 21.17 415.311 18.8325 415.311 18.8325C415.311 18.8325 415.561 16.22 415.561 13.47V10.995C415.561 8.38243 415.311 5.76994 415.311 5.76994ZM397.418 16.6325V7.41993L405.551 12.095L397.418 16.6325Z" fill="#DDDDDD"/>
</svg>
